{
  "header": {
    "keySignatures": [],
    "meta": [],
    "name": "spring01midi",
    "ppq": 960,
    "tempos": [
      {
        "bpm": 137.99987580011177,
        "ticks": 0
      }
    ],
    "timeSignatures": [
      {
        "ticks": 0,
        "timeSignature": [
          4,
          4
        ],
        "measures": 0
      }
    ]
  },
  "tracks": [
    {
      "channel": 0,
      "controlChanges": {},
      "pitchBends": [],
      "instrument": {
        "family": "piano",
        "number": 0,
        "name": "acoustic grand piano"
      },
      "name": "",
      "notes": [
        {
          "duration": 0.05434787500000127,
          "durationTicks": 120,
          "midi": 67,
          "name": "G4",
          "ticks": 28800,
          "time": 13.04349,
          "velocity": 0.7559055118110236
        },
        {
          "duration": 0.05434787499999949,
          "durationTicks": 120,
          "midi": 67,
          "name": "G4",
          "ticks": 29760,
          "time": 13.478273000000002,
          "velocity": 1
        },
        {
          "duration": 0.05434787499999949,
          "durationTicks": 120,
          "midi": 74,
          "name": "D5",
          "ticks": 30120,
          "time": 13.641316625000002,
          "velocity": 1
        },
        {
          "duration": 0.05434787500000127,
          "durationTicks": 120,
          "midi": 69,
          "name": "A4",
          "ticks": 30480,
          "time": 13.80436025,
          "velocity": 1
        },
        {
          "duration": 0.07382253020833218,
          "durationTicks": 163,
          "midi": 68,
          "name": "G#4",
          "ticks": 30677,
          "time": 13.893581344791668,
          "velocity": 1
        },
        {
          "duration": 1.3586968749999997,
          "durationTicks": 3000,
          "midi": 74,
          "name": "D5",
          "ticks": 30720,
          "time": 13.913056000000001,
          "velocity": 1
        },
        {
          "duration": 0.27173937499999923,
          "durationTicks": 600,
          "midi": 72,
          "name": "C5",
          "ticks": 33600,
          "time": 15.217405000000001,
          "velocity": 1
        },
        {
          "duration": 1.1413053750000017,
          "durationTicks": 2520,
          "midi": 67,
          "name": "G4",
          "ticks": 34080,
          "time": 15.434796500000001,
          "velocity": 1
        },
        {
          "duration": 0.10869574999999898,
          "durationTicks": 240,
          "midi": 66,
          "name": "F#4",
          "ticks": 36480,
          "time": 16.521754,
          "velocity": 1
        },
        {
          "duration": 0.27173937499999923,
          "durationTicks": 600,
          "midi": 74,
          "name": "D5",
          "ticks": 36960,
          "time": 16.739145500000003,
          "velocity": 1
        },
        {
          "duration": 0.10869574999999898,
          "durationTicks": 240,
          "midi": 71,
          "name": "B4",
          "ticks": 37440,
          "time": 16.956537,
          "velocity": 1
        },
        {
          "duration": 0.7065223749999987,
          "durationTicks": 1560,
          "midi": 69,
          "name": "A4",
          "ticks": 37920,
          "time": 17.173928500000002,
          "velocity": 1
        },
        {
          "duration": 0.05434787500000127,
          "durationTicks": 120,
          "midi": 74,
          "name": "D5",
          "ticks": 39360,
          "time": 17.826103,
          "velocity": 1
        },
        {
          "duration": 0.05434787500000127,
          "durationTicks": 120,
          "midi": 76,
          "name": "E5",
          "ticks": 39840,
          "time": 18.0434945,
          "velocity": 1
        },
        {
          "duration": 0.4891308749999972,
          "durationTicks": 1080,
          "midi": 72,
          "name": "C5",
          "ticks": 40320,
          "time": 18.260886000000003,
          "velocity": 1
        },
        {
          "duration": 0.3804351249999982,
          "durationTicks": 840,
          "midi": 67,
          "name": "G4",
          "ticks": 41280,
          "time": 18.695669000000002,
          "velocity": 1
        },
        {
          "duration": 0.4347829999999995,
          "durationTicks": 960,
          "midi": 62,
          "name": "D4",
          "ticks": 41760,
          "time": 18.9130605,
          "velocity": 0.7559055118110236
        },
        {
          "duration": 0.16304362500000025,
          "durationTicks": 360,
          "midi": 64,
          "name": "E4",
          "ticks": 42960,
          "time": 19.456539250000002,
          "velocity": 1
        },
        {
          "duration": 0.05434787500000127,
          "durationTicks": 120,
          "midi": 81,
          "name": "A5",
          "ticks": 43200,
          "time": 19.565235,
          "velocity": 1
        },
        {
          "duration": 0.10869574999999898,
          "durationTicks": 240,
          "midi": 66,
          "name": "F#4",
          "ticks": 44040,
          "time": 19.945670125000003,
          "velocity": 1
        },
        {
          "duration": 0.05434787500000127,
          "durationTicks": 120,
          "midi": 74,
          "name": "D5",
          "ticks": 44160,
          "time": 20.000018,
          "velocity": 1
        },
        {
          "duration": 0.8695660000000025,
          "durationTicks": 1920,
          "midi": 66,
          "name": "F#4",
          "ticks": 45120,
          "time": 20.434801,
          "velocity": 1
        },
        {
          "duration": 0.10869574999999898,
          "durationTicks": 240,
          "midi": 55,
          "name": "G3",
          "ticks": 46080,
          "time": 20.869584000000003,
          "velocity": 1
        },
        {
          "duration": 0.652174500000001,
          "durationTicks": 1440,
          "midi": 72,
          "name": "C5",
          "ticks": 46560,
          "time": 21.0869755,
          "velocity": 1
        },
        {
          "duration": 0.27173937499999923,
          "durationTicks": 600,
          "midi": 79,
          "name": "G5",
          "ticks": 47520,
          "time": 21.5217585,
          "velocity": 1
        },
        {
          "duration": 0.48913087500000074,
          "durationTicks": 1080,
          "midi": 77,
          "name": "F5",
          "ticks": 48000,
          "time": 21.739150000000002,
          "velocity": 1
        },
        {
          "duration": 0.4347829999999995,
          "durationTicks": 960,
          "midi": 74,
          "name": "D5",
          "ticks": 48960,
          "time": 22.173933,
          "velocity": 1
        },
        {
          "duration": 0.054347874999997714,
          "durationTicks": 120,
          "midi": 65,
          "name": "F4",
          "ticks": 49440,
          "time": 22.391324500000003,
          "velocity": 1
        },
        {
          "duration": 0.054347874999997714,
          "durationTicks": 120,
          "midi": 65,
          "name": "F4",
          "ticks": 49680,
          "time": 22.500020250000002,
          "velocity": 1
        },
        {
          "duration": 0.10869574999999898,
          "durationTicks": 240,
          "midi": 77,
          "name": "F5",
          "ticks": 49920,
          "time": 22.608716,
          "velocity": 1
        },
        {
          "duration": 0.10869574999999898,
          "durationTicks": 240,
          "midi": 79,
          "name": "G5",
          "ticks": 50400,
          "time": 22.826107500000003,
          "velocity": 1
        },
        {
          "duration": 0.4347829999999995,
          "durationTicks": 960,
          "midi": 81,
          "name": "A5",
          "ticks": 50880,
          "time": 23.043499,
          "velocity": 1
        },
        {
          "duration": 0.10869575000000253,
          "durationTicks": 240,
          "midi": 81,
          "name": "A5",
          "ticks": 52200,
          "time": 23.641325625,
          "velocity": 0.7559055118110236
        },
        {
          "duration": 0.76087025,
          "durationTicks": 1680,
          "midi": 86,
          "name": "D6",
          "ticks": 52320,
          "time": 23.6956735,
          "velocity": 1
        },
        {
          "duration": 2.2282628749999986,
          "durationTicks": 4920,
          "midi": 76,
          "name": "E5",
          "ticks": 53760,
          "time": 24.347848000000003,
          "velocity": 1
        },
        {
          "duration": 0.05434787500000127,
          "durationTicks": 120,
          "midi": 77,
          "name": "F5",
          "ticks": 55200,
          "time": 25.0000225,
          "velocity": 1
        },
        {
          "duration": 0.05434787500000127,
          "durationTicks": 120,
          "midi": 75,
          "name": "D#5",
          "ticks": 55680,
          "time": 25.217414,
          "velocity": 1
        },
        {
          "duration": 0.21739149999999796,
          "durationTicks": 480,
          "midi": 72,
          "name": "C5",
          "ticks": 56160,
          "time": 25.434805500000003,
          "velocity": 1
        },
        {
          "duration": 0.21739150000000151,
          "durationTicks": 480,
          "midi": 79,
          "name": "G5",
          "ticks": 57600,
          "time": 26.08698,
          "velocity": 1
        },
        {
          "duration": 0.21739149999999796,
          "durationTicks": 480,
          "midi": 64,
          "name": "E4",
          "ticks": 58560,
          "time": 26.521763000000004,
          "velocity": 1
        },
        {
          "duration": 0.10869574999999898,
          "durationTicks": 240,
          "midi": 67,
          "name": "G4",
          "ticks": 59520,
          "time": 26.956546000000003,
          "velocity": 0.7559055118110236
        },
        {
          "duration": 0.054347874999997714,
          "durationTicks": 120,
          "midi": 53,
          "name": "F3",
          "ticks": 92160,
          "time": 41.73916800000001,
          "velocity": 1
        },
        {
          "duration": 0.054347874999997714,
          "durationTicks": 120,
          "midi": 55,
          "name": "G3",
          "ticks": 92280,
          "time": 41.793515875000004,
          "velocity": 1
        },
        {
          "duration": 0.054347874999997714,
          "durationTicks": 120,
          "midi": 58,
          "name": "A#3",
          "ticks": 92400,
          "time": 41.84786375,
          "velocity": 1
        },
        {
          "duration": 0.05434787500000482,
          "durationTicks": 120,
          "midi": 59,
          "name": "B3",
          "ticks": 92520,
          "time": 41.902211625,
          "velocity": 1
        },
        {
          "duration": 0.054347874999997714,
          "durationTicks": 120,
          "midi": 63,
          "name": "D#4",
          "ticks": 92640,
          "time": 41.956559500000004,
          "velocity": 1
        },
        {
          "duration": 0.054347874999997714,
          "durationTicks": 120,
          "midi": 67,
          "name": "G4",
          "ticks": 92760,
          "time": 42.010907375,
          "velocity": 1
        },
        {
          "duration": 0.05434787500000482,
          "durationTicks": 120,
          "midi": 70,
          "name": "A#4",
          "ticks": 92880,
          "time": 42.06525525,
          "velocity": 1
        },
        {
          "duration": 0.054347874999997714,
          "durationTicks": 120,
          "midi": 72,
          "name": "C5",
          "ticks": 93000,
          "time": 42.119603125000005,
          "velocity": 1
        },
        {
          "duration": 0.054347874999997714,
          "durationTicks": 120,
          "midi": 75,
          "name": "D#5",
          "ticks": 93120,
          "time": 42.173951,
          "velocity": 1
        },
        {
          "duration": 0.054347874999997714,
          "durationTicks": 120,
          "midi": 76,
          "name": "E5",
          "ticks": 94080,
          "time": 42.608734000000005,
          "velocity": 1
        },
        {
          "duration": 0.054347874999997714,
          "durationTicks": 120,
          "midi": 75,
          "name": "D#5",
          "ticks": 94560,
          "time": 42.8261255,
          "velocity": 1
        },
        {
          "duration": 0.05434787500000482,
          "durationTicks": 120,
          "midi": 76,
          "name": "E5",
          "ticks": 95040,
          "time": 43.043517,
          "velocity": 1
        },
        {
          "duration": 0.054347874999997714,
          "durationTicks": 120,
          "midi": 75,
          "name": "D#5",
          "ticks": 95160,
          "time": 43.097864875000006,
          "velocity": 1
        },
        {
          "duration": 0.054347874999997714,
          "durationTicks": 120,
          "midi": 76,
          "name": "E5",
          "ticks": 95280,
          "time": 43.152212750000004,
          "velocity": 1
        },
        {
          "duration": 0.05434787500000482,
          "durationTicks": 120,
          "midi": 75,
          "name": "D#5",
          "ticks": 95400,
          "time": 43.206560625,
          "velocity": 1
        },
        {
          "duration": 0.054347874999997714,
          "durationTicks": 120,
          "midi": 76,
          "name": "E5",
          "ticks": 95520,
          "time": 43.260908500000006,
          "velocity": 1
        },
        {
          "duration": 0.054347874999997714,
          "durationTicks": 120,
          "midi": 80,
          "name": "G#5",
          "ticks": 95640,
          "time": 43.315256375000004,
          "velocity": 1
        },
        {
          "duration": 0.054347874999997714,
          "durationTicks": 120,
          "midi": 79,
          "name": "G5",
          "ticks": 95760,
          "time": 43.36960425,
          "velocity": 1
        },
        {
          "duration": 0.05434787500000482,
          "durationTicks": 120,
          "midi": 76,
          "name": "E5",
          "ticks": 95880,
          "time": 43.423952125,
          "velocity": 1
        },
        {
          "duration": 0.054347874999997714,
          "durationTicks": 120,
          "midi": 75,
          "name": "D#5",
          "ticks": 96000,
          "time": 43.478300000000004,
          "velocity": 1
        },
        {
          "duration": 0.054347874999997714,
          "durationTicks": 120,
          "midi": 81,
          "name": "A5",
          "ticks": 96480,
          "time": 43.6956915,
          "velocity": 1
        },
        {
          "duration": 0.21739150000000507,
          "durationTicks": 480,
          "midi": 60,
          "name": "C4",
          "ticks": 96960,
          "time": 43.913083,
          "velocity": 1
        },
        {
          "duration": 0.054347874999997714,
          "durationTicks": 120,
          "midi": 64,
          "name": "E4",
          "ticks": 97440,
          "time": 44.130474500000005,
          "velocity": 1
        },
        {
          "duration": 0.21739149999999796,
          "durationTicks": 480,
          "midi": 57,
          "name": "A3",
          "ticks": 97920,
          "time": 44.347866,
          "velocity": 1
        },
        {
          "duration": 0.21739150000000507,
          "durationTicks": 480,
          "midi": 61,
          "name": "C#4",
          "ticks": 98400,
          "time": 44.5652575,
          "velocity": 1
        },
        {
          "duration": 0.10869574999999543,
          "durationTicks": 240,
          "midi": 56,
          "name": "G#3",
          "ticks": 98880,
          "time": 44.782649000000006,
          "velocity": 1
        },
        {
          "duration": 0.054347874999997714,
          "durationTicks": 120,
          "midi": 60,
          "name": "C4",
          "ticks": 99360,
          "time": 45.000040500000004,
          "velocity": 1
        },
        {
          "duration": 0.054347874999997714,
          "durationTicks": 120,
          "midi": 61,
          "name": "C#4",
          "ticks": 99480,
          "time": 45.054388375,
          "velocity": 1
        },
        {
          "duration": 0.05434787500000482,
          "durationTicks": 120,
          "midi": 60,
          "name": "C4",
          "ticks": 99600,
          "time": 45.10873625,
          "velocity": 1
        },
        {
          "duration": 0.054347874999997714,
          "durationTicks": 120,
          "midi": 61,
          "name": "C#4",
          "ticks": 99720,
          "time": 45.163084125000005,
          "velocity": 1
        },
        {
          "duration": 0.054347874999997714,
          "durationTicks": 120,
          "midi": 70,
          "name": "A#4",
          "ticks": 99840,
          "time": 45.217432,
          "velocity": 1
        },
        {
          "duration": 1.3586968749999997,
          "durationTicks": 3000,
          "midi": 76,
          "name": "E5",
          "ticks": 99840,
          "time": 45.217432,
          "velocity": 1
        },
        {
          "duration": 0.2717393749999957,
          "durationTicks": 600,
          "midi": 74,
          "name": "D5",
          "ticks": 102720,
          "time": 46.521781000000004,
          "velocity": 1
        },
        {
          "duration": 1.1413053750000017,
          "durationTicks": 2520,
          "midi": 69,
          "name": "A4",
          "ticks": 103200,
          "time": 46.7391725,
          "velocity": 1
        },
        {
          "duration": 0.10869574999999543,
          "durationTicks": 240,
          "midi": 68,
          "name": "G#4",
          "ticks": 105600,
          "time": 47.826130000000006,
          "velocity": 1
        },
        {
          "duration": 0.2717393749999957,
          "durationTicks": 600,
          "midi": 76,
          "name": "E5",
          "ticks": 106080,
          "time": 48.043521500000004,
          "velocity": 1
        },
        {
          "duration": 0.10869575000000253,
          "durationTicks": 240,
          "midi": 73,
          "name": "C#5",
          "ticks": 106560,
          "time": 48.260913,
          "velocity": 1
        },
        {
          "duration": 0.2717393750000028,
          "durationTicks": 600,
          "midi": 71,
          "name": "B4",
          "ticks": 107040,
          "time": 48.4783045,
          "velocity": 1
        },
        {
          "duration": 0.054347874999997714,
          "durationTicks": 120,
          "midi": 76,
          "name": "E5",
          "ticks": 107520,
          "time": 48.695696000000005,
          "velocity": 1
        },
        {
          "duration": 0.054347874999997714,
          "durationTicks": 120,
          "midi": 76,
          "name": "E5",
          "ticks": 108239,
          "time": 49.02133035104167,
          "velocity": 1
        },
        {
          "duration": 0.054347874999997714,
          "durationTicks": 120,
          "midi": 76,
          "name": "E5",
          "ticks": 108479,
          "time": 49.13002610104167,
          "velocity": 1
        },
        {
          "duration": 0.054347874999997714,
          "durationTicks": 120,
          "midi": 81,
          "name": "A5",
          "ticks": 108960,
          "time": 49.347870500000006,
          "velocity": 1
        },
        {
          "duration": 0.054347874999997714,
          "durationTicks": 120,
          "midi": 76,
          "name": "E5",
          "ticks": 109440,
          "time": 49.565262000000004,
          "velocity": 1
        },
        {
          "duration": 0.10869575000000253,
          "durationTicks": 240,
          "midi": 74,
          "name": "D5",
          "ticks": 110400,
          "time": 50.000045,
          "velocity": 1
        },
        {
          "duration": 0.10869574999999543,
          "durationTicks": 240,
          "midi": 74,
          "name": "D5",
          "ticks": 111240,
          "time": 50.380480125000005,
          "velocity": 1
        },
        {
          "duration": 0.2717393750000028,
          "durationTicks": 600,
          "midi": 73,
          "name": "C#5",
          "ticks": 111360,
          "time": 50.434828,
          "velocity": 1
        },
        {
          "duration": 0.05480077395833405,
          "durationTicks": 121,
          "midi": 68,
          "name": "G#4",
          "ticks": 111898,
          "time": 50.67848763958334,
          "velocity": 1
        },
        {
          "duration": 0.2717393750000028,
          "durationTicks": 600,
          "midi": 74,
          "name": "D5",
          "ticks": 112800,
          "time": 51.087002500000004,
          "velocity": 1
        },
        {
          "duration": 0.10869575000000253,
          "durationTicks": 240,
          "midi": 78,
          "name": "F#5",
          "ticks": 113280,
          "time": 51.304394,
          "velocity": 1
        },
        {
          "duration": 0.2717393749999957,
          "durationTicks": 600,
          "midi": 81,
          "name": "A5",
          "ticks": 114240,
          "time": 51.739177000000005,
          "velocity": 1
        },
        {
          "duration": 0.16304362500000025,
          "durationTicks": 360,
          "midi": 79,
          "name": "G5",
          "ticks": 114720,
          "time": 51.9565685,
          "velocity": 1
        },
        {
          "duration": 0.16304362500000025,
          "durationTicks": 360,
          "midi": 62,
          "name": "D4",
          "ticks": 114960,
          "time": 52.065264250000006,
          "velocity": 1
        },
        {
          "duration": 0.828805093750006,
          "durationTicks": 1830,
          "midi": 74,
          "name": "D5",
          "ticks": 115200,
          "time": 52.17396,
          "velocity": 1
        },
        {
          "duration": 0.10869575000000253,
          "durationTicks": 240,
          "midi": 50,
          "name": "D3",
          "ticks": 117000,
          "time": 52.989178125,
          "velocity": 1
        },
        {
          "duration": 0.7065223749999987,
          "durationTicks": 1560,
          "midi": 62,
          "name": "D4",
          "ticks": 117120,
          "time": 53.04352600000001,
          "velocity": 1
        },
        {
          "duration": 0.21739150000000507,
          "durationTicks": 480,
          "midi": 67,
          "name": "G4",
          "ticks": 118560,
          "time": 53.6957005,
          "velocity": 1
        },
        {
          "duration": 0.10869575000000253,
          "durationTicks": 240,
          "midi": 45,
          "name": "A2",
          "ticks": 118920,
          "time": 53.858744125,
          "velocity": 1
        },
        {
          "duration": 0.7065223749999987,
          "durationTicks": 1560,
          "midi": 57,
          "name": "A3",
          "ticks": 119040,
          "time": 53.913092000000006,
          "velocity": 1
        },
        {
          "duration": 0.2717393749999957,
          "durationTicks": 600,
          "midi": 64,
          "name": "E4",
          "ticks": 120480,
          "time": 54.56526650000001,
          "velocity": 1
        },
        {
          "duration": 0.48913087500000074,
          "durationTicks": 1080,
          "midi": 67,
          "name": "G4",
          "ticks": 120960,
          "time": 54.782658000000005,
          "velocity": 1
        },
        {
          "duration": 0.9239138750000038,
          "durationTicks": 2040,
          "midi": 69,
          "name": "A4",
          "ticks": 121920,
          "time": 55.217441,
          "velocity": 1
        },
        {
          "duration": 0.21693860104165452,
          "durationTicks": 479,
          "midi": 74,
          "name": "D5",
          "ticks": 123840,
          "time": 56.08700700000001,
          "velocity": 1
        },
        {
          "duration": 0.48913087500000074,
          "durationTicks": 1080,
          "midi": 66,
          "name": "F#4",
          "ticks": 124800,
          "time": 56.52179,
          "velocity": 1
        },
        {
          "duration": 0.10869574999999543,
          "durationTicks": 240,
          "midi": 71,
          "name": "B4",
          "ticks": 125760,
          "time": 56.956573000000006,
          "velocity": 1
        },
        {
          "duration": 0.10869575000000253,
          "durationTicks": 240,
          "midi": 67,
          "name": "G4",
          "ticks": 126720,
          "time": 57.391356,
          "velocity": 1
        },
        {
          "duration": 0.10869575000000253,
          "durationTicks": 240,
          "midi": 66,
          "name": "F#4",
          "ticks": 127680,
          "time": 57.826139000000005,
          "velocity": 1
        },
        {
          "duration": 0.10869575000000253,
          "durationTicks": 240,
          "midi": 62,
          "name": "D4",
          "ticks": 128160,
          "time": 58.0435305,
          "velocity": 1
        },
        {
          "duration": 0.10869575000000253,
          "durationTicks": 240,
          "midi": 61,
          "name": "C#4",
          "ticks": 129000,
          "time": 58.423965625,
          "velocity": 1
        },
        {
          "duration": 0.652174500000001,
          "durationTicks": 1440,
          "midi": 73,
          "name": "C#5",
          "ticks": 129120,
          "time": 58.478313500000006,
          "velocity": 1
        },
        {
          "duration": 0.21739149999999796,
          "durationTicks": 480,
          "midi": 74,
          "name": "D5",
          "ticks": 130560,
          "time": 59.13048800000001,
          "velocity": 1
        }
      ],
      "endOfTrackTicks": 131040
    },
    {
      "channel": 0,
      "controlChanges": {},
      "pitchBends": [],
      "instrument": {
        "family": "piano",
        "number": 0,
        "name": "acoustic grand piano"
      },
      "name": "",
      "notes": [
        {
          "duration": 0.10869575000000076,
          "durationTicks": 240,
          "midi": 61,
          "name": "C#4",
          "ticks": 22080,
          "time": 10.000009,
          "velocity": 1
        },
        {
          "duration": 0.10869574999999898,
          "durationTicks": 240,
          "midi": 60,
          "name": "C4",
          "ticks": 23040,
          "time": 10.434792000000002,
          "velocity": 1
        },
        {
          "duration": 0.10869575000000076,
          "durationTicks": 240,
          "midi": 60,
          "name": "C4",
          "ticks": 24480,
          "time": 11.0869665,
          "velocity": 1
        },
        {
          "duration": 0.10869575000000076,
          "durationTicks": 240,
          "midi": 57,
          "name": "A3",
          "ticks": 24960,
          "time": 11.304358,
          "velocity": 1
        },
        {
          "duration": 0.10869574999999898,
          "durationTicks": 240,
          "midi": 57,
          "name": "A3",
          "ticks": 26400,
          "time": 11.956532500000002,
          "velocity": 1
        },
        {
          "duration": 0.10869574999999898,
          "durationTicks": 240,
          "midi": 50,
          "name": "D3",
          "ticks": 26880,
          "time": 12.173924000000001,
          "velocity": 1
        },
        {
          "duration": 0,
          "durationTicks": 0,
          "midi": 61,
          "name": "C#4",
          "ticks": 28126,
          "time": 12.738236102083334,
          "velocity": 1
        },
        {
          "duration": 0.10869575000000076,
          "durationTicks": 240,
          "midi": 50,
          "name": "D3",
          "ticks": 28320,
          "time": 12.8260985,
          "velocity": 1
        },
        {
          "duration": 0.10869575000000076,
          "durationTicks": 240,
          "midi": 55,
          "name": "G3",
          "ticks": 28800,
          "time": 13.04349,
          "velocity": 1
        },
        {
          "duration": 0.10869575000000076,
          "durationTicks": 240,
          "midi": 48,
          "name": "C3",
          "ticks": 30720,
          "time": 13.913056000000001,
          "velocity": 1
        },
        {
          "duration": 0.05434787499999949,
          "durationTicks": 120,
          "midi": 64,
          "name": "E4",
          "ticks": 31200,
          "time": 14.1304475,
          "velocity": 1
        },
        {
          "duration": 0.05434787500000127,
          "durationTicks": 120,
          "midi": 48,
          "name": "C3",
          "ticks": 31680,
          "time": 14.347839,
          "velocity": 1
        },
        {
          "duration": 0.10869575000000076,
          "durationTicks": 240,
          "midi": 55,
          "name": "G3",
          "ticks": 32160,
          "time": 14.5652305,
          "velocity": 1
        },
        {
          "duration": 0.10869574999999898,
          "durationTicks": 240,
          "midi": 55,
          "name": "G3",
          "ticks": 32640,
          "time": 14.782622000000002,
          "velocity": 1
        },
        {
          "duration": 0.05434787500000127,
          "durationTicks": 120,
          "midi": 60,
          "name": "C4",
          "ticks": 33360,
          "time": 15.10870925,
          "velocity": 1
        },
        {
          "duration": 0.05434787499999949,
          "durationTicks": 120,
          "midi": 43,
          "name": "G2",
          "ticks": 34320,
          "time": 15.543492250000002,
          "velocity": 1
        },
        {
          "duration": 0.10869575000000076,
          "durationTicks": 240,
          "midi": 48,
          "name": "C3",
          "ticks": 34560,
          "time": 15.652188,
          "velocity": 1
        },
        {
          "duration": 0.05434787500000127,
          "durationTicks": 120,
          "midi": 60,
          "name": "C4",
          "ticks": 35040,
          "time": 15.8695795,
          "velocity": 1
        },
        {
          "duration": 0.10869575000000253,
          "durationTicks": 240,
          "midi": 55,
          "name": "G3",
          "ticks": 36000,
          "time": 16.3043625,
          "velocity": 1
        },
        {
          "duration": 0.10869574999999898,
          "durationTicks": 240,
          "midi": 55,
          "name": "G3",
          "ticks": 36480,
          "time": 16.521754,
          "velocity": 1
        },
        {
          "duration": 0.05434787500000127,
          "durationTicks": 120,
          "midi": 57,
          "name": "A3",
          "ticks": 37440,
          "time": 16.956537,
          "velocity": 1
        },
        {
          "duration": 0.10869575000000253,
          "durationTicks": 240,
          "midi": 50,
          "name": "D3",
          "ticks": 38400,
          "time": 17.39132,
          "velocity": 1
        },
        {
          "duration": 0.10869574999999898,
          "durationTicks": 240,
          "midi": 62,
          "name": "D4",
          "ticks": 38880,
          "time": 17.608711500000002,
          "velocity": 1
        },
        {
          "duration": 0.10869574999999898,
          "durationTicks": 240,
          "midi": 57,
          "name": "A3",
          "ticks": 39840,
          "time": 18.0434945,
          "velocity": 1
        },
        {
          "duration": 0.10869574999999898,
          "durationTicks": 240,
          "midi": 57,
          "name": "A3",
          "ticks": 40320,
          "time": 18.260886000000003,
          "velocity": 1
        },
        {
          "duration": 0.10869574999999898,
          "durationTicks": 240,
          "midi": 51,
          "name": "D#3",
          "ticks": 41280,
          "time": 18.695669000000002,
          "velocity": 1
        },
        {
          "duration": 0.10869574999999898,
          "durationTicks": 240,
          "midi": 50,
          "name": "D3",
          "ticks": 42240,
          "time": 19.130452000000002,
          "velocity": 0.5354330708661418
        },
        {
          "duration": 0.05434787500000127,
          "durationTicks": 120,
          "midi": 62,
          "name": "D4",
          "ticks": 42720,
          "time": 19.3478435,
          "velocity": 0.5354330708661418
        },
        {
          "duration": 0.10869574999999898,
          "durationTicks": 240,
          "midi": 57,
          "name": "A3",
          "ticks": 43680,
          "time": 19.782626500000003,
          "velocity": 0.5354330708661418
        },
        {
          "duration": 0.05434787500000127,
          "durationTicks": 120,
          "midi": 58,
          "name": "A#3",
          "ticks": 44160,
          "time": 20.000018,
          "velocity": 0.5354330708661418
        },
        {
          "duration": 0.10869575000000253,
          "durationTicks": 240,
          "midi": 59,
          "name": "B3",
          "ticks": 45120,
          "time": 20.434801,
          "velocity": 0.5354330708661418
        },
        {
          "duration": 0.05434787500000127,
          "durationTicks": 120,
          "midi": 62,
          "name": "D4",
          "ticks": 45840,
          "time": 20.76088825,
          "velocity": 0.5354330708661418
        },
        {
          "duration": 0.054347874999997714,
          "durationTicks": 120,
          "midi": 55,
          "name": "G3",
          "ticks": 46080,
          "time": 20.869584000000003,
          "velocity": 1
        },
        {
          "duration": 0.05434787500000127,
          "durationTicks": 120,
          "midi": 55,
          "name": "G3",
          "ticks": 46560,
          "time": 21.0869755,
          "velocity": 1
        },
        {
          "duration": 0.10869575000000253,
          "durationTicks": 240,
          "midi": 62,
          "name": "D4",
          "ticks": 47520,
          "time": 21.5217585,
          "velocity": 1
        },
        {
          "duration": 0.10869574999999898,
          "durationTicks": 240,
          "midi": 62,
          "name": "D4",
          "ticks": 48000,
          "time": 21.739150000000002,
          "velocity": 1
        },
        {
          "duration": 0.10869574999999898,
          "durationTicks": 240,
          "midi": 55,
          "name": "G3",
          "ticks": 49920,
          "time": 22.608716,
          "velocity": 1
        },
        {
          "duration": 0.10869574999999898,
          "durationTicks": 240,
          "midi": 62,
          "name": "D4",
          "ticks": 51360,
          "time": 23.260890500000002,
          "velocity": 1
        },
        {
          "duration": 0.10869575000000253,
          "durationTicks": 240,
          "midi": 62,
          "name": "D4",
          "ticks": 51840,
          "time": 23.478282,
          "velocity": 1
        },
        {
          "duration": 0.10869574999999898,
          "durationTicks": 240,
          "midi": 61,
          "name": "C#4",
          "ticks": 52800,
          "time": 23.913065000000003,
          "velocity": 1
        },
        {
          "duration": 0.10869574999999898,
          "durationTicks": 240,
          "midi": 60,
          "name": "C4",
          "ticks": 53760,
          "time": 24.347848000000003,
          "velocity": 1
        },
        {
          "duration": 0.10869575000000253,
          "durationTicks": 240,
          "midi": 60,
          "name": "C4",
          "ticks": 55200,
          "time": 25.0000225,
          "velocity": 1
        },
        {
          "duration": 0.10869574999999898,
          "durationTicks": 240,
          "midi": 57,
          "name": "A3",
          "ticks": 55680,
          "time": 25.217414,
          "velocity": 1
        },
        {
          "duration": 0.10869574999999898,
          "durationTicks": 240,
          "midi": 57,
          "name": "A3",
          "ticks": 57120,
          "time": 25.869588500000003,
          "velocity": 1
        },
        {
          "duration": 0.10869575000000253,
          "durationTicks": 240,
          "midi": 50,
          "name": "D3",
          "ticks": 57600,
          "time": 26.08698,
          "velocity": 1
        },
        {
          "duration": 0.10869574999999898,
          "durationTicks": 240,
          "midi": 50,
          "name": "D3",
          "ticks": 59040,
          "time": 26.7391545,
          "velocity": 1
        },
        {
          "duration": 0.10869574999999898,
          "durationTicks": 240,
          "midi": 55,
          "name": "G3",
          "ticks": 59520,
          "time": 26.956546000000003,
          "velocity": 1
        },
        {
          "duration": 0.21739150000000151,
          "durationTicks": 480,
          "midi": 48,
          "name": "C3",
          "ticks": 61440,
          "time": 27.826112000000002,
          "velocity": 0.8976377952755905
        },
        {
          "duration": 0.054347874999997714,
          "durationTicks": 120,
          "midi": 64,
          "name": "E4",
          "ticks": 61920,
          "time": 28.043503500000003,
          "velocity": 0.8976377952755905
        },
        {
          "duration": 0.21739150000000151,
          "durationTicks": 480,
          "midi": 48,
          "name": "C3",
          "ticks": 62400,
          "time": 28.260895,
          "velocity": 0.8976377952755905
        },
        {
          "duration": 0.054347874999997714,
          "durationTicks": 120,
          "midi": 55,
          "name": "G3",
          "ticks": 62880,
          "time": 28.478286500000003,
          "velocity": 0.8976377952755905
        },
        {
          "duration": 0.05434787500000127,
          "durationTicks": 120,
          "midi": 55,
          "name": "G3",
          "ticks": 63360,
          "time": 28.695678,
          "velocity": 0.8976377952755905
        },
        {
          "duration": 0.05434787500000127,
          "durationTicks": 120,
          "midi": 60,
          "name": "C4",
          "ticks": 64080,
          "time": 29.02176525,
          "velocity": 0.8976377952755905
        },
        {
          "duration": 0.05434787500000127,
          "durationTicks": 120,
          "midi": 43,
          "name": "G2",
          "ticks": 65040,
          "time": 29.45654825,
          "velocity": 0.8976377952755905
        },
        {
          "duration": 0.21739149999999796,
          "durationTicks": 480,
          "midi": 48,
          "name": "C3",
          "ticks": 65280,
          "time": 29.565244000000003,
          "velocity": 0.8976377952755905
        },
        {
          "duration": 0.05434787500000127,
          "durationTicks": 120,
          "midi": 60,
          "name": "C4",
          "ticks": 65760,
          "time": 29.7826355,
          "velocity": 0.8976377952755905
        },
        {
          "duration": 0.21739150000000151,
          "durationTicks": 480,
          "midi": 55,
          "name": "G3",
          "ticks": 66720,
          "time": 30.2174185,
          "velocity": 0.8976377952755905
        },
        {
          "duration": 0.05434787500000127,
          "durationTicks": 120,
          "midi": 55,
          "name": "G3",
          "ticks": 67200,
          "time": 30.434810000000002,
          "velocity": 0.8976377952755905
        },
        {
          "duration": 0.05434787500000127,
          "durationTicks": 120,
          "midi": 57,
          "name": "A3",
          "ticks": 68160,
          "time": 30.869593000000002,
          "velocity": 0.8976377952755905
        },
        {
          "duration": 0.21739150000000151,
          "durationTicks": 480,
          "midi": 50,
          "name": "D3",
          "ticks": 69120,
          "time": 31.304376,
          "velocity": 0.8976377952755905
        },
        {
          "duration": 0.054347874999997714,
          "durationTicks": 120,
          "midi": 62,
          "name": "D4",
          "ticks": 69600,
          "time": 31.521767500000003,
          "velocity": 0.8976377952755905
        },
        {
          "duration": 0.21739150000000151,
          "durationTicks": 480,
          "midi": 57,
          "name": "A3",
          "ticks": 70560,
          "time": 31.956550500000002,
          "velocity": 0.8976377952755905
        },
        {
          "duration": 0.054347874999997714,
          "durationTicks": 120,
          "midi": 57,
          "name": "A3",
          "ticks": 71040,
          "time": 32.173942000000004,
          "velocity": 0.8976377952755905
        },
        {
          "duration": 0.43478300000000303,
          "durationTicks": 960,
          "midi": 51,
          "name": "D#3",
          "ticks": 72000,
          "time": 32.608725,
          "velocity": 0.8976377952755905
        },
        {
          "duration": 0.21739149999999796,
          "durationTicks": 480,
          "midi": 50,
          "name": "D3",
          "ticks": 72960,
          "time": 33.043508,
          "velocity": 0.8976377952755905
        },
        {
          "duration": 0.05434787500000482,
          "durationTicks": 120,
          "midi": 62,
          "name": "D4",
          "ticks": 73440,
          "time": 33.2608995,
          "velocity": 0.8976377952755905
        },
        {
          "duration": 0.21739149999999796,
          "durationTicks": 480,
          "midi": 57,
          "name": "A3",
          "ticks": 74400,
          "time": 33.695682500000004,
          "velocity": 0.8976377952755905
        },
        {
          "duration": 0.054347874999997714,
          "durationTicks": 120,
          "midi": 58,
          "name": "A#3",
          "ticks": 74880,
          "time": 33.913074,
          "velocity": 0.8976377952755905
        },
        {
          "duration": 0.3260872500000005,
          "durationTicks": 720,
          "midi": 59,
          "name": "B3",
          "ticks": 75840,
          "time": 34.347857000000005,
          "velocity": 0.8976377952755905
        },
        {
          "duration": 0.054347874999997714,
          "durationTicks": 120,
          "midi": 62,
          "name": "D4",
          "ticks": 76560,
          "time": 34.673944250000005,
          "velocity": 0.8976377952755905
        },
        {
          "duration": 0.05434787500000482,
          "durationTicks": 120,
          "midi": 56,
          "name": "G#3",
          "ticks": 76800,
          "time": 34.78264,
          "velocity": 0.8976377952755905
        },
        {
          "duration": 0.054347874999997714,
          "durationTicks": 120,
          "midi": 56,
          "name": "G#3",
          "ticks": 77280,
          "time": 35.000031500000006,
          "velocity": 0.8976377952755905
        },
        {
          "duration": 0.054347874999997714,
          "durationTicks": 120,
          "midi": 53,
          "name": "F3",
          "ticks": 92160,
          "time": 41.73916800000001,
          "velocity": 1
        },
        {
          "duration": 0.054347874999997714,
          "durationTicks": 120,
          "midi": 55,
          "name": "G3",
          "ticks": 92280,
          "time": 41.793515875000004,
          "velocity": 1
        },
        {
          "duration": 0.054347874999997714,
          "durationTicks": 120,
          "midi": 58,
          "name": "A#3",
          "ticks": 92400,
          "time": 41.84786375,
          "velocity": 1
        },
        {
          "duration": 0.05434787500000482,
          "durationTicks": 120,
          "midi": 59,
          "name": "B3",
          "ticks": 92520,
          "time": 41.902211625,
          "velocity": 1
        },
        {
          "duration": 0.054347874999997714,
          "durationTicks": 120,
          "midi": 63,
          "name": "D#4",
          "ticks": 92640,
          "time": 41.956559500000004,
          "velocity": 1
        },
        {
          "duration": 0.054347874999997714,
          "durationTicks": 120,
          "midi": 67,
          "name": "G4",
          "ticks": 92760,
          "time": 42.010907375,
          "velocity": 1
        },
        {
          "duration": 0.05434787500000482,
          "durationTicks": 120,
          "midi": 70,
          "name": "A#4",
          "ticks": 92880,
          "time": 42.06525525,
          "velocity": 1
        },
        {
          "duration": 0.054347874999997714,
          "durationTicks": 120,
          "midi": 72,
          "name": "C5",
          "ticks": 93000,
          "time": 42.119603125000005,
          "velocity": 1
        },
        {
          "duration": 0.054347874999997714,
          "durationTicks": 120,
          "midi": 75,
          "name": "D#5",
          "ticks": 93120,
          "time": 42.173951,
          "velocity": 1
        },
        {
          "duration": 0.054347874999997714,
          "durationTicks": 120,
          "midi": 76,
          "name": "E5",
          "ticks": 94080,
          "time": 42.608734000000005,
          "velocity": 1
        },
        {
          "duration": 0.054347874999997714,
          "durationTicks": 120,
          "midi": 75,
          "name": "D#5",
          "ticks": 94560,
          "time": 42.8261255,
          "velocity": 1
        },
        {
          "duration": 0.05434787500000482,
          "durationTicks": 120,
          "midi": 76,
          "name": "E5",
          "ticks": 95040,
          "time": 43.043517,
          "velocity": 1
        },
        {
          "duration": 0.054347874999997714,
          "durationTicks": 120,
          "midi": 75,
          "name": "D#5",
          "ticks": 95160,
          "time": 43.097864875000006,
          "velocity": 1
        },
        {
          "duration": 0.054347874999997714,
          "durationTicks": 120,
          "midi": 76,
          "name": "E5",
          "ticks": 95280,
          "time": 43.152212750000004,
          "velocity": 1
        },
        {
          "duration": 0.05434787500000482,
          "durationTicks": 120,
          "midi": 75,
          "name": "D#5",
          "ticks": 95400,
          "time": 43.206560625,
          "velocity": 1
        },
        {
          "duration": 0.054347874999997714,
          "durationTicks": 120,
          "midi": 76,
          "name": "E5",
          "ticks": 95520,
          "time": 43.260908500000006,
          "velocity": 1
        },
        {
          "duration": 0.054347874999997714,
          "durationTicks": 120,
          "midi": 80,
          "name": "G#5",
          "ticks": 95640,
          "time": 43.315256375000004,
          "velocity": 1
        },
        {
          "duration": 0.054347874999997714,
          "durationTicks": 120,
          "midi": 79,
          "name": "G5",
          "ticks": 95760,
          "time": 43.36960425,
          "velocity": 1
        },
        {
          "duration": 0.05434787500000482,
          "durationTicks": 120,
          "midi": 76,
          "name": "E5",
          "ticks": 95880,
          "time": 43.423952125,
          "velocity": 1
        },
        {
          "duration": 0.054347874999997714,
          "durationTicks": 120,
          "midi": 75,
          "name": "D#5",
          "ticks": 96000,
          "time": 43.478300000000004,
          "velocity": 1
        },
        {
          "duration": 0.054347874999997714,
          "durationTicks": 120,
          "midi": 81,
          "name": "A5",
          "ticks": 96480,
          "time": 43.6956915,
          "velocity": 1
        },
        {
          "duration": 0.21739150000000507,
          "durationTicks": 480,
          "midi": 60,
          "name": "C4",
          "ticks": 96960,
          "time": 43.913083,
          "velocity": 1
        },
        {
          "duration": 0.054347874999997714,
          "durationTicks": 120,
          "midi": 64,
          "name": "E4",
          "ticks": 97440,
          "time": 44.130474500000005,
          "velocity": 1
        },
        {
          "duration": 0.21739149999999796,
          "durationTicks": 480,
          "midi": 57,
          "name": "A3",
          "ticks": 97920,
          "time": 44.347866,
          "velocity": 1
        },
        {
          "duration": 0.21739150000000507,
          "durationTicks": 480,
          "midi": 61,
          "name": "C#4",
          "ticks": 98400,
          "time": 44.5652575,
          "velocity": 1
        },
        {
          "duration": 0.10869574999999543,
          "durationTicks": 240,
          "midi": 56,
          "name": "G#3",
          "ticks": 98880,
          "time": 44.782649000000006,
          "velocity": 1
        },
        {
          "duration": 0.054347874999997714,
          "durationTicks": 120,
          "midi": 60,
          "name": "C4",
          "ticks": 99360,
          "time": 45.000040500000004,
          "velocity": 1
        },
        {
          "duration": 0.054347874999997714,
          "durationTicks": 120,
          "midi": 61,
          "name": "C#4",
          "ticks": 99480,
          "time": 45.054388375,
          "velocity": 1
        },
        {
          "duration": 0.05434787500000482,
          "durationTicks": 120,
          "midi": 60,
          "name": "C4",
          "ticks": 99600,
          "time": 45.10873625,
          "velocity": 1
        },
        {
          "duration": 0.054347874999997714,
          "durationTicks": 120,
          "midi": 61,
          "name": "C#4",
          "ticks": 99720,
          "time": 45.163084125000005,
          "velocity": 1
        },
        {
          "duration": 0.10869575000000253,
          "durationTicks": 240,
          "midi": 50,
          "name": "D3",
          "ticks": 99840,
          "time": 45.217432,
          "velocity": 1
        },
        {
          "duration": 0.05434787500000482,
          "durationTicks": 120,
          "midi": 66,
          "name": "F#4",
          "ticks": 100320,
          "time": 45.4348235,
          "velocity": 1
        },
        {
          "duration": 0.054347874999997714,
          "durationTicks": 120,
          "midi": 50,
          "name": "D3",
          "ticks": 100800,
          "time": 45.652215000000005,
          "velocity": 1
        },
        {
          "duration": 0.10869575000000253,
          "durationTicks": 240,
          "midi": 57,
          "name": "A3",
          "ticks": 101280,
          "time": 45.8696065,
          "velocity": 1
        },
        {
          "duration": 0.10869575000000253,
          "durationTicks": 240,
          "midi": 57,
          "name": "A3",
          "ticks": 101760,
          "time": 46.086998,
          "velocity": 1
        },
        {
          "duration": 0.05434787500000482,
          "durationTicks": 120,
          "midi": 62,
          "name": "D4",
          "ticks": 102480,
          "time": 46.41308525,
          "velocity": 1
        },
        {
          "duration": 0.054347874999997714,
          "durationTicks": 120,
          "midi": 45,
          "name": "A2",
          "ticks": 103440,
          "time": 46.847868250000005,
          "velocity": 1
        },
        {
          "duration": 0.10869575000000253,
          "durationTicks": 240,
          "midi": 50,
          "name": "D3",
          "ticks": 103680,
          "time": 46.956564,
          "velocity": 1
        },
        {
          "duration": 0.054347874999997714,
          "durationTicks": 120,
          "midi": 62,
          "name": "D4",
          "ticks": 104160,
          "time": 47.173955500000005,
          "velocity": 1
        },
        {
          "duration": 0.10869575000000253,
          "durationTicks": 240,
          "midi": 57,
          "name": "A3",
          "ticks": 105120,
          "time": 47.6087385,
          "velocity": 1
        },
        {
          "duration": 0.10869574999999543,
          "durationTicks": 240,
          "midi": 57,
          "name": "A3",
          "ticks": 105600,
          "time": 47.826130000000006,
          "velocity": 1
        },
        {
          "duration": 0.054347874999997714,
          "durationTicks": 120,
          "midi": 59,
          "name": "B3",
          "ticks": 106560,
          "time": 48.260913,
          "velocity": 1
        },
        {
          "duration": 0.10869574999999543,
          "durationTicks": 240,
          "midi": 50,
          "name": "D3",
          "ticks": 107520,
          "time": 48.695696000000005,
          "velocity": 1
        },
        {
          "duration": 0.054347874999997714,
          "durationTicks": 120,
          "midi": 66,
          "name": "F#4",
          "ticks": 108000,
          "time": 48.9130875,
          "velocity": 1
        },
        {
          "duration": 0.054347874999997714,
          "durationTicks": 120,
          "midi": 66,
          "name": "F#4",
          "ticks": 108240,
          "time": 49.021783250000006,
          "velocity": 0.7559055118110236
        },
        {
          "duration": 0.05434787500000482,
          "durationTicks": 120,
          "midi": 50,
          "name": "D3",
          "ticks": 108480,
          "time": 49.130479,
          "velocity": 1
        },
        {
          "duration": 0.054347874999997714,
          "durationTicks": 120,
          "midi": 66,
          "name": "F#4",
          "ticks": 108720,
          "time": 49.239174750000004,
          "velocity": 0.7559055118110236
        },
        {
          "duration": 0.054347874999997714,
          "durationTicks": 120,
          "midi": 66,
          "name": "F#4",
          "ticks": 108960,
          "time": 49.347870500000006,
          "velocity": 0.7559055118110236
        },
        {
          "duration": 0.05434787500000482,
          "durationTicks": 120,
          "midi": 66,
          "name": "F#4",
          "ticks": 109200,
          "time": 49.45656625,
          "velocity": 0.7559055118110236
        },
        {
          "duration": 0.10869575000000253,
          "durationTicks": 240,
          "midi": 57,
          "name": "A3",
          "ticks": 109440,
          "time": 49.565262000000004,
          "velocity": 1
        },
        {
          "duration": 0.054347874999997714,
          "durationTicks": 120,
          "midi": 69,
          "name": "A4",
          "ticks": 109680,
          "time": 49.67395775000001,
          "velocity": 0.7559055118110236
        },
        {
          "duration": 0.05434787500000482,
          "durationTicks": 120,
          "midi": 69,
          "name": "A4",
          "ticks": 109920,
          "time": 49.7826535,
          "velocity": 0.7559055118110236
        },
        {
          "duration": 0.054347874999997714,
          "durationTicks": 120,
          "midi": 69,
          "name": "A4",
          "ticks": 110160,
          "time": 49.891349250000005,
          "velocity": 0.7559055118110236
        },
        {
          "duration": 0.21739150000000507,
          "durationTicks": 480,
          "midi": 62,
          "name": "D4",
          "ticks": 110400,
          "time": 50.000045,
          "velocity": 0.7559055118110236
        },
        {
          "duration": 0.054347874999997714,
          "durationTicks": 120,
          "midi": 74,
          "name": "D5",
          "ticks": 110880,
          "time": 50.217436500000005,
          "velocity": 0.7559055118110236
        },
        {
          "duration": 0.05434787500000482,
          "durationTicks": 120,
          "midi": 57,
          "name": "A3",
          "ticks": 111120,
          "time": 50.32613225,
          "velocity": 1
        },
        {
          "duration": 0.10869575000000253,
          "durationTicks": 240,
          "midi": 50,
          "name": "D3",
          "ticks": 111360,
          "time": 50.434828,
          "velocity": 1
        },
        {
          "duration": 0.054347874999997714,
          "durationTicks": 120,
          "midi": 62,
          "name": "D4",
          "ticks": 111600,
          "time": 50.543523750000006,
          "velocity": 1
        },
        {
          "duration": 0.05434787500000482,
          "durationTicks": 120,
          "midi": 62,
          "name": "D4",
          "ticks": 111840,
          "time": 50.6522195,
          "velocity": 1
        },
        {
          "duration": 0.054347874999997714,
          "durationTicks": 120,
          "midi": 62,
          "name": "D4",
          "ticks": 112080,
          "time": 50.760915250000004,
          "velocity": 1
        },
        {
          "duration": 0.10869574999999543,
          "durationTicks": 240,
          "midi": 57,
          "name": "A3",
          "ticks": 112320,
          "time": 50.869611000000006,
          "velocity": 1
        },
        {
          "duration": 0.054347874999997714,
          "durationTicks": 120,
          "midi": 69,
          "name": "A4",
          "ticks": 112800,
          "time": 51.087002500000004,
          "velocity": 1
        },
        {
          "duration": 0.054347874999997714,
          "durationTicks": 120,
          "midi": 69,
          "name": "A4",
          "ticks": 113040,
          "time": 51.19569825000001,
          "velocity": 1
        },
        {
          "duration": 0.10869575000000253,
          "durationTicks": 240,
          "midi": 57,
          "name": "A3",
          "ticks": 113280,
          "time": 51.304394,
          "velocity": 1
        },
        {
          "duration": 0.054347874999997714,
          "durationTicks": 120,
          "midi": 69,
          "name": "A4",
          "ticks": 113760,
          "time": 51.52178550000001,
          "velocity": 1
        },
        {
          "duration": 0.054347874999997714,
          "durationTicks": 120,
          "midi": 69,
          "name": "A4",
          "ticks": 114000,
          "time": 51.63048125,
          "velocity": 1
        },
        {
          "duration": 0.054347874999997714,
          "durationTicks": 120,
          "midi": 59,
          "name": "B3",
          "ticks": 114240,
          "time": 51.739177000000005,
          "velocity": 1
        },
        {
          "duration": 0.054347874999997714,
          "durationTicks": 120,
          "midi": 71,
          "name": "B4",
          "ticks": 114720,
          "time": 51.9565685,
          "velocity": 1
        },
        {
          "duration": 0.05434787500000482,
          "durationTicks": 120,
          "midi": 45,
          "name": "A2",
          "ticks": 115200,
          "time": 52.17396,
          "velocity": 1
        },
        {
          "duration": 0.054347874999997714,
          "durationTicks": 120,
          "midi": 45,
          "name": "A2",
          "ticks": 115320,
          "time": 52.228307875000006,
          "velocity": 1
        },
        {
          "duration": 0.054347874999997714,
          "durationTicks": 120,
          "midi": 45,
          "name": "A2",
          "ticks": 115440,
          "time": 52.28265575,
          "velocity": 1
        },
        {
          "duration": 0.05434787500000482,
          "durationTicks": 120,
          "midi": 45,
          "name": "A2",
          "ticks": 115560,
          "time": 52.337003625,
          "velocity": 1
        },
        {
          "duration": 0.054347874999997714,
          "durationTicks": 120,
          "midi": 57,
          "name": "A3",
          "ticks": 115680,
          "time": 52.391351500000006,
          "velocity": 1
        },
        {
          "duration": 0.054347874999997714,
          "durationTicks": 120,
          "midi": 57,
          "name": "A3",
          "ticks": 115800,
          "time": 52.445699375000004,
          "velocity": 1
        },
        {
          "duration": 0.05434787500000482,
          "durationTicks": 120,
          "midi": 57,
          "name": "A3",
          "ticks": 115920,
          "time": 52.50004725,
          "velocity": 1
        },
        {
          "duration": 0.054347874999997714,
          "durationTicks": 120,
          "midi": 57,
          "name": "A3",
          "ticks": 116040,
          "time": 52.554395125000006,
          "velocity": 1
        },
        {
          "duration": 0.054347874999997714,
          "durationTicks": 120,
          "midi": 45,
          "name": "A2",
          "ticks": 116160,
          "time": 52.608743000000004,
          "velocity": 1
        },
        {
          "duration": 0.05434787500000482,
          "durationTicks": 120,
          "midi": 45,
          "name": "A2",
          "ticks": 116280,
          "time": 52.663090875,
          "velocity": 1
        },
        {
          "duration": 0.054347874999997714,
          "durationTicks": 120,
          "midi": 45,
          "name": "A2",
          "ticks": 116400,
          "time": 52.71743875000001,
          "velocity": 1
        },
        {
          "duration": 0.054347874999997714,
          "durationTicks": 120,
          "midi": 45,
          "name": "A2",
          "ticks": 116520,
          "time": 52.771786625000004,
          "velocity": 1
        },
        {
          "duration": 0.05434787500000482,
          "durationTicks": 120,
          "midi": 52,
          "name": "E3",
          "ticks": 116640,
          "time": 52.8261345,
          "velocity": 1
        },
        {
          "duration": 0.054347874999997714,
          "durationTicks": 120,
          "midi": 52,
          "name": "E3",
          "ticks": 116760,
          "time": 52.88048237500001,
          "velocity": 1
        },
        {
          "duration": 0.054347874999997714,
          "durationTicks": 120,
          "midi": 52,
          "name": "E3",
          "ticks": 116880,
          "time": 52.934830250000005,
          "velocity": 1
        },
        {
          "duration": 0.05434787500000482,
          "durationTicks": 120,
          "midi": 52,
          "name": "E3",
          "ticks": 117000,
          "time": 52.989178125,
          "velocity": 1
        },
        {
          "duration": 0.054347874999997714,
          "durationTicks": 120,
          "midi": 52,
          "name": "E3",
          "ticks": 117120,
          "time": 53.04352600000001,
          "velocity": 1
        },
        {
          "duration": 0.054347874999997714,
          "durationTicks": 120,
          "midi": 64,
          "name": "E4",
          "ticks": 117600,
          "time": 53.260917500000005,
          "velocity": 1
        },
        {
          "duration": 0.05434787500000482,
          "durationTicks": 120,
          "midi": 76,
          "name": "E5",
          "ticks": 117840,
          "time": 53.36961325,
          "velocity": 1
        },
        {
          "duration": 0.054347874999997714,
          "durationTicks": 120,
          "midi": 47,
          "name": "B2",
          "ticks": 118080,
          "time": 53.478309,
          "velocity": 1
        },
        {
          "duration": 0.05434787500000482,
          "durationTicks": 120,
          "midi": 76,
          "name": "E5",
          "ticks": 118560,
          "time": 53.6957005,
          "velocity": 1
        },
        {
          "duration": 0.054347874999997714,
          "durationTicks": 120,
          "midi": 45,
          "name": "A2",
          "ticks": 119040,
          "time": 53.913092000000006,
          "velocity": 1
        },
        {
          "duration": 0.054347874999997714,
          "durationTicks": 120,
          "midi": 57,
          "name": "A3",
          "ticks": 119520,
          "time": 54.130483500000004,
          "velocity": 1
        },
        {
          "duration": 0.054347874999997714,
          "durationTicks": 120,
          "midi": 57,
          "name": "A3",
          "ticks": 119760,
          "time": 54.23917925000001,
          "velocity": 1
        },
        {
          "duration": 0.054347874999997714,
          "durationTicks": 120,
          "midi": 45,
          "name": "A2",
          "ticks": 120240,
          "time": 54.456570750000004,
          "velocity": 1
        },
        {
          "duration": 0.054347874999997714,
          "durationTicks": 120,
          "midi": 52,
          "name": "E3",
          "ticks": 120480,
          "time": 54.56526650000001,
          "velocity": 1
        },
        {
          "duration": 0.054347874999997714,
          "durationTicks": 120,
          "midi": 52,
          "name": "E3",
          "ticks": 120960,
          "time": 54.782658000000005,
          "velocity": 1
        },
        {
          "duration": 0.054347874999997714,
          "durationTicks": 120,
          "midi": 64,
          "name": "E4",
          "ticks": 121440,
          "time": 55.0000495,
          "velocity": 1
        },
        {
          "duration": 0.05434787500000482,
          "durationTicks": 120,
          "midi": 51,
          "name": "D#3",
          "ticks": 121920,
          "time": 55.217441,
          "velocity": 1
        },
        {
          "duration": 0.054347874999997714,
          "durationTicks": 120,
          "midi": 63,
          "name": "D#4",
          "ticks": 122400,
          "time": 55.434832500000006,
          "velocity": 1
        },
        {
          "duration": 0.054347874999997714,
          "durationTicks": 120,
          "midi": 50,
          "name": "D3",
          "ticks": 122880,
          "time": 55.652224000000004,
          "velocity": 1
        },
        {
          "duration": 0.054347874999997714,
          "durationTicks": 120,
          "midi": 62,
          "name": "D4",
          "ticks": 123600,
          "time": 55.978311250000004,
          "velocity": 1
        },
        {
          "duration": 0.05434787500000482,
          "durationTicks": 120,
          "midi": 43,
          "name": "G2",
          "ticks": 124080,
          "time": 56.19570275,
          "velocity": 1
        },
        {
          "duration": 0.054347874999997714,
          "durationTicks": 120,
          "midi": 50,
          "name": "D3",
          "ticks": 124320,
          "time": 56.304398500000005,
          "velocity": 1
        },
        {
          "duration": 0.054347874999997714,
          "durationTicks": 120,
          "midi": 47,
          "name": "B2",
          "ticks": 124800,
          "time": 56.52179,
          "velocity": 1
        },
        {
          "duration": 0.05434787500000482,
          "durationTicks": 120,
          "midi": 45,
          "name": "A2",
          "ticks": 125280,
          "time": 56.7391815,
          "velocity": 1
        },
        {
          "duration": 0.054347874999997714,
          "durationTicks": 120,
          "midi": 46,
          "name": "A#2",
          "ticks": 125760,
          "time": 56.956573000000006,
          "velocity": 1
        },
        {
          "duration": 0.054347874999997714,
          "durationTicks": 120,
          "midi": 47,
          "name": "B2",
          "ticks": 126240,
          "time": 57.173964500000004,
          "velocity": 1
        },
        {
          "duration": 0.05434787500000482,
          "durationTicks": 120,
          "midi": 40,
          "name": "E2",
          "ticks": 126720,
          "time": 57.391356,
          "velocity": 1
        },
        {
          "duration": 0.054347874999997714,
          "durationTicks": 120,
          "midi": 52,
          "name": "E3",
          "ticks": 127200,
          "time": 57.60874750000001,
          "velocity": 1
        },
        {
          "duration": 0.054347874999997714,
          "durationTicks": 120,
          "midi": 47,
          "name": "B2",
          "ticks": 127680,
          "time": 57.826139000000005,
          "velocity": 1
        },
        {
          "duration": 0.05434787500000482,
          "durationTicks": 120,
          "midi": 46,
          "name": "A#2",
          "ticks": 128160,
          "time": 58.0435305,
          "velocity": 1
        },
        {
          "duration": 0.05434787500000482,
          "durationTicks": 120,
          "midi": 45,
          "name": "A2",
          "ticks": 128640,
          "time": 58.260922,
          "velocity": 1
        }
      ],
      "endOfTrackTicks": 128760
    },
    {
      "channel": 0,
      "controlChanges": {},
      "pitchBends": [],
      "instrument": {
        "family": "piano",
        "number": 0,
        "name": "acoustic grand piano"
      },
      "name": "",
      "notes": [
        {
          "duration": 0.16304362500000003,
          "durationTicks": 360,
          "midi": 36,
          "name": "C2",
          "ticks": 0,
          "time": 0,
          "velocity": 1
        },
        {
          "duration": 0.054347875000000004,
          "durationTicks": 120,
          "midi": 64,
          "name": "E4",
          "ticks": 0,
          "time": 0,
          "velocity": 1
        },
        {
          "duration": 0.054347875000000004,
          "durationTicks": 120,
          "midi": 71,
          "name": "B4",
          "ticks": 0,
          "time": 0,
          "velocity": 1
        },
        {
          "duration": 0.05434787499999999,
          "durationTicks": 120,
          "midi": 64,
          "name": "E4",
          "ticks": 960,
          "time": 0.43478300000000003,
          "velocity": 1
        },
        {
          "duration": 0.05434787499999999,
          "durationTicks": 120,
          "midi": 71,
          "name": "B4",
          "ticks": 960,
          "time": 0.43478300000000003,
          "velocity": 1
        },
        {
          "duration": 0.16304362499999991,
          "durationTicks": 360,
          "midi": 43,
          "name": "G2",
          "ticks": 1440,
          "time": 0.6521745000000001,
          "velocity": 1
        },
        {
          "duration": 0.16304362500000003,
          "durationTicks": 360,
          "midi": 43,
          "name": "G2",
          "ticks": 1920,
          "time": 0.8695660000000001,
          "velocity": 1
        },
        {
          "duration": 0.054347875000000156,
          "durationTicks": 120,
          "midi": 64,
          "name": "E4",
          "ticks": 2400,
          "time": 1.0869575,
          "velocity": 1
        },
        {
          "duration": 0.054347875000000156,
          "durationTicks": 120,
          "midi": 71,
          "name": "B4",
          "ticks": 2400,
          "time": 1.0869575,
          "velocity": 1
        },
        {
          "duration": 0.054347874999999934,
          "durationTicks": 120,
          "midi": 64,
          "name": "E4",
          "ticks": 3360,
          "time": 1.5217405000000002,
          "velocity": 1
        },
        {
          "duration": 0.054347874999999934,
          "durationTicks": 120,
          "midi": 71,
          "name": "B4",
          "ticks": 3360,
          "time": 1.5217405000000002,
          "velocity": 1
        },
        {
          "duration": 0.16304362500000003,
          "durationTicks": 360,
          "midi": 36,
          "name": "C2",
          "ticks": 3840,
          "time": 1.7391320000000001,
          "velocity": 1
        },
        {
          "duration": 0.054347875000000156,
          "durationTicks": 120,
          "midi": 64,
          "name": "E4",
          "ticks": 4320,
          "time": 1.9565235,
          "velocity": 1
        },
        {
          "duration": 0.054347875000000156,
          "durationTicks": 120,
          "midi": 71,
          "name": "B4",
          "ticks": 4320,
          "time": 1.9565235,
          "velocity": 1
        },
        {
          "duration": 0.1630436249999998,
          "durationTicks": 360,
          "midi": 43,
          "name": "G2",
          "ticks": 5280,
          "time": 2.3913065000000002,
          "velocity": 1
        },
        {
          "duration": 0.054347874999999934,
          "durationTicks": 120,
          "midi": 64,
          "name": "E4",
          "ticks": 5760,
          "time": 2.6086980000000004,
          "velocity": 1
        },
        {
          "duration": 0.054347874999999934,
          "durationTicks": 120,
          "midi": 71,
          "name": "B4",
          "ticks": 5760,
          "time": 2.6086980000000004,
          "velocity": 1
        },
        {
          "duration": 0.1630436249999998,
          "durationTicks": 360,
          "midi": 43,
          "name": "G2",
          "ticks": 5760,
          "time": 2.6086980000000004,
          "velocity": 1
        },
        {
          "duration": 0.054347874999999934,
          "durationTicks": 120,
          "midi": 64,
          "name": "E4",
          "ticks": 6720,
          "time": 3.0434810000000003,
          "velocity": 1
        },
        {
          "duration": 0.054347874999999934,
          "durationTicks": 120,
          "midi": 71,
          "name": "B4",
          "ticks": 6720,
          "time": 3.0434810000000003,
          "velocity": 1
        },
        {
          "duration": 0.054347874999999934,
          "durationTicks": 120,
          "midi": 60,
          "name": "C4",
          "ticks": 7680,
          "time": 3.4782640000000002,
          "velocity": 1
        },
        {
          "duration": 0.054347874999999934,
          "durationTicks": 120,
          "midi": 66,
          "name": "F#4",
          "ticks": 7680,
          "time": 3.4782640000000002,
          "velocity": 1
        },
        {
          "duration": 0.1630436249999998,
          "durationTicks": 360,
          "midi": 38,
          "name": "D2",
          "ticks": 7680,
          "time": 3.4782640000000002,
          "velocity": 1
        },
        {
          "duration": 0.054347874999999934,
          "durationTicks": 120,
          "midi": 60,
          "name": "C4",
          "ticks": 8640,
          "time": 3.913047,
          "velocity": 1
        },
        {
          "duration": 0.054347874999999934,
          "durationTicks": 120,
          "midi": 66,
          "name": "F#4",
          "ticks": 8640,
          "time": 3.913047,
          "velocity": 1
        },
        {
          "duration": 0.16304362500000025,
          "durationTicks": 360,
          "midi": 45,
          "name": "A2",
          "ticks": 9120,
          "time": 4.1304385,
          "velocity": 1
        },
        {
          "duration": 0.16304362500000025,
          "durationTicks": 360,
          "midi": 45,
          "name": "A2",
          "ticks": 9600,
          "time": 4.34783,
          "velocity": 1
        },
        {
          "duration": 0.05434787499999949,
          "durationTicks": 120,
          "midi": 60,
          "name": "C4",
          "ticks": 10080,
          "time": 4.565221500000001,
          "velocity": 1
        },
        {
          "duration": 0.05434787499999949,
          "durationTicks": 120,
          "midi": 66,
          "name": "F#4",
          "ticks": 10080,
          "time": 4.565221500000001,
          "velocity": 1
        },
        {
          "duration": 0.05434787500000038,
          "durationTicks": 120,
          "midi": 60,
          "name": "C4",
          "ticks": 11040,
          "time": 5.0000045,
          "velocity": 1
        },
        {
          "duration": 0.05434787500000038,
          "durationTicks": 120,
          "midi": 66,
          "name": "F#4",
          "ticks": 11040,
          "time": 5.0000045,
          "velocity": 1
        },
        {
          "duration": 0.16304362499999936,
          "durationTicks": 360,
          "midi": 38,
          "name": "D2",
          "ticks": 11520,
          "time": 5.217396000000001,
          "velocity": 1
        },
        {
          "duration": 0.05434787499999949,
          "durationTicks": 120,
          "midi": 60,
          "name": "C4",
          "ticks": 12000,
          "time": 5.4347875000000005,
          "velocity": 1
        },
        {
          "duration": 0.05434787499999949,
          "durationTicks": 120,
          "midi": 66,
          "name": "F#4",
          "ticks": 12000,
          "time": 5.4347875000000005,
          "velocity": 1
        },
        {
          "duration": 0.16304362500000025,
          "durationTicks": 360,
          "midi": 45,
          "name": "A2",
          "ticks": 12960,
          "time": 5.8695705,
          "velocity": 1
        },
        {
          "duration": 0.05434787499999949,
          "durationTicks": 120,
          "midi": 60,
          "name": "C4",
          "ticks": 13440,
          "time": 6.086962000000001,
          "velocity": 1
        },
        {
          "duration": 0.05434787499999949,
          "durationTicks": 120,
          "midi": 66,
          "name": "F#4",
          "ticks": 13440,
          "time": 6.086962000000001,
          "velocity": 1
        },
        {
          "duration": 0.16304362499999936,
          "durationTicks": 360,
          "midi": 45,
          "name": "A2",
          "ticks": 13440,
          "time": 6.086962000000001,
          "velocity": 1
        },
        {
          "duration": 0.05434787500000038,
          "durationTicks": 120,
          "midi": 60,
          "name": "C4",
          "ticks": 14400,
          "time": 6.521745,
          "velocity": 1
        },
        {
          "duration": 0.05434787500000038,
          "durationTicks": 120,
          "midi": 66,
          "name": "F#4",
          "ticks": 14400,
          "time": 6.521745,
          "velocity": 1
        },
        {
          "duration": 0.05434787500000038,
          "durationTicks": 120,
          "midi": 60,
          "name": "C4",
          "ticks": 15360,
          "time": 6.9565280000000005,
          "velocity": 1
        },
        {
          "duration": 0.05434787500000038,
          "durationTicks": 120,
          "midi": 65,
          "name": "F4",
          "ticks": 15360,
          "time": 6.9565280000000005,
          "velocity": 1
        },
        {
          "duration": 0.16304362500000025,
          "durationTicks": 360,
          "midi": 43,
          "name": "G2",
          "ticks": 15360,
          "time": 6.9565280000000005,
          "velocity": 1
        },
        {
          "duration": 0.05434787499999949,
          "durationTicks": 120,
          "midi": 60,
          "name": "C4",
          "ticks": 16320,
          "time": 7.391311000000001,
          "velocity": 1
        },
        {
          "duration": 0.05434787499999949,
          "durationTicks": 120,
          "midi": 65,
          "name": "F4",
          "ticks": 16320,
          "time": 7.391311000000001,
          "velocity": 1
        },
        {
          "duration": 0.16304362500000025,
          "durationTicks": 360,
          "midi": 50,
          "name": "D3",
          "ticks": 16800,
          "time": 7.608702500000001,
          "velocity": 1
        },
        {
          "duration": 0.16304362500000025,
          "durationTicks": 360,
          "midi": 50,
          "name": "D3",
          "ticks": 17280,
          "time": 7.826094,
          "velocity": 1
        },
        {
          "duration": 0.05434787499999949,
          "durationTicks": 120,
          "midi": 60,
          "name": "C4",
          "ticks": 17760,
          "time": 8.043485500000001,
          "velocity": 1
        },
        {
          "duration": 0.05434787499999949,
          "durationTicks": 120,
          "midi": 65,
          "name": "F4",
          "ticks": 17760,
          "time": 8.043485500000001,
          "velocity": 1
        },
        {
          "duration": 0.05434787499999949,
          "durationTicks": 120,
          "midi": 65,
          "name": "F4",
          "ticks": 18720,
          "time": 8.4782685,
          "velocity": 1
        },
        {
          "duration": 0.05434787499999949,
          "durationTicks": 120,
          "midi": 59,
          "name": "B3",
          "ticks": 18720,
          "time": 8.4782685,
          "velocity": 1
        },
        {
          "duration": 0.16304362500000025,
          "durationTicks": 360,
          "midi": 43,
          "name": "G2",
          "ticks": 19200,
          "time": 8.69566,
          "velocity": 1
        },
        {
          "duration": 0.05434787500000127,
          "durationTicks": 120,
          "midi": 65,
          "name": "F4",
          "ticks": 19680,
          "time": 8.9130515,
          "velocity": 1
        },
        {
          "duration": 0.05434787500000127,
          "durationTicks": 120,
          "midi": 59,
          "name": "B3",
          "ticks": 19680,
          "time": 8.9130515,
          "velocity": 1
        },
        {
          "duration": 0.16304362500000025,
          "durationTicks": 360,
          "midi": 50,
          "name": "D3",
          "ticks": 20640,
          "time": 9.347834500000001,
          "velocity": 1
        },
        {
          "duration": 0.16304362500000025,
          "durationTicks": 360,
          "midi": 50,
          "name": "D3",
          "ticks": 21120,
          "time": 9.565226000000001,
          "velocity": 1
        },
        {
          "duration": 0.05434787499999949,
          "durationTicks": 120,
          "midi": 65,
          "name": "F4",
          "ticks": 21120,
          "time": 9.565226000000001,
          "velocity": 1
        },
        {
          "duration": 0.05434787499999949,
          "durationTicks": 120,
          "midi": 59,
          "name": "B3",
          "ticks": 21120,
          "time": 9.565226000000001,
          "velocity": 1
        },
        {
          "duration": 0.05434787499999949,
          "durationTicks": 120,
          "midi": 65,
          "name": "F4",
          "ticks": 22080,
          "time": 10.000009,
          "velocity": 1
        },
        {
          "duration": 0.05434787499999949,
          "durationTicks": 120,
          "midi": 59,
          "name": "B3",
          "ticks": 22080,
          "time": 10.000009,
          "velocity": 1
        },
        {
          "duration": 0.05434787499999949,
          "durationTicks": 120,
          "midi": 60,
          "name": "C4",
          "ticks": 23040,
          "time": 10.434792000000002,
          "velocity": 1
        },
        {
          "duration": 0.05434787499999949,
          "durationTicks": 120,
          "midi": 64,
          "name": "E4",
          "ticks": 23040,
          "time": 10.434792000000002,
          "velocity": 1
        },
        {
          "duration": 0.16304362499999847,
          "durationTicks": 360,
          "midi": 48,
          "name": "C3",
          "ticks": 23040,
          "time": 10.434792000000002,
          "velocity": 1
        },
        {
          "duration": 0.05434787499999949,
          "durationTicks": 120,
          "midi": 60,
          "name": "C4",
          "ticks": 24000,
          "time": 10.869575000000001,
          "velocity": 1
        },
        {
          "duration": 0.05434787499999949,
          "durationTicks": 120,
          "midi": 64,
          "name": "E4",
          "ticks": 24000,
          "time": 10.869575000000001,
          "velocity": 1
        },
        {
          "duration": 0.16304362500000025,
          "durationTicks": 360,
          "midi": 48,
          "name": "C3",
          "ticks": 24480,
          "time": 11.0869665,
          "velocity": 1
        },
        {
          "duration": 0.16304362500000025,
          "durationTicks": 360,
          "midi": 45,
          "name": "A2",
          "ticks": 24960,
          "time": 11.304358,
          "velocity": 1
        },
        {
          "duration": 0.05434787500000127,
          "durationTicks": 120,
          "midi": 60,
          "name": "C4",
          "ticks": 25440,
          "time": 11.5217495,
          "velocity": 1
        },
        {
          "duration": 0.05434787500000127,
          "durationTicks": 120,
          "midi": 64,
          "name": "E4",
          "ticks": 25440,
          "time": 11.5217495,
          "velocity": 1
        },
        {
          "duration": 0.05434787499999949,
          "durationTicks": 120,
          "midi": 64,
          "name": "E4",
          "ticks": 26400,
          "time": 11.956532500000002,
          "velocity": 1
        },
        {
          "duration": 0.05434787499999949,
          "durationTicks": 120,
          "midi": 59,
          "name": "B3",
          "ticks": 26400,
          "time": 11.956532500000002,
          "velocity": 1
        },
        {
          "duration": 0.16304362499999847,
          "durationTicks": 360,
          "midi": 45,
          "name": "A2",
          "ticks": 26400,
          "time": 11.956532500000002,
          "velocity": 1
        },
        {
          "duration": 0.16304362500000025,
          "durationTicks": 360,
          "midi": 38,
          "name": "D2",
          "ticks": 26880,
          "time": 12.173924000000001,
          "velocity": 1
        },
        {
          "duration": 0.05434787499999949,
          "durationTicks": 120,
          "midi": 64,
          "name": "E4",
          "ticks": 27360,
          "time": 12.391315500000001,
          "velocity": 1
        },
        {
          "duration": 0.05434787499999949,
          "durationTicks": 120,
          "midi": 59,
          "name": "B3",
          "ticks": 27360,
          "time": 12.391315500000001,
          "velocity": 1
        },
        {
          "duration": 0,
          "durationTicks": 0,
          "midi": 38,
          "name": "D2",
          "ticks": 28126,
          "time": 12.738236102083334,
          "velocity": 1
        },
        {
          "duration": 0.16304362500000025,
          "durationTicks": 360,
          "midi": 38,
          "name": "D2",
          "ticks": 28320,
          "time": 12.8260985,
          "velocity": 1
        },
        {
          "duration": 0.10869575000000076,
          "durationTicks": 240,
          "midi": 64,
          "name": "E4",
          "ticks": 28800,
          "time": 13.04349,
          "velocity": 1
        },
        {
          "duration": 0.10869575000000076,
          "durationTicks": 240,
          "midi": 59,
          "name": "B3",
          "ticks": 28800,
          "time": 13.04349,
          "velocity": 1
        },
        {
          "duration": 0.16304362500000025,
          "durationTicks": 360,
          "midi": 43,
          "name": "G2",
          "ticks": 28800,
          "time": 13.04349,
          "velocity": 1
        },
        {
          "duration": 0.01766305937499979,
          "durationTicks": 39,
          "midi": 64,
          "name": "E4",
          "ticks": 29120,
          "time": 13.188417666666668,
          "velocity": 0.9133858267716536
        },
        {
          "duration": 0.01766305937499979,
          "durationTicks": 39,
          "midi": 59,
          "name": "B3",
          "ticks": 29120,
          "time": 13.188417666666668,
          "velocity": 0.9133858267716536
        },
        {
          "duration": 0.017663059374998014,
          "durationTicks": 39,
          "midi": 52,
          "name": "E3",
          "ticks": 29280,
          "time": 13.260881500000002,
          "velocity": 0.9133858267716536
        },
        {
          "duration": 0.017663059374998014,
          "durationTicks": 39,
          "midi": 47,
          "name": "B2",
          "ticks": 29280,
          "time": 13.260881500000002,
          "velocity": 0.9133858267716536
        },
        {
          "duration": 0.024003644791665835,
          "durationTicks": 53,
          "midi": 64,
          "name": "E4",
          "ticks": 29440,
          "time": 13.333345333333336,
          "velocity": 1
        },
        {
          "duration": 0.024003644791665835,
          "durationTicks": 53,
          "midi": 59,
          "name": "B3",
          "ticks": 29440,
          "time": 13.333345333333336,
          "velocity": 1
        },
        {
          "duration": 0.024003644791665835,
          "durationTicks": 53,
          "midi": 52,
          "name": "E3",
          "ticks": 29600,
          "time": 13.405809166666668,
          "velocity": 1
        },
        {
          "duration": 0.024003644791665835,
          "durationTicks": 53,
          "midi": 47,
          "name": "B2",
          "ticks": 29600,
          "time": 13.405809166666668,
          "velocity": 1
        },
        {
          "duration": 0.06385875312500033,
          "durationTicks": 141,
          "midi": 64,
          "name": "E4",
          "ticks": 29760,
          "time": 13.478273000000002,
          "velocity": 1
        },
        {
          "duration": 0.06385875312500033,
          "durationTicks": 141,
          "midi": 59,
          "name": "B3",
          "ticks": 29760,
          "time": 13.478273000000002,
          "velocity": 1
        },
        {
          "duration": 0.06385875312500033,
          "durationTicks": 141,
          "midi": 67,
          "name": "G4",
          "ticks": 29760,
          "time": 13.478273000000002,
          "velocity": 1
        },
        {
          "duration": 0.03940220937500172,
          "durationTicks": 87,
          "midi": 67,
          "name": "G4",
          "ticks": 30080,
          "time": 13.623200666666667,
          "velocity": 0.9133858267716536
        },
        {
          "duration": 0.03940220937500172,
          "durationTicks": 87,
          "midi": 64,
          "name": "E4",
          "ticks": 30080,
          "time": 13.623200666666667,
          "velocity": 0.9133858267716536
        },
        {
          "duration": 0.03940220937500172,
          "durationTicks": 87,
          "midi": 59,
          "name": "B3",
          "ticks": 30080,
          "time": 13.623200666666667,
          "velocity": 0.9133858267716536
        },
        {
          "duration": 0.03532611874999958,
          "durationTicks": 78,
          "midi": 55,
          "name": "G3",
          "ticks": 30240,
          "time": 13.695664500000001,
          "velocity": 0.9133858267716536
        },
        {
          "duration": 0.03532611874999958,
          "durationTicks": 78,
          "midi": 52,
          "name": "E3",
          "ticks": 30240,
          "time": 13.695664500000001,
          "velocity": 0.9133858267716536
        },
        {
          "duration": 0.03532611874999958,
          "durationTicks": 78,
          "midi": 47,
          "name": "B2",
          "ticks": 30240,
          "time": 13.695664500000001,
          "velocity": 0.9133858267716536
        },
        {
          "duration": 0.1449276666666659,
          "durationTicks": 320,
          "midi": 67,
          "name": "G4",
          "ticks": 30400,
          "time": 13.768128333333335,
          "velocity": 1
        },
        {
          "duration": 0.1449276666666659,
          "durationTicks": 320,
          "midi": 64,
          "name": "E4",
          "ticks": 30400,
          "time": 13.768128333333335,
          "velocity": 1
        },
        {
          "duration": 0.1449276666666659,
          "durationTicks": 320,
          "midi": 59,
          "name": "B3",
          "ticks": 30400,
          "time": 13.768128333333335,
          "velocity": 1
        },
        {
          "duration": 0.046195693750000544,
          "durationTicks": 102,
          "midi": 55,
          "name": "G3",
          "ticks": 30560,
          "time": 13.840592166666667,
          "velocity": 1
        },
        {
          "duration": 0.046195693750000544,
          "durationTicks": 102,
          "midi": 52,
          "name": "E3",
          "ticks": 30560,
          "time": 13.840592166666667,
          "velocity": 1
        },
        {
          "duration": 0.046195693750000544,
          "durationTicks": 102,
          "midi": 47,
          "name": "B2",
          "ticks": 30560,
          "time": 13.840592166666667,
          "velocity": 1
        },
        {
          "duration": 0.16304362500000025,
          "durationTicks": 360,
          "midi": 36,
          "name": "C2",
          "ticks": 30720,
          "time": 13.913056000000001,
          "velocity": 1
        },
        {
          "duration": 0.4347829999999995,
          "durationTicks": 960,
          "midi": 64,
          "name": "E4",
          "ticks": 30720,
          "time": 13.913056000000001,
          "velocity": 1
        },
        {
          "duration": 0.4347829999999995,
          "durationTicks": 960,
          "midi": 71,
          "name": "B4",
          "ticks": 30720,
          "time": 13.913056000000001,
          "velocity": 1
        },
        {
          "duration": 0.05434787500000127,
          "durationTicks": 120,
          "midi": 64,
          "name": "E4",
          "ticks": 31680,
          "time": 14.347839,
          "velocity": 1
        },
        {
          "duration": 0.05434787500000127,
          "durationTicks": 120,
          "midi": 71,
          "name": "B4",
          "ticks": 31680,
          "time": 14.347839,
          "velocity": 1
        },
        {
          "duration": 0.16304362500000025,
          "durationTicks": 360,
          "midi": 43,
          "name": "G2",
          "ticks": 32160,
          "time": 14.5652305,
          "velocity": 1
        },
        {
          "duration": 0.16304362499999847,
          "durationTicks": 360,
          "midi": 43,
          "name": "G2",
          "ticks": 32640,
          "time": 14.782622000000002,
          "velocity": 1
        },
        {
          "duration": 0.05434787499999949,
          "durationTicks": 120,
          "midi": 64,
          "name": "E4",
          "ticks": 33120,
          "time": 15.000013500000001,
          "velocity": 1
        },
        {
          "duration": 0.05434787499999949,
          "durationTicks": 120,
          "midi": 71,
          "name": "B4",
          "ticks": 33120,
          "time": 15.000013500000001,
          "velocity": 1
        },
        {
          "duration": 0.05434787499999949,
          "durationTicks": 120,
          "midi": 64,
          "name": "E4",
          "ticks": 34080,
          "time": 15.434796500000001,
          "velocity": 1
        },
        {
          "duration": 0.05434787499999949,
          "durationTicks": 120,
          "midi": 71,
          "name": "B4",
          "ticks": 34080,
          "time": 15.434796500000001,
          "velocity": 1
        },
        {
          "duration": 0.16304362500000025,
          "durationTicks": 360,
          "midi": 36,
          "name": "C2",
          "ticks": 34560,
          "time": 15.652188,
          "velocity": 1
        },
        {
          "duration": 0.05434787500000127,
          "durationTicks": 120,
          "midi": 64,
          "name": "E4",
          "ticks": 35040,
          "time": 15.8695795,
          "velocity": 1
        },
        {
          "duration": 0.05434787500000127,
          "durationTicks": 120,
          "midi": 71,
          "name": "B4",
          "ticks": 35040,
          "time": 15.8695795,
          "velocity": 1
        },
        {
          "duration": 0.16304362500000025,
          "durationTicks": 360,
          "midi": 43,
          "name": "G2",
          "ticks": 36000,
          "time": 16.3043625,
          "velocity": 1
        },
        {
          "duration": 0.05434787500000127,
          "durationTicks": 120,
          "midi": 64,
          "name": "E4",
          "ticks": 36480,
          "time": 16.521754,
          "velocity": 1
        },
        {
          "duration": 0.05434787500000127,
          "durationTicks": 120,
          "midi": 71,
          "name": "B4",
          "ticks": 36480,
          "time": 16.521754,
          "velocity": 1
        },
        {
          "duration": 0.16304362500000025,
          "durationTicks": 360,
          "midi": 43,
          "name": "G2",
          "ticks": 36480,
          "time": 16.521754,
          "velocity": 1
        },
        {
          "duration": 0.05434787500000127,
          "durationTicks": 120,
          "midi": 64,
          "name": "E4",
          "ticks": 37440,
          "time": 16.956537,
          "velocity": 1
        },
        {
          "duration": 0.05434787500000127,
          "durationTicks": 120,
          "midi": 71,
          "name": "B4",
          "ticks": 37440,
          "time": 16.956537,
          "velocity": 1
        },
        {
          "duration": 0.4347829999999995,
          "durationTicks": 960,
          "midi": 60,
          "name": "C4",
          "ticks": 38400,
          "time": 17.39132,
          "velocity": 1
        },
        {
          "duration": 0.4347829999999995,
          "durationTicks": 960,
          "midi": 66,
          "name": "F#4",
          "ticks": 38400,
          "time": 17.39132,
          "velocity": 1
        },
        {
          "duration": 0.16304362500000025,
          "durationTicks": 360,
          "midi": 38,
          "name": "D2",
          "ticks": 38400,
          "time": 17.39132,
          "velocity": 1
        },
        {
          "duration": 0.05434787500000127,
          "durationTicks": 120,
          "midi": 60,
          "name": "C4",
          "ticks": 39360,
          "time": 17.826103,
          "velocity": 1
        },
        {
          "duration": 0.05434787500000127,
          "durationTicks": 120,
          "midi": 66,
          "name": "F#4",
          "ticks": 39360,
          "time": 17.826103,
          "velocity": 1
        },
        {
          "duration": 0.16304362500000025,
          "durationTicks": 360,
          "midi": 45,
          "name": "A2",
          "ticks": 39840,
          "time": 18.0434945,
          "velocity": 1
        },
        {
          "duration": 0.1630436249999967,
          "durationTicks": 360,
          "midi": 45,
          "name": "A2",
          "ticks": 40320,
          "time": 18.260886000000003,
          "velocity": 1
        },
        {
          "duration": 0.05434787500000127,
          "durationTicks": 120,
          "midi": 60,
          "name": "C4",
          "ticks": 40800,
          "time": 18.4782775,
          "velocity": 1
        },
        {
          "duration": 0.05434787500000127,
          "durationTicks": 120,
          "midi": 66,
          "name": "F#4",
          "ticks": 40800,
          "time": 18.4782775,
          "velocity": 1
        },
        {
          "duration": 0.05434787500000127,
          "durationTicks": 120,
          "midi": 60,
          "name": "C4",
          "ticks": 41760,
          "time": 18.9130605,
          "velocity": 1
        },
        {
          "duration": 0.05434787500000127,
          "durationTicks": 120,
          "midi": 66,
          "name": "F#4",
          "ticks": 41760,
          "time": 18.9130605,
          "velocity": 1
        },
        {
          "duration": 0.21739150000000151,
          "durationTicks": 480,
          "midi": 60,
          "name": "C4",
          "ticks": 42720,
          "time": 19.3478435,
          "velocity": 1
        },
        {
          "duration": 0.21739150000000151,
          "durationTicks": 480,
          "midi": 66,
          "name": "F#4",
          "ticks": 42720,
          "time": 19.3478435,
          "velocity": 1
        },
        {
          "duration": 0.10869574999999898,
          "durationTicks": 240,
          "midi": 60,
          "name": "C4",
          "ticks": 44160,
          "time": 20.000018,
          "velocity": 1
        },
        {
          "duration": 0.10869574999999898,
          "durationTicks": 240,
          "midi": 66,
          "name": "F#4",
          "ticks": 44160,
          "time": 20.000018,
          "velocity": 1
        },
        {
          "duration": 0.10869575000000253,
          "durationTicks": 240,
          "midi": 60,
          "name": "C4",
          "ticks": 45120,
          "time": 20.434801,
          "velocity": 1
        },
        {
          "duration": 0.10869575000000253,
          "durationTicks": 240,
          "midi": 66,
          "name": "F#4",
          "ticks": 45120,
          "time": 20.434801,
          "velocity": 1
        },
        {
          "duration": 0.4347829999999995,
          "durationTicks": 960,
          "midi": 60,
          "name": "C4",
          "ticks": 46080,
          "time": 20.869584000000003,
          "velocity": 1
        },
        {
          "duration": 0.4347829999999995,
          "durationTicks": 960,
          "midi": 65,
          "name": "F4",
          "ticks": 46080,
          "time": 20.869584000000003,
          "velocity": 1
        },
        {
          "duration": 0.1630436249999967,
          "durationTicks": 360,
          "midi": 43,
          "name": "G2",
          "ticks": 46080,
          "time": 20.869584000000003,
          "velocity": 1
        },
        {
          "duration": 0.054347874999997714,
          "durationTicks": 120,
          "midi": 60,
          "name": "C4",
          "ticks": 47040,
          "time": 21.304367000000003,
          "velocity": 1
        },
        {
          "duration": 0.054347874999997714,
          "durationTicks": 120,
          "midi": 65,
          "name": "F4",
          "ticks": 47040,
          "time": 21.304367000000003,
          "velocity": 1
        },
        {
          "duration": 0.16304362500000025,
          "durationTicks": 360,
          "midi": 50,
          "name": "D3",
          "ticks": 47520,
          "time": 21.5217585,
          "velocity": 1
        },
        {
          "duration": 0.16304362500000025,
          "durationTicks": 360,
          "midi": 50,
          "name": "D3",
          "ticks": 48000,
          "time": 21.739150000000002,
          "velocity": 1
        },
        {
          "duration": 0.05434787500000127,
          "durationTicks": 120,
          "midi": 60,
          "name": "C4",
          "ticks": 48480,
          "time": 21.9565415,
          "velocity": 1
        },
        {
          "duration": 0.05434787500000127,
          "durationTicks": 120,
          "midi": 65,
          "name": "F4",
          "ticks": 48480,
          "time": 21.9565415,
          "velocity": 1
        },
        {
          "duration": 0.054347874999997714,
          "durationTicks": 120,
          "midi": 65,
          "name": "F4",
          "ticks": 49440,
          "time": 22.391324500000003,
          "velocity": 1
        },
        {
          "duration": 0.054347874999997714,
          "durationTicks": 120,
          "midi": 59,
          "name": "B3",
          "ticks": 49440,
          "time": 22.391324500000003,
          "velocity": 1
        },
        {
          "duration": 0.16304362500000025,
          "durationTicks": 360,
          "midi": 43,
          "name": "G2",
          "ticks": 49920,
          "time": 22.608716,
          "velocity": 1
        },
        {
          "duration": 0.054347874999997714,
          "durationTicks": 120,
          "midi": 65,
          "name": "F4",
          "ticks": 50400,
          "time": 22.826107500000003,
          "velocity": 1
        },
        {
          "duration": 0.054347874999997714,
          "durationTicks": 120,
          "midi": 59,
          "name": "B3",
          "ticks": 50400,
          "time": 22.826107500000003,
          "velocity": 1
        },
        {
          "duration": 0.16304362500000025,
          "durationTicks": 360,
          "midi": 50,
          "name": "D3",
          "ticks": 51360,
          "time": 23.260890500000002,
          "velocity": 1
        },
        {
          "duration": 0.16304362500000025,
          "durationTicks": 360,
          "midi": 50,
          "name": "D3",
          "ticks": 51840,
          "time": 23.478282,
          "velocity": 1
        },
        {
          "duration": 0.05434787500000127,
          "durationTicks": 120,
          "midi": 65,
          "name": "F4",
          "ticks": 51840,
          "time": 23.478282,
          "velocity": 1
        },
        {
          "duration": 0.05434787500000127,
          "durationTicks": 120,
          "midi": 59,
          "name": "B3",
          "ticks": 51840,
          "time": 23.478282,
          "velocity": 1
        },
        {
          "duration": 0.054347874999997714,
          "durationTicks": 120,
          "midi": 65,
          "name": "F4",
          "ticks": 52800,
          "time": 23.913065000000003,
          "velocity": 1
        },
        {
          "duration": 0.054347874999997714,
          "durationTicks": 120,
          "midi": 59,
          "name": "B3",
          "ticks": 52800,
          "time": 23.913065000000003,
          "velocity": 1
        },
        {
          "duration": 0.054347874999997714,
          "durationTicks": 120,
          "midi": 60,
          "name": "C4",
          "ticks": 53760,
          "time": 24.347848000000003,
          "velocity": 1
        },
        {
          "duration": 0.054347874999997714,
          "durationTicks": 120,
          "midi": 64,
          "name": "E4",
          "ticks": 53760,
          "time": 24.347848000000003,
          "velocity": 1
        },
        {
          "duration": 0.16304362500000025,
          "durationTicks": 360,
          "midi": 48,
          "name": "C3",
          "ticks": 53760,
          "time": 24.347848000000003,
          "velocity": 1
        },
        {
          "duration": 0.05434787500000127,
          "durationTicks": 120,
          "midi": 60,
          "name": "C4",
          "ticks": 54720,
          "time": 24.782631000000002,
          "velocity": 1
        },
        {
          "duration": 0.05434787500000127,
          "durationTicks": 120,
          "midi": 64,
          "name": "E4",
          "ticks": 54720,
          "time": 24.782631000000002,
          "velocity": 1
        },
        {
          "duration": 0.16304362500000025,
          "durationTicks": 360,
          "midi": 48,
          "name": "C3",
          "ticks": 55200,
          "time": 25.0000225,
          "velocity": 1
        },
        {
          "duration": 0.16304362500000025,
          "durationTicks": 360,
          "midi": 45,
          "name": "A2",
          "ticks": 55680,
          "time": 25.217414,
          "velocity": 1
        },
        {
          "duration": 0.054347874999997714,
          "durationTicks": 120,
          "midi": 60,
          "name": "C4",
          "ticks": 56160,
          "time": 25.434805500000003,
          "velocity": 1
        },
        {
          "duration": 0.054347874999997714,
          "durationTicks": 120,
          "midi": 64,
          "name": "E4",
          "ticks": 56160,
          "time": 25.434805500000003,
          "velocity": 1
        },
        {
          "duration": 0.054347874999997714,
          "durationTicks": 120,
          "midi": 64,
          "name": "E4",
          "ticks": 57120,
          "time": 25.869588500000003,
          "velocity": 1
        },
        {
          "duration": 0.054347874999997714,
          "durationTicks": 120,
          "midi": 59,
          "name": "B3",
          "ticks": 57120,
          "time": 25.869588500000003,
          "velocity": 1
        },
        {
          "duration": 0.16304362500000025,
          "durationTicks": 360,
          "midi": 45,
          "name": "A2",
          "ticks": 57120,
          "time": 25.869588500000003,
          "velocity": 1
        },
        {
          "duration": 0.16304362500000025,
          "durationTicks": 360,
          "midi": 38,
          "name": "D2",
          "ticks": 57600,
          "time": 26.08698,
          "velocity": 1
        },
        {
          "duration": 0.05434787500000127,
          "durationTicks": 120,
          "midi": 64,
          "name": "E4",
          "ticks": 58080,
          "time": 26.304371500000002,
          "velocity": 1
        },
        {
          "duration": 0.05434787500000127,
          "durationTicks": 120,
          "midi": 59,
          "name": "B3",
          "ticks": 58080,
          "time": 26.304371500000002,
          "velocity": 1
        },
        {
          "duration": 0.16304362500000025,
          "durationTicks": 360,
          "midi": 38,
          "name": "D2",
          "ticks": 59040,
          "time": 26.7391545,
          "velocity": 1
        },
        {
          "duration": 0.054347874999997714,
          "durationTicks": 120,
          "midi": 64,
          "name": "E4",
          "ticks": 59520,
          "time": 26.956546000000003,
          "velocity": 1
        },
        {
          "duration": 0.054347874999997714,
          "durationTicks": 120,
          "midi": 59,
          "name": "B3",
          "ticks": 59520,
          "time": 26.956546000000003,
          "velocity": 1
        },
        {
          "duration": 0.16304362500000025,
          "durationTicks": 360,
          "midi": 43,
          "name": "G2",
          "ticks": 59520,
          "time": 26.956546000000003,
          "velocity": 1
        },
        {
          "duration": 0.054347874999997714,
          "durationTicks": 120,
          "midi": 64,
          "name": "E4",
          "ticks": 60480,
          "time": 27.391329000000002,
          "velocity": 1
        },
        {
          "duration": 0.054347874999997714,
          "durationTicks": 120,
          "midi": 59,
          "name": "B3",
          "ticks": 60480,
          "time": 27.391329000000002,
          "velocity": 1
        },
        {
          "duration": 0.16304362500000025,
          "durationTicks": 360,
          "midi": 36,
          "name": "C2",
          "ticks": 61440,
          "time": 27.826112000000002,
          "velocity": 1
        },
        {
          "duration": 0.05434787500000127,
          "durationTicks": 120,
          "midi": 64,
          "name": "E4",
          "ticks": 61440,
          "time": 27.826112000000002,
          "velocity": 1
        },
        {
          "duration": 0.05434787500000127,
          "durationTicks": 120,
          "midi": 71,
          "name": "B4",
          "ticks": 61440,
          "time": 27.826112000000002,
          "velocity": 1
        },
        {
          "duration": 0.05434787500000127,
          "durationTicks": 120,
          "midi": 64,
          "name": "E4",
          "ticks": 62400,
          "time": 28.260895,
          "velocity": 1
        },
        {
          "duration": 0.05434787500000127,
          "durationTicks": 120,
          "midi": 71,
          "name": "B4",
          "ticks": 62400,
          "time": 28.260895,
          "velocity": 1
        },
        {
          "duration": 0.16304362500000025,
          "durationTicks": 360,
          "midi": 43,
          "name": "G2",
          "ticks": 62880,
          "time": 28.478286500000003,
          "velocity": 1
        },
        {
          "duration": 0.16304362500000025,
          "durationTicks": 360,
          "midi": 43,
          "name": "G2",
          "ticks": 63360,
          "time": 28.695678,
          "velocity": 1
        },
        {
          "duration": 0.05434787500000127,
          "durationTicks": 120,
          "midi": 64,
          "name": "E4",
          "ticks": 63840,
          "time": 28.913069500000002,
          "velocity": 1
        },
        {
          "duration": 0.05434787500000127,
          "durationTicks": 120,
          "midi": 71,
          "name": "B4",
          "ticks": 63840,
          "time": 28.913069500000002,
          "velocity": 1
        },
        {
          "duration": 0.05434787500000127,
          "durationTicks": 120,
          "midi": 64,
          "name": "E4",
          "ticks": 64800,
          "time": 29.347852500000002,
          "velocity": 1
        },
        {
          "duration": 0.05434787500000127,
          "durationTicks": 120,
          "midi": 71,
          "name": "B4",
          "ticks": 64800,
          "time": 29.347852500000002,
          "velocity": 1
        },
        {
          "duration": 0.16304362500000025,
          "durationTicks": 360,
          "midi": 36,
          "name": "C2",
          "ticks": 65280,
          "time": 29.565244000000003,
          "velocity": 1
        },
        {
          "duration": 0.05434787500000127,
          "durationTicks": 120,
          "midi": 64,
          "name": "E4",
          "ticks": 65760,
          "time": 29.7826355,
          "velocity": 1
        },
        {
          "duration": 0.05434787500000127,
          "durationTicks": 120,
          "midi": 71,
          "name": "B4",
          "ticks": 65760,
          "time": 29.7826355,
          "velocity": 1
        },
        {
          "duration": 0.16304362500000025,
          "durationTicks": 360,
          "midi": 43,
          "name": "G2",
          "ticks": 66720,
          "time": 30.2174185,
          "velocity": 1
        },
        {
          "duration": 0.05434787500000127,
          "durationTicks": 120,
          "midi": 64,
          "name": "E4",
          "ticks": 67200,
          "time": 30.434810000000002,
          "velocity": 1
        },
        {
          "duration": 0.05434787500000127,
          "durationTicks": 120,
          "midi": 71,
          "name": "B4",
          "ticks": 67200,
          "time": 30.434810000000002,
          "velocity": 1
        },
        {
          "duration": 0.16304362500000025,
          "durationTicks": 360,
          "midi": 43,
          "name": "G2",
          "ticks": 67200,
          "time": 30.434810000000002,
          "velocity": 1
        },
        {
          "duration": 0.05434787500000127,
          "durationTicks": 120,
          "midi": 64,
          "name": "E4",
          "ticks": 68160,
          "time": 30.869593000000002,
          "velocity": 1
        },
        {
          "duration": 0.05434787500000127,
          "durationTicks": 120,
          "midi": 71,
          "name": "B4",
          "ticks": 68160,
          "time": 30.869593000000002,
          "velocity": 1
        },
        {
          "duration": 0.05434787500000127,
          "durationTicks": 120,
          "midi": 60,
          "name": "C4",
          "ticks": 69120,
          "time": 31.304376,
          "velocity": 1
        },
        {
          "duration": 0.05434787500000127,
          "durationTicks": 120,
          "midi": 66,
          "name": "F#4",
          "ticks": 69120,
          "time": 31.304376,
          "velocity": 1
        },
        {
          "duration": 0.16304362500000025,
          "durationTicks": 360,
          "midi": 38,
          "name": "D2",
          "ticks": 69120,
          "time": 31.304376,
          "velocity": 1
        },
        {
          "duration": 0.05434787500000127,
          "durationTicks": 120,
          "midi": 60,
          "name": "C4",
          "ticks": 70080,
          "time": 31.739159,
          "velocity": 1
        },
        {
          "duration": 0.05434787500000127,
          "durationTicks": 120,
          "midi": 66,
          "name": "F#4",
          "ticks": 70080,
          "time": 31.739159,
          "velocity": 1
        },
        {
          "duration": 0.1630436249999967,
          "durationTicks": 360,
          "midi": 45,
          "name": "A2",
          "ticks": 70560,
          "time": 31.956550500000002,
          "velocity": 1
        },
        {
          "duration": 0.16304362500000025,
          "durationTicks": 360,
          "midi": 45,
          "name": "A2",
          "ticks": 71040,
          "time": 32.173942000000004,
          "velocity": 1
        },
        {
          "duration": 0.054347874999997714,
          "durationTicks": 120,
          "midi": 60,
          "name": "C4",
          "ticks": 71520,
          "time": 32.3913335,
          "velocity": 1
        },
        {
          "duration": 0.054347874999997714,
          "durationTicks": 120,
          "midi": 66,
          "name": "F#4",
          "ticks": 71520,
          "time": 32.3913335,
          "velocity": 1
        },
        {
          "duration": 0.054347874999997714,
          "durationTicks": 120,
          "midi": 60,
          "name": "C4",
          "ticks": 72480,
          "time": 32.826116500000005,
          "velocity": 1
        },
        {
          "duration": 0.054347874999997714,
          "durationTicks": 120,
          "midi": 66,
          "name": "F#4",
          "ticks": 72480,
          "time": 32.826116500000005,
          "velocity": 1
        },
        {
          "duration": 0.16304362500000025,
          "durationTicks": 360,
          "midi": 38,
          "name": "D2",
          "ticks": 72960,
          "time": 33.043508,
          "velocity": 1
        },
        {
          "duration": 0.05434787500000482,
          "durationTicks": 120,
          "midi": 60,
          "name": "C4",
          "ticks": 73440,
          "time": 33.2608995,
          "velocity": 1
        },
        {
          "duration": 0.05434787500000482,
          "durationTicks": 120,
          "midi": 66,
          "name": "F#4",
          "ticks": 73440,
          "time": 33.2608995,
          "velocity": 1
        },
        {
          "duration": 0.16304362500000025,
          "durationTicks": 360,
          "midi": 45,
          "name": "A2",
          "ticks": 74400,
          "time": 33.695682500000004,
          "velocity": 1
        },
        {
          "duration": 0.054347874999997714,
          "durationTicks": 120,
          "midi": 60,
          "name": "C4",
          "ticks": 74880,
          "time": 33.913074,
          "velocity": 1
        },
        {
          "duration": 0.054347874999997714,
          "durationTicks": 120,
          "midi": 66,
          "name": "F#4",
          "ticks": 74880,
          "time": 33.913074,
          "velocity": 1
        },
        {
          "duration": 0.16304362500000025,
          "durationTicks": 360,
          "midi": 45,
          "name": "A2",
          "ticks": 74880,
          "time": 33.913074,
          "velocity": 1
        },
        {
          "duration": 0.054347874999997714,
          "durationTicks": 120,
          "midi": 60,
          "name": "C4",
          "ticks": 75840,
          "time": 34.347857000000005,
          "velocity": 1
        },
        {
          "duration": 0.054347874999997714,
          "durationTicks": 120,
          "midi": 66,
          "name": "F#4",
          "ticks": 75840,
          "time": 34.347857000000005,
          "velocity": 1
        },
        {
          "duration": 0.05434787500000482,
          "durationTicks": 120,
          "midi": 61,
          "name": "C#4",
          "ticks": 76800,
          "time": 34.78264,
          "velocity": 1
        },
        {
          "duration": 0.05434787500000482,
          "durationTicks": 120,
          "midi": 66,
          "name": "F#4",
          "ticks": 76800,
          "time": 34.78264,
          "velocity": 1
        },
        {
          "duration": 0.21739150000000507,
          "durationTicks": 480,
          "midi": 44,
          "name": "G#2",
          "ticks": 76800,
          "time": 34.78264,
          "velocity": 1
        },
        {
          "duration": 0.054347874999997714,
          "durationTicks": 120,
          "midi": 61,
          "name": "C#4",
          "ticks": 77760,
          "time": 35.217423000000004,
          "velocity": 1
        },
        {
          "duration": 0.054347874999997714,
          "durationTicks": 120,
          "midi": 66,
          "name": "F#4",
          "ticks": 77760,
          "time": 35.217423000000004,
          "velocity": 1
        },
        {
          "duration": 0.10869575000000253,
          "durationTicks": 240,
          "midi": 51,
          "name": "D#3",
          "ticks": 78240,
          "time": 35.4348145,
          "velocity": 1
        },
        {
          "duration": 0.10869575000000253,
          "durationTicks": 240,
          "midi": 51,
          "name": "D#3",
          "ticks": 78720,
          "time": 35.652206,
          "velocity": 1
        },
        {
          "duration": 0.054347874999997714,
          "durationTicks": 120,
          "midi": 61,
          "name": "C#4",
          "ticks": 79200,
          "time": 35.869597500000005,
          "velocity": 1
        },
        {
          "duration": 0.054347874999997714,
          "durationTicks": 120,
          "midi": 66,
          "name": "F#4",
          "ticks": 79200,
          "time": 35.869597500000005,
          "velocity": 1
        },
        {
          "duration": 0.05434787500000482,
          "durationTicks": 120,
          "midi": 66,
          "name": "F#4",
          "ticks": 80160,
          "time": 36.3043805,
          "velocity": 1
        },
        {
          "duration": 0.05434787500000482,
          "durationTicks": 120,
          "midi": 60,
          "name": "C4",
          "ticks": 80160,
          "time": 36.3043805,
          "velocity": 1
        },
        {
          "duration": 0.21739149999999796,
          "durationTicks": 480,
          "midi": 44,
          "name": "G#2",
          "ticks": 80640,
          "time": 36.521772000000006,
          "velocity": 1
        },
        {
          "duration": 0.054347874999997714,
          "durationTicks": 120,
          "midi": 66,
          "name": "F#4",
          "ticks": 81120,
          "time": 36.739163500000004,
          "velocity": 1
        },
        {
          "duration": 0.054347874999997714,
          "durationTicks": 120,
          "midi": 60,
          "name": "C4",
          "ticks": 81120,
          "time": 36.739163500000004,
          "velocity": 1
        },
        {
          "duration": 0.10869575000000253,
          "durationTicks": 240,
          "midi": 51,
          "name": "D#3",
          "ticks": 82080,
          "time": 37.1739465,
          "velocity": 1
        },
        {
          "duration": 0.10869574999999543,
          "durationTicks": 240,
          "midi": 51,
          "name": "D#3",
          "ticks": 82560,
          "time": 37.391338000000005,
          "velocity": 1
        },
        {
          "duration": 0.054347874999997714,
          "durationTicks": 120,
          "midi": 66,
          "name": "F#4",
          "ticks": 82560,
          "time": 37.391338000000005,
          "velocity": 1
        },
        {
          "duration": 0.054347874999997714,
          "durationTicks": 120,
          "midi": 60,
          "name": "C4",
          "ticks": 82560,
          "time": 37.391338000000005,
          "velocity": 1
        },
        {
          "duration": 0.05434787500000482,
          "durationTicks": 120,
          "midi": 66,
          "name": "F#4",
          "ticks": 83520,
          "time": 37.826121,
          "velocity": 1
        },
        {
          "duration": 0.05434787500000482,
          "durationTicks": 120,
          "midi": 60,
          "name": "C4",
          "ticks": 83520,
          "time": 37.826121,
          "velocity": 1
        },
        {
          "duration": 0.10869575000000253,
          "durationTicks": 240,
          "midi": 44,
          "name": "G#2",
          "ticks": 83520,
          "time": 37.826121,
          "velocity": 1
        },
        {
          "duration": 0.054347874999997714,
          "durationTicks": 120,
          "midi": 61,
          "name": "C#4",
          "ticks": 84480,
          "time": 38.260904000000004,
          "velocity": 1
        },
        {
          "duration": 0.054347874999997714,
          "durationTicks": 120,
          "midi": 65,
          "name": "F4",
          "ticks": 84480,
          "time": 38.260904000000004,
          "velocity": 1
        },
        {
          "duration": 0.21739149999999796,
          "durationTicks": 480,
          "midi": 49,
          "name": "C#3",
          "ticks": 84480,
          "time": 38.260904000000004,
          "velocity": 1
        },
        {
          "duration": 0.05434787500000482,
          "durationTicks": 120,
          "midi": 61,
          "name": "C#4",
          "ticks": 85440,
          "time": 38.695687,
          "velocity": 1
        },
        {
          "duration": 0.05434787500000482,
          "durationTicks": 120,
          "midi": 65,
          "name": "F4",
          "ticks": 85440,
          "time": 38.695687,
          "velocity": 1
        },
        {
          "duration": 0.10869574999999543,
          "durationTicks": 240,
          "midi": 56,
          "name": "G#3",
          "ticks": 85920,
          "time": 38.913078500000005,
          "velocity": 1
        },
        {
          "duration": 0.10869575000000253,
          "durationTicks": 240,
          "midi": 56,
          "name": "G#3",
          "ticks": 86400,
          "time": 39.13047,
          "velocity": 1
        },
        {
          "duration": 0.05434787500000482,
          "durationTicks": 120,
          "midi": 61,
          "name": "C#4",
          "ticks": 86880,
          "time": 39.3478615,
          "velocity": 1
        },
        {
          "duration": 0.05434787500000482,
          "durationTicks": 120,
          "midi": 65,
          "name": "F4",
          "ticks": 86880,
          "time": 39.3478615,
          "velocity": 1
        },
        {
          "duration": 0.054347874999997714,
          "durationTicks": 120,
          "midi": 65,
          "name": "F4",
          "ticks": 87840,
          "time": 39.7826445,
          "velocity": 1
        },
        {
          "duration": 0.054347874999997714,
          "durationTicks": 120,
          "midi": 60,
          "name": "C4",
          "ticks": 87840,
          "time": 39.7826445,
          "velocity": 1
        },
        {
          "duration": 0.21739149999999796,
          "durationTicks": 480,
          "midi": 49,
          "name": "C#3",
          "ticks": 88320,
          "time": 40.000036,
          "velocity": 1
        },
        {
          "duration": 0.05434787500000482,
          "durationTicks": 120,
          "midi": 65,
          "name": "F4",
          "ticks": 88800,
          "time": 40.2174275,
          "velocity": 1
        },
        {
          "duration": 0.05434787500000482,
          "durationTicks": 120,
          "midi": 60,
          "name": "C4",
          "ticks": 88800,
          "time": 40.2174275,
          "velocity": 1
        },
        {
          "duration": 0.10869575000000253,
          "durationTicks": 240,
          "midi": 56,
          "name": "G#3",
          "ticks": 89760,
          "time": 40.6522105,
          "velocity": 1
        },
        {
          "duration": 0.05434787500000482,
          "durationTicks": 120,
          "midi": 65,
          "name": "F4",
          "ticks": 90240,
          "time": 40.869602,
          "velocity": 1
        },
        {
          "duration": 0.05434787500000482,
          "durationTicks": 120,
          "midi": 60,
          "name": "C4",
          "ticks": 90240,
          "time": 40.869602,
          "velocity": 1
        },
        {
          "duration": 0.10869575000000253,
          "durationTicks": 240,
          "midi": 56,
          "name": "G#3",
          "ticks": 90240,
          "time": 40.869602,
          "velocity": 1
        },
        {
          "duration": 0.054347874999997714,
          "durationTicks": 120,
          "midi": 65,
          "name": "F4",
          "ticks": 91200,
          "time": 41.304385,
          "velocity": 1
        },
        {
          "duration": 0.054347874999997714,
          "durationTicks": 120,
          "midi": 60,
          "name": "C4",
          "ticks": 91200,
          "time": 41.304385,
          "velocity": 1
        },
        {
          "duration": 0.10869575000000253,
          "durationTicks": 240,
          "midi": 58,
          "name": "A#3",
          "ticks": 91200,
          "time": 41.304385,
          "velocity": 1
        },
        {
          "duration": 0.054347874999997714,
          "durationTicks": 120,
          "midi": 53,
          "name": "F3",
          "ticks": 92160,
          "time": 41.73916800000001,
          "velocity": 1
        },
        {
          "duration": 0.054347874999997714,
          "durationTicks": 120,
          "midi": 55,
          "name": "G3",
          "ticks": 92280,
          "time": 41.793515875000004,
          "velocity": 1
        },
        {
          "duration": 0.054347874999997714,
          "durationTicks": 120,
          "midi": 58,
          "name": "A#3",
          "ticks": 92400,
          "time": 41.84786375,
          "velocity": 1
        },
        {
          "duration": 0.05434787500000482,
          "durationTicks": 120,
          "midi": 59,
          "name": "B3",
          "ticks": 92520,
          "time": 41.902211625,
          "velocity": 1
        },
        {
          "duration": 0.054347874999997714,
          "durationTicks": 120,
          "midi": 63,
          "name": "D#4",
          "ticks": 92640,
          "time": 41.956559500000004,
          "velocity": 1
        },
        {
          "duration": 0.054347874999997714,
          "durationTicks": 120,
          "midi": 67,
          "name": "G4",
          "ticks": 92760,
          "time": 42.010907375,
          "velocity": 1
        },
        {
          "duration": 0.05434787500000482,
          "durationTicks": 120,
          "midi": 70,
          "name": "A#4",
          "ticks": 92880,
          "time": 42.06525525,
          "velocity": 1
        },
        {
          "duration": 0.054347874999997714,
          "durationTicks": 120,
          "midi": 72,
          "name": "C5",
          "ticks": 93000,
          "time": 42.119603125000005,
          "velocity": 1
        },
        {
          "duration": 0.054347874999997714,
          "durationTicks": 120,
          "midi": 75,
          "name": "D#5",
          "ticks": 93120,
          "time": 42.173951,
          "velocity": 1
        },
        {
          "duration": 0.054347874999997714,
          "durationTicks": 120,
          "midi": 76,
          "name": "E5",
          "ticks": 94080,
          "time": 42.608734000000005,
          "velocity": 1
        },
        {
          "duration": 0.054347874999997714,
          "durationTicks": 120,
          "midi": 75,
          "name": "D#5",
          "ticks": 94560,
          "time": 42.8261255,
          "velocity": 1
        },
        {
          "duration": 0.05434787500000482,
          "durationTicks": 120,
          "midi": 76,
          "name": "E5",
          "ticks": 95040,
          "time": 43.043517,
          "velocity": 1
        },
        {
          "duration": 0.054347874999997714,
          "durationTicks": 120,
          "midi": 75,
          "name": "D#5",
          "ticks": 95160,
          "time": 43.097864875000006,
          "velocity": 1
        },
        {
          "duration": 0.054347874999997714,
          "durationTicks": 120,
          "midi": 76,
          "name": "E5",
          "ticks": 95280,
          "time": 43.152212750000004,
          "velocity": 1
        },
        {
          "duration": 0.05434787500000482,
          "durationTicks": 120,
          "midi": 75,
          "name": "D#5",
          "ticks": 95400,
          "time": 43.206560625,
          "velocity": 1
        },
        {
          "duration": 0.054347874999997714,
          "durationTicks": 120,
          "midi": 76,
          "name": "E5",
          "ticks": 95520,
          "time": 43.260908500000006,
          "velocity": 1
        },
        {
          "duration": 0.054347874999997714,
          "durationTicks": 120,
          "midi": 80,
          "name": "G#5",
          "ticks": 95640,
          "time": 43.315256375000004,
          "velocity": 1
        },
        {
          "duration": 0.054347874999997714,
          "durationTicks": 120,
          "midi": 79,
          "name": "G5",
          "ticks": 95760,
          "time": 43.36960425,
          "velocity": 1
        },
        {
          "duration": 0.05434787500000482,
          "durationTicks": 120,
          "midi": 76,
          "name": "E5",
          "ticks": 95880,
          "time": 43.423952125,
          "velocity": 1
        },
        {
          "duration": 0.054347874999997714,
          "durationTicks": 120,
          "midi": 75,
          "name": "D#5",
          "ticks": 96000,
          "time": 43.478300000000004,
          "velocity": 1
        },
        {
          "duration": 0.054347874999997714,
          "durationTicks": 120,
          "midi": 81,
          "name": "A5",
          "ticks": 96480,
          "time": 43.6956915,
          "velocity": 1
        },
        {
          "duration": 0.21739150000000507,
          "durationTicks": 480,
          "midi": 60,
          "name": "C4",
          "ticks": 96960,
          "time": 43.913083,
          "velocity": 1
        },
        {
          "duration": 0.054347874999997714,
          "durationTicks": 120,
          "midi": 64,
          "name": "E4",
          "ticks": 97440,
          "time": 44.130474500000005,
          "velocity": 1
        },
        {
          "duration": 0.21739149999999796,
          "durationTicks": 480,
          "midi": 57,
          "name": "A3",
          "ticks": 97920,
          "time": 44.347866,
          "velocity": 1
        },
        {
          "duration": 0.21739150000000507,
          "durationTicks": 480,
          "midi": 61,
          "name": "C#4",
          "ticks": 98400,
          "time": 44.5652575,
          "velocity": 1
        },
        {
          "duration": 0.10869574999999543,
          "durationTicks": 240,
          "midi": 56,
          "name": "G#3",
          "ticks": 98880,
          "time": 44.782649000000006,
          "velocity": 1
        },
        {
          "duration": 0.054347874999997714,
          "durationTicks": 120,
          "midi": 60,
          "name": "C4",
          "ticks": 99360,
          "time": 45.000040500000004,
          "velocity": 1
        },
        {
          "duration": 0.054347874999997714,
          "durationTicks": 120,
          "midi": 61,
          "name": "C#4",
          "ticks": 99480,
          "time": 45.054388375,
          "velocity": 1
        },
        {
          "duration": 0.05434787500000482,
          "durationTicks": 120,
          "midi": 60,
          "name": "C4",
          "ticks": 99600,
          "time": 45.10873625,
          "velocity": 1
        },
        {
          "duration": 0.054347874999997714,
          "durationTicks": 120,
          "midi": 61,
          "name": "C#4",
          "ticks": 99720,
          "time": 45.163084125000005,
          "velocity": 1
        },
        {
          "duration": 0.16304362500000025,
          "durationTicks": 360,
          "midi": 38,
          "name": "D2",
          "ticks": 99840,
          "time": 45.217432,
          "velocity": 1
        },
        {
          "duration": 0.43478300000000303,
          "durationTicks": 960,
          "midi": 66,
          "name": "F#4",
          "ticks": 99840,
          "time": 45.217432,
          "velocity": 1
        },
        {
          "duration": 0.43478300000000303,
          "durationTicks": 960,
          "midi": 73,
          "name": "C#5",
          "ticks": 99840,
          "time": 45.217432,
          "velocity": 1
        },
        {
          "duration": 0.054347874999997714,
          "durationTicks": 120,
          "midi": 66,
          "name": "F#4",
          "ticks": 100800,
          "time": 45.652215000000005,
          "velocity": 1
        },
        {
          "duration": 0.054347874999997714,
          "durationTicks": 120,
          "midi": 73,
          "name": "C#5",
          "ticks": 100800,
          "time": 45.652215000000005,
          "velocity": 1
        },
        {
          "duration": 0.16304362500000025,
          "durationTicks": 360,
          "midi": 45,
          "name": "A2",
          "ticks": 101280,
          "time": 45.8696065,
          "velocity": 1
        },
        {
          "duration": 0.16304362500000025,
          "durationTicks": 360,
          "midi": 45,
          "name": "A2",
          "ticks": 101760,
          "time": 46.086998,
          "velocity": 1
        },
        {
          "duration": 0.054347874999997714,
          "durationTicks": 120,
          "midi": 66,
          "name": "F#4",
          "ticks": 102240,
          "time": 46.304389500000006,
          "velocity": 1
        },
        {
          "duration": 0.054347874999997714,
          "durationTicks": 120,
          "midi": 73,
          "name": "C#5",
          "ticks": 102240,
          "time": 46.304389500000006,
          "velocity": 1
        },
        {
          "duration": 0.054347874999997714,
          "durationTicks": 120,
          "midi": 66,
          "name": "F#4",
          "ticks": 103200,
          "time": 46.7391725,
          "velocity": 1
        },
        {
          "duration": 0.054347874999997714,
          "durationTicks": 120,
          "midi": 73,
          "name": "C#5",
          "ticks": 103200,
          "time": 46.7391725,
          "velocity": 1
        },
        {
          "duration": 0.16304362500000025,
          "durationTicks": 360,
          "midi": 38,
          "name": "D2",
          "ticks": 103680,
          "time": 46.956564,
          "velocity": 1
        },
        {
          "duration": 0.054347874999997714,
          "durationTicks": 120,
          "midi": 66,
          "name": "F#4",
          "ticks": 104160,
          "time": 47.173955500000005,
          "velocity": 1
        },
        {
          "duration": 0.054347874999997714,
          "durationTicks": 120,
          "midi": 73,
          "name": "C#5",
          "ticks": 104160,
          "time": 47.173955500000005,
          "velocity": 1
        },
        {
          "duration": 0.16304362500000025,
          "durationTicks": 360,
          "midi": 45,
          "name": "A2",
          "ticks": 105120,
          "time": 47.6087385,
          "velocity": 1
        },
        {
          "duration": 0.054347874999997714,
          "durationTicks": 120,
          "midi": 66,
          "name": "F#4",
          "ticks": 105600,
          "time": 47.826130000000006,
          "velocity": 1
        },
        {
          "duration": 0.054347874999997714,
          "durationTicks": 120,
          "midi": 73,
          "name": "C#5",
          "ticks": 105600,
          "time": 47.826130000000006,
          "velocity": 1
        },
        {
          "duration": 0.16304362500000025,
          "durationTicks": 360,
          "midi": 45,
          "name": "A2",
          "ticks": 105600,
          "time": 47.826130000000006,
          "velocity": 1
        },
        {
          "duration": 0.054347874999997714,
          "durationTicks": 120,
          "midi": 66,
          "name": "F#4",
          "ticks": 106560,
          "time": 48.260913,
          "velocity": 1
        },
        {
          "duration": 0.054347874999997714,
          "durationTicks": 120,
          "midi": 73,
          "name": "C#5",
          "ticks": 106560,
          "time": 48.260913,
          "velocity": 1
        },
        {
          "duration": 0.054347874999997714,
          "durationTicks": 120,
          "midi": 62,
          "name": "D4",
          "ticks": 107520,
          "time": 48.695696000000005,
          "velocity": 1
        },
        {
          "duration": 0.054347874999997714,
          "durationTicks": 120,
          "midi": 68,
          "name": "G#4",
          "ticks": 107520,
          "time": 48.695696000000005,
          "velocity": 1
        },
        {
          "duration": 0.054347874999997714,
          "durationTicks": 120,
          "midi": 62,
          "name": "D4",
          "ticks": 108240,
          "time": 49.021783250000006,
          "velocity": 1
        },
        {
          "duration": 0.054347874999997714,
          "durationTicks": 120,
          "midi": 68,
          "name": "G#4",
          "ticks": 108240,
          "time": 49.021783250000006,
          "velocity": 1
        },
        {
          "duration": 0.05434787500000482,
          "durationTicks": 120,
          "midi": 62,
          "name": "D4",
          "ticks": 108480,
          "time": 49.130479,
          "velocity": 1
        },
        {
          "duration": 0.05434787500000482,
          "durationTicks": 120,
          "midi": 68,
          "name": "G#4",
          "ticks": 108480,
          "time": 49.130479,
          "velocity": 1
        },
        {
          "duration": 0.05434787500000482,
          "durationTicks": 120,
          "midi": 62,
          "name": "D4",
          "ticks": 109200,
          "time": 49.45656625,
          "velocity": 1
        },
        {
          "duration": 0.05434787500000482,
          "durationTicks": 120,
          "midi": 68,
          "name": "G#4",
          "ticks": 109200,
          "time": 49.45656625,
          "velocity": 1
        },
        {
          "duration": 0.05434787500000482,
          "durationTicks": 120,
          "midi": 62,
          "name": "D4",
          "ticks": 109920,
          "time": 49.7826535,
          "velocity": 1
        },
        {
          "duration": 0.05434787500000482,
          "durationTicks": 120,
          "midi": 68,
          "name": "G#4",
          "ticks": 109920,
          "time": 49.7826535,
          "velocity": 1
        },
        {
          "duration": 0.054347874999997714,
          "durationTicks": 120,
          "midi": 62,
          "name": "D4",
          "ticks": 110160,
          "time": 49.891349250000005,
          "velocity": 1
        },
        {
          "duration": 0.054347874999997714,
          "durationTicks": 120,
          "midi": 68,
          "name": "G#4",
          "ticks": 110160,
          "time": 49.891349250000005,
          "velocity": 1
        },
        {
          "duration": 0.054347874999997714,
          "durationTicks": 120,
          "midi": 62,
          "name": "D4",
          "ticks": 110880,
          "time": 50.217436500000005,
          "velocity": 1
        },
        {
          "duration": 0.054347874999997714,
          "durationTicks": 120,
          "midi": 68,
          "name": "G#4",
          "ticks": 110880,
          "time": 50.217436500000005,
          "velocity": 1
        },
        {
          "duration": 0.05434787500000482,
          "durationTicks": 120,
          "midi": 62,
          "name": "D4",
          "ticks": 111840,
          "time": 50.6522195,
          "velocity": 1
        },
        {
          "duration": 0.05434787500000482,
          "durationTicks": 120,
          "midi": 68,
          "name": "G#4",
          "ticks": 111840,
          "time": 50.6522195,
          "velocity": 1
        },
        {
          "duration": 0.054347874999997714,
          "durationTicks": 120,
          "midi": 62,
          "name": "D4",
          "ticks": 112320,
          "time": 50.869611000000006,
          "velocity": 1
        },
        {
          "duration": 0.054347874999997714,
          "durationTicks": 120,
          "midi": 68,
          "name": "G#4",
          "ticks": 112320,
          "time": 50.869611000000006,
          "velocity": 1
        },
        {
          "duration": 0.054347874999997714,
          "durationTicks": 120,
          "midi": 62,
          "name": "D4",
          "ticks": 113040,
          "time": 51.19569825000001,
          "velocity": 1
        },
        {
          "duration": 0.054347874999997714,
          "durationTicks": 120,
          "midi": 68,
          "name": "G#4",
          "ticks": 113040,
          "time": 51.19569825000001,
          "velocity": 1
        },
        {
          "duration": 0.05434787500000482,
          "durationTicks": 120,
          "midi": 62,
          "name": "D4",
          "ticks": 113280,
          "time": 51.304394,
          "velocity": 1
        },
        {
          "duration": 0.05434787500000482,
          "durationTicks": 120,
          "midi": 68,
          "name": "G#4",
          "ticks": 113280,
          "time": 51.304394,
          "velocity": 1
        },
        {
          "duration": 0.054347874999997714,
          "durationTicks": 120,
          "midi": 62,
          "name": "D4",
          "ticks": 114240,
          "time": 51.739177000000005,
          "velocity": 1
        },
        {
          "duration": 0.054347874999997714,
          "durationTicks": 120,
          "midi": 68,
          "name": "G#4",
          "ticks": 114240,
          "time": 51.739177000000005,
          "velocity": 1
        },
        {
          "duration": 0.054347874999997714,
          "durationTicks": 120,
          "midi": 78,
          "name": "F#5",
          "ticks": 114240,
          "time": 51.739177000000005,
          "velocity": 1
        },
        {
          "duration": 0.054347874999997714,
          "durationTicks": 120,
          "midi": 62,
          "name": "D4",
          "ticks": 114360,
          "time": 51.793524875,
          "velocity": 1
        },
        {
          "duration": 0.054347874999997714,
          "durationTicks": 120,
          "midi": 68,
          "name": "G#4",
          "ticks": 114360,
          "time": 51.793524875,
          "velocity": 1
        },
        {
          "duration": 0.05434787500000482,
          "durationTicks": 120,
          "midi": 62,
          "name": "D4",
          "ticks": 114480,
          "time": 51.84787275,
          "velocity": 1
        },
        {
          "duration": 0.05434787500000482,
          "durationTicks": 120,
          "midi": 68,
          "name": "G#4",
          "ticks": 114480,
          "time": 51.84787275,
          "velocity": 1
        },
        {
          "duration": 0.054347874999997714,
          "durationTicks": 120,
          "midi": 62,
          "name": "D4",
          "ticks": 114600,
          "time": 51.902220625000005,
          "velocity": 1
        },
        {
          "duration": 0.054347874999997714,
          "durationTicks": 120,
          "midi": 68,
          "name": "G#4",
          "ticks": 114600,
          "time": 51.902220625000005,
          "velocity": 1
        },
        {
          "duration": 0.054347874999997714,
          "durationTicks": 120,
          "midi": 62,
          "name": "D4",
          "ticks": 114720,
          "time": 51.9565685,
          "velocity": 1
        },
        {
          "duration": 0.054347874999997714,
          "durationTicks": 120,
          "midi": 68,
          "name": "G#4",
          "ticks": 114720,
          "time": 51.9565685,
          "velocity": 1
        },
        {
          "duration": 0.054347874999997714,
          "durationTicks": 120,
          "midi": 83,
          "name": "B5",
          "ticks": 114720,
          "time": 51.9565685,
          "velocity": 1
        },
        {
          "duration": 0.05434787500000482,
          "durationTicks": 120,
          "midi": 62,
          "name": "D4",
          "ticks": 115200,
          "time": 52.17396,
          "velocity": 1
        },
        {
          "duration": 0.05434787500000482,
          "durationTicks": 120,
          "midi": 67,
          "name": "G4",
          "ticks": 115200,
          "time": 52.17396,
          "velocity": 1
        },
        {
          "duration": 0.05434787500000482,
          "durationTicks": 120,
          "midi": 45,
          "name": "A2",
          "ticks": 115200,
          "time": 52.17396,
          "velocity": 1
        },
        {
          "duration": 0.054347874999997714,
          "durationTicks": 120,
          "midi": 62,
          "name": "D4",
          "ticks": 116160,
          "time": 52.608743000000004,
          "velocity": 1
        },
        {
          "duration": 0.054347874999997714,
          "durationTicks": 120,
          "midi": 67,
          "name": "G4",
          "ticks": 116160,
          "time": 52.608743000000004,
          "velocity": 1
        },
        {
          "duration": 0.054347874999997714,
          "durationTicks": 120,
          "midi": 45,
          "name": "A2",
          "ticks": 116400,
          "time": 52.71743875000001,
          "velocity": 1
        },
        {
          "duration": 0.05434787500000482,
          "durationTicks": 120,
          "midi": 52,
          "name": "E3",
          "ticks": 116640,
          "time": 52.8261345,
          "velocity": 1
        },
        {
          "duration": 0.054347874999997714,
          "durationTicks": 120,
          "midi": 52,
          "name": "E3",
          "ticks": 117120,
          "time": 53.04352600000001,
          "velocity": 1
        },
        {
          "duration": 0.054347874999997714,
          "durationTicks": 120,
          "midi": 62,
          "name": "D4",
          "ticks": 117600,
          "time": 53.260917500000005,
          "velocity": 1
        },
        {
          "duration": 0.054347874999997714,
          "durationTicks": 120,
          "midi": 67,
          "name": "G4",
          "ticks": 117600,
          "time": 53.260917500000005,
          "velocity": 1
        },
        {
          "duration": 0.054347874999997714,
          "durationTicks": 120,
          "midi": 47,
          "name": "B2",
          "ticks": 118080,
          "time": 53.478309,
          "velocity": 1
        },
        {
          "duration": 0.05434787500000482,
          "durationTicks": 120,
          "midi": 67,
          "name": "G4",
          "ticks": 118560,
          "time": 53.6957005,
          "velocity": 1
        },
        {
          "duration": 0.05434787500000482,
          "durationTicks": 120,
          "midi": 61,
          "name": "C#4",
          "ticks": 118560,
          "time": 53.6957005,
          "velocity": 1
        },
        {
          "duration": 0.054347874999997714,
          "durationTicks": 120,
          "midi": 45,
          "name": "A2",
          "ticks": 119040,
          "time": 53.913092000000006,
          "velocity": 1
        },
        {
          "duration": 0.054347874999997714,
          "durationTicks": 120,
          "midi": 67,
          "name": "G4",
          "ticks": 119040,
          "time": 53.913092000000006,
          "velocity": 1
        },
        {
          "duration": 0.054347874999997714,
          "durationTicks": 120,
          "midi": 61,
          "name": "C#4",
          "ticks": 119040,
          "time": 53.913092000000006,
          "velocity": 1
        },
        {
          "duration": 0.054347874999997714,
          "durationTicks": 120,
          "midi": 67,
          "name": "G4",
          "ticks": 119520,
          "time": 54.130483500000004,
          "velocity": 1
        },
        {
          "duration": 0.054347874999997714,
          "durationTicks": 120,
          "midi": 61,
          "name": "C#4",
          "ticks": 119520,
          "time": 54.130483500000004,
          "velocity": 1
        },
        {
          "duration": 0.05434787500000482,
          "durationTicks": 120,
          "midi": 67,
          "name": "G4",
          "ticks": 120000,
          "time": 54.347875,
          "velocity": 1
        },
        {
          "duration": 0.05434787500000482,
          "durationTicks": 120,
          "midi": 61,
          "name": "C#4",
          "ticks": 120000,
          "time": 54.347875,
          "velocity": 1
        },
        {
          "duration": 0.054347874999997714,
          "durationTicks": 120,
          "midi": 45,
          "name": "A2",
          "ticks": 120240,
          "time": 54.456570750000004,
          "velocity": 1
        },
        {
          "duration": 0.054347874999997714,
          "durationTicks": 120,
          "midi": 52,
          "name": "E3",
          "ticks": 120480,
          "time": 54.56526650000001,
          "velocity": 1
        },
        {
          "duration": 0.054347874999997714,
          "durationTicks": 120,
          "midi": 52,
          "name": "E3",
          "ticks": 120960,
          "time": 54.782658000000005,
          "velocity": 1
        },
        {
          "duration": 0.054347874999997714,
          "durationTicks": 120,
          "midi": 67,
          "name": "G4",
          "ticks": 120960,
          "time": 54.782658000000005,
          "velocity": 1
        },
        {
          "duration": 0.054347874999997714,
          "durationTicks": 120,
          "midi": 61,
          "name": "C#4",
          "ticks": 120960,
          "time": 54.782658000000005,
          "velocity": 1
        },
        {
          "duration": 0.05434787500000482,
          "durationTicks": 120,
          "midi": 51,
          "name": "D#3",
          "ticks": 121920,
          "time": 55.217441,
          "velocity": 1
        },
        {
          "duration": 0.05434787500000482,
          "durationTicks": 120,
          "midi": 67,
          "name": "G4",
          "ticks": 121920,
          "time": 55.217441,
          "velocity": 1
        },
        {
          "duration": 0.05434787500000482,
          "durationTicks": 120,
          "midi": 61,
          "name": "C#4",
          "ticks": 121920,
          "time": 55.217441,
          "velocity": 1
        },
        {
          "duration": 0.10869575000000253,
          "durationTicks": 240,
          "midi": 61,
          "name": "C#4",
          "ticks": 122640,
          "time": 55.54352825,
          "velocity": 1
        },
        {
          "duration": 0.054347874999997714,
          "durationTicks": 120,
          "midi": 62,
          "name": "D4",
          "ticks": 122880,
          "time": 55.652224000000004,
          "velocity": 1
        },
        {
          "duration": 0.054347874999997714,
          "durationTicks": 120,
          "midi": 66,
          "name": "F#4",
          "ticks": 122880,
          "time": 55.652224000000004,
          "velocity": 1
        },
        {
          "duration": 0.054347874999997714,
          "durationTicks": 120,
          "midi": 50,
          "name": "D3",
          "ticks": 122880,
          "time": 55.652224000000004,
          "velocity": 1
        },
        {
          "duration": 0.054347874999997714,
          "durationTicks": 120,
          "midi": 62,
          "name": "D4",
          "ticks": 123840,
          "time": 56.08700700000001,
          "velocity": 1
        },
        {
          "duration": 0.054347874999997714,
          "durationTicks": 120,
          "midi": 66,
          "name": "F#4",
          "ticks": 123840,
          "time": 56.08700700000001,
          "velocity": 1
        },
        {
          "duration": 0.05434787500000482,
          "durationTicks": 120,
          "midi": 43,
          "name": "G2",
          "ticks": 124080,
          "time": 56.19570275,
          "velocity": 1
        },
        {
          "duration": 0.054347874999997714,
          "durationTicks": 120,
          "midi": 50,
          "name": "D3",
          "ticks": 124320,
          "time": 56.304398500000005,
          "velocity": 1
        },
        {
          "duration": 0.054347874999997714,
          "durationTicks": 120,
          "midi": 47,
          "name": "B2",
          "ticks": 124800,
          "time": 56.52179,
          "velocity": 1
        },
        {
          "duration": 0.05434787500000482,
          "durationTicks": 120,
          "midi": 62,
          "name": "D4",
          "ticks": 125280,
          "time": 56.7391815,
          "velocity": 1
        },
        {
          "duration": 0.05434787500000482,
          "durationTicks": 120,
          "midi": 66,
          "name": "F#4",
          "ticks": 125280,
          "time": 56.7391815,
          "velocity": 1
        },
        {
          "duration": 0.05434787500000482,
          "durationTicks": 120,
          "midi": 59,
          "name": "B3",
          "ticks": 125280,
          "time": 56.7391815,
          "velocity": 1
        },
        {
          "duration": 0.054347874999997714,
          "durationTicks": 120,
          "midi": 59,
          "name": "B3",
          "ticks": 125760,
          "time": 56.956573000000006,
          "velocity": 1
        },
        {
          "duration": 0.054347874999997714,
          "durationTicks": 120,
          "midi": 66,
          "name": "F#4",
          "ticks": 126240,
          "time": 57.173964500000004,
          "velocity": 1
        },
        {
          "duration": 0.054347874999997714,
          "durationTicks": 120,
          "midi": 61,
          "name": "C#4",
          "ticks": 126240,
          "time": 57.173964500000004,
          "velocity": 1
        },
        {
          "duration": 0.054347874999997714,
          "durationTicks": 120,
          "midi": 47,
          "name": "B2",
          "ticks": 126240,
          "time": 57.173964500000004,
          "velocity": 1
        },
        {
          "duration": 0.05434787500000482,
          "durationTicks": 120,
          "midi": 40,
          "name": "E2",
          "ticks": 126720,
          "time": 57.391356,
          "velocity": 1
        },
        {
          "duration": 0.054347874999997714,
          "durationTicks": 120,
          "midi": 52,
          "name": "E3",
          "ticks": 127200,
          "time": 57.60874750000001,
          "velocity": 1
        },
        {
          "duration": 0.054347874999997714,
          "durationTicks": 120,
          "midi": 66,
          "name": "F#4",
          "ticks": 127200,
          "time": 57.60874750000001,
          "velocity": 1
        },
        {
          "duration": 0.054347874999997714,
          "durationTicks": 120,
          "midi": 61,
          "name": "C#4",
          "ticks": 127200,
          "time": 57.60874750000001,
          "velocity": 1
        },
        {
          "duration": 0.054347874999997714,
          "durationTicks": 120,
          "midi": 47,
          "name": "B2",
          "ticks": 127680,
          "time": 57.826139000000005,
          "velocity": 1
        },
        {
          "duration": 0.05434787500000482,
          "durationTicks": 120,
          "midi": 40,
          "name": "E2",
          "ticks": 128160,
          "time": 58.0435305,
          "velocity": 1
        },
        {
          "duration": 0.05434787500000482,
          "durationTicks": 120,
          "midi": 66,
          "name": "F#4",
          "ticks": 128640,
          "time": 58.260922,
          "velocity": 1
        },
        {
          "duration": 0.05434787500000482,
          "durationTicks": 120,
          "midi": 61,
          "name": "C#4",
          "ticks": 128640,
          "time": 58.260922,
          "velocity": 1
        },
        {
          "duration": 0.05434787500000482,
          "durationTicks": 120,
          "midi": 45,
          "name": "A2",
          "ticks": 128640,
          "time": 58.260922,
          "velocity": 1
        },
        {
          "duration": 0.054347874999997714,
          "durationTicks": 120,
          "midi": 66,
          "name": "F#4",
          "ticks": 129600,
          "time": 58.695705000000004,
          "velocity": 1
        },
        {
          "duration": 0.054347874999997714,
          "durationTicks": 120,
          "midi": 61,
          "name": "C#4",
          "ticks": 129600,
          "time": 58.695705000000004,
          "velocity": 1
        }
      ],
      "endOfTrackTicks": 129720
    },
    {
      "channel": 0,
      "controlChanges": {},
      "pitchBends": [],
      "instrument": {
        "family": "piano",
        "number": 0,
        "name": "acoustic grand piano"
      },
      "name": "",
      "notes": [
        {
          "duration": 0.10869574999999898,
          "durationTicks": 240,
          "midi": 48,
          "name": "C3",
          "ticks": 23040,
          "time": 10.434792000000002,
          "velocity": 1
        },
        {
          "duration": 0.10869575000000076,
          "durationTicks": 240,
          "midi": 48,
          "name": "C3",
          "ticks": 24480,
          "time": 11.0869665,
          "velocity": 1
        },
        {
          "duration": 0.10869575000000076,
          "durationTicks": 240,
          "midi": 45,
          "name": "A2",
          "ticks": 24960,
          "time": 11.304358,
          "velocity": 1
        },
        {
          "duration": 0.10869574999999898,
          "durationTicks": 240,
          "midi": 45,
          "name": "A2",
          "ticks": 26400,
          "time": 11.956532500000002,
          "velocity": 1
        },
        {
          "duration": 0.10869574999999898,
          "durationTicks": 240,
          "midi": 38,
          "name": "D2",
          "ticks": 26880,
          "time": 12.173924000000001,
          "velocity": 1
        },
        {
          "duration": 0,
          "durationTicks": 0,
          "midi": 48,
          "name": "C3",
          "ticks": 28126,
          "time": 12.738236102083334,
          "velocity": 1
        },
        {
          "duration": 0.10869575000000076,
          "durationTicks": 240,
          "midi": 38,
          "name": "D2",
          "ticks": 28320,
          "time": 12.8260985,
          "velocity": 1
        },
        {
          "duration": 0.10869575000000076,
          "durationTicks": 240,
          "midi": 43,
          "name": "G2",
          "ticks": 28800,
          "time": 13.04349,
          "velocity": 1
        },
        {
          "duration": 0.07246383333333384,
          "durationTicks": 160,
          "midi": 67,
          "name": "G4",
          "ticks": 29760,
          "time": 13.478273000000002,
          "velocity": 1
        },
        {
          "duration": 0.07246383333333206,
          "durationTicks": 160,
          "midi": 66,
          "name": "F#4",
          "ticks": 29920,
          "time": 13.550736833333335,
          "velocity": 1
        },
        {
          "duration": 0.07246383333333384,
          "durationTicks": 160,
          "midi": 65,
          "name": "F4",
          "ticks": 30080,
          "time": 13.623200666666667,
          "velocity": 1
        },
        {
          "duration": 0.07246383333333384,
          "durationTicks": 160,
          "midi": 64,
          "name": "E4",
          "ticks": 30240,
          "time": 13.695664500000001,
          "velocity": 1
        },
        {
          "duration": 0.07246383333333206,
          "durationTicks": 160,
          "midi": 62,
          "name": "D4",
          "ticks": 30400,
          "time": 13.768128333333335,
          "velocity": 1
        },
        {
          "duration": 0.07246383333333384,
          "durationTicks": 160,
          "midi": 60,
          "name": "C4",
          "ticks": 30560,
          "time": 13.840592166666667,
          "velocity": 1
        },
        {
          "duration": 0.21739149999999974,
          "durationTicks": 480,
          "midi": 36,
          "name": "C2",
          "ticks": 30720,
          "time": 13.913056000000001,
          "velocity": 1
        },
        {
          "duration": 0.21739149999999974,
          "durationTicks": 480,
          "midi": 48,
          "name": "C3",
          "ticks": 30720,
          "time": 13.913056000000001,
          "velocity": 1
        },
        {
          "duration": 0.05434787499999949,
          "durationTicks": 120,
          "midi": 52,
          "name": "E3",
          "ticks": 31200,
          "time": 14.1304475,
          "velocity": 1
        },
        {
          "duration": 0.05434787500000127,
          "durationTicks": 120,
          "midi": 36,
          "name": "C2",
          "ticks": 31680,
          "time": 14.347839,
          "velocity": 1
        },
        {
          "duration": 0.10869575000000076,
          "durationTicks": 240,
          "midi": 43,
          "name": "G2",
          "ticks": 32160,
          "time": 14.5652305,
          "velocity": 1
        },
        {
          "duration": 0.10869574999999898,
          "durationTicks": 240,
          "midi": 43,
          "name": "G2",
          "ticks": 32640,
          "time": 14.782622000000002,
          "velocity": 1
        },
        {
          "duration": 0.05434787500000127,
          "durationTicks": 120,
          "midi": 48,
          "name": "C3",
          "ticks": 33360,
          "time": 15.10870925,
          "velocity": 1
        },
        {
          "duration": 0.05434787499999949,
          "durationTicks": 120,
          "midi": 31,
          "name": "G1",
          "ticks": 34320,
          "time": 15.543492250000002,
          "velocity": 1
        },
        {
          "duration": 0.10869575000000076,
          "durationTicks": 240,
          "midi": 36,
          "name": "C2",
          "ticks": 34560,
          "time": 15.652188,
          "velocity": 1
        },
        {
          "duration": 0.05434787500000127,
          "durationTicks": 120,
          "midi": 48,
          "name": "C3",
          "ticks": 35040,
          "time": 15.8695795,
          "velocity": 1
        },
        {
          "duration": 0.10869575000000253,
          "durationTicks": 240,
          "midi": 43,
          "name": "G2",
          "ticks": 36000,
          "time": 16.3043625,
          "velocity": 1
        },
        {
          "duration": 0.10869574999999898,
          "durationTicks": 240,
          "midi": 43,
          "name": "G2",
          "ticks": 36480,
          "time": 16.521754,
          "velocity": 1
        },
        {
          "duration": 0.05434787500000127,
          "durationTicks": 120,
          "midi": 45,
          "name": "A2",
          "ticks": 37440,
          "time": 16.956537,
          "velocity": 1
        },
        {
          "duration": 0.10869575000000253,
          "durationTicks": 240,
          "midi": 38,
          "name": "D2",
          "ticks": 38400,
          "time": 17.39132,
          "velocity": 1
        },
        {
          "duration": 0.10869574999999898,
          "durationTicks": 240,
          "midi": 50,
          "name": "D3",
          "ticks": 38880,
          "time": 17.608711500000002,
          "velocity": 1
        },
        {
          "duration": 0.10869574999999898,
          "durationTicks": 240,
          "midi": 45,
          "name": "A2",
          "ticks": 39840,
          "time": 18.0434945,
          "velocity": 1
        },
        {
          "duration": 0.10869574999999898,
          "durationTicks": 240,
          "midi": 45,
          "name": "A2",
          "ticks": 40320,
          "time": 18.260886000000003,
          "velocity": 1
        },
        {
          "duration": 0.10869574999999898,
          "durationTicks": 240,
          "midi": 39,
          "name": "D#2",
          "ticks": 41280,
          "time": 18.695669000000002,
          "velocity": 1
        },
        {
          "duration": 0.10869574999999898,
          "durationTicks": 240,
          "midi": 38,
          "name": "D2",
          "ticks": 42240,
          "time": 19.130452000000002,
          "velocity": 0.31496062992125984
        },
        {
          "duration": 0.05434787500000127,
          "durationTicks": 120,
          "midi": 50,
          "name": "D3",
          "ticks": 42720,
          "time": 19.3478435,
          "velocity": 0.31496062992125984
        },
        {
          "duration": 0.10869574999999898,
          "durationTicks": 240,
          "midi": 45,
          "name": "A2",
          "ticks": 43680,
          "time": 19.782626500000003,
          "velocity": 0.31496062992125984
        },
        {
          "duration": 0.05434787500000127,
          "durationTicks": 120,
          "midi": 46,
          "name": "A#2",
          "ticks": 44160,
          "time": 20.000018,
          "velocity": 0.31496062992125984
        },
        {
          "duration": 0.10869575000000253,
          "durationTicks": 240,
          "midi": 47,
          "name": "B2",
          "ticks": 45120,
          "time": 20.434801,
          "velocity": 0.31496062992125984
        },
        {
          "duration": 0.05434787500000127,
          "durationTicks": 120,
          "midi": 50,
          "name": "D3",
          "ticks": 45840,
          "time": 20.76088825,
          "velocity": 0.31496062992125984
        },
        {
          "duration": 0.054347874999997714,
          "durationTicks": 120,
          "midi": 43,
          "name": "G2",
          "ticks": 46080,
          "time": 20.869584000000003,
          "velocity": 1
        },
        {
          "duration": 0.05434787500000127,
          "durationTicks": 120,
          "midi": 43,
          "name": "G2",
          "ticks": 46560,
          "time": 21.0869755,
          "velocity": 1
        },
        {
          "duration": 0.10869575000000253,
          "durationTicks": 240,
          "midi": 50,
          "name": "D3",
          "ticks": 47520,
          "time": 21.5217585,
          "velocity": 1
        },
        {
          "duration": 0.10869574999999898,
          "durationTicks": 240,
          "midi": 50,
          "name": "D3",
          "ticks": 48000,
          "time": 21.739150000000002,
          "velocity": 1
        },
        {
          "duration": 0.10869574999999898,
          "durationTicks": 240,
          "midi": 43,
          "name": "G2",
          "ticks": 49920,
          "time": 22.608716,
          "velocity": 1
        },
        {
          "duration": 0.10869574999999898,
          "durationTicks": 240,
          "midi": 50,
          "name": "D3",
          "ticks": 51360,
          "time": 23.260890500000002,
          "velocity": 1
        },
        {
          "duration": 0.10869575000000253,
          "durationTicks": 240,
          "midi": 50,
          "name": "D3",
          "ticks": 51840,
          "time": 23.478282,
          "velocity": 1
        },
        {
          "duration": 0.10869574999999898,
          "durationTicks": 240,
          "midi": 49,
          "name": "C#3",
          "ticks": 52800,
          "time": 23.913065000000003,
          "velocity": 1
        },
        {
          "duration": 0.10869574999999898,
          "durationTicks": 240,
          "midi": 48,
          "name": "C3",
          "ticks": 53760,
          "time": 24.347848000000003,
          "velocity": 1
        },
        {
          "duration": 0.10869575000000253,
          "durationTicks": 240,
          "midi": 48,
          "name": "C3",
          "ticks": 55200,
          "time": 25.0000225,
          "velocity": 1
        },
        {
          "duration": 0.10869574999999898,
          "durationTicks": 240,
          "midi": 45,
          "name": "A2",
          "ticks": 55680,
          "time": 25.217414,
          "velocity": 1
        },
        {
          "duration": 0.10869574999999898,
          "durationTicks": 240,
          "midi": 45,
          "name": "A2",
          "ticks": 57120,
          "time": 25.869588500000003,
          "velocity": 1
        },
        {
          "duration": 0.10869575000000253,
          "durationTicks": 240,
          "midi": 38,
          "name": "D2",
          "ticks": 57600,
          "time": 26.08698,
          "velocity": 1
        },
        {
          "duration": 0.10869574999999898,
          "durationTicks": 240,
          "midi": 38,
          "name": "D2",
          "ticks": 59040,
          "time": 26.7391545,
          "velocity": 1
        },
        {
          "duration": 0.10869574999999898,
          "durationTicks": 240,
          "midi": 43,
          "name": "G2",
          "ticks": 59520,
          "time": 26.956546000000003,
          "velocity": 1
        },
        {
          "duration": 0.21739150000000151,
          "durationTicks": 480,
          "midi": 48,
          "name": "C3",
          "ticks": 61440,
          "time": 27.826112000000002,
          "velocity": 0.6535433070866141
        },
        {
          "duration": 0.054347874999997714,
          "durationTicks": 120,
          "midi": 64,
          "name": "E4",
          "ticks": 61920,
          "time": 28.043503500000003,
          "velocity": 0.6535433070866141
        },
        {
          "duration": 0.21739150000000151,
          "durationTicks": 480,
          "midi": 48,
          "name": "C3",
          "ticks": 62400,
          "time": 28.260895,
          "velocity": 0.6535433070866141
        },
        {
          "duration": 0.054347874999997714,
          "durationTicks": 120,
          "midi": 55,
          "name": "G3",
          "ticks": 62880,
          "time": 28.478286500000003,
          "velocity": 0.6535433070866141
        },
        {
          "duration": 0.05434787500000127,
          "durationTicks": 120,
          "midi": 55,
          "name": "G3",
          "ticks": 63360,
          "time": 28.695678,
          "velocity": 0.6535433070866141
        },
        {
          "duration": 0.05434787500000127,
          "durationTicks": 120,
          "midi": 60,
          "name": "C4",
          "ticks": 64080,
          "time": 29.02176525,
          "velocity": 0.6535433070866141
        },
        {
          "duration": 0.05434787500000127,
          "durationTicks": 120,
          "midi": 43,
          "name": "G2",
          "ticks": 65040,
          "time": 29.45654825,
          "velocity": 0.6535433070866141
        },
        {
          "duration": 0.21739149999999796,
          "durationTicks": 480,
          "midi": 48,
          "name": "C3",
          "ticks": 65280,
          "time": 29.565244000000003,
          "velocity": 0.6535433070866141
        },
        {
          "duration": 0.05434787500000127,
          "durationTicks": 120,
          "midi": 60,
          "name": "C4",
          "ticks": 65760,
          "time": 29.7826355,
          "velocity": 0.6535433070866141
        },
        {
          "duration": 0.21739150000000151,
          "durationTicks": 480,
          "midi": 55,
          "name": "G3",
          "ticks": 66720,
          "time": 30.2174185,
          "velocity": 0.6535433070866141
        },
        {
          "duration": 0.05434787500000127,
          "durationTicks": 120,
          "midi": 55,
          "name": "G3",
          "ticks": 67200,
          "time": 30.434810000000002,
          "velocity": 0.6535433070866141
        },
        {
          "duration": 0.05434787500000127,
          "durationTicks": 120,
          "midi": 57,
          "name": "A3",
          "ticks": 68160,
          "time": 30.869593000000002,
          "velocity": 0.6535433070866141
        },
        {
          "duration": 0.21739150000000151,
          "durationTicks": 480,
          "midi": 50,
          "name": "D3",
          "ticks": 69120,
          "time": 31.304376,
          "velocity": 0.6535433070866141
        },
        {
          "duration": 0.054347874999997714,
          "durationTicks": 120,
          "midi": 62,
          "name": "D4",
          "ticks": 69600,
          "time": 31.521767500000003,
          "velocity": 0.6535433070866141
        },
        {
          "duration": 0.21739150000000151,
          "durationTicks": 480,
          "midi": 57,
          "name": "A3",
          "ticks": 70560,
          "time": 31.956550500000002,
          "velocity": 0.6535433070866141
        },
        {
          "duration": 0.054347874999997714,
          "durationTicks": 120,
          "midi": 57,
          "name": "A3",
          "ticks": 71040,
          "time": 32.173942000000004,
          "velocity": 0.6535433070866141
        },
        {
          "duration": 0.43478300000000303,
          "durationTicks": 960,
          "midi": 51,
          "name": "D#3",
          "ticks": 72000,
          "time": 32.608725,
          "velocity": 0.6535433070866141
        },
        {
          "duration": 0.21739149999999796,
          "durationTicks": 480,
          "midi": 50,
          "name": "D3",
          "ticks": 72960,
          "time": 33.043508,
          "velocity": 0.6535433070866141
        },
        {
          "duration": 0.05434787500000482,
          "durationTicks": 120,
          "midi": 62,
          "name": "D4",
          "ticks": 73440,
          "time": 33.2608995,
          "velocity": 0.6535433070866141
        },
        {
          "duration": 0.21739149999999796,
          "durationTicks": 480,
          "midi": 57,
          "name": "A3",
          "ticks": 74400,
          "time": 33.695682500000004,
          "velocity": 0.6535433070866141
        },
        {
          "duration": 0.054347874999997714,
          "durationTicks": 120,
          "midi": 58,
          "name": "A#3",
          "ticks": 74880,
          "time": 33.913074,
          "velocity": 0.6535433070866141
        },
        {
          "duration": 0.3260872500000005,
          "durationTicks": 720,
          "midi": 59,
          "name": "B3",
          "ticks": 75840,
          "time": 34.347857000000005,
          "velocity": 0.6535433070866141
        },
        {
          "duration": 0.054347874999997714,
          "durationTicks": 120,
          "midi": 62,
          "name": "D4",
          "ticks": 76560,
          "time": 34.673944250000005,
          "velocity": 0.6535433070866141
        },
        {
          "duration": 0.054347874999997714,
          "durationTicks": 120,
          "midi": 41,
          "name": "F2",
          "ticks": 92160,
          "time": 41.73916800000001,
          "velocity": 1
        },
        {
          "duration": 0.054347874999997714,
          "durationTicks": 120,
          "midi": 43,
          "name": "G2",
          "ticks": 92280,
          "time": 41.793515875000004,
          "velocity": 1
        },
        {
          "duration": 0.054347874999997714,
          "durationTicks": 120,
          "midi": 46,
          "name": "A#2",
          "ticks": 92400,
          "time": 41.84786375,
          "velocity": 1
        },
        {
          "duration": 0.05434787500000482,
          "durationTicks": 120,
          "midi": 47,
          "name": "B2",
          "ticks": 92520,
          "time": 41.902211625,
          "velocity": 1
        },
        {
          "duration": 0.054347874999997714,
          "durationTicks": 120,
          "midi": 51,
          "name": "D#3",
          "ticks": 92640,
          "time": 41.956559500000004,
          "velocity": 1
        },
        {
          "duration": 0.054347874999997714,
          "durationTicks": 120,
          "midi": 55,
          "name": "G3",
          "ticks": 92760,
          "time": 42.010907375,
          "velocity": 1
        },
        {
          "duration": 0.05434787500000482,
          "durationTicks": 120,
          "midi": 58,
          "name": "A#3",
          "ticks": 92880,
          "time": 42.06525525,
          "velocity": 1
        },
        {
          "duration": 0.054347874999997714,
          "durationTicks": 120,
          "midi": 60,
          "name": "C4",
          "ticks": 93000,
          "time": 42.119603125000005,
          "velocity": 1
        },
        {
          "duration": 0.054347874999997714,
          "durationTicks": 120,
          "midi": 63,
          "name": "D#4",
          "ticks": 93120,
          "time": 42.173951,
          "velocity": 1
        },
        {
          "duration": 0.054347874999997714,
          "durationTicks": 120,
          "midi": 64,
          "name": "E4",
          "ticks": 94080,
          "time": 42.608734000000005,
          "velocity": 1
        },
        {
          "duration": 0.054347874999997714,
          "durationTicks": 120,
          "midi": 63,
          "name": "D#4",
          "ticks": 94560,
          "time": 42.8261255,
          "velocity": 1
        },
        {
          "duration": 0.05434787500000482,
          "durationTicks": 120,
          "midi": 64,
          "name": "E4",
          "ticks": 95040,
          "time": 43.043517,
          "velocity": 1
        },
        {
          "duration": 0.054347874999997714,
          "durationTicks": 120,
          "midi": 63,
          "name": "D#4",
          "ticks": 95160,
          "time": 43.097864875000006,
          "velocity": 1
        },
        {
          "duration": 0.054347874999997714,
          "durationTicks": 120,
          "midi": 64,
          "name": "E4",
          "ticks": 95280,
          "time": 43.152212750000004,
          "velocity": 1
        },
        {
          "duration": 0.05434787500000482,
          "durationTicks": 120,
          "midi": 63,
          "name": "D#4",
          "ticks": 95400,
          "time": 43.206560625,
          "velocity": 1
        },
        {
          "duration": 0.054347874999997714,
          "durationTicks": 120,
          "midi": 64,
          "name": "E4",
          "ticks": 95520,
          "time": 43.260908500000006,
          "velocity": 1
        },
        {
          "duration": 0.054347874999997714,
          "durationTicks": 120,
          "midi": 68,
          "name": "G#4",
          "ticks": 95640,
          "time": 43.315256375000004,
          "velocity": 1
        },
        {
          "duration": 0.054347874999997714,
          "durationTicks": 120,
          "midi": 67,
          "name": "G4",
          "ticks": 95760,
          "time": 43.36960425,
          "velocity": 1
        },
        {
          "duration": 0.05434787500000482,
          "durationTicks": 120,
          "midi": 64,
          "name": "E4",
          "ticks": 95880,
          "time": 43.423952125,
          "velocity": 1
        },
        {
          "duration": 0.054347874999997714,
          "durationTicks": 120,
          "midi": 63,
          "name": "D#4",
          "ticks": 96000,
          "time": 43.478300000000004,
          "velocity": 1
        },
        {
          "duration": 0.054347874999997714,
          "durationTicks": 120,
          "midi": 69,
          "name": "A4",
          "ticks": 96480,
          "time": 43.6956915,
          "velocity": 1
        },
        {
          "duration": 0.21739150000000507,
          "durationTicks": 480,
          "midi": 48,
          "name": "C3",
          "ticks": 96960,
          "time": 43.913083,
          "velocity": 1
        },
        {
          "duration": 0.054347874999997714,
          "durationTicks": 120,
          "midi": 52,
          "name": "E3",
          "ticks": 97440,
          "time": 44.130474500000005,
          "velocity": 1
        },
        {
          "duration": 0.21739149999999796,
          "durationTicks": 480,
          "midi": 45,
          "name": "A2",
          "ticks": 97920,
          "time": 44.347866,
          "velocity": 1
        },
        {
          "duration": 0.21739150000000507,
          "durationTicks": 480,
          "midi": 49,
          "name": "C#3",
          "ticks": 98400,
          "time": 44.5652575,
          "velocity": 1
        },
        {
          "duration": 0.10869574999999543,
          "durationTicks": 240,
          "midi": 44,
          "name": "G#2",
          "ticks": 98880,
          "time": 44.782649000000006,
          "velocity": 1
        },
        {
          "duration": 0.054347874999997714,
          "durationTicks": 120,
          "midi": 48,
          "name": "C3",
          "ticks": 99360,
          "time": 45.000040500000004,
          "velocity": 1
        },
        {
          "duration": 0.054347874999997714,
          "durationTicks": 120,
          "midi": 49,
          "name": "C#3",
          "ticks": 99480,
          "time": 45.054388375,
          "velocity": 1
        },
        {
          "duration": 0.05434787500000482,
          "durationTicks": 120,
          "midi": 48,
          "name": "C3",
          "ticks": 99600,
          "time": 45.10873625,
          "velocity": 1
        },
        {
          "duration": 0.054347874999997714,
          "durationTicks": 120,
          "midi": 49,
          "name": "C#3",
          "ticks": 99720,
          "time": 45.163084125000005,
          "velocity": 1
        },
        {
          "duration": 0.21739149999999796,
          "durationTicks": 480,
          "midi": 38,
          "name": "D2",
          "ticks": 99840,
          "time": 45.217432,
          "velocity": 1
        },
        {
          "duration": 0.21739149999999796,
          "durationTicks": 480,
          "midi": 50,
          "name": "D3",
          "ticks": 99840,
          "time": 45.217432,
          "velocity": 1
        },
        {
          "duration": 0.05434787500000482,
          "durationTicks": 120,
          "midi": 54,
          "name": "F#3",
          "ticks": 100320,
          "time": 45.4348235,
          "velocity": 1
        },
        {
          "duration": 0.054347874999997714,
          "durationTicks": 120,
          "midi": 38,
          "name": "D2",
          "ticks": 100800,
          "time": 45.652215000000005,
          "velocity": 1
        },
        {
          "duration": 0.10869575000000253,
          "durationTicks": 240,
          "midi": 45,
          "name": "A2",
          "ticks": 101280,
          "time": 45.8696065,
          "velocity": 1
        },
        {
          "duration": 0.10869575000000253,
          "durationTicks": 240,
          "midi": 45,
          "name": "A2",
          "ticks": 101760,
          "time": 46.086998,
          "velocity": 1
        },
        {
          "duration": 0.05434787500000482,
          "durationTicks": 120,
          "midi": 50,
          "name": "D3",
          "ticks": 102480,
          "time": 46.41308525,
          "velocity": 1
        },
        {
          "duration": 0.054347874999997714,
          "durationTicks": 120,
          "midi": 33,
          "name": "A1",
          "ticks": 103440,
          "time": 46.847868250000005,
          "velocity": 1
        },
        {
          "duration": 0.10869575000000253,
          "durationTicks": 240,
          "midi": 38,
          "name": "D2",
          "ticks": 103680,
          "time": 46.956564,
          "velocity": 1
        },
        {
          "duration": 0.054347874999997714,
          "durationTicks": 120,
          "midi": 50,
          "name": "D3",
          "ticks": 104160,
          "time": 47.173955500000005,
          "velocity": 1
        },
        {
          "duration": 0.10869575000000253,
          "durationTicks": 240,
          "midi": 45,
          "name": "A2",
          "ticks": 105120,
          "time": 47.6087385,
          "velocity": 1
        },
        {
          "duration": 0.10869574999999543,
          "durationTicks": 240,
          "midi": 45,
          "name": "A2",
          "ticks": 105600,
          "time": 47.826130000000006,
          "velocity": 1
        },
        {
          "duration": 0.054347874999997714,
          "durationTicks": 120,
          "midi": 47,
          "name": "B2",
          "ticks": 106560,
          "time": 48.260913,
          "velocity": 1
        },
        {
          "duration": 0.10869574999999543,
          "durationTicks": 240,
          "midi": 50,
          "name": "D3",
          "ticks": 107520,
          "time": 48.695696000000005,
          "velocity": 1
        },
        {
          "duration": 0.054347874999997714,
          "durationTicks": 120,
          "midi": 66,
          "name": "F#4",
          "ticks": 108000,
          "time": 48.9130875,
          "velocity": 1
        },
        {
          "duration": 0.054347874999997714,
          "durationTicks": 120,
          "midi": 66,
          "name": "F#4",
          "ticks": 108240,
          "time": 49.021783250000006,
          "velocity": 0.7559055118110236
        },
        {
          "duration": 0.05434787500000482,
          "durationTicks": 120,
          "midi": 50,
          "name": "D3",
          "ticks": 108480,
          "time": 49.130479,
          "velocity": 1
        },
        {
          "duration": 0.054347874999997714,
          "durationTicks": 120,
          "midi": 66,
          "name": "F#4",
          "ticks": 108720,
          "time": 49.239174750000004,
          "velocity": 0.7559055118110236
        },
        {
          "duration": 0.054347874999997714,
          "durationTicks": 120,
          "midi": 66,
          "name": "F#4",
          "ticks": 108960,
          "time": 49.347870500000006,
          "velocity": 0.7559055118110236
        },
        {
          "duration": 0.05434787500000482,
          "durationTicks": 120,
          "midi": 66,
          "name": "F#4",
          "ticks": 109200,
          "time": 49.45656625,
          "velocity": 0.7559055118110236
        },
        {
          "duration": 0.10869575000000253,
          "durationTicks": 240,
          "midi": 57,
          "name": "A3",
          "ticks": 109440,
          "time": 49.565262000000004,
          "velocity": 1
        },
        {
          "duration": 0.054347874999997714,
          "durationTicks": 120,
          "midi": 69,
          "name": "A4",
          "ticks": 109680,
          "time": 49.67395775000001,
          "velocity": 0.7559055118110236
        },
        {
          "duration": 0.05434787500000482,
          "durationTicks": 120,
          "midi": 69,
          "name": "A4",
          "ticks": 109920,
          "time": 49.7826535,
          "velocity": 0.7559055118110236
        },
        {
          "duration": 0.054347874999997714,
          "durationTicks": 120,
          "midi": 69,
          "name": "A4",
          "ticks": 110160,
          "time": 49.891349250000005,
          "velocity": 0.7559055118110236
        },
        {
          "duration": 0.21739150000000507,
          "durationTicks": 480,
          "midi": 62,
          "name": "D4",
          "ticks": 110400,
          "time": 50.000045,
          "velocity": 0.7559055118110236
        },
        {
          "duration": 0.054347874999997714,
          "durationTicks": 120,
          "midi": 74,
          "name": "D5",
          "ticks": 110880,
          "time": 50.217436500000005,
          "velocity": 0.7559055118110236
        },
        {
          "duration": 0.05434787500000482,
          "durationTicks": 120,
          "midi": 57,
          "name": "A3",
          "ticks": 111120,
          "time": 50.32613225,
          "velocity": 1
        },
        {
          "duration": 0.10869575000000253,
          "durationTicks": 240,
          "midi": 50,
          "name": "D3",
          "ticks": 111360,
          "time": 50.434828,
          "velocity": 1
        },
        {
          "duration": 0.054347874999997714,
          "durationTicks": 120,
          "midi": 62,
          "name": "D4",
          "ticks": 111600,
          "time": 50.543523750000006,
          "velocity": 1
        },
        {
          "duration": 0.05434787500000482,
          "durationTicks": 120,
          "midi": 62,
          "name": "D4",
          "ticks": 111840,
          "time": 50.6522195,
          "velocity": 1
        },
        {
          "duration": 0.054347874999997714,
          "durationTicks": 120,
          "midi": 62,
          "name": "D4",
          "ticks": 112080,
          "time": 50.760915250000004,
          "velocity": 1
        },
        {
          "duration": 0.10869574999999543,
          "durationTicks": 240,
          "midi": 57,
          "name": "A3",
          "ticks": 112320,
          "time": 50.869611000000006,
          "velocity": 1
        },
        {
          "duration": 0.054347874999997714,
          "durationTicks": 120,
          "midi": 69,
          "name": "A4",
          "ticks": 112800,
          "time": 51.087002500000004,
          "velocity": 1
        },
        {
          "duration": 0.054347874999997714,
          "durationTicks": 120,
          "midi": 69,
          "name": "A4",
          "ticks": 113040,
          "time": 51.19569825000001,
          "velocity": 1
        },
        {
          "duration": 0.10869575000000253,
          "durationTicks": 240,
          "midi": 57,
          "name": "A3",
          "ticks": 113280,
          "time": 51.304394,
          "velocity": 1
        },
        {
          "duration": 0.054347874999997714,
          "durationTicks": 120,
          "midi": 69,
          "name": "A4",
          "ticks": 113760,
          "time": 51.52178550000001,
          "velocity": 1
        },
        {
          "duration": 0.054347874999997714,
          "durationTicks": 120,
          "midi": 69,
          "name": "A4",
          "ticks": 114000,
          "time": 51.63048125,
          "velocity": 1
        },
        {
          "duration": 0.054347874999997714,
          "durationTicks": 120,
          "midi": 59,
          "name": "B3",
          "ticks": 114240,
          "time": 51.739177000000005,
          "velocity": 1
        },
        {
          "duration": 0.054347874999997714,
          "durationTicks": 120,
          "midi": 71,
          "name": "B4",
          "ticks": 114720,
          "time": 51.9565685,
          "velocity": 1
        },
        {
          "duration": 0.05434787500000482,
          "durationTicks": 120,
          "midi": 45,
          "name": "A2",
          "ticks": 115200,
          "time": 52.17396,
          "velocity": 1
        },
        {
          "duration": 0.054347874999997714,
          "durationTicks": 120,
          "midi": 45,
          "name": "A2",
          "ticks": 115320,
          "time": 52.228307875000006,
          "velocity": 1
        },
        {
          "duration": 0.054347874999997714,
          "durationTicks": 120,
          "midi": 45,
          "name": "A2",
          "ticks": 115440,
          "time": 52.28265575,
          "velocity": 1
        },
        {
          "duration": 0.05434787500000482,
          "durationTicks": 120,
          "midi": 45,
          "name": "A2",
          "ticks": 115560,
          "time": 52.337003625,
          "velocity": 1
        },
        {
          "duration": 0.054347874999997714,
          "durationTicks": 120,
          "midi": 57,
          "name": "A3",
          "ticks": 115680,
          "time": 52.391351500000006,
          "velocity": 1
        },
        {
          "duration": 0.054347874999997714,
          "durationTicks": 120,
          "midi": 57,
          "name": "A3",
          "ticks": 115800,
          "time": 52.445699375000004,
          "velocity": 1
        },
        {
          "duration": 0.05434787500000482,
          "durationTicks": 120,
          "midi": 57,
          "name": "A3",
          "ticks": 115920,
          "time": 52.50004725,
          "velocity": 1
        },
        {
          "duration": 0.054347874999997714,
          "durationTicks": 120,
          "midi": 57,
          "name": "A3",
          "ticks": 116040,
          "time": 52.554395125000006,
          "velocity": 1
        },
        {
          "duration": 0.054347874999997714,
          "durationTicks": 120,
          "midi": 45,
          "name": "A2",
          "ticks": 116160,
          "time": 52.608743000000004,
          "velocity": 1
        },
        {
          "duration": 0.05434787500000482,
          "durationTicks": 120,
          "midi": 45,
          "name": "A2",
          "ticks": 116280,
          "time": 52.663090875,
          "velocity": 1
        },
        {
          "duration": 0.054347874999997714,
          "durationTicks": 120,
          "midi": 45,
          "name": "A2",
          "ticks": 116400,
          "time": 52.71743875000001,
          "velocity": 1
        },
        {
          "duration": 0.054347874999997714,
          "durationTicks": 120,
          "midi": 45,
          "name": "A2",
          "ticks": 116520,
          "time": 52.771786625000004,
          "velocity": 1
        },
        {
          "duration": 0.05434787500000482,
          "durationTicks": 120,
          "midi": 52,
          "name": "E3",
          "ticks": 116640,
          "time": 52.8261345,
          "velocity": 1
        },
        {
          "duration": 0.054347874999997714,
          "durationTicks": 120,
          "midi": 52,
          "name": "E3",
          "ticks": 116760,
          "time": 52.88048237500001,
          "velocity": 1
        },
        {
          "duration": 0.054347874999997714,
          "durationTicks": 120,
          "midi": 52,
          "name": "E3",
          "ticks": 116880,
          "time": 52.934830250000005,
          "velocity": 1
        },
        {
          "duration": 0.05434787500000482,
          "durationTicks": 120,
          "midi": 52,
          "name": "E3",
          "ticks": 117000,
          "time": 52.989178125,
          "velocity": 1
        },
        {
          "duration": 0.054347874999997714,
          "durationTicks": 120,
          "midi": 52,
          "name": "E3",
          "ticks": 117120,
          "time": 53.04352600000001,
          "velocity": 1
        },
        {
          "duration": 0.054347874999997714,
          "durationTicks": 120,
          "midi": 64,
          "name": "E4",
          "ticks": 117600,
          "time": 53.260917500000005,
          "velocity": 1
        },
        {
          "duration": 0.05434787500000482,
          "durationTicks": 120,
          "midi": 76,
          "name": "E5",
          "ticks": 117840,
          "time": 53.36961325,
          "velocity": 1
        },
        {
          "duration": 0.054347874999997714,
          "durationTicks": 120,
          "midi": 47,
          "name": "B2",
          "ticks": 118080,
          "time": 53.478309,
          "velocity": 1
        },
        {
          "duration": 0.05434787500000482,
          "durationTicks": 120,
          "midi": 76,
          "name": "E5",
          "ticks": 118560,
          "time": 53.6957005,
          "velocity": 1
        },
        {
          "duration": 0.054347874999997714,
          "durationTicks": 120,
          "midi": 45,
          "name": "A2",
          "ticks": 119040,
          "time": 53.913092000000006,
          "velocity": 1
        },
        {
          "duration": 0.054347874999997714,
          "durationTicks": 120,
          "midi": 57,
          "name": "A3",
          "ticks": 119520,
          "time": 54.130483500000004,
          "velocity": 1
        },
        {
          "duration": 0.054347874999997714,
          "durationTicks": 120,
          "midi": 57,
          "name": "A3",
          "ticks": 119760,
          "time": 54.23917925000001,
          "velocity": 1
        },
        {
          "duration": 0.054347874999997714,
          "durationTicks": 120,
          "midi": 45,
          "name": "A2",
          "ticks": 120240,
          "time": 54.456570750000004,
          "velocity": 1
        },
        {
          "duration": 0.054347874999997714,
          "durationTicks": 120,
          "midi": 52,
          "name": "E3",
          "ticks": 120480,
          "time": 54.56526650000001,
          "velocity": 1
        },
        {
          "duration": 0.054347874999997714,
          "durationTicks": 120,
          "midi": 52,
          "name": "E3",
          "ticks": 120960,
          "time": 54.782658000000005,
          "velocity": 1
        },
        {
          "duration": 0.054347874999997714,
          "durationTicks": 120,
          "midi": 64,
          "name": "E4",
          "ticks": 121440,
          "time": 55.0000495,
          "velocity": 1
        },
        {
          "duration": 0.05434787500000482,
          "durationTicks": 120,
          "midi": 51,
          "name": "D#3",
          "ticks": 121920,
          "time": 55.217441,
          "velocity": 1
        },
        {
          "duration": 0.054347874999997714,
          "durationTicks": 120,
          "midi": 63,
          "name": "D#4",
          "ticks": 122400,
          "time": 55.434832500000006,
          "velocity": 1
        },
        {
          "duration": 0.054347874999997714,
          "durationTicks": 120,
          "midi": 50,
          "name": "D3",
          "ticks": 122880,
          "time": 55.652224000000004,
          "velocity": 1
        },
        {
          "duration": 0.054347874999997714,
          "durationTicks": 120,
          "midi": 62,
          "name": "D4",
          "ticks": 123600,
          "time": 55.978311250000004,
          "velocity": 1
        },
        {
          "duration": 0.05434787500000482,
          "durationTicks": 120,
          "midi": 43,
          "name": "G2",
          "ticks": 124080,
          "time": 56.19570275,
          "velocity": 1
        },
        {
          "duration": 0.054347874999997714,
          "durationTicks": 120,
          "midi": 50,
          "name": "D3",
          "ticks": 124320,
          "time": 56.304398500000005,
          "velocity": 1
        },
        {
          "duration": 0.054347874999997714,
          "durationTicks": 120,
          "midi": 47,
          "name": "B2",
          "ticks": 124800,
          "time": 56.52179,
          "velocity": 1
        },
        {
          "duration": 0.05434787500000482,
          "durationTicks": 120,
          "midi": 45,
          "name": "A2",
          "ticks": 125280,
          "time": 56.7391815,
          "velocity": 1
        },
        {
          "duration": 0.054347874999997714,
          "durationTicks": 120,
          "midi": 46,
          "name": "A#2",
          "ticks": 125760,
          "time": 56.956573000000006,
          "velocity": 1
        },
        {
          "duration": 0.054347874999997714,
          "durationTicks": 120,
          "midi": 47,
          "name": "B2",
          "ticks": 126240,
          "time": 57.173964500000004,
          "velocity": 1
        },
        {
          "duration": 0.05434787500000482,
          "durationTicks": 120,
          "midi": 40,
          "name": "E2",
          "ticks": 126720,
          "time": 57.391356,
          "velocity": 1
        },
        {
          "duration": 0.054347874999997714,
          "durationTicks": 120,
          "midi": 52,
          "name": "E3",
          "ticks": 127200,
          "time": 57.60874750000001,
          "velocity": 1
        },
        {
          "duration": 0.054347874999997714,
          "durationTicks": 120,
          "midi": 47,
          "name": "B2",
          "ticks": 127680,
          "time": 57.826139000000005,
          "velocity": 1
        },
        {
          "duration": 0.05434787500000482,
          "durationTicks": 120,
          "midi": 46,
          "name": "A#2",
          "ticks": 128160,
          "time": 58.0435305,
          "velocity": 1
        },
        {
          "duration": 0.05434787500000482,
          "durationTicks": 120,
          "midi": 45,
          "name": "A2",
          "ticks": 128640,
          "time": 58.260922,
          "velocity": 1
        }
      ],
      "endOfTrackTicks": 128760
    },
    {
      "channel": 0,
      "controlChanges": {},
      "pitchBends": [],
      "instrument": {
        "family": "piano",
        "number": 0,
        "name": "acoustic grand piano"
      },
      "name": "",
      "notes": [
        {
          "duration": 0.05434787499999949,
          "durationTicks": 120,
          "midi": 49,
          "name": "C#3",
          "ticks": 23040,
          "time": 10.434792000000002,
          "velocity": 1
        },
        {
          "duration": 0.05434787499999949,
          "durationTicks": 120,
          "midi": 43,
          "name": "G2",
          "ticks": 23040,
          "time": 10.434792000000002,
          "velocity": 0.12598425196850394
        },
        {
          "duration": 0.05434787499999949,
          "durationTicks": 120,
          "midi": 59,
          "name": "B3",
          "ticks": 23040,
          "time": 10.434792000000002,
          "velocity": 0.937007874015748
        },
        {
          "duration": 0.05434787499999949,
          "durationTicks": 120,
          "midi": 45,
          "name": "A2",
          "ticks": 23520,
          "time": 10.652183500000001,
          "velocity": 0.2047244094488189
        },
        {
          "duration": 0.05434787499999949,
          "durationTicks": 120,
          "midi": 59,
          "name": "B3",
          "ticks": 24000,
          "time": 10.869575000000001,
          "velocity": 0.937007874015748
        },
        {
          "duration": 0.05434787499999949,
          "durationTicks": 120,
          "midi": 43,
          "name": "G2",
          "ticks": 24000,
          "time": 10.869575000000001,
          "velocity": 0.12598425196850394
        },
        {
          "duration": 0.05434787499999949,
          "durationTicks": 120,
          "midi": 49,
          "name": "C#3",
          "ticks": 24480,
          "time": 11.0869665,
          "velocity": 1
        },
        {
          "duration": 0.05434787499999949,
          "durationTicks": 120,
          "midi": 45,
          "name": "A2",
          "ticks": 24480,
          "time": 11.0869665,
          "velocity": 0.2047244094488189
        },
        {
          "duration": 0.05434787499999949,
          "durationTicks": 120,
          "midi": 74,
          "name": "D5",
          "ticks": 24960,
          "time": 11.304358,
          "velocity": 0.937007874015748
        },
        {
          "duration": 0.05434787499999949,
          "durationTicks": 120,
          "midi": 69,
          "name": "A4",
          "ticks": 24960,
          "time": 11.304358,
          "velocity": 0.937007874015748
        },
        {
          "duration": 0.05434787499999949,
          "durationTicks": 120,
          "midi": 59,
          "name": "B3",
          "ticks": 24960,
          "time": 11.304358,
          "velocity": 0.937007874015748
        },
        {
          "duration": 0.05434787499999949,
          "durationTicks": 120,
          "midi": 84,
          "name": "C6",
          "ticks": 24960,
          "time": 11.304358,
          "velocity": 0.12598425196850394
        },
        {
          "duration": 0.05434787499999949,
          "durationTicks": 120,
          "midi": 43,
          "name": "G2",
          "ticks": 24960,
          "time": 11.304358,
          "velocity": 0.12598425196850394
        },
        {
          "duration": 0.05434787500000127,
          "durationTicks": 120,
          "midi": 49,
          "name": "C#3",
          "ticks": 25440,
          "time": 11.5217495,
          "velocity": 1
        },
        {
          "duration": 0.05434787500000127,
          "durationTicks": 120,
          "midi": 45,
          "name": "A2",
          "ticks": 25440,
          "time": 11.5217495,
          "velocity": 0.2047244094488189
        },
        {
          "duration": 0.21739149999999974,
          "durationTicks": 480,
          "midi": 67,
          "name": "G4",
          "ticks": 25440,
          "time": 11.5217495,
          "velocity": 1
        },
        {
          "duration": 0.05434787500000127,
          "durationTicks": 120,
          "midi": 59,
          "name": "B3",
          "ticks": 25920,
          "time": 11.739141,
          "velocity": 0.937007874015748
        },
        {
          "duration": 0.05434787500000127,
          "durationTicks": 120,
          "midi": 49,
          "name": "C#3",
          "ticks": 25920,
          "time": 11.739141,
          "velocity": 1
        },
        {
          "duration": 0.05434787500000127,
          "durationTicks": 120,
          "midi": 43,
          "name": "G2",
          "ticks": 25920,
          "time": 11.739141,
          "velocity": 0.12598425196850394
        },
        {
          "duration": 0.05434787499999949,
          "durationTicks": 120,
          "midi": 49,
          "name": "C#3",
          "ticks": 26400,
          "time": 11.956532500000002,
          "velocity": 1
        },
        {
          "duration": 0.05434787499999949,
          "durationTicks": 120,
          "midi": 45,
          "name": "A2",
          "ticks": 26400,
          "time": 11.956532500000002,
          "velocity": 0.2047244094488189
        },
        {
          "duration": 0.05434787499999949,
          "durationTicks": 120,
          "midi": 43,
          "name": "G2",
          "ticks": 26880,
          "time": 12.173924000000001,
          "velocity": 0.12598425196850394
        },
        {
          "duration": 0.05434787499999949,
          "durationTicks": 120,
          "midi": 59,
          "name": "B3",
          "ticks": 26880,
          "time": 12.173924000000001,
          "velocity": 0.937007874015748
        },
        {
          "duration": 0.05434787499999949,
          "durationTicks": 120,
          "midi": 49,
          "name": "C#3",
          "ticks": 26880,
          "time": 12.173924000000001,
          "velocity": 1
        },
        {
          "duration": 0.05434787499999949,
          "durationTicks": 120,
          "midi": 72,
          "name": "C5",
          "ticks": 26880,
          "time": 12.173924000000001,
          "velocity": 0.7559055118110236
        },
        {
          "duration": 0.05434787500000127,
          "durationTicks": 120,
          "midi": 72,
          "name": "C5",
          "ticks": 27120,
          "time": 12.28261975,
          "velocity": 0.7559055118110236
        },
        {
          "duration": 0.05434787499999949,
          "durationTicks": 120,
          "midi": 45,
          "name": "A2",
          "ticks": 27360,
          "time": 12.391315500000001,
          "velocity": 0.2047244094488189
        },
        {
          "duration": 0.05434787499999949,
          "durationTicks": 120,
          "midi": 73,
          "name": "C#5",
          "ticks": 27360,
          "time": 12.391315500000001,
          "velocity": 0.7559055118110236
        },
        {
          "duration": 0.05434787500000127,
          "durationTicks": 120,
          "midi": 72,
          "name": "C5",
          "ticks": 27600,
          "time": 12.50001125,
          "velocity": 0.7559055118110236
        },
        {
          "duration": 0.05434787499999949,
          "durationTicks": 120,
          "midi": 59,
          "name": "B3",
          "ticks": 27840,
          "time": 12.608707,
          "velocity": 0.937007874015748
        },
        {
          "duration": 0.05434787499999949,
          "durationTicks": 120,
          "midi": 49,
          "name": "C#3",
          "ticks": 27840,
          "time": 12.608707,
          "velocity": 1
        },
        {
          "duration": 0.05434787499999949,
          "durationTicks": 120,
          "midi": 43,
          "name": "G2",
          "ticks": 27840,
          "time": 12.608707,
          "velocity": 0.12598425196850394
        },
        {
          "duration": 0.05434787499999949,
          "durationTicks": 120,
          "midi": 72,
          "name": "C5",
          "ticks": 27840,
          "time": 12.608707,
          "velocity": 0.7559055118110236
        },
        {
          "duration": 0.05434787499999949,
          "durationTicks": 120,
          "midi": 84,
          "name": "C6",
          "ticks": 27840,
          "time": 12.608707,
          "velocity": 0.7559055118110236
        },
        {
          "duration": 0.05434787499999949,
          "durationTicks": 120,
          "midi": 63,
          "name": "D#4",
          "ticks": 28080,
          "time": 12.717402750000002,
          "velocity": 0.7559055118110236
        },
        {
          "duration": 0.05434787499999949,
          "durationTicks": 120,
          "midi": 73,
          "name": "C#5",
          "ticks": 28080,
          "time": 12.717402750000002,
          "velocity": 0.7559055118110236
        },
        {
          "duration": 0,
          "durationTicks": 0,
          "midi": 49,
          "name": "C#3",
          "ticks": 28126,
          "time": 12.738236102083334,
          "velocity": 1
        },
        {
          "duration": 0,
          "durationTicks": 0,
          "midi": 43,
          "name": "G2",
          "ticks": 28126,
          "time": 12.738236102083334,
          "velocity": 0.12598425196850394
        },
        {
          "duration": 0,
          "durationTicks": 0,
          "midi": 59,
          "name": "B3",
          "ticks": 28126,
          "time": 12.738236102083334,
          "velocity": 0.937007874015748
        },
        {
          "duration": 0.05434787500000127,
          "durationTicks": 120,
          "midi": 45,
          "name": "A2",
          "ticks": 28320,
          "time": 12.8260985,
          "velocity": 0.2047244094488189
        },
        {
          "duration": 0.05434787500000127,
          "durationTicks": 120,
          "midi": 84,
          "name": "C6",
          "ticks": 28320,
          "time": 12.8260985,
          "velocity": 0.7559055118110236
        },
        {
          "duration": 0.05434787500000127,
          "durationTicks": 120,
          "midi": 86,
          "name": "D6",
          "ticks": 28320,
          "time": 12.8260985,
          "velocity": 0.7559055118110236
        },
        {
          "duration": 0.05434787499999949,
          "durationTicks": 120,
          "midi": 82,
          "name": "A#5",
          "ticks": 28560,
          "time": 12.934794250000001,
          "velocity": 0.7559055118110236
        },
        {
          "duration": 0.05434787500000127,
          "durationTicks": 120,
          "midi": 69,
          "name": "A4",
          "ticks": 28800,
          "time": 13.04349,
          "velocity": 0.937007874015748
        },
        {
          "duration": 0.05434787500000127,
          "durationTicks": 120,
          "midi": 59,
          "name": "B3",
          "ticks": 28800,
          "time": 13.04349,
          "velocity": 0.937007874015748
        },
        {
          "duration": 0.05434787500000127,
          "durationTicks": 120,
          "midi": 84,
          "name": "C6",
          "ticks": 28800,
          "time": 13.04349,
          "velocity": 0.12598425196850394
        },
        {
          "duration": 0.05434787500000127,
          "durationTicks": 120,
          "midi": 43,
          "name": "G2",
          "ticks": 28800,
          "time": 13.04349,
          "velocity": 0.12598425196850394
        },
        {
          "duration": 0.05434787500000127,
          "durationTicks": 120,
          "midi": 84,
          "name": "C6",
          "ticks": 28800,
          "time": 13.04349,
          "velocity": 0.7559055118110236
        },
        {
          "duration": 0.05434787500000127,
          "durationTicks": 120,
          "midi": 82,
          "name": "A#5",
          "ticks": 28800,
          "time": 13.04349,
          "velocity": 0.7559055118110236
        },
        {
          "duration": 0.05434787499999949,
          "durationTicks": 120,
          "midi": 84,
          "name": "C6",
          "ticks": 29040,
          "time": 13.152185750000001,
          "velocity": 0.7559055118110236
        },
        {
          "duration": 0.05434787499999949,
          "durationTicks": 120,
          "midi": 45,
          "name": "A2",
          "ticks": 29280,
          "time": 13.260881500000002,
          "velocity": 0.2047244094488189
        },
        {
          "duration": 0.05434787499999949,
          "durationTicks": 120,
          "midi": 84,
          "name": "C6",
          "ticks": 29280,
          "time": 13.260881500000002,
          "velocity": 0.7559055118110236
        },
        {
          "duration": 0.05434787499999949,
          "durationTicks": 120,
          "midi": 82,
          "name": "A#5",
          "ticks": 29280,
          "time": 13.260881500000002,
          "velocity": 0.7559055118110236
        },
        {
          "duration": 0.05434787499999949,
          "durationTicks": 120,
          "midi": 84,
          "name": "C6",
          "ticks": 29520,
          "time": 13.36957725,
          "velocity": 0.7559055118110236
        },
        {
          "duration": 0.05434787499999949,
          "durationTicks": 120,
          "midi": 82,
          "name": "A#5",
          "ticks": 29520,
          "time": 13.36957725,
          "velocity": 0.7559055118110236
        },
        {
          "duration": 0.05434787500000127,
          "durationTicks": 120,
          "midi": 84,
          "name": "C6",
          "ticks": 29640,
          "time": 13.423925125,
          "velocity": 0.7559055118110236
        },
        {
          "duration": 0.05434787499999949,
          "durationTicks": 120,
          "midi": 59,
          "name": "B3",
          "ticks": 29760,
          "time": 13.478273000000002,
          "velocity": 0.937007874015748
        },
        {
          "duration": 0.05434787499999949,
          "durationTicks": 120,
          "midi": 49,
          "name": "C#3",
          "ticks": 29760,
          "time": 13.478273000000002,
          "velocity": 1
        },
        {
          "duration": 0.05434787499999949,
          "durationTicks": 120,
          "midi": 43,
          "name": "G2",
          "ticks": 29760,
          "time": 13.478273000000002,
          "velocity": 0.12598425196850394
        },
        {
          "duration": 0.05434787499999949,
          "durationTicks": 120,
          "midi": 86,
          "name": "D6",
          "ticks": 29760,
          "time": 13.478273000000002,
          "velocity": 0.7559055118110236
        },
        {
          "duration": 0.05434787499999949,
          "durationTicks": 120,
          "midi": 84,
          "name": "C6",
          "ticks": 29760,
          "time": 13.478273000000002,
          "velocity": 0.7559055118110236
        },
        {
          "duration": 0.05434787499999949,
          "durationTicks": 120,
          "midi": 74,
          "name": "D5",
          "ticks": 29760,
          "time": 13.478273000000002,
          "velocity": 0.7559055118110236
        },
        {
          "duration": 0.05434787499999949,
          "durationTicks": 120,
          "midi": 82,
          "name": "A#5",
          "ticks": 29760,
          "time": 13.478273000000002,
          "velocity": 0.7559055118110236
        },
        {
          "duration": 0.07246383333333384,
          "durationTicks": 160,
          "midi": 40,
          "name": "E2",
          "ticks": 29760,
          "time": 13.478273000000002,
          "velocity": 0.7559055118110236
        },
        {
          "duration": 0.07246383333333206,
          "durationTicks": 160,
          "midi": 40,
          "name": "E2",
          "ticks": 29920,
          "time": 13.550736833333335,
          "velocity": 0.7559055118110236
        },
        {
          "duration": 0.05434787499999949,
          "durationTicks": 120,
          "midi": 86,
          "name": "D6",
          "ticks": 30080,
          "time": 13.623200666666667,
          "velocity": 0.7559055118110236
        },
        {
          "duration": 0.05434787499999949,
          "durationTicks": 120,
          "midi": 84,
          "name": "C6",
          "ticks": 30080,
          "time": 13.623200666666667,
          "velocity": 0.7559055118110236
        },
        {
          "duration": 0.05434787499999949,
          "durationTicks": 120,
          "midi": 74,
          "name": "D5",
          "ticks": 30080,
          "time": 13.623200666666667,
          "velocity": 0.7559055118110236
        },
        {
          "duration": 0.07246383333333384,
          "durationTicks": 160,
          "midi": 40,
          "name": "E2",
          "ticks": 30080,
          "time": 13.623200666666667,
          "velocity": 0.7559055118110236
        },
        {
          "duration": 0.05434787499999949,
          "durationTicks": 120,
          "midi": 45,
          "name": "A2",
          "ticks": 30240,
          "time": 13.695664500000001,
          "velocity": 0.2047244094488189
        },
        {
          "duration": 0.07246383333333384,
          "durationTicks": 160,
          "midi": 40,
          "name": "E2",
          "ticks": 30240,
          "time": 13.695664500000001,
          "velocity": 0.7559055118110236
        },
        {
          "duration": 0.05434787499999949,
          "durationTicks": 120,
          "midi": 86,
          "name": "D6",
          "ticks": 30400,
          "time": 13.768128333333335,
          "velocity": 0.7559055118110236
        },
        {
          "duration": 0.05434787499999949,
          "durationTicks": 120,
          "midi": 84,
          "name": "C6",
          "ticks": 30400,
          "time": 13.768128333333335,
          "velocity": 0.7559055118110236
        },
        {
          "duration": 0.05434787499999949,
          "durationTicks": 120,
          "midi": 74,
          "name": "D5",
          "ticks": 30400,
          "time": 13.768128333333335,
          "velocity": 0.7559055118110236
        },
        {
          "duration": 0.07246383333333206,
          "durationTicks": 160,
          "midi": 40,
          "name": "E2",
          "ticks": 30400,
          "time": 13.768128333333335,
          "velocity": 0.7559055118110236
        },
        {
          "duration": 0.07246383333333384,
          "durationTicks": 160,
          "midi": 40,
          "name": "E2",
          "ticks": 30560,
          "time": 13.840592166666667,
          "velocity": 0.7559055118110236
        },
        {
          "duration": 0.05434787499999949,
          "durationTicks": 120,
          "midi": 49,
          "name": "C#3",
          "ticks": 30720,
          "time": 13.913056000000001,
          "velocity": 1
        },
        {
          "duration": 0.05434787499999949,
          "durationTicks": 120,
          "midi": 43,
          "name": "G2",
          "ticks": 30720,
          "time": 13.913056000000001,
          "velocity": 0.12598425196850394
        },
        {
          "duration": 0.05434787499999949,
          "durationTicks": 120,
          "midi": 59,
          "name": "B3",
          "ticks": 30720,
          "time": 13.913056000000001,
          "velocity": 0.937007874015748
        },
        {
          "duration": 0.05434787499999949,
          "durationTicks": 120,
          "midi": 81,
          "name": "A5",
          "ticks": 30720,
          "time": 13.913056000000001,
          "velocity": 0.7559055118110236
        },
        {
          "duration": 0.05434787499999949,
          "durationTicks": 120,
          "midi": 92,
          "name": "G#6",
          "ticks": 30720,
          "time": 13.913056000000001,
          "velocity": 1
        },
        {
          "duration": 0.05434787499999949,
          "durationTicks": 120,
          "midi": 45,
          "name": "A2",
          "ticks": 31200,
          "time": 14.1304475,
          "velocity": 0.2047244094488189
        },
        {
          "duration": 0.21739149999999974,
          "durationTicks": 480,
          "midi": 67,
          "name": "G4",
          "ticks": 31200,
          "time": 14.1304475,
          "velocity": 1
        },
        {
          "duration": 0.05434787500000127,
          "durationTicks": 120,
          "midi": 59,
          "name": "B3",
          "ticks": 31680,
          "time": 14.347839,
          "velocity": 0.937007874015748
        },
        {
          "duration": 0.05434787500000127,
          "durationTicks": 120,
          "midi": 43,
          "name": "G2",
          "ticks": 31680,
          "time": 14.347839,
          "velocity": 0.12598425196850394
        },
        {
          "duration": 0.05434787499999949,
          "durationTicks": 120,
          "midi": 74,
          "name": "D5",
          "ticks": 32640,
          "time": 14.782622000000002,
          "velocity": 0.937007874015748
        },
        {
          "duration": 0.05434787499999949,
          "durationTicks": 120,
          "midi": 69,
          "name": "A4",
          "ticks": 32640,
          "time": 14.782622000000002,
          "velocity": 0.937007874015748
        },
        {
          "duration": 0.05434787499999949,
          "durationTicks": 120,
          "midi": 59,
          "name": "B3",
          "ticks": 32640,
          "time": 14.782622000000002,
          "velocity": 0.937007874015748
        },
        {
          "duration": 0.05434787499999949,
          "durationTicks": 120,
          "midi": 84,
          "name": "C6",
          "ticks": 32640,
          "time": 14.782622000000002,
          "velocity": 1
        },
        {
          "duration": 0.05434787499999949,
          "durationTicks": 120,
          "midi": 43,
          "name": "G2",
          "ticks": 32640,
          "time": 14.782622000000002,
          "velocity": 0.12598425196850394
        },
        {
          "duration": 0.10869574999999898,
          "durationTicks": 240,
          "midi": 38,
          "name": "D2",
          "ticks": 33120,
          "time": 15.000013500000001,
          "velocity": 0.952755905511811
        },
        {
          "duration": 0.21739149999999974,
          "durationTicks": 480,
          "midi": 67,
          "name": "G4",
          "ticks": 33120,
          "time": 15.000013500000001,
          "velocity": 1
        },
        {
          "duration": 0.05434787499999949,
          "durationTicks": 120,
          "midi": 45,
          "name": "A2",
          "ticks": 33120,
          "time": 15.000013500000001,
          "velocity": 0.2047244094488189
        },
        {
          "duration": 0.05434787499999949,
          "durationTicks": 120,
          "midi": 59,
          "name": "B3",
          "ticks": 33600,
          "time": 15.217405000000001,
          "velocity": 0.937007874015748
        },
        {
          "duration": 0.05434787499999949,
          "durationTicks": 120,
          "midi": 49,
          "name": "C#3",
          "ticks": 33600,
          "time": 15.217405000000001,
          "velocity": 1
        },
        {
          "duration": 0.05434787499999949,
          "durationTicks": 120,
          "midi": 43,
          "name": "G2",
          "ticks": 33600,
          "time": 15.217405000000001,
          "velocity": 0.12598425196850394
        },
        {
          "duration": 0.05434787499999949,
          "durationTicks": 120,
          "midi": 49,
          "name": "C#3",
          "ticks": 34080,
          "time": 15.434796500000001,
          "velocity": 1
        },
        {
          "duration": 0.05434787500000127,
          "durationTicks": 120,
          "midi": 43,
          "name": "G2",
          "ticks": 34560,
          "time": 15.652188,
          "velocity": 0.12598425196850394
        },
        {
          "duration": 0.05434787500000127,
          "durationTicks": 120,
          "midi": 59,
          "name": "B3",
          "ticks": 34560,
          "time": 15.652188,
          "velocity": 0.937007874015748
        },
        {
          "duration": 0.05434787500000127,
          "durationTicks": 120,
          "midi": 49,
          "name": "C#3",
          "ticks": 35040,
          "time": 15.8695795,
          "velocity": 1
        },
        {
          "duration": 0.05434787500000127,
          "durationTicks": 120,
          "midi": 45,
          "name": "A2",
          "ticks": 35040,
          "time": 15.8695795,
          "velocity": 0.2047244094488189
        },
        {
          "duration": 0.21739150000000151,
          "durationTicks": 480,
          "midi": 67,
          "name": "G4",
          "ticks": 35040,
          "time": 15.8695795,
          "velocity": 1
        },
        {
          "duration": 0.05434787500000127,
          "durationTicks": 120,
          "midi": 38,
          "name": "D2",
          "ticks": 35040,
          "time": 15.8695795,
          "velocity": 0.952755905511811
        },
        {
          "duration": 0.054347874999997714,
          "durationTicks": 120,
          "midi": 59,
          "name": "B3",
          "ticks": 35520,
          "time": 16.086971000000002,
          "velocity": 0.937007874015748
        },
        {
          "duration": 0.054347874999997714,
          "durationTicks": 120,
          "midi": 49,
          "name": "C#3",
          "ticks": 35520,
          "time": 16.086971000000002,
          "velocity": 1
        },
        {
          "duration": 0.054347874999997714,
          "durationTicks": 120,
          "midi": 43,
          "name": "G2",
          "ticks": 35520,
          "time": 16.086971000000002,
          "velocity": 0.12598425196850394
        },
        {
          "duration": 0.05434787500000127,
          "durationTicks": 120,
          "midi": 45,
          "name": "A2",
          "ticks": 36000,
          "time": 16.3043625,
          "velocity": 0.2047244094488189
        },
        {
          "duration": 0.05434787500000127,
          "durationTicks": 120,
          "midi": 74,
          "name": "D5",
          "ticks": 36480,
          "time": 16.521754,
          "velocity": 0.937007874015748
        },
        {
          "duration": 0.05434787500000127,
          "durationTicks": 120,
          "midi": 69,
          "name": "A4",
          "ticks": 36480,
          "time": 16.521754,
          "velocity": 0.937007874015748
        },
        {
          "duration": 0.05434787500000127,
          "durationTicks": 120,
          "midi": 59,
          "name": "B3",
          "ticks": 36480,
          "time": 16.521754,
          "velocity": 0.937007874015748
        },
        {
          "duration": 0.05434787500000127,
          "durationTicks": 120,
          "midi": 84,
          "name": "C6",
          "ticks": 36480,
          "time": 16.521754,
          "velocity": 0.12598425196850394
        },
        {
          "duration": 0.05434787500000127,
          "durationTicks": 120,
          "midi": 43,
          "name": "G2",
          "ticks": 36480,
          "time": 16.521754,
          "velocity": 0.12598425196850394
        },
        {
          "duration": 0.054347874999997714,
          "durationTicks": 120,
          "midi": 45,
          "name": "A2",
          "ticks": 36960,
          "time": 16.739145500000003,
          "velocity": 0.2047244094488189
        },
        {
          "duration": 0.05434787500000127,
          "durationTicks": 120,
          "midi": 59,
          "name": "B3",
          "ticks": 37440,
          "time": 16.956537,
          "velocity": 0.937007874015748
        },
        {
          "duration": 0.05434787500000127,
          "durationTicks": 120,
          "midi": 43,
          "name": "G2",
          "ticks": 37440,
          "time": 16.956537,
          "velocity": 0.12598425196850394
        },
        {
          "duration": 0.054347874999997714,
          "durationTicks": 120,
          "midi": 45,
          "name": "A2",
          "ticks": 37920,
          "time": 17.173928500000002,
          "velocity": 0.2047244094488189
        },
        {
          "duration": 0.05434787500000127,
          "durationTicks": 120,
          "midi": 49,
          "name": "C#3",
          "ticks": 38400,
          "time": 17.39132,
          "velocity": 1
        },
        {
          "duration": 0.05434787500000127,
          "durationTicks": 120,
          "midi": 43,
          "name": "G2",
          "ticks": 38400,
          "time": 17.39132,
          "velocity": 0.12598425196850394
        },
        {
          "duration": 0.05434787500000127,
          "durationTicks": 120,
          "midi": 59,
          "name": "B3",
          "ticks": 38400,
          "time": 17.39132,
          "velocity": 0.937007874015748
        },
        {
          "duration": 0.054347874999997714,
          "durationTicks": 120,
          "midi": 45,
          "name": "A2",
          "ticks": 38880,
          "time": 17.608711500000002,
          "velocity": 0.2047244094488189
        },
        {
          "duration": 0.05434787500000127,
          "durationTicks": 120,
          "midi": 59,
          "name": "B3",
          "ticks": 39360,
          "time": 17.826103,
          "velocity": 0.937007874015748
        },
        {
          "duration": 0.05434787500000127,
          "durationTicks": 120,
          "midi": 43,
          "name": "G2",
          "ticks": 39360,
          "time": 17.826103,
          "velocity": 0.12598425196850394
        },
        {
          "duration": 0.05434787500000127,
          "durationTicks": 120,
          "midi": 49,
          "name": "C#3",
          "ticks": 39840,
          "time": 18.0434945,
          "velocity": 1
        },
        {
          "duration": 0.05434787500000127,
          "durationTicks": 120,
          "midi": 45,
          "name": "A2",
          "ticks": 39840,
          "time": 18.0434945,
          "velocity": 0.2047244094488189
        },
        {
          "duration": 0.054347874999997714,
          "durationTicks": 120,
          "midi": 74,
          "name": "D5",
          "ticks": 40320,
          "time": 18.260886000000003,
          "velocity": 0.937007874015748
        },
        {
          "duration": 0.054347874999997714,
          "durationTicks": 120,
          "midi": 69,
          "name": "A4",
          "ticks": 40320,
          "time": 18.260886000000003,
          "velocity": 0.937007874015748
        },
        {
          "duration": 0.054347874999997714,
          "durationTicks": 120,
          "midi": 59,
          "name": "B3",
          "ticks": 40320,
          "time": 18.260886000000003,
          "velocity": 0.937007874015748
        },
        {
          "duration": 0.054347874999997714,
          "durationTicks": 120,
          "midi": 84,
          "name": "C6",
          "ticks": 40320,
          "time": 18.260886000000003,
          "velocity": 0.12598425196850394
        },
        {
          "duration": 0.054347874999997714,
          "durationTicks": 120,
          "midi": 43,
          "name": "G2",
          "ticks": 40320,
          "time": 18.260886000000003,
          "velocity": 0.12598425196850394
        },
        {
          "duration": 0.05434787500000127,
          "durationTicks": 120,
          "midi": 49,
          "name": "C#3",
          "ticks": 40800,
          "time": 18.4782775,
          "velocity": 1
        },
        {
          "duration": 0.05434787500000127,
          "durationTicks": 120,
          "midi": 45,
          "name": "A2",
          "ticks": 40800,
          "time": 18.4782775,
          "velocity": 0.2047244094488189
        },
        {
          "duration": 0.21739150000000151,
          "durationTicks": 480,
          "midi": 67,
          "name": "G4",
          "ticks": 40800,
          "time": 18.4782775,
          "velocity": 1
        },
        {
          "duration": 0.054347874999997714,
          "durationTicks": 120,
          "midi": 59,
          "name": "B3",
          "ticks": 41280,
          "time": 18.695669000000002,
          "velocity": 0.937007874015748
        },
        {
          "duration": 0.054347874999997714,
          "durationTicks": 120,
          "midi": 49,
          "name": "C#3",
          "ticks": 41280,
          "time": 18.695669000000002,
          "velocity": 1
        },
        {
          "duration": 0.054347874999997714,
          "durationTicks": 120,
          "midi": 43,
          "name": "G2",
          "ticks": 41280,
          "time": 18.695669000000002,
          "velocity": 0.12598425196850394
        },
        {
          "duration": 0.05434787500000127,
          "durationTicks": 120,
          "midi": 49,
          "name": "C#3",
          "ticks": 41760,
          "time": 18.9130605,
          "velocity": 1
        },
        {
          "duration": 0.05434787500000127,
          "durationTicks": 120,
          "midi": 45,
          "name": "A2",
          "ticks": 41760,
          "time": 18.9130605,
          "velocity": 0.2047244094488189
        },
        {
          "duration": 0.05434787500000127,
          "durationTicks": 120,
          "midi": 43,
          "name": "G2",
          "ticks": 42240,
          "time": 19.130452000000002,
          "velocity": 0.12598425196850394
        },
        {
          "duration": 0.05434787500000127,
          "durationTicks": 120,
          "midi": 59,
          "name": "B3",
          "ticks": 42240,
          "time": 19.130452000000002,
          "velocity": 0.937007874015748
        },
        {
          "duration": 0.05434787500000127,
          "durationTicks": 120,
          "midi": 49,
          "name": "C#3",
          "ticks": 42240,
          "time": 19.130452000000002,
          "velocity": 1
        },
        {
          "duration": 0.05434787500000127,
          "durationTicks": 120,
          "midi": 92,
          "name": "G#6",
          "ticks": 42240,
          "time": 19.130452000000002,
          "velocity": 0.7559055118110236
        },
        {
          "duration": 0.05434787500000127,
          "durationTicks": 120,
          "midi": 45,
          "name": "A2",
          "ticks": 42720,
          "time": 19.3478435,
          "velocity": 0.2047244094488189
        },
        {
          "duration": 0.05434787500000127,
          "durationTicks": 120,
          "midi": 92,
          "name": "G#6",
          "ticks": 42720,
          "time": 19.3478435,
          "velocity": 0.7559055118110236
        },
        {
          "duration": 0.05434787500000127,
          "durationTicks": 120,
          "midi": 59,
          "name": "B3",
          "ticks": 43200,
          "time": 19.565235,
          "velocity": 0.937007874015748
        },
        {
          "duration": 0.05434787500000127,
          "durationTicks": 120,
          "midi": 49,
          "name": "C#3",
          "ticks": 43200,
          "time": 19.565235,
          "velocity": 1
        },
        {
          "duration": 0.05434787500000127,
          "durationTicks": 120,
          "midi": 43,
          "name": "G2",
          "ticks": 43200,
          "time": 19.565235,
          "velocity": 0.12598425196850394
        },
        {
          "duration": 0.05434787500000127,
          "durationTicks": 120,
          "midi": 92,
          "name": "G#6",
          "ticks": 43200,
          "time": 19.565235,
          "velocity": 0.7559055118110236
        },
        {
          "duration": 0.054347874999997714,
          "durationTicks": 120,
          "midi": 45,
          "name": "A2",
          "ticks": 43680,
          "time": 19.782626500000003,
          "velocity": 0.2047244094488189
        },
        {
          "duration": 0.054347874999997714,
          "durationTicks": 120,
          "midi": 92,
          "name": "G#6",
          "ticks": 43680,
          "time": 19.782626500000003,
          "velocity": 0.7559055118110236
        },
        {
          "duration": 0.05434787500000127,
          "durationTicks": 120,
          "midi": 69,
          "name": "A4",
          "ticks": 44160,
          "time": 20.000018,
          "velocity": 0.937007874015748
        },
        {
          "duration": 0.05434787500000127,
          "durationTicks": 120,
          "midi": 59,
          "name": "B3",
          "ticks": 44160,
          "time": 20.000018,
          "velocity": 0.937007874015748
        },
        {
          "duration": 0.05434787500000127,
          "durationTicks": 120,
          "midi": 84,
          "name": "C6",
          "ticks": 44160,
          "time": 20.000018,
          "velocity": 0.12598425196850394
        },
        {
          "duration": 0.05434787500000127,
          "durationTicks": 120,
          "midi": 43,
          "name": "G2",
          "ticks": 44160,
          "time": 20.000018,
          "velocity": 0.12598425196850394
        },
        {
          "duration": 0.05434787500000127,
          "durationTicks": 120,
          "midi": 92,
          "name": "G#6",
          "ticks": 44160,
          "time": 20.000018,
          "velocity": 0.7559055118110236
        },
        {
          "duration": 0.05434787500000127,
          "durationTicks": 120,
          "midi": 92,
          "name": "G#6",
          "ticks": 44400,
          "time": 20.10871375,
          "velocity": 0.7559055118110236
        },
        {
          "duration": 0.054347874999997714,
          "durationTicks": 120,
          "midi": 45,
          "name": "A2",
          "ticks": 44640,
          "time": 20.217409500000002,
          "velocity": 0.2047244094488189
        },
        {
          "duration": 0.054347874999997714,
          "durationTicks": 120,
          "midi": 92,
          "name": "G#6",
          "ticks": 44640,
          "time": 20.217409500000002,
          "velocity": 0.7559055118110236
        },
        {
          "duration": 0.05434787500000127,
          "durationTicks": 120,
          "midi": 92,
          "name": "G#6",
          "ticks": 44880,
          "time": 20.32610525,
          "velocity": 0.7559055118110236
        },
        {
          "duration": 0.05434787500000127,
          "durationTicks": 120,
          "midi": 59,
          "name": "B3",
          "ticks": 45120,
          "time": 20.434801,
          "velocity": 0.937007874015748
        },
        {
          "duration": 0.05434787500000127,
          "durationTicks": 120,
          "midi": 49,
          "name": "C#3",
          "ticks": 45120,
          "time": 20.434801,
          "velocity": 1
        },
        {
          "duration": 0.05434787500000127,
          "durationTicks": 120,
          "midi": 43,
          "name": "G2",
          "ticks": 45120,
          "time": 20.434801,
          "velocity": 0.12598425196850394
        },
        {
          "duration": 0.05434787500000127,
          "durationTicks": 120,
          "midi": 92,
          "name": "G#6",
          "ticks": 45120,
          "time": 20.434801,
          "velocity": 0.7559055118110236
        },
        {
          "duration": 0.05434787500000127,
          "durationTicks": 120,
          "midi": 92,
          "name": "G#6",
          "ticks": 45240,
          "time": 20.489148875,
          "velocity": 0.7559055118110236
        },
        {
          "duration": 0.054347874999997714,
          "durationTicks": 120,
          "midi": 92,
          "name": "G#6",
          "ticks": 45360,
          "time": 20.543496750000003,
          "velocity": 0.7559055118110236
        },
        {
          "duration": 0.05434787500000127,
          "durationTicks": 120,
          "midi": 92,
          "name": "G#6",
          "ticks": 45480,
          "time": 20.597844625,
          "velocity": 0.7559055118110236
        },
        {
          "duration": 0.05434787500000127,
          "durationTicks": 120,
          "midi": 45,
          "name": "A2",
          "ticks": 45600,
          "time": 20.6521925,
          "velocity": 0.2047244094488189
        },
        {
          "duration": 0.05434787500000127,
          "durationTicks": 120,
          "midi": 92,
          "name": "G#6",
          "ticks": 45600,
          "time": 20.6521925,
          "velocity": 0.7559055118110236
        },
        {
          "duration": 0.054347874999997714,
          "durationTicks": 120,
          "midi": 92,
          "name": "G#6",
          "ticks": 45720,
          "time": 20.706540375000003,
          "velocity": 0.7559055118110236
        },
        {
          "duration": 0.05434787500000127,
          "durationTicks": 120,
          "midi": 92,
          "name": "G#6",
          "ticks": 45840,
          "time": 20.76088825,
          "velocity": 0.7559055118110236
        },
        {
          "duration": 0.05434787500000127,
          "durationTicks": 120,
          "midi": 92,
          "name": "G#6",
          "ticks": 45960,
          "time": 20.815236125000002,
          "velocity": 0.7559055118110236
        },
        {
          "duration": 0.054347874999997714,
          "durationTicks": 120,
          "midi": 49,
          "name": "C#3",
          "ticks": 46080,
          "time": 20.869584000000003,
          "velocity": 1
        },
        {
          "duration": 0.054347874999997714,
          "durationTicks": 120,
          "midi": 43,
          "name": "G2",
          "ticks": 46080,
          "time": 20.869584000000003,
          "velocity": 0.12598425196850394
        },
        {
          "duration": 0.054347874999997714,
          "durationTicks": 120,
          "midi": 59,
          "name": "B3",
          "ticks": 46080,
          "time": 20.869584000000003,
          "velocity": 0.937007874015748
        },
        {
          "duration": 0.10869574999999898,
          "durationTicks": 240,
          "midi": 37,
          "name": "C#2",
          "ticks": 46080,
          "time": 20.869584000000003,
          "velocity": 1
        },
        {
          "duration": 0.05434787500000127,
          "durationTicks": 120,
          "midi": 41,
          "name": "F2",
          "ticks": 46560,
          "time": 21.0869755,
          "velocity": 1
        },
        {
          "duration": 0.05434787500000127,
          "durationTicks": 120,
          "midi": 45,
          "name": "A2",
          "ticks": 46560,
          "time": 21.0869755,
          "velocity": 0.2047244094488189
        },
        {
          "duration": 0.21739150000000151,
          "durationTicks": 480,
          "midi": 67,
          "name": "G4",
          "ticks": 46560,
          "time": 21.0869755,
          "velocity": 1
        },
        {
          "duration": 0.054347874999997714,
          "durationTicks": 120,
          "midi": 59,
          "name": "B3",
          "ticks": 47040,
          "time": 21.304367000000003,
          "velocity": 0.937007874015748
        },
        {
          "duration": 0.054347874999997714,
          "durationTicks": 120,
          "midi": 43,
          "name": "G2",
          "ticks": 47040,
          "time": 21.304367000000003,
          "velocity": 0.12598425196850394
        },
        {
          "duration": 0.05434787500000127,
          "durationTicks": 120,
          "midi": 37,
          "name": "C#2",
          "ticks": 47520,
          "time": 21.5217585,
          "velocity": 1
        },
        {
          "duration": 0.054347874999997714,
          "durationTicks": 120,
          "midi": 74,
          "name": "D5",
          "ticks": 48000,
          "time": 21.739150000000002,
          "velocity": 0.937007874015748
        },
        {
          "duration": 0.054347874999997714,
          "durationTicks": 120,
          "midi": 69,
          "name": "A4",
          "ticks": 48000,
          "time": 21.739150000000002,
          "velocity": 0.937007874015748
        },
        {
          "duration": 0.054347874999997714,
          "durationTicks": 120,
          "midi": 59,
          "name": "B3",
          "ticks": 48000,
          "time": 21.739150000000002,
          "velocity": 0.937007874015748
        },
        {
          "duration": 0.054347874999997714,
          "durationTicks": 120,
          "midi": 84,
          "name": "C6",
          "ticks": 48000,
          "time": 21.739150000000002,
          "velocity": 1
        },
        {
          "duration": 0.054347874999997714,
          "durationTicks": 120,
          "midi": 43,
          "name": "G2",
          "ticks": 48000,
          "time": 21.739150000000002,
          "velocity": 0.12598425196850394
        },
        {
          "duration": 0.054347874999997714,
          "durationTicks": 120,
          "midi": 37,
          "name": "C#2",
          "ticks": 48000,
          "time": 21.739150000000002,
          "velocity": 1
        },
        {
          "duration": 0.21739150000000151,
          "durationTicks": 480,
          "midi": 67,
          "name": "G4",
          "ticks": 48480,
          "time": 21.9565415,
          "velocity": 1
        },
        {
          "duration": 0.05434787500000127,
          "durationTicks": 120,
          "midi": 45,
          "name": "A2",
          "ticks": 48480,
          "time": 21.9565415,
          "velocity": 0.2047244094488189
        },
        {
          "duration": 0.05434787500000127,
          "durationTicks": 120,
          "midi": 41,
          "name": "F2",
          "ticks": 48960,
          "time": 22.173933,
          "velocity": 0.6141732283464567
        },
        {
          "duration": 0.05434787500000127,
          "durationTicks": 120,
          "midi": 59,
          "name": "B3",
          "ticks": 48960,
          "time": 22.173933,
          "velocity": 0.937007874015748
        },
        {
          "duration": 0.05434787500000127,
          "durationTicks": 120,
          "midi": 49,
          "name": "C#3",
          "ticks": 48960,
          "time": 22.173933,
          "velocity": 1
        },
        {
          "duration": 0.05434787500000127,
          "durationTicks": 120,
          "midi": 43,
          "name": "G2",
          "ticks": 48960,
          "time": 22.173933,
          "velocity": 0.12598425196850394
        },
        {
          "duration": 0.05434787500000127,
          "durationTicks": 120,
          "midi": 41,
          "name": "F2",
          "ticks": 49200,
          "time": 22.28262875,
          "velocity": 0.7165354330708661
        },
        {
          "duration": 0.054347874999997714,
          "durationTicks": 120,
          "midi": 49,
          "name": "C#3",
          "ticks": 49440,
          "time": 22.391324500000003,
          "velocity": 1
        },
        {
          "duration": 0.054347874999997714,
          "durationTicks": 120,
          "midi": 41,
          "name": "F2",
          "ticks": 49440,
          "time": 22.391324500000003,
          "velocity": 0.8110236220472441
        },
        {
          "duration": 0.054347874999997714,
          "durationTicks": 120,
          "midi": 43,
          "name": "G2",
          "ticks": 49440,
          "time": 22.391324500000003,
          "velocity": 0.6220472440944882
        },
        {
          "duration": 0.05434787500000127,
          "durationTicks": 120,
          "midi": 41,
          "name": "F2",
          "ticks": 49560,
          "time": 22.445672375,
          "velocity": 0.8110236220472441
        },
        {
          "duration": 0.054347874999997714,
          "durationTicks": 120,
          "midi": 41,
          "name": "F2",
          "ticks": 49680,
          "time": 22.500020250000002,
          "velocity": 0.9448818897637795
        },
        {
          "duration": 0.05434787500000127,
          "durationTicks": 120,
          "midi": 41,
          "name": "F2",
          "ticks": 49800,
          "time": 22.554368125,
          "velocity": 0.9448818897637795
        },
        {
          "duration": 0.05434787500000127,
          "durationTicks": 120,
          "midi": 74,
          "name": "D5",
          "ticks": 49920,
          "time": 22.608716,
          "velocity": 0.937007874015748
        },
        {
          "duration": 0.05434787500000127,
          "durationTicks": 120,
          "midi": 69,
          "name": "A4",
          "ticks": 49920,
          "time": 22.608716,
          "velocity": 0.937007874015748
        },
        {
          "duration": 0.05434787500000127,
          "durationTicks": 120,
          "midi": 43,
          "name": "G2",
          "ticks": 49920,
          "time": 22.608716,
          "velocity": 0.12598425196850394
        },
        {
          "duration": 0.05434787500000127,
          "durationTicks": 120,
          "midi": 59,
          "name": "B3",
          "ticks": 49920,
          "time": 22.608716,
          "velocity": 0.937007874015748
        },
        {
          "duration": 0.054347874999997714,
          "durationTicks": 120,
          "midi": 49,
          "name": "C#3",
          "ticks": 50400,
          "time": 22.826107500000003,
          "velocity": 1
        },
        {
          "duration": 0.054347874999997714,
          "durationTicks": 120,
          "midi": 45,
          "name": "A2",
          "ticks": 50400,
          "time": 22.826107500000003,
          "velocity": 0.2047244094488189
        },
        {
          "duration": 0.21739149999999796,
          "durationTicks": 480,
          "midi": 67,
          "name": "G4",
          "ticks": 50400,
          "time": 22.826107500000003,
          "velocity": 1
        },
        {
          "duration": 0.054347874999997714,
          "durationTicks": 120,
          "midi": 38,
          "name": "D2",
          "ticks": 50400,
          "time": 22.826107500000003,
          "velocity": 0.952755905511811
        },
        {
          "duration": 0.05434787500000127,
          "durationTicks": 120,
          "midi": 59,
          "name": "B3",
          "ticks": 50880,
          "time": 23.043499,
          "velocity": 0.937007874015748
        },
        {
          "duration": 0.05434787500000127,
          "durationTicks": 120,
          "midi": 49,
          "name": "C#3",
          "ticks": 50880,
          "time": 23.043499,
          "velocity": 1
        },
        {
          "duration": 0.05434787500000127,
          "durationTicks": 120,
          "midi": 43,
          "name": "G2",
          "ticks": 50880,
          "time": 23.043499,
          "velocity": 0.12598425196850394
        },
        {
          "duration": 0.05434787500000127,
          "durationTicks": 120,
          "midi": 45,
          "name": "A2",
          "ticks": 51360,
          "time": 23.260890500000002,
          "velocity": 0.2047244094488189
        },
        {
          "duration": 0.05434787500000127,
          "durationTicks": 120,
          "midi": 74,
          "name": "D5",
          "ticks": 51840,
          "time": 23.478282,
          "velocity": 0.937007874015748
        },
        {
          "duration": 0.05434787500000127,
          "durationTicks": 120,
          "midi": 69,
          "name": "A4",
          "ticks": 51840,
          "time": 23.478282,
          "velocity": 0.937007874015748
        },
        {
          "duration": 0.05434787500000127,
          "durationTicks": 120,
          "midi": 59,
          "name": "B3",
          "ticks": 51840,
          "time": 23.478282,
          "velocity": 0.937007874015748
        },
        {
          "duration": 0.05434787500000127,
          "durationTicks": 120,
          "midi": 84,
          "name": "C6",
          "ticks": 51840,
          "time": 23.478282,
          "velocity": 0.12598425196850394
        },
        {
          "duration": 0.05434787500000127,
          "durationTicks": 120,
          "midi": 43,
          "name": "G2",
          "ticks": 51840,
          "time": 23.478282,
          "velocity": 0.12598425196850394
        },
        {
          "duration": 0.05434787500000127,
          "durationTicks": 120,
          "midi": 45,
          "name": "A2",
          "ticks": 52320,
          "time": 23.6956735,
          "velocity": 0.2047244094488189
        },
        {
          "duration": 0.054347874999997714,
          "durationTicks": 120,
          "midi": 59,
          "name": "B3",
          "ticks": 52800,
          "time": 23.913065000000003,
          "velocity": 0.937007874015748
        },
        {
          "duration": 0.054347874999997714,
          "durationTicks": 120,
          "midi": 43,
          "name": "G2",
          "ticks": 52800,
          "time": 23.913065000000003,
          "velocity": 0.12598425196850394
        },
        {
          "duration": 0.05434787500000127,
          "durationTicks": 120,
          "midi": 45,
          "name": "A2",
          "ticks": 53280,
          "time": 24.1304565,
          "velocity": 0.2047244094488189
        },
        {
          "duration": 0.054347874999997714,
          "durationTicks": 120,
          "midi": 49,
          "name": "C#3",
          "ticks": 53760,
          "time": 24.347848000000003,
          "velocity": 1
        },
        {
          "duration": 0.054347874999997714,
          "durationTicks": 120,
          "midi": 43,
          "name": "G2",
          "ticks": 53760,
          "time": 24.347848000000003,
          "velocity": 0.12598425196850394
        },
        {
          "duration": 0.054347874999997714,
          "durationTicks": 120,
          "midi": 59,
          "name": "B3",
          "ticks": 53760,
          "time": 24.347848000000003,
          "velocity": 0.937007874015748
        },
        {
          "duration": 0.05434787500000127,
          "durationTicks": 120,
          "midi": 45,
          "name": "A2",
          "ticks": 54240,
          "time": 24.5652395,
          "velocity": 0.2047244094488189
        },
        {
          "duration": 0.05434787500000127,
          "durationTicks": 120,
          "midi": 59,
          "name": "B3",
          "ticks": 54720,
          "time": 24.782631000000002,
          "velocity": 0.937007874015748
        },
        {
          "duration": 0.05434787500000127,
          "durationTicks": 120,
          "midi": 43,
          "name": "G2",
          "ticks": 54720,
          "time": 24.782631000000002,
          "velocity": 0.12598425196850394
        },
        {
          "duration": 0.05434787500000127,
          "durationTicks": 120,
          "midi": 49,
          "name": "C#3",
          "ticks": 55200,
          "time": 25.0000225,
          "velocity": 1
        },
        {
          "duration": 0.05434787500000127,
          "durationTicks": 120,
          "midi": 45,
          "name": "A2",
          "ticks": 55200,
          "time": 25.0000225,
          "velocity": 0.2047244094488189
        },
        {
          "duration": 0.05434787500000127,
          "durationTicks": 120,
          "midi": 74,
          "name": "D5",
          "ticks": 55680,
          "time": 25.217414,
          "velocity": 0.937007874015748
        },
        {
          "duration": 0.05434787500000127,
          "durationTicks": 120,
          "midi": 69,
          "name": "A4",
          "ticks": 55680,
          "time": 25.217414,
          "velocity": 0.937007874015748
        },
        {
          "duration": 0.05434787500000127,
          "durationTicks": 120,
          "midi": 59,
          "name": "B3",
          "ticks": 55680,
          "time": 25.217414,
          "velocity": 0.937007874015748
        },
        {
          "duration": 0.05434787500000127,
          "durationTicks": 120,
          "midi": 84,
          "name": "C6",
          "ticks": 55680,
          "time": 25.217414,
          "velocity": 0.12598425196850394
        },
        {
          "duration": 0.05434787500000127,
          "durationTicks": 120,
          "midi": 43,
          "name": "G2",
          "ticks": 55680,
          "time": 25.217414,
          "velocity": 0.12598425196850394
        },
        {
          "duration": 0.054347874999997714,
          "durationTicks": 120,
          "midi": 49,
          "name": "C#3",
          "ticks": 56160,
          "time": 25.434805500000003,
          "velocity": 1
        },
        {
          "duration": 0.054347874999997714,
          "durationTicks": 120,
          "midi": 45,
          "name": "A2",
          "ticks": 56160,
          "time": 25.434805500000003,
          "velocity": 0.2047244094488189
        },
        {
          "duration": 0.21739149999999796,
          "durationTicks": 480,
          "midi": 67,
          "name": "G4",
          "ticks": 56160,
          "time": 25.434805500000003,
          "velocity": 1
        },
        {
          "duration": 0.05434787500000127,
          "durationTicks": 120,
          "midi": 59,
          "name": "B3",
          "ticks": 56640,
          "time": 25.652197,
          "velocity": 0.937007874015748
        },
        {
          "duration": 0.05434787500000127,
          "durationTicks": 120,
          "midi": 49,
          "name": "C#3",
          "ticks": 56640,
          "time": 25.652197,
          "velocity": 1
        },
        {
          "duration": 0.05434787500000127,
          "durationTicks": 120,
          "midi": 43,
          "name": "G2",
          "ticks": 56640,
          "time": 25.652197,
          "velocity": 0.12598425196850394
        },
        {
          "duration": 0.054347874999997714,
          "durationTicks": 120,
          "midi": 49,
          "name": "C#3",
          "ticks": 57120,
          "time": 25.869588500000003,
          "velocity": 1
        },
        {
          "duration": 0.054347874999997714,
          "durationTicks": 120,
          "midi": 45,
          "name": "A2",
          "ticks": 57120,
          "time": 25.869588500000003,
          "velocity": 0.2047244094488189
        },
        {
          "duration": 0.05434787500000127,
          "durationTicks": 120,
          "midi": 43,
          "name": "G2",
          "ticks": 57600,
          "time": 26.08698,
          "velocity": 0.12598425196850394
        },
        {
          "duration": 0.05434787500000127,
          "durationTicks": 120,
          "midi": 59,
          "name": "B3",
          "ticks": 57600,
          "time": 26.08698,
          "velocity": 0.937007874015748
        },
        {
          "duration": 0.05434787500000127,
          "durationTicks": 120,
          "midi": 49,
          "name": "C#3",
          "ticks": 58080,
          "time": 26.304371500000002,
          "velocity": 1
        },
        {
          "duration": 0.05434787500000127,
          "durationTicks": 120,
          "midi": 45,
          "name": "A2",
          "ticks": 58080,
          "time": 26.304371500000002,
          "velocity": 0.2047244094488189
        },
        {
          "duration": 0.21739150000000151,
          "durationTicks": 480,
          "midi": 67,
          "name": "G4",
          "ticks": 58080,
          "time": 26.304371500000002,
          "velocity": 1
        },
        {
          "duration": 0.054347874999997714,
          "durationTicks": 120,
          "midi": 59,
          "name": "B3",
          "ticks": 58560,
          "time": 26.521763000000004,
          "velocity": 0.937007874015748
        },
        {
          "duration": 0.054347874999997714,
          "durationTicks": 120,
          "midi": 49,
          "name": "C#3",
          "ticks": 58560,
          "time": 26.521763000000004,
          "velocity": 1
        },
        {
          "duration": 0.054347874999997714,
          "durationTicks": 120,
          "midi": 43,
          "name": "G2",
          "ticks": 58560,
          "time": 26.521763000000004,
          "velocity": 0.12598425196850394
        },
        {
          "duration": 0.05434787500000127,
          "durationTicks": 120,
          "midi": 45,
          "name": "A2",
          "ticks": 59040,
          "time": 26.7391545,
          "velocity": 0.2047244094488189
        },
        {
          "duration": 0.054347874999997714,
          "durationTicks": 120,
          "midi": 74,
          "name": "D5",
          "ticks": 59520,
          "time": 26.956546000000003,
          "velocity": 0.937007874015748
        },
        {
          "duration": 0.054347874999997714,
          "durationTicks": 120,
          "midi": 69,
          "name": "A4",
          "ticks": 59520,
          "time": 26.956546000000003,
          "velocity": 0.937007874015748
        },
        {
          "duration": 0.054347874999997714,
          "durationTicks": 120,
          "midi": 59,
          "name": "B3",
          "ticks": 59520,
          "time": 26.956546000000003,
          "velocity": 0.937007874015748
        },
        {
          "duration": 0.054347874999997714,
          "durationTicks": 120,
          "midi": 84,
          "name": "C6",
          "ticks": 59520,
          "time": 26.956546000000003,
          "velocity": 0.12598425196850394
        },
        {
          "duration": 0.054347874999997714,
          "durationTicks": 120,
          "midi": 43,
          "name": "G2",
          "ticks": 59520,
          "time": 26.956546000000003,
          "velocity": 0.12598425196850394
        },
        {
          "duration": 0.05434787500000127,
          "durationTicks": 120,
          "midi": 45,
          "name": "A2",
          "ticks": 60000,
          "time": 27.1739375,
          "velocity": 0.2047244094488189
        },
        {
          "duration": 0.054347874999997714,
          "durationTicks": 120,
          "midi": 59,
          "name": "B3",
          "ticks": 60480,
          "time": 27.391329000000002,
          "velocity": 0.937007874015748
        },
        {
          "duration": 0.054347874999997714,
          "durationTicks": 120,
          "midi": 49,
          "name": "C#3",
          "ticks": 60480,
          "time": 27.391329000000002,
          "velocity": 1
        },
        {
          "duration": 0.054347874999997714,
          "durationTicks": 120,
          "midi": 43,
          "name": "G2",
          "ticks": 60480,
          "time": 27.391329000000002,
          "velocity": 0.12598425196850394
        },
        {
          "duration": 0.05434787500000127,
          "durationTicks": 120,
          "midi": 45,
          "name": "A2",
          "ticks": 60960,
          "time": 27.6087205,
          "velocity": 0.2047244094488189
        },
        {
          "duration": 0.05434787500000127,
          "durationTicks": 120,
          "midi": 49,
          "name": "C#3",
          "ticks": 61440,
          "time": 27.826112000000002,
          "velocity": 1
        },
        {
          "duration": 0.05434787500000127,
          "durationTicks": 120,
          "midi": 40,
          "name": "E2",
          "ticks": 61440,
          "time": 27.826112000000002,
          "velocity": 0.25196850393700787
        },
        {
          "duration": 0.05434787500000127,
          "durationTicks": 120,
          "midi": 57,
          "name": "A3",
          "ticks": 61440,
          "time": 27.826112000000002,
          "velocity": 0.6220472440944882
        },
        {
          "duration": 0.21739149999999796,
          "durationTicks": 480,
          "midi": 67,
          "name": "G4",
          "ticks": 61920,
          "time": 28.043503500000003,
          "velocity": 1
        },
        {
          "duration": 0.054347874999997714,
          "durationTicks": 120,
          "midi": 55,
          "name": "G3",
          "ticks": 61920,
          "time": 28.043503500000003,
          "velocity": 0.6220472440944882
        },
        {
          "duration": 0.05434787500000127,
          "durationTicks": 120,
          "midi": 50,
          "name": "D3",
          "ticks": 62400,
          "time": 28.260895,
          "velocity": 0.44881889763779526
        },
        {
          "duration": 0.05434787500000127,
          "durationTicks": 120,
          "midi": 57,
          "name": "A3",
          "ticks": 62400,
          "time": 28.260895,
          "velocity": 0.6220472440944882
        },
        {
          "duration": 0.054347874999997714,
          "durationTicks": 120,
          "midi": 55,
          "name": "G3",
          "ticks": 62880,
          "time": 28.478286500000003,
          "velocity": 0.6220472440944882
        },
        {
          "duration": 0.05434787500000127,
          "durationTicks": 120,
          "midi": 69,
          "name": "A4",
          "ticks": 63360,
          "time": 28.695678,
          "velocity": 0.937007874015748
        },
        {
          "duration": 0.05434787500000127,
          "durationTicks": 120,
          "midi": 74,
          "name": "D5",
          "ticks": 63360,
          "time": 28.695678,
          "velocity": 0.7559055118110236
        },
        {
          "duration": 0.05434787500000127,
          "durationTicks": 120,
          "midi": 84,
          "name": "C6",
          "ticks": 63360,
          "time": 28.695678,
          "velocity": 1
        },
        {
          "duration": 0.05434787500000127,
          "durationTicks": 120,
          "midi": 40,
          "name": "E2",
          "ticks": 63360,
          "time": 28.695678,
          "velocity": 0.25196850393700787
        },
        {
          "duration": 0.05434787500000127,
          "durationTicks": 120,
          "midi": 57,
          "name": "A3",
          "ticks": 63360,
          "time": 28.695678,
          "velocity": 0.6220472440944882
        },
        {
          "duration": 0.10869574999999898,
          "durationTicks": 240,
          "midi": 38,
          "name": "D2",
          "ticks": 63840,
          "time": 28.913069500000002,
          "velocity": 0.952755905511811
        },
        {
          "duration": 0.21739149999999796,
          "durationTicks": 480,
          "midi": 67,
          "name": "G4",
          "ticks": 63840,
          "time": 28.913069500000002,
          "velocity": 1
        },
        {
          "duration": 0.05434787500000127,
          "durationTicks": 120,
          "midi": 53,
          "name": "F3",
          "ticks": 63840,
          "time": 28.913069500000002,
          "velocity": 0.6220472440944882
        },
        {
          "duration": 0.05434787500000127,
          "durationTicks": 120,
          "midi": 49,
          "name": "C#3",
          "ticks": 64320,
          "time": 29.130461,
          "velocity": 1
        },
        {
          "duration": 0.05434787500000127,
          "durationTicks": 120,
          "midi": 50,
          "name": "D3",
          "ticks": 64320,
          "time": 29.130461,
          "velocity": 0.44881889763779526
        },
        {
          "duration": 0.05434787500000127,
          "durationTicks": 120,
          "midi": 57,
          "name": "A3",
          "ticks": 64320,
          "time": 29.130461,
          "velocity": 0.6220472440944882
        },
        {
          "duration": 0.05434787500000127,
          "durationTicks": 120,
          "midi": 49,
          "name": "C#3",
          "ticks": 64800,
          "time": 29.347852500000002,
          "velocity": 1
        },
        {
          "duration": 0.05434787500000127,
          "durationTicks": 120,
          "midi": 53,
          "name": "F3",
          "ticks": 64800,
          "time": 29.347852500000002,
          "velocity": 0.6220472440944882
        },
        {
          "duration": 0.054347874999997714,
          "durationTicks": 120,
          "midi": 40,
          "name": "E2",
          "ticks": 65280,
          "time": 29.565244000000003,
          "velocity": 0.25196850393700787
        },
        {
          "duration": 0.054347874999997714,
          "durationTicks": 120,
          "midi": 57,
          "name": "A3",
          "ticks": 65280,
          "time": 29.565244000000003,
          "velocity": 0.6220472440944882
        },
        {
          "duration": 0.05434787500000127,
          "durationTicks": 120,
          "midi": 49,
          "name": "C#3",
          "ticks": 65760,
          "time": 29.7826355,
          "velocity": 1
        },
        {
          "duration": 0.21739150000000151,
          "durationTicks": 480,
          "midi": 67,
          "name": "G4",
          "ticks": 65760,
          "time": 29.7826355,
          "velocity": 1
        },
        {
          "duration": 0.05434787500000127,
          "durationTicks": 120,
          "midi": 38,
          "name": "D2",
          "ticks": 65760,
          "time": 29.7826355,
          "velocity": 0.952755905511811
        },
        {
          "duration": 0.05434787500000127,
          "durationTicks": 120,
          "midi": 55,
          "name": "G3",
          "ticks": 65760,
          "time": 29.7826355,
          "velocity": 0.6220472440944882
        },
        {
          "duration": 0.054347874999997714,
          "durationTicks": 120,
          "midi": 49,
          "name": "C#3",
          "ticks": 66240,
          "time": 30.000027000000003,
          "velocity": 1
        },
        {
          "duration": 0.054347874999997714,
          "durationTicks": 120,
          "midi": 50,
          "name": "D3",
          "ticks": 66240,
          "time": 30.000027000000003,
          "velocity": 0.44881889763779526
        },
        {
          "duration": 0.054347874999997714,
          "durationTicks": 120,
          "midi": 57,
          "name": "A3",
          "ticks": 66240,
          "time": 30.000027000000003,
          "velocity": 0.6220472440944882
        },
        {
          "duration": 0.05434787500000127,
          "durationTicks": 120,
          "midi": 55,
          "name": "G3",
          "ticks": 66720,
          "time": 30.2174185,
          "velocity": 0.6220472440944882
        },
        {
          "duration": 0.05434787500000127,
          "durationTicks": 120,
          "midi": 69,
          "name": "A4",
          "ticks": 67200,
          "time": 30.434810000000002,
          "velocity": 0.937007874015748
        },
        {
          "duration": 0.05434787500000127,
          "durationTicks": 120,
          "midi": 74,
          "name": "D5",
          "ticks": 67200,
          "time": 30.434810000000002,
          "velocity": 0.7559055118110236
        },
        {
          "duration": 0.05434787500000127,
          "durationTicks": 120,
          "midi": 84,
          "name": "C6",
          "ticks": 67200,
          "time": 30.434810000000002,
          "velocity": 0.12598425196850394
        },
        {
          "duration": 0.05434787500000127,
          "durationTicks": 120,
          "midi": 40,
          "name": "E2",
          "ticks": 67200,
          "time": 30.434810000000002,
          "velocity": 0.25196850393700787
        },
        {
          "duration": 0.05434787500000127,
          "durationTicks": 120,
          "midi": 57,
          "name": "A3",
          "ticks": 67200,
          "time": 30.434810000000002,
          "velocity": 0.6220472440944882
        },
        {
          "duration": 0.054347874999997714,
          "durationTicks": 120,
          "midi": 53,
          "name": "F3",
          "ticks": 67680,
          "time": 30.652201500000004,
          "velocity": 0.6220472440944882
        },
        {
          "duration": 0.05434787500000127,
          "durationTicks": 120,
          "midi": 50,
          "name": "D3",
          "ticks": 68160,
          "time": 30.869593000000002,
          "velocity": 0.44881889763779526
        },
        {
          "duration": 0.05434787500000127,
          "durationTicks": 120,
          "midi": 57,
          "name": "A3",
          "ticks": 68160,
          "time": 30.869593000000002,
          "velocity": 0.6220472440944882
        },
        {
          "duration": 0.054347874999997714,
          "durationTicks": 120,
          "midi": 57,
          "name": "A3",
          "ticks": 68640,
          "time": 31.086984500000003,
          "velocity": 0.6220472440944882
        },
        {
          "duration": 0.05434787500000127,
          "durationTicks": 120,
          "midi": 57,
          "name": "A3",
          "ticks": 68880,
          "time": 31.195680250000002,
          "velocity": 0.6220472440944882
        },
        {
          "duration": 0.05434787500000127,
          "durationTicks": 120,
          "midi": 57,
          "name": "A3",
          "ticks": 69120,
          "time": 31.304376,
          "velocity": 0.6220472440944882
        },
        {
          "duration": 0.05434787500000127,
          "durationTicks": 120,
          "midi": 49,
          "name": "C#3",
          "ticks": 69120,
          "time": 31.304376,
          "velocity": 1
        },
        {
          "duration": 0.05434787500000127,
          "durationTicks": 120,
          "midi": 40,
          "name": "E2",
          "ticks": 69120,
          "time": 31.304376,
          "velocity": 0.25196850393700787
        },
        {
          "duration": 0.054347874999997714,
          "durationTicks": 120,
          "midi": 55,
          "name": "G3",
          "ticks": 69600,
          "time": 31.521767500000003,
          "velocity": 0.6220472440944882
        },
        {
          "duration": 0.05434787500000127,
          "durationTicks": 120,
          "midi": 55,
          "name": "G3",
          "ticks": 69840,
          "time": 31.630463250000002,
          "velocity": 0.6220472440944882
        },
        {
          "duration": 0.05434787500000127,
          "durationTicks": 120,
          "midi": 57,
          "name": "A3",
          "ticks": 70080,
          "time": 31.739159,
          "velocity": 0.6220472440944882
        },
        {
          "duration": 0.05434787500000127,
          "durationTicks": 120,
          "midi": 50,
          "name": "D3",
          "ticks": 70080,
          "time": 31.739159,
          "velocity": 0.44881889763779526
        },
        {
          "duration": 0.05434787500000127,
          "durationTicks": 120,
          "midi": 55,
          "name": "G3",
          "ticks": 70560,
          "time": 31.956550500000002,
          "velocity": 0.6220472440944882
        },
        {
          "duration": 0.05434787500000127,
          "durationTicks": 120,
          "midi": 49,
          "name": "C#3",
          "ticks": 70560,
          "time": 31.956550500000002,
          "velocity": 1
        },
        {
          "duration": 0.054347874999997714,
          "durationTicks": 120,
          "midi": 55,
          "name": "G3",
          "ticks": 70800,
          "time": 32.06524625,
          "velocity": 0.6220472440944882
        },
        {
          "duration": 0.054347874999997714,
          "durationTicks": 120,
          "midi": 57,
          "name": "A3",
          "ticks": 71040,
          "time": 32.173942000000004,
          "velocity": 0.6220472440944882
        },
        {
          "duration": 0.054347874999997714,
          "durationTicks": 120,
          "midi": 69,
          "name": "A4",
          "ticks": 71040,
          "time": 32.173942000000004,
          "velocity": 0.937007874015748
        },
        {
          "duration": 0.054347874999997714,
          "durationTicks": 120,
          "midi": 74,
          "name": "D5",
          "ticks": 71040,
          "time": 32.173942000000004,
          "velocity": 0.7559055118110236
        },
        {
          "duration": 0.054347874999997714,
          "durationTicks": 120,
          "midi": 84,
          "name": "C6",
          "ticks": 71040,
          "time": 32.173942000000004,
          "velocity": 0.12598425196850394
        },
        {
          "duration": 0.054347874999997714,
          "durationTicks": 120,
          "midi": 40,
          "name": "E2",
          "ticks": 71040,
          "time": 32.173942000000004,
          "velocity": 0.25196850393700787
        },
        {
          "duration": 0.054347874999997714,
          "durationTicks": 120,
          "midi": 53,
          "name": "F3",
          "ticks": 71520,
          "time": 32.3913335,
          "velocity": 0.6220472440944882
        },
        {
          "duration": 0.054347874999997714,
          "durationTicks": 120,
          "midi": 49,
          "name": "C#3",
          "ticks": 71520,
          "time": 32.3913335,
          "velocity": 1
        },
        {
          "duration": 0.21739149999999796,
          "durationTicks": 480,
          "midi": 67,
          "name": "G4",
          "ticks": 71520,
          "time": 32.3913335,
          "velocity": 1
        },
        {
          "duration": 0.05434787500000482,
          "durationTicks": 120,
          "midi": 53,
          "name": "F3",
          "ticks": 71640,
          "time": 32.445681375,
          "velocity": 0.6220472440944882
        },
        {
          "duration": 0.054347874999997714,
          "durationTicks": 120,
          "midi": 53,
          "name": "F3",
          "ticks": 71760,
          "time": 32.500029250000004,
          "velocity": 0.6220472440944882
        },
        {
          "duration": 0.054347874999997714,
          "durationTicks": 120,
          "midi": 53,
          "name": "F3",
          "ticks": 71880,
          "time": 32.554377125,
          "velocity": 0.6220472440944882
        },
        {
          "duration": 0.05434787500000482,
          "durationTicks": 120,
          "midi": 57,
          "name": "A3",
          "ticks": 72000,
          "time": 32.608725,
          "velocity": 0.6220472440944882
        },
        {
          "duration": 0.05434787500000482,
          "durationTicks": 120,
          "midi": 49,
          "name": "C#3",
          "ticks": 72000,
          "time": 32.608725,
          "velocity": 1
        },
        {
          "duration": 0.05434787500000482,
          "durationTicks": 120,
          "midi": 50,
          "name": "D3",
          "ticks": 72000,
          "time": 32.608725,
          "velocity": 0.44881889763779526
        },
        {
          "duration": 0.054347874999997714,
          "durationTicks": 120,
          "midi": 57,
          "name": "A3",
          "ticks": 72480,
          "time": 32.826116500000005,
          "velocity": 0.6220472440944882
        },
        {
          "duration": 0.054347874999997714,
          "durationTicks": 120,
          "midi": 49,
          "name": "C#3",
          "ticks": 72480,
          "time": 32.826116500000005,
          "velocity": 1
        },
        {
          "duration": 0.054347874999997714,
          "durationTicks": 120,
          "midi": 57,
          "name": "A3",
          "ticks": 72960,
          "time": 33.043508,
          "velocity": 0.6220472440944882
        },
        {
          "duration": 0.054347874999997714,
          "durationTicks": 120,
          "midi": 40,
          "name": "E2",
          "ticks": 72960,
          "time": 33.043508,
          "velocity": 0.25196850393700787
        },
        {
          "duration": 0.05434787500000482,
          "durationTicks": 120,
          "midi": 55,
          "name": "G3",
          "ticks": 73440,
          "time": 33.2608995,
          "velocity": 0.6220472440944882
        },
        {
          "duration": 0.05434787500000482,
          "durationTicks": 120,
          "midi": 49,
          "name": "C#3",
          "ticks": 73440,
          "time": 33.2608995,
          "velocity": 1
        },
        {
          "duration": 0.21739150000000507,
          "durationTicks": 480,
          "midi": 67,
          "name": "G4",
          "ticks": 73440,
          "time": 33.2608995,
          "velocity": 1
        },
        {
          "duration": 0.054347874999997714,
          "durationTicks": 120,
          "midi": 57,
          "name": "A3",
          "ticks": 73680,
          "time": 33.36959525,
          "velocity": 0.6220472440944882
        },
        {
          "duration": 0.054347874999997714,
          "durationTicks": 120,
          "midi": 57,
          "name": "A3",
          "ticks": 73920,
          "time": 33.478291000000006,
          "velocity": 0.6220472440944882
        },
        {
          "duration": 0.054347874999997714,
          "durationTicks": 120,
          "midi": 49,
          "name": "C#3",
          "ticks": 73920,
          "time": 33.478291000000006,
          "velocity": 1
        },
        {
          "duration": 0.054347874999997714,
          "durationTicks": 120,
          "midi": 50,
          "name": "D3",
          "ticks": 73920,
          "time": 33.478291000000006,
          "velocity": 0.44881889763779526
        },
        {
          "duration": 0.054347874999997714,
          "durationTicks": 120,
          "midi": 55,
          "name": "G3",
          "ticks": 74400,
          "time": 33.695682500000004,
          "velocity": 0.6220472440944882
        },
        {
          "duration": 0.05434787500000482,
          "durationTicks": 120,
          "midi": 57,
          "name": "A3",
          "ticks": 74640,
          "time": 33.80437825,
          "velocity": 0.6220472440944882
        },
        {
          "duration": 0.054347874999997714,
          "durationTicks": 120,
          "midi": 57,
          "name": "A3",
          "ticks": 74880,
          "time": 33.913074,
          "velocity": 0.6220472440944882
        },
        {
          "duration": 0.054347874999997714,
          "durationTicks": 120,
          "midi": 69,
          "name": "A4",
          "ticks": 74880,
          "time": 33.913074,
          "velocity": 0.937007874015748
        },
        {
          "duration": 0.054347874999997714,
          "durationTicks": 120,
          "midi": 74,
          "name": "D5",
          "ticks": 74880,
          "time": 33.913074,
          "velocity": 0.7559055118110236
        },
        {
          "duration": 0.054347874999997714,
          "durationTicks": 120,
          "midi": 84,
          "name": "C6",
          "ticks": 74880,
          "time": 33.913074,
          "velocity": 0.12598425196850394
        },
        {
          "duration": 0.054347874999997714,
          "durationTicks": 120,
          "midi": 40,
          "name": "E2",
          "ticks": 74880,
          "time": 33.913074,
          "velocity": 0.25196850393700787
        },
        {
          "duration": 0.05434787500000482,
          "durationTicks": 120,
          "midi": 53,
          "name": "F3",
          "ticks": 75360,
          "time": 34.1304655,
          "velocity": 0.6220472440944882
        },
        {
          "duration": 0.054347874999997714,
          "durationTicks": 120,
          "midi": 55,
          "name": "G3",
          "ticks": 75480,
          "time": 34.184813375000004,
          "velocity": 0.6220472440944882
        },
        {
          "duration": 0.054347874999997714,
          "durationTicks": 120,
          "midi": 57,
          "name": "A3",
          "ticks": 75600,
          "time": 34.23916125,
          "velocity": 0.6220472440944882
        },
        {
          "duration": 0.05434787500000482,
          "durationTicks": 120,
          "midi": 59,
          "name": "B3",
          "ticks": 75720,
          "time": 34.293509125,
          "velocity": 0.6220472440944882
        },
        {
          "duration": 0.054347874999997714,
          "durationTicks": 120,
          "midi": 57,
          "name": "A3",
          "ticks": 75840,
          "time": 34.347857000000005,
          "velocity": 0.6220472440944882
        },
        {
          "duration": 0.054347874999997714,
          "durationTicks": 120,
          "midi": 49,
          "name": "C#3",
          "ticks": 75840,
          "time": 34.347857000000005,
          "velocity": 1
        },
        {
          "duration": 0.054347874999997714,
          "durationTicks": 120,
          "midi": 50,
          "name": "D3",
          "ticks": 75840,
          "time": 34.347857000000005,
          "velocity": 0.44881889763779526
        },
        {
          "duration": 0.05434787500000482,
          "durationTicks": 120,
          "midi": 59,
          "name": "B3",
          "ticks": 76080,
          "time": 34.45655275,
          "velocity": 0.6220472440944882
        },
        {
          "duration": 0.054347874999997714,
          "durationTicks": 120,
          "midi": 57,
          "name": "A3",
          "ticks": 76320,
          "time": 34.5652485,
          "velocity": 0.6220472440944882
        },
        {
          "duration": 0.054347874999997714,
          "durationTicks": 120,
          "midi": 57,
          "name": "A3",
          "ticks": 76560,
          "time": 34.673944250000005,
          "velocity": 0.6220472440944882
        },
        {
          "duration": 0.054347874999997714,
          "durationTicks": 120,
          "midi": 57,
          "name": "A3",
          "ticks": 76680,
          "time": 34.728292125,
          "velocity": 0.6220472440944882
        },
        {
          "duration": 0.05434787500000482,
          "durationTicks": 120,
          "midi": 49,
          "name": "C#3",
          "ticks": 76800,
          "time": 34.78264,
          "velocity": 1
        },
        {
          "duration": 0.05434787500000482,
          "durationTicks": 120,
          "midi": 74,
          "name": "D5",
          "ticks": 78720,
          "time": 35.652206,
          "velocity": 0.7559055118110236
        },
        {
          "duration": 0.05434787500000482,
          "durationTicks": 120,
          "midi": 84,
          "name": "C6",
          "ticks": 78720,
          "time": 35.652206,
          "velocity": 1
        },
        {
          "duration": 0.054347874999997714,
          "durationTicks": 120,
          "midi": 49,
          "name": "C#3",
          "ticks": 79680,
          "time": 36.086989,
          "velocity": 1
        },
        {
          "duration": 0.05434787500000482,
          "durationTicks": 120,
          "midi": 49,
          "name": "C#3",
          "ticks": 80160,
          "time": 36.3043805,
          "velocity": 1
        },
        {
          "duration": 0.054347874999997714,
          "durationTicks": 120,
          "midi": 40,
          "name": "E2",
          "ticks": 80640,
          "time": 36.521772000000006,
          "velocity": 0.25196850393700787
        },
        {
          "duration": 0.054347874999997714,
          "durationTicks": 120,
          "midi": 57,
          "name": "A3",
          "ticks": 80640,
          "time": 36.521772000000006,
          "velocity": 0.6220472440944882
        },
        {
          "duration": 0.054347874999997714,
          "durationTicks": 120,
          "midi": 49,
          "name": "C#3",
          "ticks": 81120,
          "time": 36.739163500000004,
          "velocity": 1
        },
        {
          "duration": 0.21739149999999796,
          "durationTicks": 480,
          "midi": 67,
          "name": "G4",
          "ticks": 81120,
          "time": 36.739163500000004,
          "velocity": 1
        },
        {
          "duration": 0.054347874999997714,
          "durationTicks": 120,
          "midi": 38,
          "name": "D2",
          "ticks": 81120,
          "time": 36.739163500000004,
          "velocity": 0.952755905511811
        },
        {
          "duration": 0.054347874999997714,
          "durationTicks": 120,
          "midi": 55,
          "name": "G3",
          "ticks": 81120,
          "time": 36.739163500000004,
          "velocity": 0.6220472440944882
        },
        {
          "duration": 0.054347874999997714,
          "durationTicks": 120,
          "midi": 49,
          "name": "C#3",
          "ticks": 81600,
          "time": 36.956555,
          "velocity": 1
        },
        {
          "duration": 0.054347874999997714,
          "durationTicks": 120,
          "midi": 50,
          "name": "D3",
          "ticks": 81600,
          "time": 36.956555,
          "velocity": 0.44881889763779526
        },
        {
          "duration": 0.054347874999997714,
          "durationTicks": 120,
          "midi": 57,
          "name": "A3",
          "ticks": 81600,
          "time": 36.956555,
          "velocity": 0.6220472440944882
        },
        {
          "duration": 0.05434787500000482,
          "durationTicks": 120,
          "midi": 55,
          "name": "G3",
          "ticks": 82080,
          "time": 37.1739465,
          "velocity": 0.6220472440944882
        },
        {
          "duration": 0.054347874999997714,
          "durationTicks": 120,
          "midi": 69,
          "name": "A4",
          "ticks": 82560,
          "time": 37.391338000000005,
          "velocity": 0.937007874015748
        },
        {
          "duration": 0.054347874999997714,
          "durationTicks": 120,
          "midi": 74,
          "name": "D5",
          "ticks": 82560,
          "time": 37.391338000000005,
          "velocity": 0.7559055118110236
        },
        {
          "duration": 0.054347874999997714,
          "durationTicks": 120,
          "midi": 84,
          "name": "C6",
          "ticks": 82560,
          "time": 37.391338000000005,
          "velocity": 0.12598425196850394
        },
        {
          "duration": 0.054347874999997714,
          "durationTicks": 120,
          "midi": 40,
          "name": "E2",
          "ticks": 82560,
          "time": 37.391338000000005,
          "velocity": 0.25196850393700787
        },
        {
          "duration": 0.054347874999997714,
          "durationTicks": 120,
          "midi": 57,
          "name": "A3",
          "ticks": 82560,
          "time": 37.391338000000005,
          "velocity": 0.6220472440944882
        },
        {
          "duration": 0.054347874999997714,
          "durationTicks": 120,
          "midi": 53,
          "name": "F3",
          "ticks": 83040,
          "time": 37.6087295,
          "velocity": 0.6220472440944882
        },
        {
          "duration": 0.05434787500000482,
          "durationTicks": 120,
          "midi": 50,
          "name": "D3",
          "ticks": 83520,
          "time": 37.826121,
          "velocity": 0.44881889763779526
        },
        {
          "duration": 0.05434787500000482,
          "durationTicks": 120,
          "midi": 57,
          "name": "A3",
          "ticks": 83520,
          "time": 37.826121,
          "velocity": 0.6220472440944882
        },
        {
          "duration": 0.054347874999997714,
          "durationTicks": 120,
          "midi": 57,
          "name": "A3",
          "ticks": 84000,
          "time": 38.043512500000006,
          "velocity": 0.6220472440944882
        },
        {
          "duration": 0.05434787500000482,
          "durationTicks": 120,
          "midi": 57,
          "name": "A3",
          "ticks": 84240,
          "time": 38.15220825,
          "velocity": 0.6220472440944882
        },
        {
          "duration": 0.10869575000000253,
          "durationTicks": 240,
          "midi": 49,
          "name": "C#3",
          "ticks": 84480,
          "time": 38.260904000000004,
          "velocity": 1
        },
        {
          "duration": 0.10869575000000253,
          "durationTicks": 240,
          "midi": 52,
          "name": "E3",
          "ticks": 86400,
          "time": 39.13047,
          "velocity": 1
        },
        {
          "duration": 0.10869575000000253,
          "durationTicks": 240,
          "midi": 55,
          "name": "G3",
          "ticks": 86400,
          "time": 39.13047,
          "velocity": 1
        },
        {
          "duration": 0.054347874999997714,
          "durationTicks": 120,
          "midi": 66,
          "name": "F#4",
          "ticks": 87360,
          "time": 39.565253000000006,
          "velocity": 1
        },
        {
          "duration": 0.054347874999997714,
          "durationTicks": 120,
          "midi": 66,
          "name": "F#4",
          "ticks": 87480,
          "time": 39.619600875,
          "velocity": 1
        },
        {
          "duration": 0.05434787500000482,
          "durationTicks": 120,
          "midi": 66,
          "name": "F#4",
          "ticks": 87600,
          "time": 39.67394875,
          "velocity": 1
        },
        {
          "duration": 0.054347874999997714,
          "durationTicks": 120,
          "midi": 66,
          "name": "F#4",
          "ticks": 87720,
          "time": 39.728296625000006,
          "velocity": 1
        },
        {
          "duration": 0.054347874999997714,
          "durationTicks": 120,
          "midi": 68,
          "name": "G#4",
          "ticks": 87840,
          "time": 39.7826445,
          "velocity": 1
        },
        {
          "duration": 0.10869575000000253,
          "durationTicks": 240,
          "midi": 49,
          "name": "C#3",
          "ticks": 88320,
          "time": 40.000036,
          "velocity": 1
        },
        {
          "duration": 0.05434787500000482,
          "durationTicks": 120,
          "midi": 63,
          "name": "D#4",
          "ticks": 88800,
          "time": 40.2174275,
          "velocity": 1
        },
        {
          "duration": 0.054347874999997714,
          "durationTicks": 120,
          "midi": 49,
          "name": "C#3",
          "ticks": 89040,
          "time": 40.32612325,
          "velocity": 1
        },
        {
          "duration": 0.054347874999997714,
          "durationTicks": 120,
          "midi": 74,
          "name": "D5",
          "ticks": 89280,
          "time": 40.434819000000005,
          "velocity": 1
        },
        {
          "duration": 0.10869575000000253,
          "durationTicks": 240,
          "midi": 52,
          "name": "E3",
          "ticks": 90240,
          "time": 40.869602,
          "velocity": 1
        },
        {
          "duration": 0.10869575000000253,
          "durationTicks": 240,
          "midi": 55,
          "name": "G3",
          "ticks": 90240,
          "time": 40.869602,
          "velocity": 1
        },
        {
          "duration": 0.10869574999999543,
          "durationTicks": 240,
          "midi": 49,
          "name": "C#3",
          "ticks": 92160,
          "time": 41.73916800000001,
          "velocity": 1
        },
        {
          "duration": 0.10869574999999543,
          "durationTicks": 240,
          "midi": 52,
          "name": "E3",
          "ticks": 94080,
          "time": 42.608734000000005,
          "velocity": 1
        },
        {
          "duration": 0.10869574999999543,
          "durationTicks": 240,
          "midi": 55,
          "name": "G3",
          "ticks": 94080,
          "time": 42.608734000000005,
          "velocity": 1
        },
        {
          "duration": 0.05434787500000482,
          "durationTicks": 120,
          "midi": 66,
          "name": "F#4",
          "ticks": 95040,
          "time": 43.043517,
          "velocity": 1
        },
        {
          "duration": 0.054347874999997714,
          "durationTicks": 120,
          "midi": 66,
          "name": "F#4",
          "ticks": 95160,
          "time": 43.097864875000006,
          "velocity": 1
        },
        {
          "duration": 0.054347874999997714,
          "durationTicks": 120,
          "midi": 66,
          "name": "F#4",
          "ticks": 95280,
          "time": 43.152212750000004,
          "velocity": 1
        },
        {
          "duration": 0.05434787500000482,
          "durationTicks": 120,
          "midi": 66,
          "name": "F#4",
          "ticks": 95400,
          "time": 43.206560625,
          "velocity": 1
        },
        {
          "duration": 0.054347874999997714,
          "durationTicks": 120,
          "midi": 68,
          "name": "G#4",
          "ticks": 95520,
          "time": 43.260908500000006,
          "velocity": 1
        },
        {
          "duration": 0.10869574999999543,
          "durationTicks": 240,
          "midi": 49,
          "name": "C#3",
          "ticks": 96000,
          "time": 43.478300000000004,
          "velocity": 1
        },
        {
          "duration": 0.054347874999997714,
          "durationTicks": 120,
          "midi": 70,
          "name": "A#4",
          "ticks": 96000,
          "time": 43.478300000000004,
          "velocity": 1
        },
        {
          "duration": 0.054347874999997714,
          "durationTicks": 120,
          "midi": 63,
          "name": "D#4",
          "ticks": 96480,
          "time": 43.6956915,
          "velocity": 1
        },
        {
          "duration": 0.054347874999997714,
          "durationTicks": 120,
          "midi": 49,
          "name": "C#3",
          "ticks": 96720,
          "time": 43.804387250000005,
          "velocity": 1
        },
        {
          "duration": 0.05434787500000482,
          "durationTicks": 120,
          "midi": 74,
          "name": "D5",
          "ticks": 96960,
          "time": 43.913083,
          "velocity": 1
        },
        {
          "duration": 0.05434787500000482,
          "durationTicks": 120,
          "midi": 70,
          "name": "A#4",
          "ticks": 96960,
          "time": 43.913083,
          "velocity": 1
        },
        {
          "duration": 0.10869575000000253,
          "durationTicks": 240,
          "midi": 52,
          "name": "E3",
          "ticks": 97920,
          "time": 44.347866,
          "velocity": 1
        },
        {
          "duration": 0.10869575000000253,
          "durationTicks": 240,
          "midi": 55,
          "name": "G3",
          "ticks": 97920,
          "time": 44.347866,
          "velocity": 1
        },
        {
          "duration": 0.054347874999997714,
          "durationTicks": 120,
          "midi": 70,
          "name": "A#4",
          "ticks": 97920,
          "time": 44.347866,
          "velocity": 1
        },
        {
          "duration": 0.05434787500000482,
          "durationTicks": 120,
          "midi": 52,
          "name": "E3",
          "ticks": 98400,
          "time": 44.5652575,
          "velocity": 1
        },
        {
          "duration": 0.05434787500000482,
          "durationTicks": 120,
          "midi": 55,
          "name": "G3",
          "ticks": 98400,
          "time": 44.5652575,
          "velocity": 1
        },
        {
          "duration": 0.05434787500000482,
          "durationTicks": 120,
          "midi": 70,
          "name": "A#4",
          "ticks": 98400,
          "time": 44.5652575,
          "velocity": 1
        },
        {
          "duration": 0.054347874999997714,
          "durationTicks": 120,
          "midi": 52,
          "name": "E3",
          "ticks": 98880,
          "time": 44.782649000000006,
          "velocity": 1
        },
        {
          "duration": 0.054347874999997714,
          "durationTicks": 120,
          "midi": 55,
          "name": "G3",
          "ticks": 98880,
          "time": 44.782649000000006,
          "velocity": 1
        },
        {
          "duration": 0.054347874999997714,
          "durationTicks": 120,
          "midi": 49,
          "name": "C#3",
          "ticks": 98880,
          "time": 44.782649000000006,
          "velocity": 1
        },
        {
          "duration": 0.054347874999997714,
          "durationTicks": 120,
          "midi": 74,
          "name": "D5",
          "ticks": 98880,
          "time": 44.782649000000006,
          "velocity": 1
        },
        {
          "duration": 0.054347874999997714,
          "durationTicks": 120,
          "midi": 70,
          "name": "A#4",
          "ticks": 98880,
          "time": 44.782649000000006,
          "velocity": 1
        },
        {
          "duration": 0.05434787500000482,
          "durationTicks": 120,
          "midi": 49,
          "name": "C#3",
          "ticks": 99120,
          "time": 44.89134475,
          "velocity": 1
        },
        {
          "duration": 0.05434787500000482,
          "durationTicks": 120,
          "midi": 70,
          "name": "A#4",
          "ticks": 99120,
          "time": 44.89134475,
          "velocity": 1
        },
        {
          "duration": 0.054347874999997714,
          "durationTicks": 120,
          "midi": 49,
          "name": "C#3",
          "ticks": 99360,
          "time": 45.000040500000004,
          "velocity": 1
        },
        {
          "duration": 0.054347874999997714,
          "durationTicks": 120,
          "midi": 74,
          "name": "D5",
          "ticks": 99360,
          "time": 45.000040500000004,
          "velocity": 1
        },
        {
          "duration": 0.054347874999997714,
          "durationTicks": 120,
          "midi": 70,
          "name": "A#4",
          "ticks": 99360,
          "time": 45.000040500000004,
          "velocity": 1
        },
        {
          "duration": 0.054347874999997714,
          "durationTicks": 120,
          "midi": 70,
          "name": "A#4",
          "ticks": 99480,
          "time": 45.054388375,
          "velocity": 1
        },
        {
          "duration": 0.05434787500000482,
          "durationTicks": 120,
          "midi": 49,
          "name": "C#3",
          "ticks": 99600,
          "time": 45.10873625,
          "velocity": 1
        },
        {
          "duration": 0.05434787500000482,
          "durationTicks": 120,
          "midi": 70,
          "name": "A#4",
          "ticks": 99600,
          "time": 45.10873625,
          "velocity": 1
        },
        {
          "duration": 0.054347874999997714,
          "durationTicks": 120,
          "midi": 70,
          "name": "A#4",
          "ticks": 99720,
          "time": 45.163084125000005,
          "velocity": 1
        },
        {
          "duration": 0.054347874999997714,
          "durationTicks": 120,
          "midi": 49,
          "name": "C#3",
          "ticks": 99840,
          "time": 45.217432,
          "velocity": 1
        },
        {
          "duration": 0.054347874999997714,
          "durationTicks": 120,
          "midi": 43,
          "name": "G2",
          "ticks": 99840,
          "time": 45.217432,
          "velocity": 0.12598425196850394
        },
        {
          "duration": 0.054347874999997714,
          "durationTicks": 120,
          "midi": 59,
          "name": "B3",
          "ticks": 99840,
          "time": 45.217432,
          "velocity": 0.937007874015748
        },
        {
          "duration": 0.054347874999997714,
          "durationTicks": 120,
          "midi": 81,
          "name": "A5",
          "ticks": 99840,
          "time": 45.217432,
          "velocity": 0.7559055118110236
        },
        {
          "duration": 0.054347874999997714,
          "durationTicks": 120,
          "midi": 92,
          "name": "G#6",
          "ticks": 99840,
          "time": 45.217432,
          "velocity": 1
        },
        {
          "duration": 0.05434787500000482,
          "durationTicks": 120,
          "midi": 45,
          "name": "A2",
          "ticks": 100320,
          "time": 45.4348235,
          "velocity": 0.2047244094488189
        },
        {
          "duration": 0.21739150000000507,
          "durationTicks": 480,
          "midi": 67,
          "name": "G4",
          "ticks": 100320,
          "time": 45.4348235,
          "velocity": 1
        },
        {
          "duration": 0.054347874999997714,
          "durationTicks": 120,
          "midi": 59,
          "name": "B3",
          "ticks": 100800,
          "time": 45.652215000000005,
          "velocity": 0.937007874015748
        },
        {
          "duration": 0.054347874999997714,
          "durationTicks": 120,
          "midi": 43,
          "name": "G2",
          "ticks": 100800,
          "time": 45.652215000000005,
          "velocity": 0.12598425196850394
        },
        {
          "duration": 0.05434787500000482,
          "durationTicks": 120,
          "midi": 74,
          "name": "D5",
          "ticks": 101760,
          "time": 46.086998,
          "velocity": 0.937007874015748
        },
        {
          "duration": 0.05434787500000482,
          "durationTicks": 120,
          "midi": 69,
          "name": "A4",
          "ticks": 101760,
          "time": 46.086998,
          "velocity": 0.937007874015748
        },
        {
          "duration": 0.05434787500000482,
          "durationTicks": 120,
          "midi": 59,
          "name": "B3",
          "ticks": 101760,
          "time": 46.086998,
          "velocity": 0.937007874015748
        },
        {
          "duration": 0.05434787500000482,
          "durationTicks": 120,
          "midi": 84,
          "name": "C6",
          "ticks": 101760,
          "time": 46.086998,
          "velocity": 1
        },
        {
          "duration": 0.05434787500000482,
          "durationTicks": 120,
          "midi": 43,
          "name": "G2",
          "ticks": 101760,
          "time": 46.086998,
          "velocity": 0.12598425196850394
        },
        {
          "duration": 0.10869574999999543,
          "durationTicks": 240,
          "midi": 38,
          "name": "D2",
          "ticks": 102240,
          "time": 46.304389500000006,
          "velocity": 0.952755905511811
        },
        {
          "duration": 0.21739149999999796,
          "durationTicks": 480,
          "midi": 67,
          "name": "G4",
          "ticks": 102240,
          "time": 46.304389500000006,
          "velocity": 1
        },
        {
          "duration": 0.054347874999997714,
          "durationTicks": 120,
          "midi": 45,
          "name": "A2",
          "ticks": 102240,
          "time": 46.304389500000006,
          "velocity": 0.2047244094488189
        },
        {
          "duration": 0.054347874999997714,
          "durationTicks": 120,
          "midi": 59,
          "name": "B3",
          "ticks": 102720,
          "time": 46.521781000000004,
          "velocity": 0.937007874015748
        },
        {
          "duration": 0.054347874999997714,
          "durationTicks": 120,
          "midi": 49,
          "name": "C#3",
          "ticks": 102720,
          "time": 46.521781000000004,
          "velocity": 1
        },
        {
          "duration": 0.054347874999997714,
          "durationTicks": 120,
          "midi": 43,
          "name": "G2",
          "ticks": 102720,
          "time": 46.521781000000004,
          "velocity": 0.12598425196850394
        },
        {
          "duration": 0.054347874999997714,
          "durationTicks": 120,
          "midi": 49,
          "name": "C#3",
          "ticks": 103200,
          "time": 46.7391725,
          "velocity": 1
        },
        {
          "duration": 0.05434787500000482,
          "durationTicks": 120,
          "midi": 43,
          "name": "G2",
          "ticks": 103680,
          "time": 46.956564,
          "velocity": 0.12598425196850394
        },
        {
          "duration": 0.05434787500000482,
          "durationTicks": 120,
          "midi": 59,
          "name": "B3",
          "ticks": 103680,
          "time": 46.956564,
          "velocity": 0.937007874015748
        },
        {
          "duration": 0.054347874999997714,
          "durationTicks": 120,
          "midi": 49,
          "name": "C#3",
          "ticks": 104160,
          "time": 47.173955500000005,
          "velocity": 1
        },
        {
          "duration": 0.054347874999997714,
          "durationTicks": 120,
          "midi": 45,
          "name": "A2",
          "ticks": 104160,
          "time": 47.173955500000005,
          "velocity": 0.2047244094488189
        },
        {
          "duration": 0.21739149999999796,
          "durationTicks": 480,
          "midi": 67,
          "name": "G4",
          "ticks": 104160,
          "time": 47.173955500000005,
          "velocity": 1
        },
        {
          "duration": 0.054347874999997714,
          "durationTicks": 120,
          "midi": 38,
          "name": "D2",
          "ticks": 104160,
          "time": 47.173955500000005,
          "velocity": 0.952755905511811
        },
        {
          "duration": 0.054347874999997714,
          "durationTicks": 120,
          "midi": 59,
          "name": "B3",
          "ticks": 104640,
          "time": 47.391347,
          "velocity": 0.937007874015748
        },
        {
          "duration": 0.054347874999997714,
          "durationTicks": 120,
          "midi": 49,
          "name": "C#3",
          "ticks": 104640,
          "time": 47.391347,
          "velocity": 1
        },
        {
          "duration": 0.054347874999997714,
          "durationTicks": 120,
          "midi": 43,
          "name": "G2",
          "ticks": 104640,
          "time": 47.391347,
          "velocity": 0.12598425196850394
        },
        {
          "duration": 0.05434787500000482,
          "durationTicks": 120,
          "midi": 45,
          "name": "A2",
          "ticks": 105120,
          "time": 47.6087385,
          "velocity": 0.2047244094488189
        },
        {
          "duration": 0.054347874999997714,
          "durationTicks": 120,
          "midi": 74,
          "name": "D5",
          "ticks": 105600,
          "time": 47.826130000000006,
          "velocity": 0.937007874015748
        },
        {
          "duration": 0.054347874999997714,
          "durationTicks": 120,
          "midi": 69,
          "name": "A4",
          "ticks": 105600,
          "time": 47.826130000000006,
          "velocity": 0.937007874015748
        },
        {
          "duration": 0.054347874999997714,
          "durationTicks": 120,
          "midi": 59,
          "name": "B3",
          "ticks": 105600,
          "time": 47.826130000000006,
          "velocity": 0.937007874015748
        },
        {
          "duration": 0.054347874999997714,
          "durationTicks": 120,
          "midi": 84,
          "name": "C6",
          "ticks": 105600,
          "time": 47.826130000000006,
          "velocity": 0.12598425196850394
        },
        {
          "duration": 0.054347874999997714,
          "durationTicks": 120,
          "midi": 43,
          "name": "G2",
          "ticks": 105600,
          "time": 47.826130000000006,
          "velocity": 0.12598425196850394
        },
        {
          "duration": 0.054347874999997714,
          "durationTicks": 120,
          "midi": 45,
          "name": "A2",
          "ticks": 106080,
          "time": 48.043521500000004,
          "velocity": 0.2047244094488189
        },
        {
          "duration": 0.054347874999997714,
          "durationTicks": 120,
          "midi": 59,
          "name": "B3",
          "ticks": 106560,
          "time": 48.260913,
          "velocity": 0.937007874015748
        },
        {
          "duration": 0.054347874999997714,
          "durationTicks": 120,
          "midi": 43,
          "name": "G2",
          "ticks": 106560,
          "time": 48.260913,
          "velocity": 0.12598425196850394
        },
        {
          "duration": 0.05434787500000482,
          "durationTicks": 120,
          "midi": 45,
          "name": "A2",
          "ticks": 107040,
          "time": 48.4783045,
          "velocity": 0.2047244094488189
        },
        {
          "duration": 0.054347874999997714,
          "durationTicks": 120,
          "midi": 49,
          "name": "C#3",
          "ticks": 107520,
          "time": 48.695696000000005,
          "velocity": 1
        },
        {
          "duration": 0.054347874999997714,
          "durationTicks": 120,
          "midi": 43,
          "name": "G2",
          "ticks": 107520,
          "time": 48.695696000000005,
          "velocity": 0.12598425196850394
        },
        {
          "duration": 0.054347874999997714,
          "durationTicks": 120,
          "midi": 59,
          "name": "B3",
          "ticks": 107520,
          "time": 48.695696000000005,
          "velocity": 0.937007874015748
        },
        {
          "duration": 0.054347874999997714,
          "durationTicks": 120,
          "midi": 45,
          "name": "A2",
          "ticks": 108000,
          "time": 48.9130875,
          "velocity": 0.2047244094488189
        },
        {
          "duration": 0.05434787500000482,
          "durationTicks": 120,
          "midi": 59,
          "name": "B3",
          "ticks": 108480,
          "time": 49.130479,
          "velocity": 0.937007874015748
        },
        {
          "duration": 0.05434787500000482,
          "durationTicks": 120,
          "midi": 43,
          "name": "G2",
          "ticks": 108480,
          "time": 49.130479,
          "velocity": 0.12598425196850394
        },
        {
          "duration": 0.054347874999997714,
          "durationTicks": 120,
          "midi": 49,
          "name": "C#3",
          "ticks": 108960,
          "time": 49.347870500000006,
          "velocity": 1
        },
        {
          "duration": 0.054347874999997714,
          "durationTicks": 120,
          "midi": 45,
          "name": "A2",
          "ticks": 108960,
          "time": 49.347870500000006,
          "velocity": 0.2047244094488189
        },
        {
          "duration": 0.054347874999997714,
          "durationTicks": 120,
          "midi": 74,
          "name": "D5",
          "ticks": 109440,
          "time": 49.565262000000004,
          "velocity": 0.937007874015748
        },
        {
          "duration": 0.054347874999997714,
          "durationTicks": 120,
          "midi": 69,
          "name": "A4",
          "ticks": 109440,
          "time": 49.565262000000004,
          "velocity": 0.937007874015748
        },
        {
          "duration": 0.054347874999997714,
          "durationTicks": 120,
          "midi": 59,
          "name": "B3",
          "ticks": 109440,
          "time": 49.565262000000004,
          "velocity": 0.937007874015748
        },
        {
          "duration": 0.054347874999997714,
          "durationTicks": 120,
          "midi": 84,
          "name": "C6",
          "ticks": 109440,
          "time": 49.565262000000004,
          "velocity": 0.12598425196850394
        },
        {
          "duration": 0.054347874999997714,
          "durationTicks": 120,
          "midi": 43,
          "name": "G2",
          "ticks": 109440,
          "time": 49.565262000000004,
          "velocity": 0.12598425196850394
        },
        {
          "duration": 0.05434787500000482,
          "durationTicks": 120,
          "midi": 49,
          "name": "C#3",
          "ticks": 109920,
          "time": 49.7826535,
          "velocity": 1
        },
        {
          "duration": 0.05434787500000482,
          "durationTicks": 120,
          "midi": 45,
          "name": "A2",
          "ticks": 109920,
          "time": 49.7826535,
          "velocity": 0.2047244094488189
        },
        {
          "duration": 0.21739149999999796,
          "durationTicks": 480,
          "midi": 67,
          "name": "G4",
          "ticks": 109920,
          "time": 49.7826535,
          "velocity": 1
        },
        {
          "duration": 0.05434787500000482,
          "durationTicks": 120,
          "midi": 59,
          "name": "B3",
          "ticks": 110400,
          "time": 50.000045,
          "velocity": 0.937007874015748
        },
        {
          "duration": 0.05434787500000482,
          "durationTicks": 120,
          "midi": 49,
          "name": "C#3",
          "ticks": 110400,
          "time": 50.000045,
          "velocity": 1
        },
        {
          "duration": 0.05434787500000482,
          "durationTicks": 120,
          "midi": 43,
          "name": "G2",
          "ticks": 110400,
          "time": 50.000045,
          "velocity": 0.12598425196850394
        },
        {
          "duration": 0.054347874999997714,
          "durationTicks": 120,
          "midi": 49,
          "name": "C#3",
          "ticks": 110880,
          "time": 50.217436500000005,
          "velocity": 1
        },
        {
          "duration": 0.054347874999997714,
          "durationTicks": 120,
          "midi": 45,
          "name": "A2",
          "ticks": 110880,
          "time": 50.217436500000005,
          "velocity": 0.2047244094488189
        },
        {
          "duration": 0.054347874999997714,
          "durationTicks": 120,
          "midi": 43,
          "name": "G2",
          "ticks": 111360,
          "time": 50.434828,
          "velocity": 0.12598425196850394
        },
        {
          "duration": 0.054347874999997714,
          "durationTicks": 120,
          "midi": 59,
          "name": "B3",
          "ticks": 111360,
          "time": 50.434828,
          "velocity": 0.937007874015748
        },
        {
          "duration": 0.054347874999997714,
          "durationTicks": 120,
          "midi": 49,
          "name": "C#3",
          "ticks": 111360,
          "time": 50.434828,
          "velocity": 1
        },
        {
          "duration": 0.054347874999997714,
          "durationTicks": 120,
          "midi": 92,
          "name": "G#6",
          "ticks": 111360,
          "time": 50.434828,
          "velocity": 0.7559055118110236
        },
        {
          "duration": 0.05434787500000482,
          "durationTicks": 120,
          "midi": 45,
          "name": "A2",
          "ticks": 111840,
          "time": 50.6522195,
          "velocity": 0.2047244094488189
        },
        {
          "duration": 0.05434787500000482,
          "durationTicks": 120,
          "midi": 92,
          "name": "G#6",
          "ticks": 111840,
          "time": 50.6522195,
          "velocity": 0.7559055118110236
        },
        {
          "duration": 0.054347874999997714,
          "durationTicks": 120,
          "midi": 59,
          "name": "B3",
          "ticks": 112320,
          "time": 50.869611000000006,
          "velocity": 0.937007874015748
        },
        {
          "duration": 0.054347874999997714,
          "durationTicks": 120,
          "midi": 49,
          "name": "C#3",
          "ticks": 112320,
          "time": 50.869611000000006,
          "velocity": 1
        },
        {
          "duration": 0.054347874999997714,
          "durationTicks": 120,
          "midi": 43,
          "name": "G2",
          "ticks": 112320,
          "time": 50.869611000000006,
          "velocity": 0.12598425196850394
        },
        {
          "duration": 0.054347874999997714,
          "durationTicks": 120,
          "midi": 92,
          "name": "G#6",
          "ticks": 112320,
          "time": 50.869611000000006,
          "velocity": 0.7559055118110236
        },
        {
          "duration": 0.054347874999997714,
          "durationTicks": 120,
          "midi": 45,
          "name": "A2",
          "ticks": 112800,
          "time": 51.087002500000004,
          "velocity": 0.2047244094488189
        },
        {
          "duration": 0.054347874999997714,
          "durationTicks": 120,
          "midi": 92,
          "name": "G#6",
          "ticks": 112800,
          "time": 51.087002500000004,
          "velocity": 0.7559055118110236
        },
        {
          "duration": 0.05434787500000482,
          "durationTicks": 120,
          "midi": 69,
          "name": "A4",
          "ticks": 113280,
          "time": 51.304394,
          "velocity": 0.937007874015748
        },
        {
          "duration": 0.05434787500000482,
          "durationTicks": 120,
          "midi": 59,
          "name": "B3",
          "ticks": 113280,
          "time": 51.304394,
          "velocity": 0.937007874015748
        },
        {
          "duration": 0.05434787500000482,
          "durationTicks": 120,
          "midi": 84,
          "name": "C6",
          "ticks": 113280,
          "time": 51.304394,
          "velocity": 0.12598425196850394
        },
        {
          "duration": 0.05434787500000482,
          "durationTicks": 120,
          "midi": 43,
          "name": "G2",
          "ticks": 113280,
          "time": 51.304394,
          "velocity": 0.12598425196850394
        },
        {
          "duration": 0.05434787500000482,
          "durationTicks": 120,
          "midi": 92,
          "name": "G#6",
          "ticks": 113280,
          "time": 51.304394,
          "velocity": 0.7559055118110236
        },
        {
          "duration": 0.054347874999997714,
          "durationTicks": 120,
          "midi": 92,
          "name": "G#6",
          "ticks": 113520,
          "time": 51.413089750000005,
          "velocity": 0.7559055118110236
        },
        {
          "duration": 0.054347874999997714,
          "durationTicks": 120,
          "midi": 45,
          "name": "A2",
          "ticks": 113760,
          "time": 51.52178550000001,
          "velocity": 0.2047244094488189
        },
        {
          "duration": 0.054347874999997714,
          "durationTicks": 120,
          "midi": 92,
          "name": "G#6",
          "ticks": 113760,
          "time": 51.52178550000001,
          "velocity": 0.7559055118110236
        },
        {
          "duration": 0.054347874999997714,
          "durationTicks": 120,
          "midi": 92,
          "name": "G#6",
          "ticks": 114000,
          "time": 51.63048125,
          "velocity": 0.7559055118110236
        },
        {
          "duration": 0.054347874999997714,
          "durationTicks": 120,
          "midi": 59,
          "name": "B3",
          "ticks": 114240,
          "time": 51.739177000000005,
          "velocity": 0.937007874015748
        },
        {
          "duration": 0.054347874999997714,
          "durationTicks": 120,
          "midi": 49,
          "name": "C#3",
          "ticks": 114240,
          "time": 51.739177000000005,
          "velocity": 1
        },
        {
          "duration": 0.054347874999997714,
          "durationTicks": 120,
          "midi": 43,
          "name": "G2",
          "ticks": 114240,
          "time": 51.739177000000005,
          "velocity": 0.12598425196850394
        },
        {
          "duration": 0.054347874999997714,
          "durationTicks": 120,
          "midi": 92,
          "name": "G#6",
          "ticks": 114240,
          "time": 51.739177000000005,
          "velocity": 0.7559055118110236
        },
        {
          "duration": 0.054347874999997714,
          "durationTicks": 120,
          "midi": 92,
          "name": "G#6",
          "ticks": 114360,
          "time": 51.793524875,
          "velocity": 0.7559055118110236
        },
        {
          "duration": 0.05434787500000482,
          "durationTicks": 120,
          "midi": 92,
          "name": "G#6",
          "ticks": 114480,
          "time": 51.84787275,
          "velocity": 0.7559055118110236
        },
        {
          "duration": 0.054347874999997714,
          "durationTicks": 120,
          "midi": 92,
          "name": "G#6",
          "ticks": 114600,
          "time": 51.902220625000005,
          "velocity": 0.7559055118110236
        },
        {
          "duration": 0.054347874999997714,
          "durationTicks": 120,
          "midi": 45,
          "name": "A2",
          "ticks": 114720,
          "time": 51.9565685,
          "velocity": 0.2047244094488189
        },
        {
          "duration": 0.054347874999997714,
          "durationTicks": 120,
          "midi": 92,
          "name": "G#6",
          "ticks": 114720,
          "time": 51.9565685,
          "velocity": 0.7559055118110236
        },
        {
          "duration": 0.05434787500000482,
          "durationTicks": 120,
          "midi": 92,
          "name": "G#6",
          "ticks": 114840,
          "time": 52.010916375,
          "velocity": 0.7559055118110236
        },
        {
          "duration": 0.054347874999997714,
          "durationTicks": 120,
          "midi": 92,
          "name": "G#6",
          "ticks": 114960,
          "time": 52.065264250000006,
          "velocity": 0.7559055118110236
        },
        {
          "duration": 0.054347874999997714,
          "durationTicks": 120,
          "midi": 92,
          "name": "G#6",
          "ticks": 115080,
          "time": 52.119612125,
          "velocity": 0.7559055118110236
        },
        {
          "duration": 0.10869575000000253,
          "durationTicks": 240,
          "midi": 59,
          "name": "B3",
          "ticks": 115200,
          "time": 52.17396,
          "velocity": 1
        },
        {
          "duration": 0.14492766666666768,
          "durationTicks": 320,
          "midi": 49,
          "name": "C#3",
          "ticks": 115200,
          "time": 52.17396,
          "velocity": 1
        },
        {
          "duration": 0.14492766666666768,
          "durationTicks": 320,
          "midi": 49,
          "name": "C#3",
          "ticks": 115520,
          "time": 52.31888766666667,
          "velocity": 1
        },
        {
          "duration": 0.14492766666666768,
          "durationTicks": 320,
          "midi": 49,
          "name": "C#3",
          "ticks": 115840,
          "time": 52.463815333333336,
          "velocity": 1
        },
        {
          "duration": 0.10869575000000253,
          "durationTicks": 240,
          "midi": 61,
          "name": "C#4",
          "ticks": 116160,
          "time": 52.608743000000004,
          "velocity": 1
        },
        {
          "duration": 0.10869575000000253,
          "durationTicks": 240,
          "midi": 57,
          "name": "A3",
          "ticks": 116160,
          "time": 52.608743000000004,
          "velocity": 1
        },
        {
          "duration": 0.14492766666666768,
          "durationTicks": 320,
          "midi": 49,
          "name": "C#3",
          "ticks": 116160,
          "time": 52.608743000000004,
          "velocity": 1
        },
        {
          "duration": 0.14492766666666768,
          "durationTicks": 320,
          "midi": 49,
          "name": "C#3",
          "ticks": 116480,
          "time": 52.75367066666667,
          "velocity": 1
        },
        {
          "duration": 0.14492766666666768,
          "durationTicks": 320,
          "midi": 49,
          "name": "C#3",
          "ticks": 116800,
          "time": 52.89859833333334,
          "velocity": 1
        },
        {
          "duration": 0.10869574999999543,
          "durationTicks": 240,
          "midi": 52,
          "name": "E3",
          "ticks": 117120,
          "time": 53.04352600000001,
          "velocity": 1
        },
        {
          "duration": 0.10869574999999543,
          "durationTicks": 240,
          "midi": 57,
          "name": "A3",
          "ticks": 117120,
          "time": 53.04352600000001,
          "velocity": 1
        },
        {
          "duration": 0.14492766666666057,
          "durationTicks": 320,
          "midi": 50,
          "name": "D3",
          "ticks": 117120,
          "time": 53.04352600000001,
          "velocity": 1
        },
        {
          "duration": 0.10869575000000253,
          "durationTicks": 240,
          "midi": 49,
          "name": "C#3",
          "ticks": 118080,
          "time": 53.478309,
          "velocity": 1
        },
        {
          "duration": 0.10869575000000253,
          "durationTicks": 240,
          "midi": 57,
          "name": "A3",
          "ticks": 118080,
          "time": 53.478309,
          "velocity": 1
        },
        {
          "duration": 0.10869575000000253,
          "durationTicks": 240,
          "midi": 62,
          "name": "D4",
          "ticks": 118560,
          "time": 53.6957005,
          "velocity": 1
        },
        {
          "duration": 0.14492766666666057,
          "durationTicks": 320,
          "midi": 49,
          "name": "C#3",
          "ticks": 119040,
          "time": 53.913092000000006,
          "velocity": 1
        },
        {
          "duration": 0.10869574999999543,
          "durationTicks": 240,
          "midi": 59,
          "name": "B3",
          "ticks": 119040,
          "time": 53.913092000000006,
          "velocity": 1
        },
        {
          "duration": 0.10869574999999543,
          "durationTicks": 240,
          "midi": 64,
          "name": "E4",
          "ticks": 119040,
          "time": 53.913092000000006,
          "velocity": 1
        },
        {
          "duration": 0.14492766666667478,
          "durationTicks": 320,
          "midi": 49,
          "name": "C#3",
          "ticks": 119360,
          "time": 54.05801966666667,
          "velocity": 1
        },
        {
          "duration": 0.14492766666666057,
          "durationTicks": 320,
          "midi": 49,
          "name": "C#3",
          "ticks": 119680,
          "time": 54.20294733333334,
          "velocity": 1
        },
        {
          "duration": 0.14492766666666768,
          "durationTicks": 320,
          "midi": 49,
          "name": "C#3",
          "ticks": 120000,
          "time": 54.347875,
          "velocity": 1
        },
        {
          "duration": 0.10869575000000253,
          "durationTicks": 240,
          "midi": 57,
          "name": "A3",
          "ticks": 120000,
          "time": 54.347875,
          "velocity": 1
        },
        {
          "duration": 0.14492766666666768,
          "durationTicks": 320,
          "midi": 49,
          "name": "C#3",
          "ticks": 120320,
          "time": 54.49280266666667,
          "velocity": 1
        },
        {
          "duration": 0.14492766666666768,
          "durationTicks": 320,
          "midi": 49,
          "name": "C#3",
          "ticks": 120640,
          "time": 54.63773033333334,
          "velocity": 1
        },
        {
          "duration": 0.14492766666666057,
          "durationTicks": 320,
          "midi": 50,
          "name": "D3",
          "ticks": 120960,
          "time": 54.782658000000005,
          "velocity": 1
        },
        {
          "duration": 0.10869574999999543,
          "durationTicks": 240,
          "midi": 57,
          "name": "A3",
          "ticks": 120960,
          "time": 54.782658000000005,
          "velocity": 1
        },
        {
          "duration": 0.10869574999999543,
          "durationTicks": 240,
          "midi": 52,
          "name": "E3",
          "ticks": 120960,
          "time": 54.782658000000005,
          "velocity": 1
        },
        {
          "duration": 0.10869575000000253,
          "durationTicks": 240,
          "midi": 49,
          "name": "C#3",
          "ticks": 121440,
          "time": 55.0000495,
          "velocity": 1
        },
        {
          "duration": 0.10869575000000253,
          "durationTicks": 240,
          "midi": 57,
          "name": "A3",
          "ticks": 121920,
          "time": 55.217441,
          "velocity": 1
        },
        {
          "duration": 0.10869575000000253,
          "durationTicks": 240,
          "midi": 49,
          "name": "C#3",
          "ticks": 121920,
          "time": 55.217441,
          "velocity": 1
        },
        {
          "duration": 0.10869575000000253,
          "durationTicks": 240,
          "midi": 59,
          "name": "B3",
          "ticks": 122880,
          "time": 55.652224000000004,
          "velocity": 1
        },
        {
          "duration": 0.10869575000000253,
          "durationTicks": 240,
          "midi": 49,
          "name": "C#3",
          "ticks": 122880,
          "time": 55.652224000000004,
          "velocity": 1
        },
        {
          "duration": 0.10869574999999543,
          "durationTicks": 240,
          "midi": 57,
          "name": "A3",
          "ticks": 123840,
          "time": 56.08700700000001,
          "velocity": 1
        },
        {
          "duration": 0.10869575000000253,
          "durationTicks": 240,
          "midi": 57,
          "name": "A3",
          "ticks": 124800,
          "time": 56.52179,
          "velocity": 1
        },
        {
          "duration": 0.10869575000000253,
          "durationTicks": 240,
          "midi": 61,
          "name": "C#4",
          "ticks": 124800,
          "time": 56.52179,
          "velocity": 1
        },
        {
          "duration": 0.10869574999999543,
          "durationTicks": 240,
          "midi": 57,
          "name": "A3",
          "ticks": 125760,
          "time": 56.956573000000006,
          "velocity": 1
        },
        {
          "duration": 0.10869575000000253,
          "durationTicks": 240,
          "midi": 49,
          "name": "C#3",
          "ticks": 126720,
          "time": 57.391356,
          "velocity": 1
        },
        {
          "duration": 0.10869575000000253,
          "durationTicks": 240,
          "midi": 59,
          "name": "B3",
          "ticks": 126720,
          "time": 57.391356,
          "velocity": 1
        },
        {
          "duration": 0.10869575000000253,
          "durationTicks": 240,
          "midi": 57,
          "name": "A3",
          "ticks": 127680,
          "time": 57.826139000000005,
          "velocity": 1
        },
        {
          "duration": 0.10869575000000253,
          "durationTicks": 240,
          "midi": 59,
          "name": "B3",
          "ticks": 128640,
          "time": 58.260922,
          "velocity": 1
        },
        {
          "duration": 0.10869575000000253,
          "durationTicks": 240,
          "midi": 57,
          "name": "A3",
          "ticks": 128640,
          "time": 58.260922,
          "velocity": 1
        },
        {
          "duration": 0.10869575000000253,
          "durationTicks": 240,
          "midi": 59,
          "name": "B3",
          "ticks": 128880,
          "time": 58.36961775,
          "velocity": 1
        },
        {
          "duration": 0.10869574999999543,
          "durationTicks": 240,
          "midi": 59,
          "name": "B3",
          "ticks": 129120,
          "time": 58.478313500000006,
          "velocity": 1
        },
        {
          "duration": 0.10869575000000253,
          "durationTicks": 240,
          "midi": 59,
          "name": "B3",
          "ticks": 129360,
          "time": 58.58700925,
          "velocity": 1
        },
        {
          "duration": 0.054347874999997714,
          "durationTicks": 120,
          "midi": 59,
          "name": "B3",
          "ticks": 129600,
          "time": 58.695705000000004,
          "velocity": 1
        },
        {
          "duration": 0.10869575000000253,
          "durationTicks": 240,
          "midi": 57,
          "name": "A3",
          "ticks": 129600,
          "time": 58.695705000000004,
          "velocity": 1
        },
        {
          "duration": 0.05434787500000482,
          "durationTicks": 120,
          "midi": 59,
          "name": "B3",
          "ticks": 129720,
          "time": 58.750052875,
          "velocity": 1
        },
        {
          "duration": 0.054347874999997714,
          "durationTicks": 120,
          "midi": 59,
          "name": "B3",
          "ticks": 129840,
          "time": 58.804400750000006,
          "velocity": 1
        },
        {
          "duration": 0.054347874999997714,
          "durationTicks": 120,
          "midi": 59,
          "name": "B3",
          "ticks": 129960,
          "time": 58.858748625000004,
          "velocity": 1
        },
        {
          "duration": 0.05434787500000482,
          "durationTicks": 120,
          "midi": 59,
          "name": "B3",
          "ticks": 130080,
          "time": 58.9130965,
          "velocity": 1
        },
        {
          "duration": 0.054347874999997714,
          "durationTicks": 120,
          "midi": 59,
          "name": "B3",
          "ticks": 130200,
          "time": 58.96744437500001,
          "velocity": 1
        },
        {
          "duration": 0.054347874999997714,
          "durationTicks": 120,
          "midi": 59,
          "name": "B3",
          "ticks": 130320,
          "time": 59.021792250000004,
          "velocity": 1
        },
        {
          "duration": 0.05434787500000482,
          "durationTicks": 120,
          "midi": 59,
          "name": "B3",
          "ticks": 130440,
          "time": 59.076140125,
          "velocity": 1
        },
        {
          "duration": 0.054347874999997714,
          "durationTicks": 120,
          "midi": 49,
          "name": "C#3",
          "ticks": 130560,
          "time": 59.13048800000001,
          "velocity": 1
        },
        {
          "duration": 0.054347874999997714,
          "durationTicks": 120,
          "midi": 59,
          "name": "B3",
          "ticks": 130560,
          "time": 59.13048800000001,
          "velocity": 1
        },
        {
          "duration": 0.054347874999997714,
          "durationTicks": 120,
          "midi": 62,
          "name": "D4",
          "ticks": 130560,
          "time": 59.13048800000001,
          "velocity": 1
        }
      ],
      "endOfTrackTicks": 130680
    },
    {
      "channel": 0,
      "controlChanges": {},
      "pitchBends": [],
      "instrument": {
        "family": "piano",
        "number": 0,
        "name": "acoustic grand piano"
      },
      "name": "",
      "notes": [
        {
          "duration": 0.4347829999999995,
          "durationTicks": 960,
          "midi": 64,
          "name": "E4",
          "ticks": 61440,
          "time": 27.826112000000002,
          "velocity": 1
        },
        {
          "duration": 0.4347829999999995,
          "durationTicks": 960,
          "midi": 71,
          "name": "B4",
          "ticks": 61440,
          "time": 27.826112000000002,
          "velocity": 1
        },
        {
          "duration": 0.05434787500000127,
          "durationTicks": 120,
          "midi": 64,
          "name": "E4",
          "ticks": 62400,
          "time": 28.260895,
          "velocity": 1
        },
        {
          "duration": 0.05434787500000127,
          "durationTicks": 120,
          "midi": 71,
          "name": "B4",
          "ticks": 62400,
          "time": 28.260895,
          "velocity": 1
        },
        {
          "duration": 0.05434787500000127,
          "durationTicks": 120,
          "midi": 64,
          "name": "E4",
          "ticks": 63840,
          "time": 28.913069500000002,
          "velocity": 1
        },
        {
          "duration": 0.05434787500000127,
          "durationTicks": 120,
          "midi": 71,
          "name": "B4",
          "ticks": 63840,
          "time": 28.913069500000002,
          "velocity": 1
        },
        {
          "duration": 0.4347829999999995,
          "durationTicks": 960,
          "midi": 64,
          "name": "E4",
          "ticks": 64800,
          "time": 29.347852500000002,
          "velocity": 1
        },
        {
          "duration": 0.4347829999999995,
          "durationTicks": 960,
          "midi": 71,
          "name": "B4",
          "ticks": 64800,
          "time": 29.347852500000002,
          "velocity": 1
        },
        {
          "duration": 0.05434787500000127,
          "durationTicks": 120,
          "midi": 64,
          "name": "E4",
          "ticks": 65760,
          "time": 29.7826355,
          "velocity": 1
        },
        {
          "duration": 0.05434787500000127,
          "durationTicks": 120,
          "midi": 71,
          "name": "B4",
          "ticks": 65760,
          "time": 29.7826355,
          "velocity": 1
        },
        {
          "duration": 0.05434787500000127,
          "durationTicks": 120,
          "midi": 64,
          "name": "E4",
          "ticks": 67200,
          "time": 30.434810000000002,
          "velocity": 1
        },
        {
          "duration": 0.05434787500000127,
          "durationTicks": 120,
          "midi": 71,
          "name": "B4",
          "ticks": 67200,
          "time": 30.434810000000002,
          "velocity": 1
        },
        {
          "duration": 0.21739150000000151,
          "durationTicks": 480,
          "midi": 64,
          "name": "E4",
          "ticks": 68160,
          "time": 30.869593000000002,
          "velocity": 1
        },
        {
          "duration": 0.21739150000000151,
          "durationTicks": 480,
          "midi": 71,
          "name": "B4",
          "ticks": 68160,
          "time": 30.869593000000002,
          "velocity": 1
        },
        {
          "duration": 0.054347874999997714,
          "durationTicks": 120,
          "midi": 64,
          "name": "E4",
          "ticks": 68640,
          "time": 31.086984500000003,
          "velocity": 1
        },
        {
          "duration": 0.054347874999997714,
          "durationTicks": 120,
          "midi": 71,
          "name": "B4",
          "ticks": 68640,
          "time": 31.086984500000003,
          "velocity": 1
        },
        {
          "duration": 0.05434787500000127,
          "durationTicks": 120,
          "midi": 60,
          "name": "C4",
          "ticks": 69120,
          "time": 31.304376,
          "velocity": 1
        },
        {
          "duration": 0.05434787500000127,
          "durationTicks": 120,
          "midi": 66,
          "name": "F#4",
          "ticks": 69120,
          "time": 31.304376,
          "velocity": 1
        },
        {
          "duration": 0.05434787500000127,
          "durationTicks": 120,
          "midi": 60,
          "name": "C4",
          "ticks": 70080,
          "time": 31.739159,
          "velocity": 1
        },
        {
          "duration": 0.05434787500000127,
          "durationTicks": 120,
          "midi": 66,
          "name": "F#4",
          "ticks": 70080,
          "time": 31.739159,
          "velocity": 1
        },
        {
          "duration": 0.054347874999997714,
          "durationTicks": 120,
          "midi": 60,
          "name": "C4",
          "ticks": 71520,
          "time": 32.3913335,
          "velocity": 1
        },
        {
          "duration": 0.054347874999997714,
          "durationTicks": 120,
          "midi": 66,
          "name": "F#4",
          "ticks": 71520,
          "time": 32.3913335,
          "velocity": 1
        },
        {
          "duration": 0.054347874999997714,
          "durationTicks": 120,
          "midi": 60,
          "name": "C4",
          "ticks": 72480,
          "time": 32.826116500000005,
          "velocity": 1
        },
        {
          "duration": 0.054347874999997714,
          "durationTicks": 120,
          "midi": 64,
          "name": "E4",
          "ticks": 72480,
          "time": 32.826116500000005,
          "velocity": 1
        },
        {
          "duration": 0.054347874999997714,
          "durationTicks": 120,
          "midi": 60,
          "name": "C4",
          "ticks": 72960,
          "time": 33.043508,
          "velocity": 1
        },
        {
          "duration": 0.054347874999997714,
          "durationTicks": 120,
          "midi": 64,
          "name": "E4",
          "ticks": 72960,
          "time": 33.043508,
          "velocity": 1
        },
        {
          "duration": 0.05434787500000482,
          "durationTicks": 120,
          "midi": 60,
          "name": "C4",
          "ticks": 73440,
          "time": 33.2608995,
          "velocity": 1
        },
        {
          "duration": 0.05434787500000482,
          "durationTicks": 120,
          "midi": 64,
          "name": "E4",
          "ticks": 73440,
          "time": 33.2608995,
          "velocity": 1
        },
        {
          "duration": 0.054347874999997714,
          "durationTicks": 120,
          "midi": 60,
          "name": "C4",
          "ticks": 73920,
          "time": 33.478291000000006,
          "velocity": 1
        },
        {
          "duration": 0.054347874999997714,
          "durationTicks": 120,
          "midi": 64,
          "name": "E4",
          "ticks": 73920,
          "time": 33.478291000000006,
          "velocity": 1
        },
        {
          "duration": 0.054347874999997714,
          "durationTicks": 120,
          "midi": 60,
          "name": "C4",
          "ticks": 74880,
          "time": 33.913074,
          "velocity": 1
        },
        {
          "duration": 0.054347874999997714,
          "durationTicks": 120,
          "midi": 66,
          "name": "F#4",
          "ticks": 74880,
          "time": 33.913074,
          "velocity": 1
        },
        {
          "duration": 0.054347874999997714,
          "durationTicks": 120,
          "midi": 60,
          "name": "C4",
          "ticks": 75840,
          "time": 34.347857000000005,
          "velocity": 1
        },
        {
          "duration": 0.054347874999997714,
          "durationTicks": 120,
          "midi": 66,
          "name": "F#4",
          "ticks": 75840,
          "time": 34.347857000000005,
          "velocity": 1
        },
        {
          "duration": 0.05434787500000482,
          "durationTicks": 120,
          "midi": 61,
          "name": "C#4",
          "ticks": 76800,
          "time": 34.78264,
          "velocity": 1
        },
        {
          "duration": 0.05434787500000482,
          "durationTicks": 120,
          "midi": 66,
          "name": "F#4",
          "ticks": 76800,
          "time": 34.78264,
          "velocity": 1
        }
      ],
      "endOfTrackTicks": 76920
    },
    {
      "channel": 0,
      "controlChanges": {},
      "pitchBends": [],
      "instrument": {
        "family": "piano",
        "number": 0,
        "name": "acoustic grand piano"
      },
      "name": "",
      "notes": [
        {
          "duration": 0.05434787499999949,
          "durationTicks": 120,
          "midi": 64,
          "name": "E4",
          "ticks": 30720,
          "time": 13.913056000000001,
          "velocity": 1
        },
        {
          "duration": 0.05434787499999949,
          "durationTicks": 120,
          "midi": 67,
          "name": "G4",
          "ticks": 31200,
          "time": 14.1304475,
          "velocity": 1
        },
        {
          "duration": 0.05434787500000127,
          "durationTicks": 120,
          "midi": 71,
          "name": "B4",
          "ticks": 31680,
          "time": 14.347839,
          "velocity": 1
        },
        {
          "duration": 0.05434787500000127,
          "durationTicks": 120,
          "midi": 67,
          "name": "G4",
          "ticks": 32160,
          "time": 14.5652305,
          "velocity": 1
        },
        {
          "duration": 0.05434787499999949,
          "durationTicks": 120,
          "midi": 67,
          "name": "G4",
          "ticks": 33120,
          "time": 15.000013500000001,
          "velocity": 1
        },
        {
          "duration": 0.05434787499999949,
          "durationTicks": 120,
          "midi": 67,
          "name": "G4",
          "ticks": 33600,
          "time": 15.217405000000001,
          "velocity": 1
        },
        {
          "duration": 0.05434787499999949,
          "durationTicks": 120,
          "midi": 64,
          "name": "E4",
          "ticks": 34080,
          "time": 15.434796500000001,
          "velocity": 1
        },
        {
          "duration": 0.05434787500000127,
          "durationTicks": 120,
          "midi": 64,
          "name": "E4",
          "ticks": 35040,
          "time": 15.8695795,
          "velocity": 1
        },
        {
          "duration": 0.05434787500000127,
          "durationTicks": 120,
          "midi": 64,
          "name": "E4",
          "ticks": 36480,
          "time": 16.521754,
          "velocity": 1
        },
        {
          "duration": 0.054347874999997714,
          "durationTicks": 120,
          "midi": 69,
          "name": "A4",
          "ticks": 36960,
          "time": 16.739145500000003,
          "velocity": 1
        },
        {
          "duration": 0.05434787500000127,
          "durationTicks": 120,
          "midi": 72,
          "name": "C5",
          "ticks": 37440,
          "time": 16.956537,
          "velocity": 1
        },
        {
          "duration": 0.054347874999997714,
          "durationTicks": 120,
          "midi": 71,
          "name": "B4",
          "ticks": 37920,
          "time": 17.173928500000002,
          "velocity": 1
        },
        {
          "duration": 0.05434787500000127,
          "durationTicks": 120,
          "midi": 74,
          "name": "D5",
          "ticks": 38400,
          "time": 17.39132,
          "velocity": 1
        },
        {
          "duration": 0.054347874999997714,
          "durationTicks": 120,
          "midi": 72,
          "name": "C5",
          "ticks": 38880,
          "time": 17.608711500000002,
          "velocity": 1
        },
        {
          "duration": 0.05434787500000127,
          "durationTicks": 120,
          "midi": 72,
          "name": "C5",
          "ticks": 39360,
          "time": 17.826103,
          "velocity": 1
        },
        {
          "duration": 0.05434787500000127,
          "durationTicks": 120,
          "midi": 74,
          "name": "D5",
          "ticks": 39840,
          "time": 18.0434945,
          "velocity": 1
        },
        {
          "duration": 0.05434787500000127,
          "durationTicks": 120,
          "midi": 66,
          "name": "F#4",
          "ticks": 40800,
          "time": 18.4782775,
          "velocity": 1
        },
        {
          "duration": 0.05434787500000127,
          "durationTicks": 120,
          "midi": 66,
          "name": "F#4",
          "ticks": 41760,
          "time": 18.9130605,
          "velocity": 1
        },
        {
          "duration": 0.05434787500000127,
          "durationTicks": 120,
          "midi": 66,
          "name": "F#4",
          "ticks": 42720,
          "time": 19.3478435,
          "velocity": 1
        },
        {
          "duration": 0.05434787500000127,
          "durationTicks": 120,
          "midi": 69,
          "name": "A4",
          "ticks": 43200,
          "time": 19.565235,
          "velocity": 1
        },
        {
          "duration": 0.054347874999997714,
          "durationTicks": 120,
          "midi": 72,
          "name": "C5",
          "ticks": 43680,
          "time": 19.782626500000003,
          "velocity": 1
        },
        {
          "duration": 0.05434787500000127,
          "durationTicks": 120,
          "midi": 66,
          "name": "F#4",
          "ticks": 44160,
          "time": 20.000018,
          "velocity": 1
        },
        {
          "duration": 0.054347874999997714,
          "durationTicks": 120,
          "midi": 69,
          "name": "A4",
          "ticks": 44640,
          "time": 20.217409500000002,
          "velocity": 1
        },
        {
          "duration": 0.05434787500000127,
          "durationTicks": 120,
          "midi": 72,
          "name": "C5",
          "ticks": 45120,
          "time": 20.434801,
          "velocity": 1
        },
        {
          "duration": 0.05434787500000127,
          "durationTicks": 120,
          "midi": 74,
          "name": "D5",
          "ticks": 45600,
          "time": 20.6521925,
          "velocity": 1
        },
        {
          "duration": 0.054347874999997714,
          "durationTicks": 120,
          "midi": 77,
          "name": "F5",
          "ticks": 46080,
          "time": 20.869584000000003,
          "velocity": 1
        },
        {
          "duration": 0.05434787500000127,
          "durationTicks": 120,
          "midi": 74,
          "name": "D5",
          "ticks": 46560,
          "time": 21.0869755,
          "velocity": 1
        },
        {
          "duration": 0.054347874999997714,
          "durationTicks": 120,
          "midi": 77,
          "name": "F5",
          "ticks": 47040,
          "time": 21.304367000000003,
          "velocity": 1
        },
        {
          "duration": 0.05434787500000127,
          "durationTicks": 120,
          "midi": 74,
          "name": "D5",
          "ticks": 47520,
          "time": 21.5217585,
          "velocity": 1
        },
        {
          "duration": 0.05434787500000127,
          "durationTicks": 120,
          "midi": 72,
          "name": "C5",
          "ticks": 48480,
          "time": 21.9565415,
          "velocity": 1
        },
        {
          "duration": 0.054347874999997714,
          "durationTicks": 120,
          "midi": 71,
          "name": "B4",
          "ticks": 49440,
          "time": 22.391324500000003,
          "velocity": 1
        },
        {
          "duration": 0.054347874999997714,
          "durationTicks": 120,
          "midi": 69,
          "name": "A4",
          "ticks": 50400,
          "time": 22.826107500000003,
          "velocity": 1
        },
        {
          "duration": 0.05434787500000127,
          "durationTicks": 120,
          "midi": 67,
          "name": "G4",
          "ticks": 51360,
          "time": 23.260890500000002,
          "velocity": 1
        },
        {
          "duration": 0.05434787500000127,
          "durationTicks": 120,
          "midi": 65,
          "name": "F4",
          "ticks": 51600,
          "time": 23.36958625,
          "velocity": 1
        },
        {
          "duration": 0.05434787500000127,
          "durationTicks": 120,
          "midi": 67,
          "name": "G4",
          "ticks": 51840,
          "time": 23.478282,
          "velocity": 1
        },
        {
          "duration": 0.054347874999997714,
          "durationTicks": 120,
          "midi": 65,
          "name": "F4",
          "ticks": 52800,
          "time": 23.913065000000003,
          "velocity": 1
        },
        {
          "duration": 0.054347874999997714,
          "durationTicks": 120,
          "midi": 76,
          "name": "E5",
          "ticks": 53760,
          "time": 24.347848000000003,
          "velocity": 1
        },
        {
          "duration": 0.05434787500000127,
          "durationTicks": 120,
          "midi": 69,
          "name": "A4",
          "ticks": 54240,
          "time": 24.5652395,
          "velocity": 1
        },
        {
          "duration": 0.05434787500000127,
          "durationTicks": 120,
          "midi": 72,
          "name": "C5",
          "ticks": 54720,
          "time": 24.782631000000002,
          "velocity": 1
        },
        {
          "duration": 0.05434787500000127,
          "durationTicks": 120,
          "midi": 76,
          "name": "E5",
          "ticks": 55200,
          "time": 25.0000225,
          "velocity": 1
        },
        {
          "duration": 0.054347874999997714,
          "durationTicks": 120,
          "midi": 72,
          "name": "C5",
          "ticks": 56160,
          "time": 25.434805500000003,
          "velocity": 1
        },
        {
          "duration": 0.05434787500000127,
          "durationTicks": 120,
          "midi": 76,
          "name": "E5",
          "ticks": 56640,
          "time": 25.652197,
          "velocity": 1
        },
        {
          "duration": 0.054347874999997714,
          "durationTicks": 120,
          "midi": 71,
          "name": "B4",
          "ticks": 57120,
          "time": 25.869588500000003,
          "velocity": 1
        },
        {
          "duration": 0.05434787500000127,
          "durationTicks": 120,
          "midi": 71,
          "name": "B4",
          "ticks": 58080,
          "time": 26.304371500000002,
          "velocity": 1
        },
        {
          "duration": 0.05434787500000127,
          "durationTicks": 120,
          "midi": 76,
          "name": "E5",
          "ticks": 59040,
          "time": 26.7391545,
          "velocity": 1
        },
        {
          "duration": 0.054347874999997714,
          "durationTicks": 120,
          "midi": 64,
          "name": "E4",
          "ticks": 59520,
          "time": 26.956546000000003,
          "velocity": 1
        },
        {
          "duration": 0.054347874999997714,
          "durationTicks": 120,
          "midi": 64,
          "name": "E4",
          "ticks": 60480,
          "time": 27.391329000000002,
          "velocity": 1
        },
        {
          "duration": 0.05434787500000127,
          "durationTicks": 120,
          "midi": 64,
          "name": "E4",
          "ticks": 61440,
          "time": 27.826112000000002,
          "velocity": 1
        },
        {
          "duration": 0.054347874999997714,
          "durationTicks": 120,
          "midi": 76,
          "name": "E5",
          "ticks": 61560,
          "time": 27.880459875000003,
          "velocity": 0.6614173228346457
        },
        {
          "duration": 0.054347874999997714,
          "durationTicks": 120,
          "midi": 67,
          "name": "G4",
          "ticks": 61920,
          "time": 28.043503500000003,
          "velocity": 1
        },
        {
          "duration": 0.05434787500000127,
          "durationTicks": 120,
          "midi": 79,
          "name": "G5",
          "ticks": 62040,
          "time": 28.097851375,
          "velocity": 0.6614173228346457
        },
        {
          "duration": 0.05434787500000127,
          "durationTicks": 120,
          "midi": 71,
          "name": "B4",
          "ticks": 62400,
          "time": 28.260895,
          "velocity": 1
        },
        {
          "duration": 0.054347874999997714,
          "durationTicks": 120,
          "midi": 83,
          "name": "B5",
          "ticks": 62520,
          "time": 28.315242875000003,
          "velocity": 0.6614173228346457
        },
        {
          "duration": 0.054347874999997714,
          "durationTicks": 120,
          "midi": 67,
          "name": "G4",
          "ticks": 62880,
          "time": 28.478286500000003,
          "velocity": 1
        },
        {
          "duration": 0.05434787500000127,
          "durationTicks": 120,
          "midi": 79,
          "name": "G5",
          "ticks": 63000,
          "time": 28.532634375,
          "velocity": 0.6614173228346457
        },
        {
          "duration": 0.05434787500000127,
          "durationTicks": 120,
          "midi": 67,
          "name": "G4",
          "ticks": 63840,
          "time": 28.913069500000002,
          "velocity": 1
        },
        {
          "duration": 0.054347874999997714,
          "durationTicks": 120,
          "midi": 79,
          "name": "G5",
          "ticks": 63960,
          "time": 28.967417375000004,
          "velocity": 0.6614173228346457
        },
        {
          "duration": 0.05434787500000127,
          "durationTicks": 120,
          "midi": 67,
          "name": "G4",
          "ticks": 64320,
          "time": 29.130461,
          "velocity": 1
        },
        {
          "duration": 0.05434787500000127,
          "durationTicks": 120,
          "midi": 79,
          "name": "G5",
          "ticks": 64440,
          "time": 29.184808875,
          "velocity": 0.6614173228346457
        },
        {
          "duration": 0.05434787500000127,
          "durationTicks": 120,
          "midi": 64,
          "name": "E4",
          "ticks": 64800,
          "time": 29.347852500000002,
          "velocity": 1
        },
        {
          "duration": 0.054347874999997714,
          "durationTicks": 120,
          "midi": 76,
          "name": "E5",
          "ticks": 64920,
          "time": 29.402200375000003,
          "velocity": 0.6614173228346457
        },
        {
          "duration": 0.05434787500000127,
          "durationTicks": 120,
          "midi": 64,
          "name": "E4",
          "ticks": 65760,
          "time": 29.7826355,
          "velocity": 1
        },
        {
          "duration": 0.054347874999997714,
          "durationTicks": 120,
          "midi": 76,
          "name": "E5",
          "ticks": 65880,
          "time": 29.836983375000003,
          "velocity": 0.6614173228346457
        },
        {
          "duration": 0.05434787500000127,
          "durationTicks": 120,
          "midi": 64,
          "name": "E4",
          "ticks": 67200,
          "time": 30.434810000000002,
          "velocity": 1
        },
        {
          "duration": 0.054347874999997714,
          "durationTicks": 120,
          "midi": 76,
          "name": "E5",
          "ticks": 67320,
          "time": 30.489157875000004,
          "velocity": 0.6614173228346457
        },
        {
          "duration": 0.054347874999997714,
          "durationTicks": 120,
          "midi": 69,
          "name": "A4",
          "ticks": 67680,
          "time": 30.652201500000004,
          "velocity": 1
        },
        {
          "duration": 0.05434787500000127,
          "durationTicks": 120,
          "midi": 81,
          "name": "A5",
          "ticks": 67800,
          "time": 30.706549375,
          "velocity": 0.6614173228346457
        },
        {
          "duration": 0.05434787500000127,
          "durationTicks": 120,
          "midi": 72,
          "name": "C5",
          "ticks": 68160,
          "time": 30.869593000000002,
          "velocity": 1
        },
        {
          "duration": 0.054347874999997714,
          "durationTicks": 120,
          "midi": 84,
          "name": "C6",
          "ticks": 68280,
          "time": 30.923940875000003,
          "velocity": 0.6614173228346457
        },
        {
          "duration": 0.054347874999997714,
          "durationTicks": 120,
          "midi": 71,
          "name": "B4",
          "ticks": 68640,
          "time": 31.086984500000003,
          "velocity": 1
        },
        {
          "duration": 0.05434787500000127,
          "durationTicks": 120,
          "midi": 83,
          "name": "B5",
          "ticks": 68760,
          "time": 31.141332375,
          "velocity": 0.6614173228346457
        },
        {
          "duration": 0.05434787500000127,
          "durationTicks": 120,
          "midi": 74,
          "name": "D5",
          "ticks": 69120,
          "time": 31.304376,
          "velocity": 1
        },
        {
          "duration": 0.05434787500000127,
          "durationTicks": 120,
          "midi": 86,
          "name": "D6",
          "ticks": 69240,
          "time": 31.358723875000003,
          "velocity": 0.6614173228346457
        },
        {
          "duration": 0.054347874999997714,
          "durationTicks": 120,
          "midi": 72,
          "name": "C5",
          "ticks": 69600,
          "time": 31.521767500000003,
          "velocity": 1
        },
        {
          "duration": 0.05434787500000127,
          "durationTicks": 120,
          "midi": 84,
          "name": "C6",
          "ticks": 69720,
          "time": 31.576115375,
          "velocity": 0.6614173228346457
        },
        {
          "duration": 0.05434787500000127,
          "durationTicks": 120,
          "midi": 72,
          "name": "C5",
          "ticks": 70080,
          "time": 31.739159,
          "velocity": 1
        },
        {
          "duration": 0.05434787500000127,
          "durationTicks": 120,
          "midi": 84,
          "name": "C6",
          "ticks": 70200,
          "time": 31.793506875000002,
          "velocity": 0.6614173228346457
        },
        {
          "duration": 0.05434787500000127,
          "durationTicks": 120,
          "midi": 74,
          "name": "D5",
          "ticks": 70560,
          "time": 31.956550500000002,
          "velocity": 1
        },
        {
          "duration": 0.054347874999997714,
          "durationTicks": 120,
          "midi": 86,
          "name": "D6",
          "ticks": 70680,
          "time": 32.010898375000004,
          "velocity": 0.6614173228346457
        },
        {
          "duration": 0.054347874999997714,
          "durationTicks": 120,
          "midi": 66,
          "name": "F#4",
          "ticks": 71520,
          "time": 32.3913335,
          "velocity": 1
        },
        {
          "duration": 0.05434787500000482,
          "durationTicks": 120,
          "midi": 78,
          "name": "F#5",
          "ticks": 71640,
          "time": 32.445681375,
          "velocity": 0.6614173228346457
        },
        {
          "duration": 0.054347874999997714,
          "durationTicks": 120,
          "midi": 66,
          "name": "F#4",
          "ticks": 72480,
          "time": 32.826116500000005,
          "velocity": 1
        },
        {
          "duration": 0.054347874999997714,
          "durationTicks": 120,
          "midi": 78,
          "name": "F#5",
          "ticks": 72600,
          "time": 32.880464375,
          "velocity": 0.6614173228346457
        },
        {
          "duration": 0.05434787500000482,
          "durationTicks": 120,
          "midi": 66,
          "name": "F#4",
          "ticks": 73440,
          "time": 33.2608995,
          "velocity": 1
        },
        {
          "duration": 0.054347874999997714,
          "durationTicks": 120,
          "midi": 78,
          "name": "F#5",
          "ticks": 73560,
          "time": 33.315247375000006,
          "velocity": 0.6614173228346457
        },
        {
          "duration": 0.054347874999997714,
          "durationTicks": 120,
          "midi": 69,
          "name": "A4",
          "ticks": 73920,
          "time": 33.478291000000006,
          "velocity": 1
        },
        {
          "duration": 0.054347874999997714,
          "durationTicks": 120,
          "midi": 81,
          "name": "A5",
          "ticks": 74040,
          "time": 33.532638875,
          "velocity": 0.6614173228346457
        },
        {
          "duration": 0.054347874999997714,
          "durationTicks": 120,
          "midi": 72,
          "name": "C5",
          "ticks": 74400,
          "time": 33.695682500000004,
          "velocity": 1
        },
        {
          "duration": 0.054347874999997714,
          "durationTicks": 120,
          "midi": 84,
          "name": "C6",
          "ticks": 74520,
          "time": 33.750030375,
          "velocity": 0.6614173228346457
        },
        {
          "duration": 0.054347874999997714,
          "durationTicks": 120,
          "midi": 66,
          "name": "F#4",
          "ticks": 74880,
          "time": 33.913074,
          "velocity": 1
        },
        {
          "duration": 0.05434787500000482,
          "durationTicks": 120,
          "midi": 78,
          "name": "F#5",
          "ticks": 75000,
          "time": 33.967421875,
          "velocity": 0.6614173228346457
        },
        {
          "duration": 0.05434787500000482,
          "durationTicks": 120,
          "midi": 69,
          "name": "A4",
          "ticks": 75360,
          "time": 34.1304655,
          "velocity": 1
        },
        {
          "duration": 0.054347874999997714,
          "durationTicks": 120,
          "midi": 81,
          "name": "A5",
          "ticks": 75480,
          "time": 34.184813375000004,
          "velocity": 0.6614173228346457
        },
        {
          "duration": 0.054347874999997714,
          "durationTicks": 120,
          "midi": 72,
          "name": "C5",
          "ticks": 75840,
          "time": 34.347857000000005,
          "velocity": 1
        },
        {
          "duration": 0.054347874999997714,
          "durationTicks": 120,
          "midi": 84,
          "name": "C6",
          "ticks": 75960,
          "time": 34.402204875,
          "velocity": 0.6614173228346457
        },
        {
          "duration": 0.054347874999997714,
          "durationTicks": 120,
          "midi": 74,
          "name": "D5",
          "ticks": 76320,
          "time": 34.5652485,
          "velocity": 1
        },
        {
          "duration": 0.05434787500000482,
          "durationTicks": 120,
          "midi": 86,
          "name": "D6",
          "ticks": 76440,
          "time": 34.619596375,
          "velocity": 0.6614173228346457
        },
        {
          "duration": 0.054347874999997714,
          "durationTicks": 120,
          "midi": 66,
          "name": "F#4",
          "ticks": 99840,
          "time": 45.217432,
          "velocity": 1
        },
        {
          "duration": 0.05434787500000482,
          "durationTicks": 120,
          "midi": 69,
          "name": "A4",
          "ticks": 100320,
          "time": 45.4348235,
          "velocity": 1
        },
        {
          "duration": 0.054347874999997714,
          "durationTicks": 120,
          "midi": 73,
          "name": "C#5",
          "ticks": 100800,
          "time": 45.652215000000005,
          "velocity": 1
        },
        {
          "duration": 0.054347874999997714,
          "durationTicks": 120,
          "midi": 69,
          "name": "A4",
          "ticks": 101280,
          "time": 45.8696065,
          "velocity": 1
        },
        {
          "duration": 0.054347874999997714,
          "durationTicks": 120,
          "midi": 69,
          "name": "A4",
          "ticks": 102240,
          "time": 46.304389500000006,
          "velocity": 1
        },
        {
          "duration": 0.054347874999997714,
          "durationTicks": 120,
          "midi": 69,
          "name": "A4",
          "ticks": 102720,
          "time": 46.521781000000004,
          "velocity": 1
        },
        {
          "duration": 0.054347874999997714,
          "durationTicks": 120,
          "midi": 66,
          "name": "F#4",
          "ticks": 103200,
          "time": 46.7391725,
          "velocity": 1
        },
        {
          "duration": 0.054347874999997714,
          "durationTicks": 120,
          "midi": 66,
          "name": "F#4",
          "ticks": 104160,
          "time": 47.173955500000005,
          "velocity": 1
        },
        {
          "duration": 0.054347874999997714,
          "durationTicks": 120,
          "midi": 66,
          "name": "F#4",
          "ticks": 105600,
          "time": 47.826130000000006,
          "velocity": 1
        },
        {
          "duration": 0.054347874999997714,
          "durationTicks": 120,
          "midi": 71,
          "name": "B4",
          "ticks": 106080,
          "time": 48.043521500000004,
          "velocity": 1
        },
        {
          "duration": 0.054347874999997714,
          "durationTicks": 120,
          "midi": 74,
          "name": "D5",
          "ticks": 106560,
          "time": 48.260913,
          "velocity": 1
        },
        {
          "duration": 0.05434787500000482,
          "durationTicks": 120,
          "midi": 73,
          "name": "C#5",
          "ticks": 107040,
          "time": 48.4783045,
          "velocity": 1
        },
        {
          "duration": 0.054347874999997714,
          "durationTicks": 120,
          "midi": 78,
          "name": "F#5",
          "ticks": 122880,
          "time": 55.652224000000004,
          "velocity": 1
        },
        {
          "duration": 0.05434787500000482,
          "durationTicks": 120,
          "midi": 71,
          "name": "B4",
          "ticks": 123360,
          "time": 55.8696155,
          "velocity": 1
        },
        {
          "duration": 0.054347874999997714,
          "durationTicks": 120,
          "midi": 74,
          "name": "D5",
          "ticks": 123840,
          "time": 56.08700700000001,
          "velocity": 1
        },
        {
          "duration": 0.054347874999997714,
          "durationTicks": 120,
          "midi": 78,
          "name": "F#5",
          "ticks": 124320,
          "time": 56.304398500000005,
          "velocity": 1
        },
        {
          "duration": 0.05434787500000482,
          "durationTicks": 120,
          "midi": 74,
          "name": "D5",
          "ticks": 125280,
          "time": 56.7391815,
          "velocity": 1
        },
        {
          "duration": 0.054347874999997714,
          "durationTicks": 120,
          "midi": 78,
          "name": "F#5",
          "ticks": 125760,
          "time": 56.956573000000006,
          "velocity": 1
        },
        {
          "duration": 0.054347874999997714,
          "durationTicks": 120,
          "midi": 73,
          "name": "C#5",
          "ticks": 126240,
          "time": 57.173964500000004,
          "velocity": 1
        },
        {
          "duration": 0.054347874999997714,
          "durationTicks": 120,
          "midi": 73,
          "name": "C#5",
          "ticks": 127200,
          "time": 57.60874750000001,
          "velocity": 1
        },
        {
          "duration": 0.05434787500000482,
          "durationTicks": 120,
          "midi": 78,
          "name": "F#5",
          "ticks": 128160,
          "time": 58.0435305,
          "velocity": 1
        },
        {
          "duration": 0.05434787500000482,
          "durationTicks": 120,
          "midi": 66,
          "name": "F#4",
          "ticks": 128640,
          "time": 58.260922,
          "velocity": 1
        },
        {
          "duration": 0.054347874999997714,
          "durationTicks": 120,
          "midi": 66,
          "name": "F#4",
          "ticks": 129600,
          "time": 58.695705000000004,
          "velocity": 1
        }
      ],
      "endOfTrackTicks": 129720
    },
    {
      "channel": 0,
      "controlChanges": {},
      "pitchBends": [],
      "instrument": {
        "family": "piano",
        "number": 0,
        "name": "acoustic grand piano"
      },
      "name": "",
      "notes": [
        {
          "duration": 0.05434787499999949,
          "durationTicks": 120,
          "midi": 64,
          "name": "E4",
          "ticks": 30720,
          "time": 13.913056000000001,
          "velocity": 1
        },
        {
          "duration": 0.05434787499999949,
          "durationTicks": 120,
          "midi": 67,
          "name": "G4",
          "ticks": 31200,
          "time": 14.1304475,
          "velocity": 1
        },
        {
          "duration": 0.05434787500000127,
          "durationTicks": 120,
          "midi": 71,
          "name": "B4",
          "ticks": 31680,
          "time": 14.347839,
          "velocity": 1
        },
        {
          "duration": 0.05434787500000127,
          "durationTicks": 120,
          "midi": 67,
          "name": "G4",
          "ticks": 32160,
          "time": 14.5652305,
          "velocity": 1
        },
        {
          "duration": 0.05434787499999949,
          "durationTicks": 120,
          "midi": 67,
          "name": "G4",
          "ticks": 33120,
          "time": 15.000013500000001,
          "velocity": 1
        },
        {
          "duration": 0.05434787499999949,
          "durationTicks": 120,
          "midi": 67,
          "name": "G4",
          "ticks": 33600,
          "time": 15.217405000000001,
          "velocity": 1
        },
        {
          "duration": 0.05434787499999949,
          "durationTicks": 120,
          "midi": 64,
          "name": "E4",
          "ticks": 34080,
          "time": 15.434796500000001,
          "velocity": 1
        },
        {
          "duration": 0.05434787500000127,
          "durationTicks": 120,
          "midi": 64,
          "name": "E4",
          "ticks": 35040,
          "time": 15.8695795,
          "velocity": 1
        },
        {
          "duration": 0.05434787500000127,
          "durationTicks": 120,
          "midi": 64,
          "name": "E4",
          "ticks": 36480,
          "time": 16.521754,
          "velocity": 1
        },
        {
          "duration": 0.054347874999997714,
          "durationTicks": 120,
          "midi": 69,
          "name": "A4",
          "ticks": 36960,
          "time": 16.739145500000003,
          "velocity": 1
        },
        {
          "duration": 0.05434787500000127,
          "durationTicks": 120,
          "midi": 72,
          "name": "C5",
          "ticks": 37440,
          "time": 16.956537,
          "velocity": 1
        },
        {
          "duration": 0.054347874999997714,
          "durationTicks": 120,
          "midi": 71,
          "name": "B4",
          "ticks": 37920,
          "time": 17.173928500000002,
          "velocity": 1
        },
        {
          "duration": 0.05434787500000127,
          "durationTicks": 120,
          "midi": 74,
          "name": "D5",
          "ticks": 38400,
          "time": 17.39132,
          "velocity": 1
        },
        {
          "duration": 0.054347874999997714,
          "durationTicks": 120,
          "midi": 72,
          "name": "C5",
          "ticks": 38880,
          "time": 17.608711500000002,
          "velocity": 1
        },
        {
          "duration": 0.05434787500000127,
          "durationTicks": 120,
          "midi": 72,
          "name": "C5",
          "ticks": 39360,
          "time": 17.826103,
          "velocity": 1
        },
        {
          "duration": 0.05434787500000127,
          "durationTicks": 120,
          "midi": 74,
          "name": "D5",
          "ticks": 39840,
          "time": 18.0434945,
          "velocity": 1
        },
        {
          "duration": 0.05434787500000127,
          "durationTicks": 120,
          "midi": 66,
          "name": "F#4",
          "ticks": 40800,
          "time": 18.4782775,
          "velocity": 1
        },
        {
          "duration": 0.05434787500000127,
          "durationTicks": 120,
          "midi": 66,
          "name": "F#4",
          "ticks": 41760,
          "time": 18.9130605,
          "velocity": 1
        },
        {
          "duration": 0.05434787500000127,
          "durationTicks": 120,
          "midi": 66,
          "name": "F#4",
          "ticks": 42720,
          "time": 19.3478435,
          "velocity": 1
        },
        {
          "duration": 0.05434787500000127,
          "durationTicks": 120,
          "midi": 69,
          "name": "A4",
          "ticks": 43200,
          "time": 19.565235,
          "velocity": 1
        },
        {
          "duration": 0.054347874999997714,
          "durationTicks": 120,
          "midi": 72,
          "name": "C5",
          "ticks": 43680,
          "time": 19.782626500000003,
          "velocity": 1
        },
        {
          "duration": 0.05434787500000127,
          "durationTicks": 120,
          "midi": 66,
          "name": "F#4",
          "ticks": 44160,
          "time": 20.000018,
          "velocity": 1
        },
        {
          "duration": 0.054347874999997714,
          "durationTicks": 120,
          "midi": 69,
          "name": "A4",
          "ticks": 44640,
          "time": 20.217409500000002,
          "velocity": 1
        },
        {
          "duration": 0.05434787500000127,
          "durationTicks": 120,
          "midi": 72,
          "name": "C5",
          "ticks": 45120,
          "time": 20.434801,
          "velocity": 1
        },
        {
          "duration": 0.05434787500000127,
          "durationTicks": 120,
          "midi": 74,
          "name": "D5",
          "ticks": 45600,
          "time": 20.6521925,
          "velocity": 1
        },
        {
          "duration": 0.054347874999997714,
          "durationTicks": 120,
          "midi": 77,
          "name": "F5",
          "ticks": 46080,
          "time": 20.869584000000003,
          "velocity": 1
        },
        {
          "duration": 0.05434787500000127,
          "durationTicks": 120,
          "midi": 74,
          "name": "D5",
          "ticks": 46560,
          "time": 21.0869755,
          "velocity": 1
        },
        {
          "duration": 0.054347874999997714,
          "durationTicks": 120,
          "midi": 77,
          "name": "F5",
          "ticks": 47040,
          "time": 21.304367000000003,
          "velocity": 1
        },
        {
          "duration": 0.05434787500000127,
          "durationTicks": 120,
          "midi": 74,
          "name": "D5",
          "ticks": 47520,
          "time": 21.5217585,
          "velocity": 1
        },
        {
          "duration": 0.05434787500000127,
          "durationTicks": 120,
          "midi": 72,
          "name": "C5",
          "ticks": 48480,
          "time": 21.9565415,
          "velocity": 1
        },
        {
          "duration": 0.054347874999997714,
          "durationTicks": 120,
          "midi": 71,
          "name": "B4",
          "ticks": 49440,
          "time": 22.391324500000003,
          "velocity": 1
        },
        {
          "duration": 0.054347874999997714,
          "durationTicks": 120,
          "midi": 69,
          "name": "A4",
          "ticks": 50400,
          "time": 22.826107500000003,
          "velocity": 1
        },
        {
          "duration": 0.05434787500000127,
          "durationTicks": 120,
          "midi": 67,
          "name": "G4",
          "ticks": 51360,
          "time": 23.260890500000002,
          "velocity": 1
        },
        {
          "duration": 0.05434787500000127,
          "durationTicks": 120,
          "midi": 65,
          "name": "F4",
          "ticks": 51600,
          "time": 23.36958625,
          "velocity": 1
        },
        {
          "duration": 0.05434787500000127,
          "durationTicks": 120,
          "midi": 67,
          "name": "G4",
          "ticks": 51840,
          "time": 23.478282,
          "velocity": 1
        },
        {
          "duration": 0.054347874999997714,
          "durationTicks": 120,
          "midi": 65,
          "name": "F4",
          "ticks": 52800,
          "time": 23.913065000000003,
          "velocity": 1
        },
        {
          "duration": 0.054347874999997714,
          "durationTicks": 120,
          "midi": 76,
          "name": "E5",
          "ticks": 53760,
          "time": 24.347848000000003,
          "velocity": 1
        },
        {
          "duration": 0.05434787500000127,
          "durationTicks": 120,
          "midi": 69,
          "name": "A4",
          "ticks": 54240,
          "time": 24.5652395,
          "velocity": 1
        },
        {
          "duration": 0.05434787500000127,
          "durationTicks": 120,
          "midi": 72,
          "name": "C5",
          "ticks": 54720,
          "time": 24.782631000000002,
          "velocity": 1
        },
        {
          "duration": 0.05434787500000127,
          "durationTicks": 120,
          "midi": 76,
          "name": "E5",
          "ticks": 55200,
          "time": 25.0000225,
          "velocity": 1
        },
        {
          "duration": 0.054347874999997714,
          "durationTicks": 120,
          "midi": 72,
          "name": "C5",
          "ticks": 56160,
          "time": 25.434805500000003,
          "velocity": 1
        },
        {
          "duration": 0.05434787500000127,
          "durationTicks": 120,
          "midi": 76,
          "name": "E5",
          "ticks": 56640,
          "time": 25.652197,
          "velocity": 1
        },
        {
          "duration": 0.054347874999997714,
          "durationTicks": 120,
          "midi": 71,
          "name": "B4",
          "ticks": 57120,
          "time": 25.869588500000003,
          "velocity": 1
        },
        {
          "duration": 0.05434787500000127,
          "durationTicks": 120,
          "midi": 71,
          "name": "B4",
          "ticks": 58080,
          "time": 26.304371500000002,
          "velocity": 1
        },
        {
          "duration": 0.05434787500000127,
          "durationTicks": 120,
          "midi": 76,
          "name": "E5",
          "ticks": 59040,
          "time": 26.7391545,
          "velocity": 1
        },
        {
          "duration": 0.054347874999997714,
          "durationTicks": 120,
          "midi": 64,
          "name": "E4",
          "ticks": 59520,
          "time": 26.956546000000003,
          "velocity": 1
        },
        {
          "duration": 0.054347874999997714,
          "durationTicks": 120,
          "midi": 64,
          "name": "E4",
          "ticks": 60480,
          "time": 27.391329000000002,
          "velocity": 1
        },
        {
          "duration": 0.05434787500000127,
          "durationTicks": 120,
          "midi": 64,
          "name": "E4",
          "ticks": 61440,
          "time": 27.826112000000002,
          "velocity": 1
        },
        {
          "duration": 0.054347874999997714,
          "durationTicks": 120,
          "midi": 76,
          "name": "E5",
          "ticks": 61560,
          "time": 27.880459875000003,
          "velocity": 0.49606299212598426
        },
        {
          "duration": 0.054347874999997714,
          "durationTicks": 120,
          "midi": 67,
          "name": "G4",
          "ticks": 61920,
          "time": 28.043503500000003,
          "velocity": 1
        },
        {
          "duration": 0.05434787500000127,
          "durationTicks": 120,
          "midi": 79,
          "name": "G5",
          "ticks": 62040,
          "time": 28.097851375,
          "velocity": 0.49606299212598426
        },
        {
          "duration": 0.05434787500000127,
          "durationTicks": 120,
          "midi": 71,
          "name": "B4",
          "ticks": 62400,
          "time": 28.260895,
          "velocity": 1
        },
        {
          "duration": 0.054347874999997714,
          "durationTicks": 120,
          "midi": 83,
          "name": "B5",
          "ticks": 62520,
          "time": 28.315242875000003,
          "velocity": 0.49606299212598426
        },
        {
          "duration": 0.054347874999997714,
          "durationTicks": 120,
          "midi": 67,
          "name": "G4",
          "ticks": 62880,
          "time": 28.478286500000003,
          "velocity": 1
        },
        {
          "duration": 0.05434787500000127,
          "durationTicks": 120,
          "midi": 79,
          "name": "G5",
          "ticks": 63000,
          "time": 28.532634375,
          "velocity": 0.49606299212598426
        },
        {
          "duration": 0.05434787500000127,
          "durationTicks": 120,
          "midi": 67,
          "name": "G4",
          "ticks": 63840,
          "time": 28.913069500000002,
          "velocity": 1
        },
        {
          "duration": 0.054347874999997714,
          "durationTicks": 120,
          "midi": 79,
          "name": "G5",
          "ticks": 63960,
          "time": 28.967417375000004,
          "velocity": 0.49606299212598426
        },
        {
          "duration": 0.05434787500000127,
          "durationTicks": 120,
          "midi": 67,
          "name": "G4",
          "ticks": 64320,
          "time": 29.130461,
          "velocity": 1
        },
        {
          "duration": 0.05434787500000127,
          "durationTicks": 120,
          "midi": 79,
          "name": "G5",
          "ticks": 64440,
          "time": 29.184808875,
          "velocity": 0.49606299212598426
        },
        {
          "duration": 0.05434787500000127,
          "durationTicks": 120,
          "midi": 64,
          "name": "E4",
          "ticks": 64800,
          "time": 29.347852500000002,
          "velocity": 1
        },
        {
          "duration": 0.054347874999997714,
          "durationTicks": 120,
          "midi": 76,
          "name": "E5",
          "ticks": 64920,
          "time": 29.402200375000003,
          "velocity": 0.49606299212598426
        },
        {
          "duration": 0.05434787500000127,
          "durationTicks": 120,
          "midi": 64,
          "name": "E4",
          "ticks": 65760,
          "time": 29.7826355,
          "velocity": 1
        },
        {
          "duration": 0.054347874999997714,
          "durationTicks": 120,
          "midi": 76,
          "name": "E5",
          "ticks": 65880,
          "time": 29.836983375000003,
          "velocity": 0.49606299212598426
        },
        {
          "duration": 0.05434787500000127,
          "durationTicks": 120,
          "midi": 64,
          "name": "E4",
          "ticks": 67200,
          "time": 30.434810000000002,
          "velocity": 1
        },
        {
          "duration": 0.054347874999997714,
          "durationTicks": 120,
          "midi": 76,
          "name": "E5",
          "ticks": 67320,
          "time": 30.489157875000004,
          "velocity": 0.49606299212598426
        },
        {
          "duration": 0.054347874999997714,
          "durationTicks": 120,
          "midi": 69,
          "name": "A4",
          "ticks": 67680,
          "time": 30.652201500000004,
          "velocity": 1
        },
        {
          "duration": 0.05434787500000127,
          "durationTicks": 120,
          "midi": 81,
          "name": "A5",
          "ticks": 67800,
          "time": 30.706549375,
          "velocity": 0.49606299212598426
        },
        {
          "duration": 0.05434787500000127,
          "durationTicks": 120,
          "midi": 72,
          "name": "C5",
          "ticks": 68160,
          "time": 30.869593000000002,
          "velocity": 1
        },
        {
          "duration": 0.054347874999997714,
          "durationTicks": 120,
          "midi": 84,
          "name": "C6",
          "ticks": 68280,
          "time": 30.923940875000003,
          "velocity": 0.49606299212598426
        },
        {
          "duration": 0.054347874999997714,
          "durationTicks": 120,
          "midi": 71,
          "name": "B4",
          "ticks": 68640,
          "time": 31.086984500000003,
          "velocity": 1
        },
        {
          "duration": 0.05434787500000127,
          "durationTicks": 120,
          "midi": 83,
          "name": "B5",
          "ticks": 68760,
          "time": 31.141332375,
          "velocity": 0.49606299212598426
        },
        {
          "duration": 0.05434787500000127,
          "durationTicks": 120,
          "midi": 74,
          "name": "D5",
          "ticks": 69120,
          "time": 31.304376,
          "velocity": 1
        },
        {
          "duration": 0.05434787500000127,
          "durationTicks": 120,
          "midi": 86,
          "name": "D6",
          "ticks": 69240,
          "time": 31.358723875000003,
          "velocity": 0.49606299212598426
        },
        {
          "duration": 0.054347874999997714,
          "durationTicks": 120,
          "midi": 72,
          "name": "C5",
          "ticks": 69600,
          "time": 31.521767500000003,
          "velocity": 1
        },
        {
          "duration": 0.05434787500000127,
          "durationTicks": 120,
          "midi": 84,
          "name": "C6",
          "ticks": 69720,
          "time": 31.576115375,
          "velocity": 0.49606299212598426
        },
        {
          "duration": 0.05434787500000127,
          "durationTicks": 120,
          "midi": 72,
          "name": "C5",
          "ticks": 70080,
          "time": 31.739159,
          "velocity": 1
        },
        {
          "duration": 0.05434787500000127,
          "durationTicks": 120,
          "midi": 84,
          "name": "C6",
          "ticks": 70200,
          "time": 31.793506875000002,
          "velocity": 0.49606299212598426
        },
        {
          "duration": 0.05434787500000127,
          "durationTicks": 120,
          "midi": 74,
          "name": "D5",
          "ticks": 70560,
          "time": 31.956550500000002,
          "velocity": 1
        },
        {
          "duration": 0.054347874999997714,
          "durationTicks": 120,
          "midi": 86,
          "name": "D6",
          "ticks": 70680,
          "time": 32.010898375000004,
          "velocity": 0.49606299212598426
        },
        {
          "duration": 0.054347874999997714,
          "durationTicks": 120,
          "midi": 66,
          "name": "F#4",
          "ticks": 71520,
          "time": 32.3913335,
          "velocity": 1
        },
        {
          "duration": 0.05434787500000482,
          "durationTicks": 120,
          "midi": 78,
          "name": "F#5",
          "ticks": 71640,
          "time": 32.445681375,
          "velocity": 0.49606299212598426
        },
        {
          "duration": 0.054347874999997714,
          "durationTicks": 120,
          "midi": 66,
          "name": "F#4",
          "ticks": 72480,
          "time": 32.826116500000005,
          "velocity": 1
        },
        {
          "duration": 0.054347874999997714,
          "durationTicks": 120,
          "midi": 78,
          "name": "F#5",
          "ticks": 72600,
          "time": 32.880464375,
          "velocity": 0.49606299212598426
        },
        {
          "duration": 0.05434787500000482,
          "durationTicks": 120,
          "midi": 66,
          "name": "F#4",
          "ticks": 73440,
          "time": 33.2608995,
          "velocity": 1
        },
        {
          "duration": 0.054347874999997714,
          "durationTicks": 120,
          "midi": 78,
          "name": "F#5",
          "ticks": 73560,
          "time": 33.315247375000006,
          "velocity": 0.49606299212598426
        },
        {
          "duration": 0.054347874999997714,
          "durationTicks": 120,
          "midi": 69,
          "name": "A4",
          "ticks": 73920,
          "time": 33.478291000000006,
          "velocity": 1
        },
        {
          "duration": 0.054347874999997714,
          "durationTicks": 120,
          "midi": 81,
          "name": "A5",
          "ticks": 74040,
          "time": 33.532638875,
          "velocity": 0.49606299212598426
        },
        {
          "duration": 0.054347874999997714,
          "durationTicks": 120,
          "midi": 72,
          "name": "C5",
          "ticks": 74400,
          "time": 33.695682500000004,
          "velocity": 1
        },
        {
          "duration": 0.054347874999997714,
          "durationTicks": 120,
          "midi": 84,
          "name": "C6",
          "ticks": 74520,
          "time": 33.750030375,
          "velocity": 0.49606299212598426
        },
        {
          "duration": 0.054347874999997714,
          "durationTicks": 120,
          "midi": 66,
          "name": "F#4",
          "ticks": 74880,
          "time": 33.913074,
          "velocity": 1
        },
        {
          "duration": 0.05434787500000482,
          "durationTicks": 120,
          "midi": 78,
          "name": "F#5",
          "ticks": 75000,
          "time": 33.967421875,
          "velocity": 0.49606299212598426
        },
        {
          "duration": 0.05434787500000482,
          "durationTicks": 120,
          "midi": 69,
          "name": "A4",
          "ticks": 75360,
          "time": 34.1304655,
          "velocity": 1
        },
        {
          "duration": 0.054347874999997714,
          "durationTicks": 120,
          "midi": 81,
          "name": "A5",
          "ticks": 75480,
          "time": 34.184813375000004,
          "velocity": 0.49606299212598426
        },
        {
          "duration": 0.054347874999997714,
          "durationTicks": 120,
          "midi": 72,
          "name": "C5",
          "ticks": 75840,
          "time": 34.347857000000005,
          "velocity": 1
        },
        {
          "duration": 0.054347874999997714,
          "durationTicks": 120,
          "midi": 84,
          "name": "C6",
          "ticks": 75960,
          "time": 34.402204875,
          "velocity": 0.49606299212598426
        },
        {
          "duration": 0.054347874999997714,
          "durationTicks": 120,
          "midi": 74,
          "name": "D5",
          "ticks": 76320,
          "time": 34.5652485,
          "velocity": 1
        },
        {
          "duration": 0.05434787500000482,
          "durationTicks": 120,
          "midi": 86,
          "name": "D6",
          "ticks": 76440,
          "time": 34.619596375,
          "velocity": 0.49606299212598426
        },
        {
          "duration": 0.054347874999997714,
          "durationTicks": 120,
          "midi": 66,
          "name": "F#4",
          "ticks": 99840,
          "time": 45.217432,
          "velocity": 1
        },
        {
          "duration": 0.05434787500000482,
          "durationTicks": 120,
          "midi": 69,
          "name": "A4",
          "ticks": 100320,
          "time": 45.4348235,
          "velocity": 1
        },
        {
          "duration": 0.054347874999997714,
          "durationTicks": 120,
          "midi": 73,
          "name": "C#5",
          "ticks": 100800,
          "time": 45.652215000000005,
          "velocity": 1
        },
        {
          "duration": 0.054347874999997714,
          "durationTicks": 120,
          "midi": 69,
          "name": "A4",
          "ticks": 101280,
          "time": 45.8696065,
          "velocity": 1
        },
        {
          "duration": 0.054347874999997714,
          "durationTicks": 120,
          "midi": 69,
          "name": "A4",
          "ticks": 102240,
          "time": 46.304389500000006,
          "velocity": 1
        },
        {
          "duration": 0.054347874999997714,
          "durationTicks": 120,
          "midi": 69,
          "name": "A4",
          "ticks": 102720,
          "time": 46.521781000000004,
          "velocity": 1
        },
        {
          "duration": 0.054347874999997714,
          "durationTicks": 120,
          "midi": 66,
          "name": "F#4",
          "ticks": 103200,
          "time": 46.7391725,
          "velocity": 1
        },
        {
          "duration": 0.054347874999997714,
          "durationTicks": 120,
          "midi": 66,
          "name": "F#4",
          "ticks": 104160,
          "time": 47.173955500000005,
          "velocity": 1
        },
        {
          "duration": 0.054347874999997714,
          "durationTicks": 120,
          "midi": 66,
          "name": "F#4",
          "ticks": 105600,
          "time": 47.826130000000006,
          "velocity": 1
        },
        {
          "duration": 0.054347874999997714,
          "durationTicks": 120,
          "midi": 71,
          "name": "B4",
          "ticks": 106080,
          "time": 48.043521500000004,
          "velocity": 1
        },
        {
          "duration": 0.054347874999997714,
          "durationTicks": 120,
          "midi": 74,
          "name": "D5",
          "ticks": 106560,
          "time": 48.260913,
          "velocity": 1
        },
        {
          "duration": 0.05434787500000482,
          "durationTicks": 120,
          "midi": 73,
          "name": "C#5",
          "ticks": 107040,
          "time": 48.4783045,
          "velocity": 1
        },
        {
          "duration": 0.054347874999997714,
          "durationTicks": 120,
          "midi": 78,
          "name": "F#5",
          "ticks": 122880,
          "time": 55.652224000000004,
          "velocity": 1
        },
        {
          "duration": 0.05434787500000482,
          "durationTicks": 120,
          "midi": 71,
          "name": "B4",
          "ticks": 123360,
          "time": 55.8696155,
          "velocity": 1
        },
        {
          "duration": 0.054347874999997714,
          "durationTicks": 120,
          "midi": 74,
          "name": "D5",
          "ticks": 123840,
          "time": 56.08700700000001,
          "velocity": 1
        },
        {
          "duration": 0.054347874999997714,
          "durationTicks": 120,
          "midi": 78,
          "name": "F#5",
          "ticks": 124320,
          "time": 56.304398500000005,
          "velocity": 1
        },
        {
          "duration": 0.05434787500000482,
          "durationTicks": 120,
          "midi": 74,
          "name": "D5",
          "ticks": 125280,
          "time": 56.7391815,
          "velocity": 1
        },
        {
          "duration": 0.054347874999997714,
          "durationTicks": 120,
          "midi": 78,
          "name": "F#5",
          "ticks": 125760,
          "time": 56.956573000000006,
          "velocity": 1
        },
        {
          "duration": 0.054347874999997714,
          "durationTicks": 120,
          "midi": 73,
          "name": "C#5",
          "ticks": 126240,
          "time": 57.173964500000004,
          "velocity": 1
        },
        {
          "duration": 0.054347874999997714,
          "durationTicks": 120,
          "midi": 73,
          "name": "C#5",
          "ticks": 127200,
          "time": 57.60874750000001,
          "velocity": 1
        },
        {
          "duration": 0.05434787500000482,
          "durationTicks": 120,
          "midi": 78,
          "name": "F#5",
          "ticks": 128160,
          "time": 58.0435305,
          "velocity": 1
        },
        {
          "duration": 0.05434787500000482,
          "durationTicks": 120,
          "midi": 66,
          "name": "F#4",
          "ticks": 128640,
          "time": 58.260922,
          "velocity": 1
        },
        {
          "duration": 0.054347874999997714,
          "durationTicks": 120,
          "midi": 66,
          "name": "F#4",
          "ticks": 129600,
          "time": 58.695705000000004,
          "velocity": 1
        }
      ],
      "endOfTrackTicks": 129720
    },
    {
      "channel": 0,
      "controlChanges": {},
      "pitchBends": [],
      "instrument": {
        "family": "piano",
        "number": 0,
        "name": "acoustic grand piano"
      },
      "name": "",
      "notes": [
        {
          "duration": 0.10869575000000001,
          "durationTicks": 240,
          "midi": 72,
          "name": "C5",
          "ticks": 0,
          "time": 0,
          "velocity": 1
        },
        {
          "duration": 0.10869575000000001,
          "durationTicks": 240,
          "midi": 60,
          "name": "C4",
          "ticks": 0,
          "time": 0,
          "velocity": 0.8031496062992126
        },
        {
          "duration": 0.10869575000000004,
          "durationTicks": 240,
          "midi": 84,
          "name": "C6",
          "ticks": 480,
          "time": 0.21739150000000002,
          "velocity": 0.8031496062992126
        },
        {
          "duration": 0.10869574999999998,
          "durationTicks": 240,
          "midi": 84,
          "name": "C6",
          "ticks": 960,
          "time": 0.43478300000000003,
          "velocity": 0.8031496062992126
        },
        {
          "duration": 0.10869574999999998,
          "durationTicks": 240,
          "midi": 84,
          "name": "C6",
          "ticks": 1440,
          "time": 0.6521745000000001,
          "velocity": 0.8031496062992126
        },
        {
          "duration": 0.10869574999999998,
          "durationTicks": 240,
          "midi": 72,
          "name": "C5",
          "ticks": 1920,
          "time": 0.8695660000000001,
          "velocity": 1
        },
        {
          "duration": 0.10869574999999998,
          "durationTicks": 240,
          "midi": 60,
          "name": "C4",
          "ticks": 1920,
          "time": 0.8695660000000001,
          "velocity": 0.8031496062992126
        },
        {
          "duration": 0.10869574999999998,
          "durationTicks": 240,
          "midi": 84,
          "name": "C6",
          "ticks": 2160,
          "time": 0.97826175,
          "velocity": 0.8031496062992126
        },
        {
          "duration": 0.10869575000000009,
          "durationTicks": 240,
          "midi": 84,
          "name": "C6",
          "ticks": 2640,
          "time": 1.1956532500000001,
          "velocity": 0.8031496062992126
        },
        {
          "duration": 0.10869575000000009,
          "durationTicks": 240,
          "midi": 84,
          "name": "C6",
          "ticks": 3120,
          "time": 1.41304475,
          "velocity": 0.8031496062992126
        },
        {
          "duration": 0.10869575000000009,
          "durationTicks": 240,
          "midi": 84,
          "name": "C6",
          "ticks": 3600,
          "time": 1.63043625,
          "velocity": 0.7716535433070866
        },
        {
          "duration": 0.10869575000000009,
          "durationTicks": 240,
          "midi": 72,
          "name": "C5",
          "ticks": 3840,
          "time": 1.7391320000000001,
          "velocity": 1
        },
        {
          "duration": 0.10869575000000009,
          "durationTicks": 240,
          "midi": 60,
          "name": "C4",
          "ticks": 3840,
          "time": 1.7391320000000001,
          "velocity": 0.8031496062992126
        },
        {
          "duration": 0.10869575000000009,
          "durationTicks": 240,
          "midi": 84,
          "name": "C6",
          "ticks": 4320,
          "time": 1.9565235,
          "velocity": 0.8031496062992126
        },
        {
          "duration": 0.10869575000000031,
          "durationTicks": 240,
          "midi": 84,
          "name": "C6",
          "ticks": 4800,
          "time": 2.173915,
          "velocity": 0.8031496062992126
        },
        {
          "duration": 0.10869574999999987,
          "durationTicks": 240,
          "midi": 84,
          "name": "C6",
          "ticks": 5280,
          "time": 2.3913065000000002,
          "velocity": 0.8110236220472441
        },
        {
          "duration": 0.10869574999999987,
          "durationTicks": 240,
          "midi": 72,
          "name": "C5",
          "ticks": 5760,
          "time": 2.6086980000000004,
          "velocity": 1
        },
        {
          "duration": 0.10869574999999987,
          "durationTicks": 240,
          "midi": 60,
          "name": "C4",
          "ticks": 5760,
          "time": 2.6086980000000004,
          "velocity": 0.8031496062992126
        },
        {
          "duration": 0.10869574999999987,
          "durationTicks": 240,
          "midi": 84,
          "name": "C6",
          "ticks": 6000,
          "time": 2.7173937500000003,
          "velocity": 0.8031496062992126
        },
        {
          "duration": 0.10869574999999987,
          "durationTicks": 240,
          "midi": 84,
          "name": "C6",
          "ticks": 6240,
          "time": 2.8260895,
          "velocity": 0.8031496062992126
        },
        {
          "duration": 0.10869575000000031,
          "durationTicks": 240,
          "midi": 84,
          "name": "C6",
          "ticks": 6480,
          "time": 2.93478525,
          "velocity": 0.8031496062992126
        },
        {
          "duration": 0.10869574999999987,
          "durationTicks": 240,
          "midi": 72,
          "name": "C5",
          "ticks": 6720,
          "time": 3.0434810000000003,
          "velocity": 1
        },
        {
          "duration": 0.10869574999999987,
          "durationTicks": 240,
          "midi": 60,
          "name": "C4",
          "ticks": 6720,
          "time": 3.0434810000000003,
          "velocity": 0.8031496062992126
        },
        {
          "duration": 0.10869574999999987,
          "durationTicks": 240,
          "midi": 84,
          "name": "C6",
          "ticks": 6960,
          "time": 3.15217675,
          "velocity": 0.8031496062992126
        },
        {
          "duration": 0.10869575000000031,
          "durationTicks": 240,
          "midi": 84,
          "name": "C6",
          "ticks": 7200,
          "time": 3.2608725,
          "velocity": 0.8031496062992126
        },
        {
          "duration": 0.10869574999999987,
          "durationTicks": 240,
          "midi": 84,
          "name": "C6",
          "ticks": 7440,
          "time": 3.3695682500000004,
          "velocity": 0.7716535433070866
        },
        {
          "duration": 0.10869574999999987,
          "durationTicks": 240,
          "midi": 72,
          "name": "C5",
          "ticks": 7680,
          "time": 3.4782640000000002,
          "velocity": 1
        },
        {
          "duration": 0.10869574999999987,
          "durationTicks": 240,
          "midi": 60,
          "name": "C4",
          "ticks": 7680,
          "time": 3.4782640000000002,
          "velocity": 0.8031496062992126
        },
        {
          "duration": 0.10869574999999987,
          "durationTicks": 240,
          "midi": 84,
          "name": "C6",
          "ticks": 8160,
          "time": 3.6956555000000004,
          "velocity": 0.8031496062992126
        },
        {
          "duration": 0.10869575000000031,
          "durationTicks": 240,
          "midi": 84,
          "name": "C6",
          "ticks": 8640,
          "time": 3.913047,
          "velocity": 0.8031496062992126
        },
        {
          "duration": 0.10869574999999987,
          "durationTicks": 240,
          "midi": 84,
          "name": "C6",
          "ticks": 9120,
          "time": 4.1304385,
          "velocity": 0.8031496062992126
        },
        {
          "duration": 0.10869574999999987,
          "durationTicks": 240,
          "midi": 72,
          "name": "C5",
          "ticks": 9600,
          "time": 4.34783,
          "velocity": 1
        },
        {
          "duration": 0.10869574999999987,
          "durationTicks": 240,
          "midi": 60,
          "name": "C4",
          "ticks": 9600,
          "time": 4.34783,
          "velocity": 0.8031496062992126
        },
        {
          "duration": 0.10869575000000076,
          "durationTicks": 240,
          "midi": 84,
          "name": "C6",
          "ticks": 9840,
          "time": 4.45652575,
          "velocity": 0.8031496062992126
        },
        {
          "duration": 0.10869574999999987,
          "durationTicks": 240,
          "midi": 84,
          "name": "C6",
          "ticks": 10080,
          "time": 4.565221500000001,
          "velocity": 0.8031496062992126
        },
        {
          "duration": 0.10869574999999987,
          "durationTicks": 240,
          "midi": 84,
          "name": "C6",
          "ticks": 10320,
          "time": 4.673917250000001,
          "velocity": 0.8031496062992126
        },
        {
          "duration": 0.10869574999999987,
          "durationTicks": 240,
          "midi": 72,
          "name": "C5",
          "ticks": 10560,
          "time": 4.7826130000000004,
          "velocity": 1
        },
        {
          "duration": 0.10869574999999987,
          "durationTicks": 240,
          "midi": 60,
          "name": "C4",
          "ticks": 10560,
          "time": 4.7826130000000004,
          "velocity": 0.8031496062992126
        },
        {
          "duration": 0.10869574999999987,
          "durationTicks": 240,
          "midi": 84,
          "name": "C6",
          "ticks": 10800,
          "time": 4.89130875,
          "velocity": 0.8031496062992126
        },
        {
          "duration": 0.10869574999999987,
          "durationTicks": 240,
          "midi": 84,
          "name": "C6",
          "ticks": 11040,
          "time": 5.0000045,
          "velocity": 0.8031496062992126
        },
        {
          "duration": 0.10869575000000076,
          "durationTicks": 240,
          "midi": 84,
          "name": "C6",
          "ticks": 11280,
          "time": 5.10870025,
          "velocity": 0.7716535433070866
        },
        {
          "duration": 0.10869574999999987,
          "durationTicks": 240,
          "midi": 72,
          "name": "C5",
          "ticks": 11520,
          "time": 5.217396000000001,
          "velocity": 1
        },
        {
          "duration": 0.10869574999999987,
          "durationTicks": 240,
          "midi": 60,
          "name": "C4",
          "ticks": 11520,
          "time": 5.217396000000001,
          "velocity": 0.8031496062992126
        },
        {
          "duration": 0.10869574999999987,
          "durationTicks": 240,
          "midi": 84,
          "name": "C6",
          "ticks": 11760,
          "time": 5.326091750000001,
          "velocity": 0.8031496062992126
        },
        {
          "duration": 0.10869574999999987,
          "durationTicks": 240,
          "midi": 84,
          "name": "C6",
          "ticks": 12000,
          "time": 5.4347875000000005,
          "velocity": 0.8031496062992126
        },
        {
          "duration": 0.10869574999999987,
          "durationTicks": 240,
          "midi": 84,
          "name": "C6",
          "ticks": 12240,
          "time": 5.54348325,
          "velocity": 0.8031496062992126
        },
        {
          "duration": 0.10869574999999987,
          "durationTicks": 240,
          "midi": 84,
          "name": "C6",
          "ticks": 12480,
          "time": 5.652179,
          "velocity": 0.8031496062992126
        },
        {
          "duration": 0.10869574999999987,
          "durationTicks": 240,
          "midi": 84,
          "name": "C6",
          "ticks": 12720,
          "time": 5.76087475,
          "velocity": 0.8031496062992126
        },
        {
          "duration": 0.10869575000000076,
          "durationTicks": 240,
          "midi": 84,
          "name": "C6",
          "ticks": 12960,
          "time": 5.8695705,
          "velocity": 0.8031496062992126
        },
        {
          "duration": 0.10869574999999987,
          "durationTicks": 240,
          "midi": 84,
          "name": "C6",
          "ticks": 13200,
          "time": 5.978266250000001,
          "velocity": 0.7716535433070866
        },
        {
          "duration": 0.10869574999999987,
          "durationTicks": 240,
          "midi": 72,
          "name": "C5",
          "ticks": 13440,
          "time": 6.086962000000001,
          "velocity": 1
        },
        {
          "duration": 0.10869574999999987,
          "durationTicks": 240,
          "midi": 60,
          "name": "C4",
          "ticks": 13440,
          "time": 6.086962000000001,
          "velocity": 0.8031496062992126
        },
        {
          "duration": 0.10869574999999987,
          "durationTicks": 240,
          "midi": 84,
          "name": "C6",
          "ticks": 13680,
          "time": 6.1956577500000005,
          "velocity": 0.8031496062992126
        },
        {
          "duration": 0.10869574999999987,
          "durationTicks": 240,
          "midi": 84,
          "name": "C6",
          "ticks": 13920,
          "time": 6.3043535,
          "velocity": 0.8031496062992126
        },
        {
          "duration": 0.10869574999999987,
          "durationTicks": 240,
          "midi": 84,
          "name": "C6",
          "ticks": 14160,
          "time": 6.41304925,
          "velocity": 0.8031496062992126
        },
        {
          "duration": 0.10869575000000076,
          "durationTicks": 240,
          "midi": 72,
          "name": "C5",
          "ticks": 14400,
          "time": 6.521745,
          "velocity": 1
        },
        {
          "duration": 0.10869575000000076,
          "durationTicks": 240,
          "midi": 60,
          "name": "C4",
          "ticks": 14400,
          "time": 6.521745,
          "velocity": 0.8031496062992126
        },
        {
          "duration": 0.10869574999999987,
          "durationTicks": 240,
          "midi": 84,
          "name": "C6",
          "ticks": 14640,
          "time": 6.630440750000001,
          "velocity": 0.8031496062992126
        },
        {
          "duration": 0.10869574999999987,
          "durationTicks": 240,
          "midi": 84,
          "name": "C6",
          "ticks": 14880,
          "time": 6.739136500000001,
          "velocity": 0.8031496062992126
        },
        {
          "duration": 0.10869574999999987,
          "durationTicks": 240,
          "midi": 84,
          "name": "C6",
          "ticks": 15120,
          "time": 6.847832250000001,
          "velocity": 0.7716535433070866
        },
        {
          "duration": 0.10869574999999987,
          "durationTicks": 240,
          "midi": 72,
          "name": "C5",
          "ticks": 15360,
          "time": 6.9565280000000005,
          "velocity": 1
        },
        {
          "duration": 0.10869574999999987,
          "durationTicks": 240,
          "midi": 60,
          "name": "C4",
          "ticks": 15360,
          "time": 6.9565280000000005,
          "velocity": 0.8031496062992126
        },
        {
          "duration": 0.10869574999999987,
          "durationTicks": 240,
          "midi": 84,
          "name": "C6",
          "ticks": 15600,
          "time": 7.06522375,
          "velocity": 0.8031496062992126
        },
        {
          "duration": 0.10869574999999987,
          "durationTicks": 240,
          "midi": 84,
          "name": "C6",
          "ticks": 15840,
          "time": 7.1739195,
          "velocity": 0.8031496062992126
        },
        {
          "duration": 0.10869575000000076,
          "durationTicks": 240,
          "midi": 84,
          "name": "C6",
          "ticks": 16080,
          "time": 7.28261525,
          "velocity": 0.8031496062992126
        },
        {
          "duration": 0.10869574999999987,
          "durationTicks": 240,
          "midi": 84,
          "name": "C6",
          "ticks": 16320,
          "time": 7.391311000000001,
          "velocity": 0.8031496062992126
        },
        {
          "duration": 0.10869574999999987,
          "durationTicks": 240,
          "midi": 84,
          "name": "C6",
          "ticks": 16560,
          "time": 7.500006750000001,
          "velocity": 0.8031496062992126
        },
        {
          "duration": 0.10869574999999987,
          "durationTicks": 240,
          "midi": 84,
          "name": "C6",
          "ticks": 16800,
          "time": 7.608702500000001,
          "velocity": 0.8031496062992126
        },
        {
          "duration": 0.10869574999999987,
          "durationTicks": 240,
          "midi": 84,
          "name": "C6",
          "ticks": 17040,
          "time": 7.7173982500000005,
          "velocity": 0.7716535433070866
        },
        {
          "duration": 0.10869574999999987,
          "durationTicks": 240,
          "midi": 72,
          "name": "C5",
          "ticks": 17280,
          "time": 7.826094,
          "velocity": 1
        },
        {
          "duration": 0.10869574999999987,
          "durationTicks": 240,
          "midi": 60,
          "name": "C4",
          "ticks": 17280,
          "time": 7.826094,
          "velocity": 0.8031496062992126
        },
        {
          "duration": 0.10869575000000076,
          "durationTicks": 240,
          "midi": 84,
          "name": "C6",
          "ticks": 17520,
          "time": 7.93478975,
          "velocity": 0.8031496062992126
        },
        {
          "duration": 0.10869574999999898,
          "durationTicks": 240,
          "midi": 84,
          "name": "C6",
          "ticks": 17760,
          "time": 8.043485500000001,
          "velocity": 0.8031496062992126
        },
        {
          "duration": 0.10869575000000076,
          "durationTicks": 240,
          "midi": 84,
          "name": "C6",
          "ticks": 18000,
          "time": 8.15218125,
          "velocity": 0.8031496062992126
        },
        {
          "duration": 0.10869575000000076,
          "durationTicks": 240,
          "midi": 84,
          "name": "C6",
          "ticks": 18240,
          "time": 8.260877,
          "velocity": 0.8031496062992126
        },
        {
          "duration": 0.10869574999999898,
          "durationTicks": 240,
          "midi": 84,
          "name": "C6",
          "ticks": 18480,
          "time": 8.369572750000001,
          "velocity": 0.8031496062992126
        },
        {
          "duration": 0.10869575000000076,
          "durationTicks": 240,
          "midi": 84,
          "name": "C6",
          "ticks": 18720,
          "time": 8.4782685,
          "velocity": 0.8031496062992126
        },
        {
          "duration": 0.10869574999999898,
          "durationTicks": 240,
          "midi": 84,
          "name": "C6",
          "ticks": 18960,
          "time": 8.586964250000001,
          "velocity": 0.7716535433070866
        },
        {
          "duration": 0.10869575000000076,
          "durationTicks": 240,
          "midi": 72,
          "name": "C5",
          "ticks": 19200,
          "time": 8.69566,
          "velocity": 1
        },
        {
          "duration": 0.10869575000000076,
          "durationTicks": 240,
          "midi": 60,
          "name": "C4",
          "ticks": 19200,
          "time": 8.69566,
          "velocity": 0.8031496062992126
        },
        {
          "duration": 0.10869574999999898,
          "durationTicks": 240,
          "midi": 84,
          "name": "C6",
          "ticks": 19440,
          "time": 8.804355750000001,
          "velocity": 0.8031496062992126
        },
        {
          "duration": 0.10869575000000076,
          "durationTicks": 240,
          "midi": 84,
          "name": "C6",
          "ticks": 19680,
          "time": 8.9130515,
          "velocity": 0.8031496062992126
        },
        {
          "duration": 0.10869575000000076,
          "durationTicks": 240,
          "midi": 84,
          "name": "C6",
          "ticks": 19920,
          "time": 9.02174725,
          "velocity": 0.8031496062992126
        },
        {
          "duration": 0.10869574999999898,
          "durationTicks": 240,
          "midi": 84,
          "name": "C6",
          "ticks": 20160,
          "time": 9.130443000000001,
          "velocity": 0.8031496062992126
        },
        {
          "duration": 0.10869575000000076,
          "durationTicks": 240,
          "midi": 84,
          "name": "C6",
          "ticks": 20400,
          "time": 9.23913875,
          "velocity": 0.8031496062992126
        },
        {
          "duration": 0.10869574999999898,
          "durationTicks": 240,
          "midi": 84,
          "name": "C6",
          "ticks": 20640,
          "time": 9.347834500000001,
          "velocity": 0.8031496062992126
        },
        {
          "duration": 0.10869575000000076,
          "durationTicks": 240,
          "midi": 84,
          "name": "C6",
          "ticks": 20880,
          "time": 9.45653025,
          "velocity": 0.7716535433070866
        },
        {
          "duration": 0.10869574999999898,
          "durationTicks": 240,
          "midi": 72,
          "name": "C5",
          "ticks": 21120,
          "time": 9.565226000000001,
          "velocity": 1
        },
        {
          "duration": 0.10869574999999898,
          "durationTicks": 240,
          "midi": 60,
          "name": "C4",
          "ticks": 21120,
          "time": 9.565226000000001,
          "velocity": 0.8031496062992126
        },
        {
          "duration": 0.10869575000000076,
          "durationTicks": 240,
          "midi": 84,
          "name": "C6",
          "ticks": 21360,
          "time": 9.67392175,
          "velocity": 0.8031496062992126
        },
        {
          "duration": 0.10869575000000076,
          "durationTicks": 240,
          "midi": 84,
          "name": "C6",
          "ticks": 21600,
          "time": 9.7826175,
          "velocity": 0.8031496062992126
        },
        {
          "duration": 0.10869574999999898,
          "durationTicks": 240,
          "midi": 84,
          "name": "C6",
          "ticks": 21840,
          "time": 9.891313250000001,
          "velocity": 0.8031496062992126
        },
        {
          "duration": 0.10869575000000076,
          "durationTicks": 240,
          "midi": 72,
          "name": "C5",
          "ticks": 22080,
          "time": 10.000009,
          "velocity": 1
        },
        {
          "duration": 0.10869575000000076,
          "durationTicks": 240,
          "midi": 60,
          "name": "C4",
          "ticks": 22080,
          "time": 10.000009,
          "velocity": 0.8031496062992126
        },
        {
          "duration": 0.10869574999999898,
          "durationTicks": 240,
          "midi": 84,
          "name": "C6",
          "ticks": 22320,
          "time": 10.108704750000001,
          "velocity": 0.8031496062992126
        },
        {
          "duration": 0.10869575000000076,
          "durationTicks": 240,
          "midi": 84,
          "name": "C6",
          "ticks": 22560,
          "time": 10.2174005,
          "velocity": 0.8031496062992126
        },
        {
          "duration": 0.10869575000000076,
          "durationTicks": 240,
          "midi": 84,
          "name": "C6",
          "ticks": 22800,
          "time": 10.32609625,
          "velocity": 0.7716535433070866
        },
        {
          "duration": 0.10869574999999898,
          "durationTicks": 240,
          "midi": 72,
          "name": "C5",
          "ticks": 23040,
          "time": 10.434792000000002,
          "velocity": 1
        },
        {
          "duration": 0.10869574999999898,
          "durationTicks": 240,
          "midi": 60,
          "name": "C4",
          "ticks": 23040,
          "time": 10.434792000000002,
          "velocity": 0.8031496062992126
        },
        {
          "duration": 0.10869575000000076,
          "durationTicks": 240,
          "midi": 84,
          "name": "C6",
          "ticks": 23280,
          "time": 10.54348775,
          "velocity": 0.8031496062992126
        },
        {
          "duration": 0.10869574999999898,
          "durationTicks": 240,
          "midi": 84,
          "name": "C6",
          "ticks": 23520,
          "time": 10.652183500000001,
          "velocity": 0.8031496062992126
        },
        {
          "duration": 0.10869575000000076,
          "durationTicks": 240,
          "midi": 84,
          "name": "C6",
          "ticks": 23760,
          "time": 10.76087925,
          "velocity": 0.8031496062992126
        },
        {
          "duration": 0.10869574999999898,
          "durationTicks": 240,
          "midi": 84,
          "name": "C6",
          "ticks": 24000,
          "time": 10.869575000000001,
          "velocity": 0.8031496062992126
        },
        {
          "duration": 0.10869575000000076,
          "durationTicks": 240,
          "midi": 84,
          "name": "C6",
          "ticks": 24240,
          "time": 10.97827075,
          "velocity": 0.8031496062992126
        },
        {
          "duration": 0.10869575000000076,
          "durationTicks": 240,
          "midi": 84,
          "name": "C6",
          "ticks": 24480,
          "time": 11.0869665,
          "velocity": 0.8031496062992126
        },
        {
          "duration": 0.10869574999999898,
          "durationTicks": 240,
          "midi": 84,
          "name": "C6",
          "ticks": 24720,
          "time": 11.195662250000002,
          "velocity": 0.7716535433070866
        },
        {
          "duration": 0.10869575000000076,
          "durationTicks": 240,
          "midi": 72,
          "name": "C5",
          "ticks": 24960,
          "time": 11.304358,
          "velocity": 1
        },
        {
          "duration": 0.10869575000000076,
          "durationTicks": 240,
          "midi": 60,
          "name": "C4",
          "ticks": 24960,
          "time": 11.304358,
          "velocity": 0.8031496062992126
        },
        {
          "duration": 0.10869574999999898,
          "durationTicks": 240,
          "midi": 84,
          "name": "C6",
          "ticks": 25200,
          "time": 11.413053750000001,
          "velocity": 0.8031496062992126
        },
        {
          "duration": 0.10869575000000076,
          "durationTicks": 240,
          "midi": 84,
          "name": "C6",
          "ticks": 25440,
          "time": 11.5217495,
          "velocity": 0.8031496062992126
        },
        {
          "duration": 0.10869574999999898,
          "durationTicks": 240,
          "midi": 84,
          "name": "C6",
          "ticks": 25680,
          "time": 11.630445250000001,
          "velocity": 0.8031496062992126
        },
        {
          "duration": 0.10869575000000076,
          "durationTicks": 240,
          "midi": 72,
          "name": "C5",
          "ticks": 25920,
          "time": 11.739141,
          "velocity": 1
        },
        {
          "duration": 0.10869575000000076,
          "durationTicks": 240,
          "midi": 60,
          "name": "C4",
          "ticks": 25920,
          "time": 11.739141,
          "velocity": 0.8031496062992126
        },
        {
          "duration": 0.10869575000000076,
          "durationTicks": 240,
          "midi": 84,
          "name": "C6",
          "ticks": 26160,
          "time": 11.84783675,
          "velocity": 0.8031496062992126
        },
        {
          "duration": 0.10869574999999898,
          "durationTicks": 240,
          "midi": 84,
          "name": "C6",
          "ticks": 26400,
          "time": 11.956532500000002,
          "velocity": 0.8031496062992126
        },
        {
          "duration": 0.10869575000000076,
          "durationTicks": 240,
          "midi": 84,
          "name": "C6",
          "ticks": 26640,
          "time": 12.06522825,
          "velocity": 0.7716535433070866
        },
        {
          "duration": 0.10869574999999898,
          "durationTicks": 240,
          "midi": 72,
          "name": "C5",
          "ticks": 26880,
          "time": 12.173924000000001,
          "velocity": 1
        },
        {
          "duration": 0.10869574999999898,
          "durationTicks": 240,
          "midi": 60,
          "name": "C4",
          "ticks": 26880,
          "time": 12.173924000000001,
          "velocity": 1
        },
        {
          "duration": 0.10869574999999898,
          "durationTicks": 240,
          "midi": 48,
          "name": "C3",
          "ticks": 26880,
          "time": 12.173924000000001,
          "velocity": 1
        },
        {
          "duration": 0.10869575000000076,
          "durationTicks": 240,
          "midi": 72,
          "name": "C5",
          "ticks": 27120,
          "time": 12.28261975,
          "velocity": 1
        },
        {
          "duration": 0.10869574999999898,
          "durationTicks": 240,
          "midi": 72,
          "name": "C5",
          "ticks": 27360,
          "time": 12.391315500000001,
          "velocity": 1
        },
        {
          "duration": 0.10869575000000076,
          "durationTicks": 240,
          "midi": 72,
          "name": "C5",
          "ticks": 27600,
          "time": 12.50001125,
          "velocity": 1
        },
        {
          "duration": 0.10869575000000076,
          "durationTicks": 240,
          "midi": 72,
          "name": "C5",
          "ticks": 27840,
          "time": 12.608707,
          "velocity": 1
        },
        {
          "duration": 0.020833352083332812,
          "durationTicks": 46,
          "midi": 72,
          "name": "C5",
          "ticks": 28080,
          "time": 12.717402750000002,
          "velocity": 1
        },
        {
          "duration": 0,
          "durationTicks": 0,
          "midi": 72,
          "name": "C5",
          "ticks": 28126,
          "time": 12.738236102083334,
          "velocity": 1
        },
        {
          "duration": 0,
          "durationTicks": 0,
          "midi": 60,
          "name": "C4",
          "ticks": 28126,
          "time": 12.738236102083334,
          "velocity": 1
        },
        {
          "duration": 0,
          "durationTicks": 0,
          "midi": 48,
          "name": "C3",
          "ticks": 28126,
          "time": 12.738236102083334,
          "velocity": 1
        },
        {
          "duration": 0.08786239791666617,
          "durationTicks": 194,
          "midi": 72,
          "name": "C5",
          "ticks": 28126,
          "time": 12.738236102083334,
          "velocity": 1
        },
        {
          "duration": 0.10869575000000076,
          "durationTicks": 240,
          "midi": 72,
          "name": "C5",
          "ticks": 28320,
          "time": 12.8260985,
          "velocity": 1
        },
        {
          "duration": 0.10869574999999898,
          "durationTicks": 240,
          "midi": 72,
          "name": "C5",
          "ticks": 28560,
          "time": 12.934794250000001,
          "velocity": 1
        },
        {
          "duration": 0.05434787500000127,
          "durationTicks": 120,
          "midi": 72,
          "name": "C5",
          "ticks": 28800,
          "time": 13.04349,
          "velocity": 1
        },
        {
          "duration": 0.05434787500000127,
          "durationTicks": 120,
          "midi": 60,
          "name": "C4",
          "ticks": 28800,
          "time": 13.04349,
          "velocity": 1
        },
        {
          "duration": 0.05434787500000127,
          "durationTicks": 120,
          "midi": 48,
          "name": "C3",
          "ticks": 28800,
          "time": 13.04349,
          "velocity": 1
        },
        {
          "duration": 0.05434787500000127,
          "durationTicks": 120,
          "midi": 79,
          "name": "G5",
          "ticks": 28800,
          "time": 13.04349,
          "velocity": 1
        },
        {
          "duration": 0.05434787499999949,
          "durationTicks": 120,
          "midi": 72,
          "name": "C5",
          "ticks": 28920,
          "time": 13.097837875000002,
          "velocity": 1
        },
        {
          "duration": 0.3260872499999987,
          "durationTicks": 720,
          "midi": 78,
          "name": "F#5",
          "ticks": 28920,
          "time": 13.097837875000002,
          "velocity": 1
        },
        {
          "duration": 0.05434787499999949,
          "durationTicks": 120,
          "midi": 72,
          "name": "C5",
          "ticks": 29040,
          "time": 13.152185750000001,
          "velocity": 1
        },
        {
          "duration": 0.05434787499999949,
          "durationTicks": 120,
          "midi": 90,
          "name": "F#6",
          "ticks": 29040,
          "time": 13.152185750000001,
          "velocity": 1
        },
        {
          "duration": 0.05434787499999949,
          "durationTicks": 120,
          "midi": 87,
          "name": "D#6",
          "ticks": 29040,
          "time": 13.152185750000001,
          "velocity": 1
        },
        {
          "duration": 0.05434787499999949,
          "durationTicks": 120,
          "midi": 85,
          "name": "C#6",
          "ticks": 29040,
          "time": 13.152185750000001,
          "velocity": 1
        },
        {
          "duration": 0.05434787500000127,
          "durationTicks": 120,
          "midi": 72,
          "name": "C5",
          "ticks": 29160,
          "time": 13.206533625,
          "velocity": 1
        },
        {
          "duration": 0.05434787499999949,
          "durationTicks": 120,
          "midi": 72,
          "name": "C5",
          "ticks": 29280,
          "time": 13.260881500000002,
          "velocity": 1
        },
        {
          "duration": 0.05434787499999949,
          "durationTicks": 120,
          "midi": 72,
          "name": "C5",
          "ticks": 29400,
          "time": 13.315229375000001,
          "velocity": 1
        },
        {
          "duration": 0.05434787499999949,
          "durationTicks": 120,
          "midi": 90,
          "name": "F#6",
          "ticks": 29400,
          "time": 13.315229375000001,
          "velocity": 1
        },
        {
          "duration": 0.05434787499999949,
          "durationTicks": 120,
          "midi": 87,
          "name": "D#6",
          "ticks": 29400,
          "time": 13.315229375000001,
          "velocity": 1
        },
        {
          "duration": 0.05434787499999949,
          "durationTicks": 120,
          "midi": 85,
          "name": "C#6",
          "ticks": 29400,
          "time": 13.315229375000001,
          "velocity": 1
        },
        {
          "duration": 0.05434787499999949,
          "durationTicks": 120,
          "midi": 72,
          "name": "C5",
          "ticks": 29520,
          "time": 13.36957725,
          "velocity": 1
        },
        {
          "duration": 0.05434787500000127,
          "durationTicks": 120,
          "midi": 72,
          "name": "C5",
          "ticks": 29640,
          "time": 13.423925125,
          "velocity": 1
        },
        {
          "duration": 0.05434787500000127,
          "durationTicks": 120,
          "midi": 79,
          "name": "G5",
          "ticks": 29640,
          "time": 13.423925125,
          "velocity": 1
        },
        {
          "duration": 0.05434787499999949,
          "durationTicks": 120,
          "midi": 72,
          "name": "C5",
          "ticks": 29760,
          "time": 13.478273000000002,
          "velocity": 1
        },
        {
          "duration": 0.05434787499999949,
          "durationTicks": 120,
          "midi": 72,
          "name": "C5",
          "ticks": 29880,
          "time": 13.532620875000001,
          "velocity": 1
        },
        {
          "duration": 0.05434787500000127,
          "durationTicks": 120,
          "midi": 72,
          "name": "C5",
          "ticks": 30000,
          "time": 13.58696875,
          "velocity": 1
        },
        {
          "duration": 0.05434787499999949,
          "durationTicks": 120,
          "midi": 72,
          "name": "C5",
          "ticks": 30120,
          "time": 13.641316625000002,
          "velocity": 1
        },
        {
          "duration": 0.05434787499999949,
          "durationTicks": 120,
          "midi": 72,
          "name": "C5",
          "ticks": 30240,
          "time": 13.695664500000001,
          "velocity": 1
        },
        {
          "duration": 0.05434787499999949,
          "durationTicks": 120,
          "midi": 72,
          "name": "C5",
          "ticks": 30360,
          "time": 13.750012375,
          "velocity": 1
        },
        {
          "duration": 0.05434787500000127,
          "durationTicks": 120,
          "midi": 72,
          "name": "C5",
          "ticks": 30480,
          "time": 13.80436025,
          "velocity": 1
        },
        {
          "duration": 0.05434787499999949,
          "durationTicks": 120,
          "midi": 72,
          "name": "C5",
          "ticks": 30600,
          "time": 13.858708125000001,
          "velocity": 1
        },
        {
          "duration": 0.05434787499999949,
          "durationTicks": 120,
          "midi": 72,
          "name": "C5",
          "ticks": 30720,
          "time": 13.913056000000001,
          "velocity": 0.6535433070866141
        },
        {
          "duration": 0.05434787499999949,
          "durationTicks": 120,
          "midi": 60,
          "name": "C4",
          "ticks": 30720,
          "time": 13.913056000000001,
          "velocity": 0.9133858267716536
        },
        {
          "duration": 0.05434787499999949,
          "durationTicks": 120,
          "midi": 72,
          "name": "C5",
          "ticks": 31200,
          "time": 14.1304475,
          "velocity": 0.6535433070866141
        },
        {
          "duration": 0.05434787499999949,
          "durationTicks": 120,
          "midi": 60,
          "name": "C4",
          "ticks": 31200,
          "time": 14.1304475,
          "velocity": 0.9133858267716536
        },
        {
          "duration": 0.05434787499999949,
          "durationTicks": 120,
          "midi": 72,
          "name": "C5",
          "ticks": 31440,
          "time": 14.239143250000001,
          "velocity": 0.6535433070866141
        },
        {
          "duration": 0.05434787499999949,
          "durationTicks": 120,
          "midi": 60,
          "name": "C4",
          "ticks": 31440,
          "time": 14.239143250000001,
          "velocity": 0.9133858267716536
        },
        {
          "duration": 0.05434787499999949,
          "durationTicks": 120,
          "midi": 72,
          "name": "C5",
          "ticks": 31560,
          "time": 14.293491125000001,
          "velocity": 0.6535433070866141
        },
        {
          "duration": 0.05434787499999949,
          "durationTicks": 120,
          "midi": 60,
          "name": "C4",
          "ticks": 31560,
          "time": 14.293491125000001,
          "velocity": 0.9133858267716536
        },
        {
          "duration": 0.05434787500000127,
          "durationTicks": 120,
          "midi": 72,
          "name": "C5",
          "ticks": 31680,
          "time": 14.347839,
          "velocity": 0.6535433070866141
        },
        {
          "duration": 0.05434787500000127,
          "durationTicks": 120,
          "midi": 60,
          "name": "C4",
          "ticks": 31680,
          "time": 14.347839,
          "velocity": 0.9133858267716536
        },
        {
          "duration": 0.05434787500000127,
          "durationTicks": 120,
          "midi": 74,
          "name": "D5",
          "ticks": 32160,
          "time": 14.5652305,
          "velocity": 0.6535433070866141
        },
        {
          "duration": 0.05434787500000127,
          "durationTicks": 120,
          "midi": 62,
          "name": "D4",
          "ticks": 32160,
          "time": 14.5652305,
          "velocity": 0.9133858267716536
        },
        {
          "duration": 0.05434787499999949,
          "durationTicks": 120,
          "midi": 72,
          "name": "C5",
          "ticks": 32640,
          "time": 14.782622000000002,
          "velocity": 0.6535433070866141
        },
        {
          "duration": 0.05434787499999949,
          "durationTicks": 120,
          "midi": 60,
          "name": "C4",
          "ticks": 32640,
          "time": 14.782622000000002,
          "velocity": 0.9133858267716536
        },
        {
          "duration": 0.05434787499999949,
          "durationTicks": 120,
          "midi": 72,
          "name": "C5",
          "ticks": 33600,
          "time": 15.217405000000001,
          "velocity": 0.6535433070866141
        },
        {
          "duration": 0.05434787499999949,
          "durationTicks": 120,
          "midi": 60,
          "name": "C4",
          "ticks": 33600,
          "time": 15.217405000000001,
          "velocity": 0.9133858267716536
        },
        {
          "duration": 0.05434787499999949,
          "durationTicks": 120,
          "midi": 71,
          "name": "B4",
          "ticks": 34080,
          "time": 15.434796500000001,
          "velocity": 0.6535433070866141
        },
        {
          "duration": 0.05434787499999949,
          "durationTicks": 120,
          "midi": 59,
          "name": "B3",
          "ticks": 34080,
          "time": 15.434796500000001,
          "velocity": 0.9133858267716536
        },
        {
          "duration": 0.05434787500000127,
          "durationTicks": 120,
          "midi": 72,
          "name": "C5",
          "ticks": 34560,
          "time": 15.652188,
          "velocity": 0.6535433070866141
        },
        {
          "duration": 0.05434787500000127,
          "durationTicks": 120,
          "midi": 60,
          "name": "C4",
          "ticks": 34560,
          "time": 15.652188,
          "velocity": 0.9133858267716536
        },
        {
          "duration": 0.05434787499999949,
          "durationTicks": 120,
          "midi": 72,
          "name": "C5",
          "ticks": 35280,
          "time": 15.978275250000001,
          "velocity": 0.6535433070866141
        },
        {
          "duration": 0.05434787499999949,
          "durationTicks": 120,
          "midi": 60,
          "name": "C4",
          "ticks": 35280,
          "time": 15.978275250000001,
          "velocity": 0.9133858267716536
        },
        {
          "duration": 0.05434787500000127,
          "durationTicks": 120,
          "midi": 74,
          "name": "D5",
          "ticks": 35760,
          "time": 16.19566675,
          "velocity": 0.6535433070866141
        },
        {
          "duration": 0.05434787500000127,
          "durationTicks": 120,
          "midi": 62,
          "name": "D4",
          "ticks": 35760,
          "time": 16.19566675,
          "velocity": 0.9133858267716536
        },
        {
          "duration": 0.05434787500000127,
          "durationTicks": 120,
          "midi": 74,
          "name": "D5",
          "ticks": 36120,
          "time": 16.358710375,
          "velocity": 0.6535433070866141
        },
        {
          "duration": 0.05434787500000127,
          "durationTicks": 120,
          "midi": 62,
          "name": "D4",
          "ticks": 36120,
          "time": 16.358710375,
          "velocity": 0.9133858267716536
        },
        {
          "duration": 0.05434787500000127,
          "durationTicks": 120,
          "midi": 74,
          "name": "D5",
          "ticks": 36480,
          "time": 16.521754,
          "velocity": 0.6535433070866141
        },
        {
          "duration": 0.05434787500000127,
          "durationTicks": 120,
          "midi": 62,
          "name": "D4",
          "ticks": 36480,
          "time": 16.521754,
          "velocity": 0.9133858267716536
        },
        {
          "duration": 0.054347874999997714,
          "durationTicks": 120,
          "midi": 71,
          "name": "B4",
          "ticks": 36960,
          "time": 16.739145500000003,
          "velocity": 0.6535433070866141
        },
        {
          "duration": 0.054347874999997714,
          "durationTicks": 120,
          "midi": 59,
          "name": "B3",
          "ticks": 36960,
          "time": 16.739145500000003,
          "velocity": 0.9133858267716536
        },
        {
          "duration": 0.05434787500000127,
          "durationTicks": 120,
          "midi": 71,
          "name": "B4",
          "ticks": 37440,
          "time": 16.956537,
          "velocity": 0.6535433070866141
        },
        {
          "duration": 0.05434787500000127,
          "durationTicks": 120,
          "midi": 59,
          "name": "B3",
          "ticks": 37440,
          "time": 16.956537,
          "velocity": 0.9133858267716536
        },
        {
          "duration": 0.05434787500000127,
          "durationTicks": 120,
          "midi": 71,
          "name": "B4",
          "ticks": 37680,
          "time": 17.06523275,
          "velocity": 0.6535433070866141
        },
        {
          "duration": 0.05434787500000127,
          "durationTicks": 120,
          "midi": 59,
          "name": "B3",
          "ticks": 37680,
          "time": 17.06523275,
          "velocity": 0.9133858267716536
        },
        {
          "duration": 0.054347874999997714,
          "durationTicks": 120,
          "midi": 72,
          "name": "C5",
          "ticks": 37920,
          "time": 17.173928500000002,
          "velocity": 0.6535433070866141
        },
        {
          "duration": 0.054347874999997714,
          "durationTicks": 120,
          "midi": 60,
          "name": "C4",
          "ticks": 37920,
          "time": 17.173928500000002,
          "velocity": 0.9133858267716536
        },
        {
          "duration": 0.05434787500000127,
          "durationTicks": 120,
          "midi": 71,
          "name": "B4",
          "ticks": 38160,
          "time": 17.28262425,
          "velocity": 0.6535433070866141
        },
        {
          "duration": 0.05434787500000127,
          "durationTicks": 120,
          "midi": 59,
          "name": "B3",
          "ticks": 38160,
          "time": 17.28262425,
          "velocity": 0.9133858267716536
        },
        {
          "duration": 0.05434787500000127,
          "durationTicks": 120,
          "midi": 72,
          "name": "C5",
          "ticks": 38400,
          "time": 17.39132,
          "velocity": 0.6535433070866141
        },
        {
          "duration": 0.05434787500000127,
          "durationTicks": 120,
          "midi": 60,
          "name": "C4",
          "ticks": 38400,
          "time": 17.39132,
          "velocity": 0.9133858267716536
        },
        {
          "duration": 0.05434787500000127,
          "durationTicks": 120,
          "midi": 74,
          "name": "D5",
          "ticks": 38520,
          "time": 17.445667875,
          "velocity": 0.6535433070866141
        },
        {
          "duration": 0.05434787500000127,
          "durationTicks": 120,
          "midi": 62,
          "name": "D4",
          "ticks": 38520,
          "time": 17.445667875,
          "velocity": 0.9133858267716536
        },
        {
          "duration": 0.054347874999997714,
          "durationTicks": 120,
          "midi": 72,
          "name": "C5",
          "ticks": 38640,
          "time": 17.500015750000003,
          "velocity": 0.6535433070866141
        },
        {
          "duration": 0.054347874999997714,
          "durationTicks": 120,
          "midi": 60,
          "name": "C4",
          "ticks": 38640,
          "time": 17.500015750000003,
          "velocity": 0.9133858267716536
        },
        {
          "duration": 0.05434787500000127,
          "durationTicks": 120,
          "midi": 74,
          "name": "D5",
          "ticks": 38760,
          "time": 17.554363625,
          "velocity": 0.6535433070866141
        },
        {
          "duration": 0.05434787500000127,
          "durationTicks": 120,
          "midi": 62,
          "name": "D4",
          "ticks": 38760,
          "time": 17.554363625,
          "velocity": 0.9133858267716536
        },
        {
          "duration": 0.054347874999997714,
          "durationTicks": 120,
          "midi": 72,
          "name": "C5",
          "ticks": 38880,
          "time": 17.608711500000002,
          "velocity": 0.6535433070866141
        },
        {
          "duration": 0.054347874999997714,
          "durationTicks": 120,
          "midi": 60,
          "name": "C4",
          "ticks": 38880,
          "time": 17.608711500000002,
          "velocity": 0.9133858267716536
        },
        {
          "duration": 0.05434787500000127,
          "durationTicks": 120,
          "midi": 71,
          "name": "B4",
          "ticks": 39360,
          "time": 17.826103,
          "velocity": 0.6535433070866141
        },
        {
          "duration": 0.05434787500000127,
          "durationTicks": 120,
          "midi": 59,
          "name": "B3",
          "ticks": 39360,
          "time": 17.826103,
          "velocity": 0.9133858267716536
        },
        {
          "duration": 0.05434787500000127,
          "durationTicks": 120,
          "midi": 71,
          "name": "B4",
          "ticks": 39840,
          "time": 18.0434945,
          "velocity": 0.6535433070866141
        },
        {
          "duration": 0.05434787500000127,
          "durationTicks": 120,
          "midi": 59,
          "name": "B3",
          "ticks": 39840,
          "time": 18.0434945,
          "velocity": 0.9133858267716536
        },
        {
          "duration": 0.054347874999997714,
          "durationTicks": 120,
          "midi": 72,
          "name": "C5",
          "ticks": 40320,
          "time": 18.260886000000003,
          "velocity": 0.6535433070866141
        },
        {
          "duration": 0.054347874999997714,
          "durationTicks": 120,
          "midi": 60,
          "name": "C4",
          "ticks": 40320,
          "time": 18.260886000000003,
          "velocity": 0.9133858267716536
        },
        {
          "duration": 0.054347874999997714,
          "durationTicks": 120,
          "midi": 72,
          "name": "C5",
          "ticks": 40560,
          "time": 18.369581750000002,
          "velocity": 0.6535433070866141
        },
        {
          "duration": 0.054347874999997714,
          "durationTicks": 120,
          "midi": 60,
          "name": "C4",
          "ticks": 40560,
          "time": 18.369581750000002,
          "velocity": 0.9133858267716536
        },
        {
          "duration": 0.05434787500000127,
          "durationTicks": 120,
          "midi": 72,
          "name": "C5",
          "ticks": 41040,
          "time": 18.58697325,
          "velocity": 0.6535433070866141
        },
        {
          "duration": 0.05434787500000127,
          "durationTicks": 120,
          "midi": 60,
          "name": "C4",
          "ticks": 41040,
          "time": 18.58697325,
          "velocity": 0.9133858267716536
        },
        {
          "duration": 0.054347874999997714,
          "durationTicks": 120,
          "midi": 72,
          "name": "C5",
          "ticks": 41280,
          "time": 18.695669000000002,
          "velocity": 0.6535433070866141
        },
        {
          "duration": 0.054347874999997714,
          "durationTicks": 120,
          "midi": 60,
          "name": "C4",
          "ticks": 41280,
          "time": 18.695669000000002,
          "velocity": 0.9133858267716536
        },
        {
          "duration": 0.05434787500000127,
          "durationTicks": 120,
          "midi": 74,
          "name": "D5",
          "ticks": 41520,
          "time": 18.80436475,
          "velocity": 0.6535433070866141
        },
        {
          "duration": 0.05434787500000127,
          "durationTicks": 120,
          "midi": 62,
          "name": "D4",
          "ticks": 41520,
          "time": 18.80436475,
          "velocity": 0.9133858267716536
        },
        {
          "duration": 0.05434787500000127,
          "durationTicks": 120,
          "midi": 74,
          "name": "D5",
          "ticks": 41760,
          "time": 18.9130605,
          "velocity": 0.6535433070866141
        },
        {
          "duration": 0.05434787500000127,
          "durationTicks": 120,
          "midi": 62,
          "name": "D4",
          "ticks": 41760,
          "time": 18.9130605,
          "velocity": 0.9133858267716536
        },
        {
          "duration": 0.054347874999997714,
          "durationTicks": 120,
          "midi": 74,
          "name": "D5",
          "ticks": 42000,
          "time": 19.021756250000003,
          "velocity": 0.6535433070866141
        },
        {
          "duration": 0.054347874999997714,
          "durationTicks": 120,
          "midi": 62,
          "name": "D4",
          "ticks": 42000,
          "time": 19.021756250000003,
          "velocity": 0.9133858267716536
        },
        {
          "duration": 0.05434787500000127,
          "durationTicks": 120,
          "midi": 71,
          "name": "B4",
          "ticks": 42240,
          "time": 19.130452000000002,
          "velocity": 0.6535433070866141
        },
        {
          "duration": 0.05434787500000127,
          "durationTicks": 120,
          "midi": 59,
          "name": "B3",
          "ticks": 42240,
          "time": 19.130452000000002,
          "velocity": 0.9133858267716536
        },
        {
          "duration": 0.054347874999997714,
          "durationTicks": 120,
          "midi": 71,
          "name": "B4",
          "ticks": 42600,
          "time": 19.293495625000002,
          "velocity": 0.6535433070866141
        },
        {
          "duration": 0.054347874999997714,
          "durationTicks": 120,
          "midi": 59,
          "name": "B3",
          "ticks": 42600,
          "time": 19.293495625000002,
          "velocity": 0.9133858267716536
        },
        {
          "duration": 0.054347874999997714,
          "durationTicks": 120,
          "midi": 71,
          "name": "B4",
          "ticks": 42960,
          "time": 19.456539250000002,
          "velocity": 0.6535433070866141
        },
        {
          "duration": 0.054347874999997714,
          "durationTicks": 120,
          "midi": 59,
          "name": "B3",
          "ticks": 42960,
          "time": 19.456539250000002,
          "velocity": 0.9133858267716536
        },
        {
          "duration": 0.05434787500000127,
          "durationTicks": 120,
          "midi": 74,
          "name": "D5",
          "ticks": 43200,
          "time": 19.565235,
          "velocity": 0.6535433070866141
        },
        {
          "duration": 0.05434787500000127,
          "durationTicks": 120,
          "midi": 62,
          "name": "D4",
          "ticks": 43200,
          "time": 19.565235,
          "velocity": 0.9133858267716536
        },
        {
          "duration": 0.054347874999997714,
          "durationTicks": 120,
          "midi": 74,
          "name": "D5",
          "ticks": 43680,
          "time": 19.782626500000003,
          "velocity": 0.6535433070866141
        },
        {
          "duration": 0.054347874999997714,
          "durationTicks": 120,
          "midi": 62,
          "name": "D4",
          "ticks": 43680,
          "time": 19.782626500000003,
          "velocity": 0.9133858267716536
        },
        {
          "duration": 0.05434787500000127,
          "durationTicks": 120,
          "midi": 72,
          "name": "C5",
          "ticks": 44160,
          "time": 20.000018,
          "velocity": 0.6535433070866141
        },
        {
          "duration": 0.05434787500000127,
          "durationTicks": 120,
          "midi": 60,
          "name": "C4",
          "ticks": 44160,
          "time": 20.000018,
          "velocity": 0.9133858267716536
        },
        {
          "duration": 0.054347874999997714,
          "durationTicks": 120,
          "midi": 72,
          "name": "C5",
          "ticks": 44640,
          "time": 20.217409500000002,
          "velocity": 0.6535433070866141
        },
        {
          "duration": 0.054347874999997714,
          "durationTicks": 120,
          "midi": 60,
          "name": "C4",
          "ticks": 44640,
          "time": 20.217409500000002,
          "velocity": 0.9133858267716536
        },
        {
          "duration": 0.05434787500000127,
          "durationTicks": 120,
          "midi": 74,
          "name": "D5",
          "ticks": 44880,
          "time": 20.32610525,
          "velocity": 0.6535433070866141
        },
        {
          "duration": 0.05434787500000127,
          "durationTicks": 120,
          "midi": 62,
          "name": "D4",
          "ticks": 44880,
          "time": 20.32610525,
          "velocity": 0.9133858267716536
        },
        {
          "duration": 0.05434787500000127,
          "durationTicks": 120,
          "midi": 72,
          "name": "C5",
          "ticks": 45120,
          "time": 20.434801,
          "velocity": 0.6535433070866141
        },
        {
          "duration": 0.05434787500000127,
          "durationTicks": 120,
          "midi": 60,
          "name": "C4",
          "ticks": 45120,
          "time": 20.434801,
          "velocity": 0.9133858267716536
        },
        {
          "duration": 0.054347874999997714,
          "durationTicks": 120,
          "midi": 72,
          "name": "C5",
          "ticks": 45360,
          "time": 20.543496750000003,
          "velocity": 0.6535433070866141
        },
        {
          "duration": 0.054347874999997714,
          "durationTicks": 120,
          "midi": 60,
          "name": "C4",
          "ticks": 45360,
          "time": 20.543496750000003,
          "velocity": 0.9133858267716536
        },
        {
          "duration": 0.05434787500000127,
          "durationTicks": 120,
          "midi": 74,
          "name": "D5",
          "ticks": 45480,
          "time": 20.597844625,
          "velocity": 0.6535433070866141
        },
        {
          "duration": 0.05434787500000127,
          "durationTicks": 120,
          "midi": 62,
          "name": "D4",
          "ticks": 45480,
          "time": 20.597844625,
          "velocity": 0.9133858267716536
        },
        {
          "duration": 0.05434787500000127,
          "durationTicks": 120,
          "midi": 72,
          "name": "C5",
          "ticks": 45600,
          "time": 20.6521925,
          "velocity": 0.6535433070866141
        },
        {
          "duration": 0.05434787500000127,
          "durationTicks": 120,
          "midi": 60,
          "name": "C4",
          "ticks": 45600,
          "time": 20.6521925,
          "velocity": 0.9133858267716536
        },
        {
          "duration": 0.05434787500000127,
          "durationTicks": 120,
          "midi": 74,
          "name": "D5",
          "ticks": 45840,
          "time": 20.76088825,
          "velocity": 0.6535433070866141
        },
        {
          "duration": 0.05434787500000127,
          "durationTicks": 120,
          "midi": 62,
          "name": "D4",
          "ticks": 45840,
          "time": 20.76088825,
          "velocity": 0.9133858267716536
        },
        {
          "duration": 0.054347874999997714,
          "durationTicks": 120,
          "midi": 72,
          "name": "C5",
          "ticks": 46080,
          "time": 20.869584000000003,
          "velocity": 0.6535433070866141
        },
        {
          "duration": 0.054347874999997714,
          "durationTicks": 120,
          "midi": 60,
          "name": "C4",
          "ticks": 46080,
          "time": 20.869584000000003,
          "velocity": 0.9133858267716536
        },
        {
          "duration": 0.05434787500000127,
          "durationTicks": 120,
          "midi": 72,
          "name": "C5",
          "ticks": 46560,
          "time": 21.0869755,
          "velocity": 0.6535433070866141
        },
        {
          "duration": 0.05434787500000127,
          "durationTicks": 120,
          "midi": 60,
          "name": "C4",
          "ticks": 46560,
          "time": 21.0869755,
          "velocity": 0.9133858267716536
        },
        {
          "duration": 0.05434787500000127,
          "durationTicks": 120,
          "midi": 72,
          "name": "C5",
          "ticks": 46800,
          "time": 21.19567125,
          "velocity": 0.6535433070866141
        },
        {
          "duration": 0.05434787500000127,
          "durationTicks": 120,
          "midi": 60,
          "name": "C4",
          "ticks": 46800,
          "time": 21.19567125,
          "velocity": 0.9133858267716536
        },
        {
          "duration": 0.05434787500000127,
          "durationTicks": 120,
          "midi": 72,
          "name": "C5",
          "ticks": 46920,
          "time": 21.250019125,
          "velocity": 0.6535433070866141
        },
        {
          "duration": 0.05434787500000127,
          "durationTicks": 120,
          "midi": 60,
          "name": "C4",
          "ticks": 46920,
          "time": 21.250019125,
          "velocity": 0.9133858267716536
        },
        {
          "duration": 0.054347874999997714,
          "durationTicks": 120,
          "midi": 72,
          "name": "C5",
          "ticks": 47040,
          "time": 21.304367000000003,
          "velocity": 0.6535433070866141
        },
        {
          "duration": 0.054347874999997714,
          "durationTicks": 120,
          "midi": 60,
          "name": "C4",
          "ticks": 47040,
          "time": 21.304367000000003,
          "velocity": 0.9133858267716536
        },
        {
          "duration": 0.05434787500000127,
          "durationTicks": 120,
          "midi": 74,
          "name": "D5",
          "ticks": 47520,
          "time": 21.5217585,
          "velocity": 0.6535433070866141
        },
        {
          "duration": 0.05434787500000127,
          "durationTicks": 120,
          "midi": 62,
          "name": "D4",
          "ticks": 47520,
          "time": 21.5217585,
          "velocity": 0.9133858267716536
        },
        {
          "duration": 0.054347874999997714,
          "durationTicks": 120,
          "midi": 72,
          "name": "C5",
          "ticks": 48000,
          "time": 21.739150000000002,
          "velocity": 0.6535433070866141
        },
        {
          "duration": 0.054347874999997714,
          "durationTicks": 120,
          "midi": 60,
          "name": "C4",
          "ticks": 48000,
          "time": 21.739150000000002,
          "velocity": 0.9133858267716536
        },
        {
          "duration": 0.05434787500000127,
          "durationTicks": 120,
          "midi": 72,
          "name": "C5",
          "ticks": 48960,
          "time": 22.173933,
          "velocity": 0.6535433070866141
        },
        {
          "duration": 0.05434787500000127,
          "durationTicks": 120,
          "midi": 60,
          "name": "C4",
          "ticks": 48960,
          "time": 22.173933,
          "velocity": 0.9133858267716536
        },
        {
          "duration": 0.054347874999997714,
          "durationTicks": 120,
          "midi": 71,
          "name": "B4",
          "ticks": 49440,
          "time": 22.391324500000003,
          "velocity": 0.6535433070866141
        },
        {
          "duration": 0.054347874999997714,
          "durationTicks": 120,
          "midi": 59,
          "name": "B3",
          "ticks": 49440,
          "time": 22.391324500000003,
          "velocity": 0.9133858267716536
        },
        {
          "duration": 0.05434787500000127,
          "durationTicks": 120,
          "midi": 72,
          "name": "C5",
          "ticks": 49920,
          "time": 22.608716,
          "velocity": 0.6535433070866141
        },
        {
          "duration": 0.05434787500000127,
          "durationTicks": 120,
          "midi": 60,
          "name": "C4",
          "ticks": 49920,
          "time": 22.608716,
          "velocity": 0.9133858267716536
        },
        {
          "duration": 0.05434787500000127,
          "durationTicks": 120,
          "midi": 72,
          "name": "C5",
          "ticks": 50640,
          "time": 22.93480325,
          "velocity": 0.6535433070866141
        },
        {
          "duration": 0.05434787500000127,
          "durationTicks": 120,
          "midi": 60,
          "name": "C4",
          "ticks": 50640,
          "time": 22.93480325,
          "velocity": 0.9133858267716536
        },
        {
          "duration": 0.054347874999997714,
          "durationTicks": 120,
          "midi": 74,
          "name": "D5",
          "ticks": 51120,
          "time": 23.152194750000003,
          "velocity": 0.6535433070866141
        },
        {
          "duration": 0.054347874999997714,
          "durationTicks": 120,
          "midi": 62,
          "name": "D4",
          "ticks": 51120,
          "time": 23.152194750000003,
          "velocity": 0.9133858267716536
        },
        {
          "duration": 0.054347874999997714,
          "durationTicks": 120,
          "midi": 74,
          "name": "D5",
          "ticks": 51480,
          "time": 23.315238375000003,
          "velocity": 0.6535433070866141
        },
        {
          "duration": 0.054347874999997714,
          "durationTicks": 120,
          "midi": 62,
          "name": "D4",
          "ticks": 51480,
          "time": 23.315238375000003,
          "velocity": 0.9133858267716536
        },
        {
          "duration": 0.05434787500000127,
          "durationTicks": 120,
          "midi": 74,
          "name": "D5",
          "ticks": 51840,
          "time": 23.478282,
          "velocity": 0.6535433070866141
        },
        {
          "duration": 0.05434787500000127,
          "durationTicks": 120,
          "midi": 62,
          "name": "D4",
          "ticks": 51840,
          "time": 23.478282,
          "velocity": 0.9133858267716536
        },
        {
          "duration": 0.05434787500000127,
          "durationTicks": 120,
          "midi": 71,
          "name": "B4",
          "ticks": 52320,
          "time": 23.6956735,
          "velocity": 0.6535433070866141
        },
        {
          "duration": 0.05434787500000127,
          "durationTicks": 120,
          "midi": 59,
          "name": "B3",
          "ticks": 52320,
          "time": 23.6956735,
          "velocity": 0.9133858267716536
        },
        {
          "duration": 0.054347874999997714,
          "durationTicks": 120,
          "midi": 71,
          "name": "B4",
          "ticks": 52800,
          "time": 23.913065000000003,
          "velocity": 0.6535433070866141
        },
        {
          "duration": 0.054347874999997714,
          "durationTicks": 120,
          "midi": 59,
          "name": "B3",
          "ticks": 52800,
          "time": 23.913065000000003,
          "velocity": 0.9133858267716536
        },
        {
          "duration": 0.05434787500000127,
          "durationTicks": 120,
          "midi": 71,
          "name": "B4",
          "ticks": 53040,
          "time": 24.021760750000002,
          "velocity": 0.6535433070866141
        },
        {
          "duration": 0.05434787500000127,
          "durationTicks": 120,
          "midi": 59,
          "name": "B3",
          "ticks": 53040,
          "time": 24.021760750000002,
          "velocity": 0.9133858267716536
        },
        {
          "duration": 0.05434787500000127,
          "durationTicks": 120,
          "midi": 72,
          "name": "C5",
          "ticks": 53280,
          "time": 24.1304565,
          "velocity": 0.6535433070866141
        },
        {
          "duration": 0.05434787500000127,
          "durationTicks": 120,
          "midi": 60,
          "name": "C4",
          "ticks": 53280,
          "time": 24.1304565,
          "velocity": 0.9133858267716536
        },
        {
          "duration": 0.05434787500000127,
          "durationTicks": 120,
          "midi": 71,
          "name": "B4",
          "ticks": 53520,
          "time": 24.23915225,
          "velocity": 0.6535433070866141
        },
        {
          "duration": 0.05434787500000127,
          "durationTicks": 120,
          "midi": 59,
          "name": "B3",
          "ticks": 53520,
          "time": 24.23915225,
          "velocity": 0.9133858267716536
        },
        {
          "duration": 0.054347874999997714,
          "durationTicks": 120,
          "midi": 72,
          "name": "C5",
          "ticks": 53760,
          "time": 24.347848000000003,
          "velocity": 0.6535433070866141
        },
        {
          "duration": 0.054347874999997714,
          "durationTicks": 120,
          "midi": 60,
          "name": "C4",
          "ticks": 53760,
          "time": 24.347848000000003,
          "velocity": 0.9133858267716536
        },
        {
          "duration": 0.05434787500000127,
          "durationTicks": 120,
          "midi": 74,
          "name": "D5",
          "ticks": 53880,
          "time": 24.402195875,
          "velocity": 0.6535433070866141
        },
        {
          "duration": 0.05434787500000127,
          "durationTicks": 120,
          "midi": 62,
          "name": "D4",
          "ticks": 53880,
          "time": 24.402195875,
          "velocity": 0.9133858267716536
        },
        {
          "duration": 0.05434787500000127,
          "durationTicks": 120,
          "midi": 72,
          "name": "C5",
          "ticks": 54000,
          "time": 24.45654375,
          "velocity": 0.6535433070866141
        },
        {
          "duration": 0.05434787500000127,
          "durationTicks": 120,
          "midi": 60,
          "name": "C4",
          "ticks": 54000,
          "time": 24.45654375,
          "velocity": 0.9133858267716536
        },
        {
          "duration": 0.054347874999997714,
          "durationTicks": 120,
          "midi": 74,
          "name": "D5",
          "ticks": 54120,
          "time": 24.510891625000003,
          "velocity": 0.6535433070866141
        },
        {
          "duration": 0.054347874999997714,
          "durationTicks": 120,
          "midi": 62,
          "name": "D4",
          "ticks": 54120,
          "time": 24.510891625000003,
          "velocity": 0.9133858267716536
        },
        {
          "duration": 0.05434787500000127,
          "durationTicks": 120,
          "midi": 72,
          "name": "C5",
          "ticks": 54240,
          "time": 24.5652395,
          "velocity": 0.6535433070866141
        },
        {
          "duration": 0.05434787500000127,
          "durationTicks": 120,
          "midi": 60,
          "name": "C4",
          "ticks": 54240,
          "time": 24.5652395,
          "velocity": 0.9133858267716536
        },
        {
          "duration": 0.05434787500000127,
          "durationTicks": 120,
          "midi": 71,
          "name": "B4",
          "ticks": 54720,
          "time": 24.782631000000002,
          "velocity": 0.6535433070866141
        },
        {
          "duration": 0.05434787500000127,
          "durationTicks": 120,
          "midi": 59,
          "name": "B3",
          "ticks": 54720,
          "time": 24.782631000000002,
          "velocity": 0.9133858267716536
        },
        {
          "duration": 0.05434787500000127,
          "durationTicks": 120,
          "midi": 71,
          "name": "B4",
          "ticks": 55200,
          "time": 25.0000225,
          "velocity": 0.6535433070866141
        },
        {
          "duration": 0.05434787500000127,
          "durationTicks": 120,
          "midi": 59,
          "name": "B3",
          "ticks": 55200,
          "time": 25.0000225,
          "velocity": 0.9133858267716536
        },
        {
          "duration": 0.05434787500000127,
          "durationTicks": 120,
          "midi": 72,
          "name": "C5",
          "ticks": 55680,
          "time": 25.217414,
          "velocity": 0.6535433070866141
        },
        {
          "duration": 0.05434787500000127,
          "durationTicks": 120,
          "midi": 60,
          "name": "C4",
          "ticks": 55680,
          "time": 25.217414,
          "velocity": 0.9133858267716536
        },
        {
          "duration": 0.05434787500000127,
          "durationTicks": 120,
          "midi": 72,
          "name": "C5",
          "ticks": 55920,
          "time": 25.32610975,
          "velocity": 0.6535433070866141
        },
        {
          "duration": 0.05434787500000127,
          "durationTicks": 120,
          "midi": 60,
          "name": "C4",
          "ticks": 55920,
          "time": 25.32610975,
          "velocity": 0.9133858267716536
        },
        {
          "duration": 0.05434787500000127,
          "durationTicks": 120,
          "midi": 72,
          "name": "C5",
          "ticks": 56400,
          "time": 25.543501250000002,
          "velocity": 0.6535433070866141
        },
        {
          "duration": 0.05434787500000127,
          "durationTicks": 120,
          "midi": 60,
          "name": "C4",
          "ticks": 56400,
          "time": 25.543501250000002,
          "velocity": 0.9133858267716536
        },
        {
          "duration": 0.05434787500000127,
          "durationTicks": 120,
          "midi": 72,
          "name": "C5",
          "ticks": 56640,
          "time": 25.652197,
          "velocity": 0.6535433070866141
        },
        {
          "duration": 0.05434787500000127,
          "durationTicks": 120,
          "midi": 60,
          "name": "C4",
          "ticks": 56640,
          "time": 25.652197,
          "velocity": 0.9133858267716536
        },
        {
          "duration": 0.054347874999997714,
          "durationTicks": 120,
          "midi": 74,
          "name": "D5",
          "ticks": 56880,
          "time": 25.760892750000004,
          "velocity": 0.6535433070866141
        },
        {
          "duration": 0.054347874999997714,
          "durationTicks": 120,
          "midi": 62,
          "name": "D4",
          "ticks": 56880,
          "time": 25.760892750000004,
          "velocity": 0.9133858267716536
        },
        {
          "duration": 0.054347874999997714,
          "durationTicks": 120,
          "midi": 74,
          "name": "D5",
          "ticks": 57120,
          "time": 25.869588500000003,
          "velocity": 0.6535433070866141
        },
        {
          "duration": 0.054347874999997714,
          "durationTicks": 120,
          "midi": 62,
          "name": "D4",
          "ticks": 57120,
          "time": 25.869588500000003,
          "velocity": 0.9133858267716536
        },
        {
          "duration": 0.05434787500000127,
          "durationTicks": 120,
          "midi": 74,
          "name": "D5",
          "ticks": 57360,
          "time": 25.97828425,
          "velocity": 0.6535433070866141
        },
        {
          "duration": 0.05434787500000127,
          "durationTicks": 120,
          "midi": 62,
          "name": "D4",
          "ticks": 57360,
          "time": 25.97828425,
          "velocity": 0.9133858267716536
        },
        {
          "duration": 0.05434787500000127,
          "durationTicks": 120,
          "midi": 71,
          "name": "B4",
          "ticks": 57600,
          "time": 26.08698,
          "velocity": 0.6535433070866141
        },
        {
          "duration": 0.05434787500000127,
          "durationTicks": 120,
          "midi": 59,
          "name": "B3",
          "ticks": 57600,
          "time": 26.08698,
          "velocity": 0.9133858267716536
        },
        {
          "duration": 0.05434787500000127,
          "durationTicks": 120,
          "midi": 71,
          "name": "B4",
          "ticks": 57960,
          "time": 26.250023625,
          "velocity": 0.6535433070866141
        },
        {
          "duration": 0.05434787500000127,
          "durationTicks": 120,
          "midi": 59,
          "name": "B3",
          "ticks": 57960,
          "time": 26.250023625,
          "velocity": 0.9133858267716536
        },
        {
          "duration": 0.05434787500000127,
          "durationTicks": 120,
          "midi": 71,
          "name": "B4",
          "ticks": 58320,
          "time": 26.41306725,
          "velocity": 0.6535433070866141
        },
        {
          "duration": 0.05434787500000127,
          "durationTicks": 120,
          "midi": 59,
          "name": "B3",
          "ticks": 58320,
          "time": 26.41306725,
          "velocity": 0.9133858267716536
        },
        {
          "duration": 0.054347874999997714,
          "durationTicks": 120,
          "midi": 74,
          "name": "D5",
          "ticks": 58560,
          "time": 26.521763000000004,
          "velocity": 0.6535433070866141
        },
        {
          "duration": 0.054347874999997714,
          "durationTicks": 120,
          "midi": 62,
          "name": "D4",
          "ticks": 58560,
          "time": 26.521763000000004,
          "velocity": 0.9133858267716536
        },
        {
          "duration": 0.05434787500000127,
          "durationTicks": 120,
          "midi": 74,
          "name": "D5",
          "ticks": 59040,
          "time": 26.7391545,
          "velocity": 0.6535433070866141
        },
        {
          "duration": 0.05434787500000127,
          "durationTicks": 120,
          "midi": 62,
          "name": "D4",
          "ticks": 59040,
          "time": 26.7391545,
          "velocity": 0.9133858267716536
        },
        {
          "duration": 0.054347874999997714,
          "durationTicks": 120,
          "midi": 72,
          "name": "C5",
          "ticks": 59520,
          "time": 26.956546000000003,
          "velocity": 0.6535433070866141
        },
        {
          "duration": 0.054347874999997714,
          "durationTicks": 120,
          "midi": 60,
          "name": "C4",
          "ticks": 59520,
          "time": 26.956546000000003,
          "velocity": 0.9133858267716536
        },
        {
          "duration": 0.05434787500000127,
          "durationTicks": 120,
          "midi": 72,
          "name": "C5",
          "ticks": 60000,
          "time": 27.1739375,
          "velocity": 0.6535433070866141
        },
        {
          "duration": 0.05434787500000127,
          "durationTicks": 120,
          "midi": 60,
          "name": "C4",
          "ticks": 60000,
          "time": 27.1739375,
          "velocity": 0.9133858267716536
        },
        {
          "duration": 0.054347874999997714,
          "durationTicks": 120,
          "midi": 74,
          "name": "D5",
          "ticks": 60240,
          "time": 27.282633250000003,
          "velocity": 0.6535433070866141
        },
        {
          "duration": 0.054347874999997714,
          "durationTicks": 120,
          "midi": 62,
          "name": "D4",
          "ticks": 60240,
          "time": 27.282633250000003,
          "velocity": 0.9133858267716536
        },
        {
          "duration": 0.054347874999997714,
          "durationTicks": 120,
          "midi": 72,
          "name": "C5",
          "ticks": 60480,
          "time": 27.391329000000002,
          "velocity": 0.6535433070866141
        },
        {
          "duration": 0.054347874999997714,
          "durationTicks": 120,
          "midi": 60,
          "name": "C4",
          "ticks": 60480,
          "time": 27.391329000000002,
          "velocity": 0.9133858267716536
        },
        {
          "duration": 0.05434787500000127,
          "durationTicks": 120,
          "midi": 72,
          "name": "C5",
          "ticks": 60720,
          "time": 27.50002475,
          "velocity": 0.6535433070866141
        },
        {
          "duration": 0.05434787500000127,
          "durationTicks": 120,
          "midi": 60,
          "name": "C4",
          "ticks": 60720,
          "time": 27.50002475,
          "velocity": 0.9133858267716536
        },
        {
          "duration": 0.054347874999997714,
          "durationTicks": 120,
          "midi": 74,
          "name": "D5",
          "ticks": 60840,
          "time": 27.554372625000003,
          "velocity": 0.6535433070866141
        },
        {
          "duration": 0.054347874999997714,
          "durationTicks": 120,
          "midi": 62,
          "name": "D4",
          "ticks": 60840,
          "time": 27.554372625000003,
          "velocity": 0.9133858267716536
        },
        {
          "duration": 0.05434787500000127,
          "durationTicks": 120,
          "midi": 72,
          "name": "C5",
          "ticks": 60960,
          "time": 27.6087205,
          "velocity": 0.6535433070866141
        },
        {
          "duration": 0.05434787500000127,
          "durationTicks": 120,
          "midi": 60,
          "name": "C4",
          "ticks": 60960,
          "time": 27.6087205,
          "velocity": 0.9133858267716536
        },
        {
          "duration": 0.054347874999997714,
          "durationTicks": 120,
          "midi": 74,
          "name": "D5",
          "ticks": 61200,
          "time": 27.717416250000003,
          "velocity": 0.6535433070866141
        },
        {
          "duration": 0.054347874999997714,
          "durationTicks": 120,
          "midi": 62,
          "name": "D4",
          "ticks": 61200,
          "time": 27.717416250000003,
          "velocity": 0.9133858267716536
        },
        {
          "duration": 0.10869575000000253,
          "durationTicks": 240,
          "midi": 72,
          "name": "C5",
          "ticks": 61680,
          "time": 27.93480775,
          "velocity": 0.8976377952755905
        },
        {
          "duration": 0.10869574999999898,
          "durationTicks": 240,
          "midi": 72,
          "name": "C5",
          "ticks": 62160,
          "time": 28.152199250000002,
          "velocity": 0.8976377952755905
        },
        {
          "duration": 0.10869575000000253,
          "durationTicks": 240,
          "midi": 72,
          "name": "C5",
          "ticks": 62640,
          "time": 28.36959075,
          "velocity": 0.8976377952755905
        },
        {
          "duration": 0.10869574999999898,
          "durationTicks": 240,
          "midi": 72,
          "name": "C5",
          "ticks": 63120,
          "time": 28.586982250000002,
          "velocity": 0.8976377952755905
        },
        {
          "duration": 0.10869574999999898,
          "durationTicks": 240,
          "midi": 84,
          "name": "C6",
          "ticks": 63600,
          "time": 28.804373750000003,
          "velocity": 0.8976377952755905
        },
        {
          "duration": 0.10869574999999898,
          "durationTicks": 240,
          "midi": 83,
          "name": "B5",
          "ticks": 63840,
          "time": 28.913069500000002,
          "velocity": 0.8976377952755905
        },
        {
          "duration": 0.10869574999999898,
          "durationTicks": 240,
          "midi": 82,
          "name": "A#5",
          "ticks": 64080,
          "time": 29.02176525,
          "velocity": 0.8976377952755905
        },
        {
          "duration": 0.10869575000000253,
          "durationTicks": 240,
          "midi": 81,
          "name": "A5",
          "ticks": 64320,
          "time": 29.130461,
          "velocity": 0.8976377952755905
        },
        {
          "duration": 0.10869574999999898,
          "durationTicks": 240,
          "midi": 80,
          "name": "G#5",
          "ticks": 64560,
          "time": 29.239156750000003,
          "velocity": 0.8976377952755905
        },
        {
          "duration": 0.10869574999999898,
          "durationTicks": 240,
          "midi": 79,
          "name": "G5",
          "ticks": 64800,
          "time": 29.347852500000002,
          "velocity": 0.8976377952755905
        },
        {
          "duration": 0.10869575000000253,
          "durationTicks": 240,
          "midi": 78,
          "name": "F#5",
          "ticks": 65040,
          "time": 29.45654825,
          "velocity": 0.8976377952755905
        },
        {
          "duration": 0.10869574999999898,
          "durationTicks": 240,
          "midi": 72,
          "name": "C5",
          "ticks": 65280,
          "time": 29.565244000000003,
          "velocity": 0.8976377952755905
        },
        {
          "duration": 0.10869575000000253,
          "durationTicks": 240,
          "midi": 72,
          "name": "C5",
          "ticks": 66000,
          "time": 29.89133125,
          "velocity": 0.8976377952755905
        },
        {
          "duration": 0.10869575000000253,
          "durationTicks": 240,
          "midi": 72,
          "name": "C5",
          "ticks": 66720,
          "time": 30.2174185,
          "velocity": 0.8976377952755905
        },
        {
          "duration": 0.10869575000000253,
          "durationTicks": 240,
          "midi": 72,
          "name": "C5",
          "ticks": 67440,
          "time": 30.54350575,
          "velocity": 0.8976377952755905
        },
        {
          "duration": 0.10869574999999898,
          "durationTicks": 240,
          "midi": 72,
          "name": "C5",
          "ticks": 68160,
          "time": 30.869593000000002,
          "velocity": 0.8976377952755905
        },
        {
          "duration": 0.10869574999999898,
          "durationTicks": 240,
          "midi": 72,
          "name": "C5",
          "ticks": 68640,
          "time": 31.086984500000003,
          "velocity": 0.8976377952755905
        },
        {
          "duration": 0.10869574999999898,
          "durationTicks": 240,
          "midi": 72,
          "name": "C5",
          "ticks": 69360,
          "time": 31.413071750000004,
          "velocity": 0.8976377952755905
        },
        {
          "duration": 0.10869574999999898,
          "durationTicks": 240,
          "midi": 72,
          "name": "C5",
          "ticks": 69840,
          "time": 31.630463250000002,
          "velocity": 0.8976377952755905
        },
        {
          "duration": 0.10869574999999898,
          "durationTicks": 240,
          "midi": 72,
          "name": "C5",
          "ticks": 70320,
          "time": 31.847854750000003,
          "velocity": 0.8976377952755905
        },
        {
          "duration": 0.10869575000000253,
          "durationTicks": 240,
          "midi": 72,
          "name": "C5",
          "ticks": 70800,
          "time": 32.06524625,
          "velocity": 0.8976377952755905
        },
        {
          "duration": 0.10869575000000253,
          "durationTicks": 240,
          "midi": 78,
          "name": "F#5",
          "ticks": 71280,
          "time": 32.28263775,
          "velocity": 0.8976377952755905
        },
        {
          "duration": 0.10869575000000253,
          "durationTicks": 240,
          "midi": 79,
          "name": "G5",
          "ticks": 71520,
          "time": 32.3913335,
          "velocity": 0.8976377952755905
        },
        {
          "duration": 0.10869574999999543,
          "durationTicks": 240,
          "midi": 80,
          "name": "G#5",
          "ticks": 71760,
          "time": 32.500029250000004,
          "velocity": 0.8976377952755905
        },
        {
          "duration": 0.10869575000000253,
          "durationTicks": 240,
          "midi": 81,
          "name": "A5",
          "ticks": 72000,
          "time": 32.608725,
          "velocity": 0.8976377952755905
        },
        {
          "duration": 0.10869575000000253,
          "durationTicks": 240,
          "midi": 82,
          "name": "A#5",
          "ticks": 72240,
          "time": 32.71742075,
          "velocity": 0.8976377952755905
        },
        {
          "duration": 0.10869574999999543,
          "durationTicks": 240,
          "midi": 83,
          "name": "B5",
          "ticks": 72480,
          "time": 32.826116500000005,
          "velocity": 0.8976377952755905
        },
        {
          "duration": 0.10869575000000253,
          "durationTicks": 240,
          "midi": 84,
          "name": "C6",
          "ticks": 72720,
          "time": 32.93481225,
          "velocity": 1
        },
        {
          "duration": 0.10054356874999826,
          "durationTicks": 222,
          "midi": 72,
          "name": "C5",
          "ticks": 72960,
          "time": 33.043508,
          "velocity": 0.8976377952755905
        },
        {
          "duration": 0.10054356874999826,
          "durationTicks": 222,
          "midi": 72,
          "name": "C5",
          "ticks": 73280,
          "time": 33.18843566666667,
          "velocity": 0.8976377952755905
        },
        {
          "duration": 0.10054356874999115,
          "durationTicks": 222,
          "midi": 72,
          "name": "C5",
          "ticks": 73600,
          "time": 33.33336333333334,
          "velocity": 0.8976377952755905
        },
        {
          "duration": 0.10054356874999826,
          "durationTicks": 222,
          "midi": 84,
          "name": "C6",
          "ticks": 73920,
          "time": 33.478291000000006,
          "velocity": 0.8976377952755905
        },
        {
          "duration": 0.10054356875000536,
          "durationTicks": 222,
          "midi": 84,
          "name": "C6",
          "ticks": 74240,
          "time": 33.623218666666666,
          "velocity": 0.8976377952755905
        },
        {
          "duration": 0.10054356874999115,
          "durationTicks": 222,
          "midi": 84,
          "name": "C6",
          "ticks": 74560,
          "time": 33.76814633333334,
          "velocity": 0.8976377952755905
        },
        {
          "duration": 0.10054356875000536,
          "durationTicks": 222,
          "midi": 72,
          "name": "C5",
          "ticks": 74880,
          "time": 33.913074,
          "velocity": 0.8976377952755905
        },
        {
          "duration": 0.10054356874999826,
          "durationTicks": 222,
          "midi": 72,
          "name": "C5",
          "ticks": 75200,
          "time": 34.05800166666667,
          "velocity": 0.8976377952755905
        },
        {
          "duration": 0.10054356874999826,
          "durationTicks": 222,
          "midi": 72,
          "name": "C5",
          "ticks": 75520,
          "time": 34.20292933333334,
          "velocity": 0.8976377952755905
        },
        {
          "duration": 0.10054356874999826,
          "durationTicks": 222,
          "midi": 84,
          "name": "C6",
          "ticks": 75840,
          "time": 34.347857000000005,
          "velocity": 0.8976377952755905
        },
        {
          "duration": 0.10054356875000536,
          "durationTicks": 222,
          "midi": 84,
          "name": "C6",
          "ticks": 76160,
          "time": 34.492784666666665,
          "velocity": 0.8976377952755905
        },
        {
          "duration": 0.10054356874999115,
          "durationTicks": 222,
          "midi": 84,
          "name": "C6",
          "ticks": 76480,
          "time": 34.63771233333334,
          "velocity": 0.8976377952755905
        },
        {
          "duration": 0.054347874999997714,
          "durationTicks": 120,
          "midi": 72,
          "name": "C5",
          "ticks": 98880,
          "time": 44.782649000000006,
          "velocity": 0.6535433070866141
        },
        {
          "duration": 0.054347874999997714,
          "durationTicks": 120,
          "midi": 60,
          "name": "C4",
          "ticks": 98880,
          "time": 44.782649000000006,
          "velocity": 0.9133858267716536
        },
        {
          "duration": 0.05434787500000482,
          "durationTicks": 120,
          "midi": 72,
          "name": "C5",
          "ticks": 99120,
          "time": 44.89134475,
          "velocity": 0.6535433070866141
        },
        {
          "duration": 0.05434787500000482,
          "durationTicks": 120,
          "midi": 60,
          "name": "C4",
          "ticks": 99120,
          "time": 44.89134475,
          "velocity": 0.9133858267716536
        },
        {
          "duration": 0.054347874999997714,
          "durationTicks": 120,
          "midi": 74,
          "name": "D5",
          "ticks": 99240,
          "time": 44.94569262500001,
          "velocity": 0.6535433070866141
        },
        {
          "duration": 0.054347874999997714,
          "durationTicks": 120,
          "midi": 62,
          "name": "D4",
          "ticks": 99240,
          "time": 44.94569262500001,
          "velocity": 0.9133858267716536
        },
        {
          "duration": 0.054347874999997714,
          "durationTicks": 120,
          "midi": 72,
          "name": "C5",
          "ticks": 99360,
          "time": 45.000040500000004,
          "velocity": 0.6535433070866141
        },
        {
          "duration": 0.054347874999997714,
          "durationTicks": 120,
          "midi": 60,
          "name": "C4",
          "ticks": 99360,
          "time": 45.000040500000004,
          "velocity": 0.9133858267716536
        },
        {
          "duration": 0.05434787500000482,
          "durationTicks": 120,
          "midi": 74,
          "name": "D5",
          "ticks": 99600,
          "time": 45.10873625,
          "velocity": 0.6535433070866141
        },
        {
          "duration": 0.05434787500000482,
          "durationTicks": 120,
          "midi": 62,
          "name": "D4",
          "ticks": 99600,
          "time": 45.10873625,
          "velocity": 0.9133858267716536
        },
        {
          "duration": 0.054347874999997714,
          "durationTicks": 120,
          "midi": 72,
          "name": "C5",
          "ticks": 99840,
          "time": 45.217432,
          "velocity": 0.6535433070866141
        },
        {
          "duration": 0.054347874999997714,
          "durationTicks": 120,
          "midi": 60,
          "name": "C4",
          "ticks": 99840,
          "time": 45.217432,
          "velocity": 0.9133858267716536
        },
        {
          "duration": 0.05434787500000482,
          "durationTicks": 120,
          "midi": 72,
          "name": "C5",
          "ticks": 100320,
          "time": 45.4348235,
          "velocity": 0.6535433070866141
        },
        {
          "duration": 0.05434787500000482,
          "durationTicks": 120,
          "midi": 60,
          "name": "C4",
          "ticks": 100320,
          "time": 45.4348235,
          "velocity": 0.9133858267716536
        },
        {
          "duration": 0.054347874999997714,
          "durationTicks": 120,
          "midi": 72,
          "name": "C5",
          "ticks": 100560,
          "time": 45.54351925,
          "velocity": 0.6535433070866141
        },
        {
          "duration": 0.054347874999997714,
          "durationTicks": 120,
          "midi": 60,
          "name": "C4",
          "ticks": 100560,
          "time": 45.54351925,
          "velocity": 0.9133858267716536
        },
        {
          "duration": 0.05434787500000482,
          "durationTicks": 120,
          "midi": 72,
          "name": "C5",
          "ticks": 100680,
          "time": 45.597867125,
          "velocity": 0.6535433070866141
        },
        {
          "duration": 0.05434787500000482,
          "durationTicks": 120,
          "midi": 60,
          "name": "C4",
          "ticks": 100680,
          "time": 45.597867125,
          "velocity": 0.9133858267716536
        },
        {
          "duration": 0.054347874999997714,
          "durationTicks": 120,
          "midi": 72,
          "name": "C5",
          "ticks": 100800,
          "time": 45.652215000000005,
          "velocity": 0.6535433070866141
        },
        {
          "duration": 0.054347874999997714,
          "durationTicks": 120,
          "midi": 60,
          "name": "C4",
          "ticks": 100800,
          "time": 45.652215000000005,
          "velocity": 0.9133858267716536
        },
        {
          "duration": 0.054347874999997714,
          "durationTicks": 120,
          "midi": 74,
          "name": "D5",
          "ticks": 101280,
          "time": 45.8696065,
          "velocity": 0.6535433070866141
        },
        {
          "duration": 0.054347874999997714,
          "durationTicks": 120,
          "midi": 62,
          "name": "D4",
          "ticks": 101280,
          "time": 45.8696065,
          "velocity": 0.9133858267716536
        },
        {
          "duration": 0.05434787500000482,
          "durationTicks": 120,
          "midi": 72,
          "name": "C5",
          "ticks": 101760,
          "time": 46.086998,
          "velocity": 0.6535433070866141
        },
        {
          "duration": 0.05434787500000482,
          "durationTicks": 120,
          "midi": 60,
          "name": "C4",
          "ticks": 101760,
          "time": 46.086998,
          "velocity": 0.9133858267716536
        },
        {
          "duration": 0.054347874999997714,
          "durationTicks": 120,
          "midi": 72,
          "name": "C5",
          "ticks": 102720,
          "time": 46.521781000000004,
          "velocity": 0.6535433070866141
        },
        {
          "duration": 0.054347874999997714,
          "durationTicks": 120,
          "midi": 60,
          "name": "C4",
          "ticks": 102720,
          "time": 46.521781000000004,
          "velocity": 0.9133858267716536
        },
        {
          "duration": 0.054347874999997714,
          "durationTicks": 120,
          "midi": 71,
          "name": "B4",
          "ticks": 103200,
          "time": 46.7391725,
          "velocity": 0.6535433070866141
        },
        {
          "duration": 0.054347874999997714,
          "durationTicks": 120,
          "midi": 59,
          "name": "B3",
          "ticks": 103200,
          "time": 46.7391725,
          "velocity": 0.9133858267716536
        },
        {
          "duration": 0.05434787500000482,
          "durationTicks": 120,
          "midi": 72,
          "name": "C5",
          "ticks": 103680,
          "time": 46.956564,
          "velocity": 0.6535433070866141
        },
        {
          "duration": 0.05434787500000482,
          "durationTicks": 120,
          "midi": 60,
          "name": "C4",
          "ticks": 103680,
          "time": 46.956564,
          "velocity": 0.9133858267716536
        },
        {
          "duration": 0.05434787500000482,
          "durationTicks": 120,
          "midi": 72,
          "name": "C5",
          "ticks": 104400,
          "time": 47.28265125,
          "velocity": 0.6535433070866141
        },
        {
          "duration": 0.05434787500000482,
          "durationTicks": 120,
          "midi": 60,
          "name": "C4",
          "ticks": 104400,
          "time": 47.28265125,
          "velocity": 0.9133858267716536
        },
        {
          "duration": 0.054347874999997714,
          "durationTicks": 120,
          "midi": 74,
          "name": "D5",
          "ticks": 104880,
          "time": 47.500042750000006,
          "velocity": 0.6535433070866141
        },
        {
          "duration": 0.054347874999997714,
          "durationTicks": 120,
          "midi": 62,
          "name": "D4",
          "ticks": 104880,
          "time": 47.500042750000006,
          "velocity": 0.9133858267716536
        },
        {
          "duration": 0.054347874999997714,
          "durationTicks": 120,
          "midi": 74,
          "name": "D5",
          "ticks": 105240,
          "time": 47.663086375000006,
          "velocity": 0.6535433070866141
        },
        {
          "duration": 0.054347874999997714,
          "durationTicks": 120,
          "midi": 62,
          "name": "D4",
          "ticks": 105240,
          "time": 47.663086375000006,
          "velocity": 0.9133858267716536
        },
        {
          "duration": 0.054347874999997714,
          "durationTicks": 120,
          "midi": 74,
          "name": "D5",
          "ticks": 105600,
          "time": 47.826130000000006,
          "velocity": 0.6535433070866141
        },
        {
          "duration": 0.054347874999997714,
          "durationTicks": 120,
          "midi": 62,
          "name": "D4",
          "ticks": 105600,
          "time": 47.826130000000006,
          "velocity": 0.9133858267716536
        },
        {
          "duration": 0.054347874999997714,
          "durationTicks": 120,
          "midi": 71,
          "name": "B4",
          "ticks": 106080,
          "time": 48.043521500000004,
          "velocity": 0.6535433070866141
        },
        {
          "duration": 0.054347874999997714,
          "durationTicks": 120,
          "midi": 59,
          "name": "B3",
          "ticks": 106080,
          "time": 48.043521500000004,
          "velocity": 0.9133858267716536
        },
        {
          "duration": 0.054347874999997714,
          "durationTicks": 120,
          "midi": 71,
          "name": "B4",
          "ticks": 106560,
          "time": 48.260913,
          "velocity": 0.6535433070866141
        },
        {
          "duration": 0.054347874999997714,
          "durationTicks": 120,
          "midi": 59,
          "name": "B3",
          "ticks": 106560,
          "time": 48.260913,
          "velocity": 0.9133858267716536
        },
        {
          "duration": 0.054347874999997714,
          "durationTicks": 120,
          "midi": 71,
          "name": "B4",
          "ticks": 106800,
          "time": 48.369608750000005,
          "velocity": 0.6535433070866141
        },
        {
          "duration": 0.054347874999997714,
          "durationTicks": 120,
          "midi": 59,
          "name": "B3",
          "ticks": 106800,
          "time": 48.369608750000005,
          "velocity": 0.9133858267716536
        },
        {
          "duration": 0.05434787500000482,
          "durationTicks": 120,
          "midi": 72,
          "name": "C5",
          "ticks": 107040,
          "time": 48.4783045,
          "velocity": 0.6535433070866141
        },
        {
          "duration": 0.05434787500000482,
          "durationTicks": 120,
          "midi": 60,
          "name": "C4",
          "ticks": 107040,
          "time": 48.4783045,
          "velocity": 0.9133858267716536
        },
        {
          "duration": 0.054347874999997714,
          "durationTicks": 120,
          "midi": 71,
          "name": "B4",
          "ticks": 107280,
          "time": 48.58700025,
          "velocity": 0.6535433070866141
        },
        {
          "duration": 0.054347874999997714,
          "durationTicks": 120,
          "midi": 59,
          "name": "B3",
          "ticks": 107280,
          "time": 48.58700025,
          "velocity": 0.9133858267716536
        },
        {
          "duration": 0.05434787500000482,
          "durationTicks": 120,
          "midi": 74,
          "name": "D5",
          "ticks": 115200,
          "time": 52.17396,
          "velocity": 0.7559055118110236
        },
        {
          "duration": 0.054347874999997714,
          "durationTicks": 120,
          "midi": 74,
          "name": "D5",
          "ticks": 115440,
          "time": 52.28265575,
          "velocity": 0.7559055118110236
        },
        {
          "duration": 0.054347874999997714,
          "durationTicks": 120,
          "midi": 74,
          "name": "D5",
          "ticks": 115680,
          "time": 52.391351500000006,
          "velocity": 0.7559055118110236
        },
        {
          "duration": 0.05434787500000482,
          "durationTicks": 120,
          "midi": 74,
          "name": "D5",
          "ticks": 115920,
          "time": 52.50004725,
          "velocity": 0.7559055118110236
        },
        {
          "duration": 0.054347874999997714,
          "durationTicks": 120,
          "midi": 74,
          "name": "D5",
          "ticks": 116160,
          "time": 52.608743000000004,
          "velocity": 0.7559055118110236
        },
        {
          "duration": 0.054347874999997714,
          "durationTicks": 120,
          "midi": 74,
          "name": "D5",
          "ticks": 116400,
          "time": 52.71743875000001,
          "velocity": 0.7559055118110236
        },
        {
          "duration": 0.05434787500000482,
          "durationTicks": 120,
          "midi": 74,
          "name": "D5",
          "ticks": 116640,
          "time": 52.8261345,
          "velocity": 0.7559055118110236
        },
        {
          "duration": 0.054347874999997714,
          "durationTicks": 120,
          "midi": 74,
          "name": "D5",
          "ticks": 116880,
          "time": 52.934830250000005,
          "velocity": 0.7559055118110236
        },
        {
          "duration": 0.054347874999997714,
          "durationTicks": 120,
          "midi": 74,
          "name": "D5",
          "ticks": 117120,
          "time": 53.04352600000001,
          "velocity": 0.7559055118110236
        },
        {
          "duration": 0.054347874999997714,
          "durationTicks": 120,
          "midi": 74,
          "name": "D5",
          "ticks": 117360,
          "time": 53.15222175,
          "velocity": 0.7559055118110236
        },
        {
          "duration": 0.054347874999997714,
          "durationTicks": 120,
          "midi": 74,
          "name": "D5",
          "ticks": 117600,
          "time": 53.260917500000005,
          "velocity": 0.7559055118110236
        },
        {
          "duration": 0.05434787500000482,
          "durationTicks": 120,
          "midi": 74,
          "name": "D5",
          "ticks": 117840,
          "time": 53.36961325,
          "velocity": 0.7559055118110236
        },
        {
          "duration": 0.054347874999997714,
          "durationTicks": 120,
          "midi": 74,
          "name": "D5",
          "ticks": 118080,
          "time": 53.478309,
          "velocity": 0.7559055118110236
        },
        {
          "duration": 0.054347874999997714,
          "durationTicks": 120,
          "midi": 74,
          "name": "D5",
          "ticks": 118320,
          "time": 53.587004750000006,
          "velocity": 0.7559055118110236
        },
        {
          "duration": 0.05434787500000482,
          "durationTicks": 120,
          "midi": 74,
          "name": "D5",
          "ticks": 118560,
          "time": 53.6957005,
          "velocity": 0.7559055118110236
        },
        {
          "duration": 0.054347874999997714,
          "durationTicks": 120,
          "midi": 74,
          "name": "D5",
          "ticks": 118800,
          "time": 53.80439625,
          "velocity": 0.7559055118110236
        },
        {
          "duration": 0.054347874999997714,
          "durationTicks": 120,
          "midi": 62,
          "name": "D4",
          "ticks": 119040,
          "time": 53.913092000000006,
          "velocity": 0.7559055118110236
        },
        {
          "duration": 0.05434787500000482,
          "durationTicks": 120,
          "midi": 62,
          "name": "D4",
          "ticks": 119280,
          "time": 54.02178775,
          "velocity": 0.7559055118110236
        },
        {
          "duration": 0.054347874999997714,
          "durationTicks": 120,
          "midi": 62,
          "name": "D4",
          "ticks": 119520,
          "time": 54.130483500000004,
          "velocity": 0.7559055118110236
        },
        {
          "duration": 0.054347874999997714,
          "durationTicks": 120,
          "midi": 62,
          "name": "D4",
          "ticks": 119760,
          "time": 54.23917925000001,
          "velocity": 0.7559055118110236
        },
        {
          "duration": 0.05434787500000482,
          "durationTicks": 120,
          "midi": 62,
          "name": "D4",
          "ticks": 120000,
          "time": 54.347875,
          "velocity": 0.7559055118110236
        },
        {
          "duration": 0.054347874999997714,
          "durationTicks": 120,
          "midi": 62,
          "name": "D4",
          "ticks": 120240,
          "time": 54.456570750000004,
          "velocity": 0.7559055118110236
        },
        {
          "duration": 0.054347874999997714,
          "durationTicks": 120,
          "midi": 62,
          "name": "D4",
          "ticks": 120480,
          "time": 54.56526650000001,
          "velocity": 0.7559055118110236
        },
        {
          "duration": 0.05434787500000482,
          "durationTicks": 120,
          "midi": 62,
          "name": "D4",
          "ticks": 120720,
          "time": 54.67396225,
          "velocity": 0.7559055118110236
        },
        {
          "duration": 0.054347874999997714,
          "durationTicks": 120,
          "midi": 62,
          "name": "D4",
          "ticks": 120960,
          "time": 54.782658000000005,
          "velocity": 0.7559055118110236
        },
        {
          "duration": 0.05434787500000482,
          "durationTicks": 120,
          "midi": 62,
          "name": "D4",
          "ticks": 121200,
          "time": 54.89135375,
          "velocity": 0.7559055118110236
        },
        {
          "duration": 0.054347874999997714,
          "durationTicks": 120,
          "midi": 62,
          "name": "D4",
          "ticks": 121440,
          "time": 55.0000495,
          "velocity": 0.7559055118110236
        },
        {
          "duration": 0.054347874999997714,
          "durationTicks": 120,
          "midi": 62,
          "name": "D4",
          "ticks": 121680,
          "time": 55.108745250000005,
          "velocity": 0.7559055118110236
        },
        {
          "duration": 0.05434787500000482,
          "durationTicks": 120,
          "midi": 62,
          "name": "D4",
          "ticks": 121920,
          "time": 55.217441,
          "velocity": 0.7559055118110236
        },
        {
          "duration": 0.054347874999997714,
          "durationTicks": 120,
          "midi": 62,
          "name": "D4",
          "ticks": 122160,
          "time": 55.32613675,
          "velocity": 0.7559055118110236
        },
        {
          "duration": 0.054347874999997714,
          "durationTicks": 120,
          "midi": 62,
          "name": "D4",
          "ticks": 122400,
          "time": 55.434832500000006,
          "velocity": 0.7559055118110236
        },
        {
          "duration": 0.05434787500000482,
          "durationTicks": 120,
          "midi": 62,
          "name": "D4",
          "ticks": 122640,
          "time": 55.54352825,
          "velocity": 0.7559055118110236
        }
      ],
      "endOfTrackTicks": 122760
    }
  ]
}